<?xml version="1.0" encoding="utf-8"?>
<!DOCTYPE svg PUBLIC "-//W3C//DTD SVG 1.0//EN"
"http://www.w3.org/TR/2000/CR-SVG-20001102/DTD/svg-20001102.dtd">
<svg xmlns="http://www.w3.org/2000/svg" width="400" height="400">
<g>
<path fill="none" stroke="#000000" stroke-width="3" d="M 217.355,81.391 213.697,80.509 209.564,79.942 205.106,79.708 200.480,79.812 195.848,80.250 191.371,81.007 187.207,82.058 183.503,83.368 174.271,87.210 165.038,91.052 155.806,94.894 146.573,98.737 137.341,102.579 128.109,106.421 118.876,110.263 109.644,114.105 100.411,117.948 91.179,121.790 81.947,125.632 80.577,126.202 74.714,128.869 68.868,131.680 64.004,134.835 56.720,141.403 51.997,145.758 48.951,150.296 43.435,158.637 42.334,160.302 38.932,169.705 38.354,171.303 36.645,177.526 35.513,187.461 35.272,189.574 36.466,199.502 36.697,201.417 37.584,208.282 41.048,217.663 41.703,219.437 45.350,225.835 50.923,234.138 51.710,235.310 59.133,242.011 60.006,242.798 65.397,247.645 73.636,253.313 81.874,258.981 90.113,264.649 98.351,270.317 106.590,275.985 114.829,281.652 123.067,287.320 131.306,292.988 139.544,298.656 147.783,304.324 156.021,309.992 157.267,310.849 166.032,315.662 167.050,316.221 174.231,319.432 183.707,322.628 183.926,322.702 193.781,324.395 194.666,324.547 204.662,324.823 205.962,324.859 215.901,323.763 217.282,323.611 226.974,321.150 228.090,320.867 237.316,317.010 237.887,316.771 246.240,311.537 253.528,306.761 261.481,300.699 269.434,294.637 277.387,288.575 285.340,282.513 293.293,276.450 301.246,270.388 309.199,264.326 317.152,258.264 325.105,252.202 333.058,246.139 341.011,240.077 348.631,234.269 354.303,228.793 360.762,221.159 361.406,220.398 365.149,213.813 369.514,204.816 370.282,203.234 372.382,193.457 372.807,191.480 373.912,184.349 373.671,174.352 373.618,172.162 371.916,165.436 369.365,155.767 368.865,153.869 364.115,145.069 363.073,143.137 359.490,137.981 352.779,130.567 351.739,129.418 347.014,125.494 338.653,120.008 338.167,119.690 333.270,117.020 327.339,114.817 317.775,111.895 308.212,108.973 298.648,106.052 289.084,103.130 279.521,100.208 269.957,97.287 260.394,94.365 250.830,91.443 241.266,88.522 231.703,85.600 225.104,83.584 217.355,81.391 " />
</g>
<g>
<path fill="none" stroke="#000000" stroke-width="1" d="M 183.503,83.368 191.338,82.579 199.910,84.172 208.845,81.557 217.355,81.391 225.104,83.584 " />
<path fill="none" stroke="#000000" stroke-width="1" d="M 65.397,247.645 57.976,240.943 57.682,240.677 52.224,232.298 51.689,231.475 48.363,222.045 47.764,220.347 46.511,210.425 46.171,207.727 46.826,197.749 47.061,194.167 49.435,184.453 50.449,180.300 54.372,171.101 56.206,166.800 61.533,158.337 64.055,154.331 70.663,146.825 73.599,143.490 81.366,137.192 84.352,134.770 93.127,129.973 95.780,128.523 87.681,126.041 80.577,126.202 74.714,128.869 " />
<path fill="none" stroke="#000000" stroke-width="1" d="M 157.267,310.849 150.013,303.920 145.148,295.183 144.638,294.268 142.114,284.592 141.487,282.188 141.010,272.199 140.815,268.138 142.061,258.216 142.750,252.733 145.462,243.108 147.267,236.707 151.265,227.541 154.178,220.863 159.344,212.301 163.141,206.009 169.405,198.215 173.686,192.887 181.004,186.072 185.257,182.112 193.585,176.576 197.266,174.129 206.069,169.385 214.872,164.641 223.675,159.897 232.478,155.152 241.280,150.408 250.083,145.664 258.886,140.920 267.689,136.176 276.492,131.431 285.295,126.687 294.098,121.943 303.284,116.993 293.753,113.966 284.221,110.940 274.690,107.914 265.159,104.888 255.628,101.862 246.097,98.836 236.566,95.810 227.035,92.784 217.504,89.758 207.972,86.732 199.910,84.172 190.710,88.091 181.509,92.009 172.309,95.928 163.109,99.846 153.909,103.765 144.708,107.683 135.508,111.602 126.308,115.520 117.108,119.439 107.907,123.357 98.707,127.276 95.780,128.523 104.901,132.622 114.022,136.721 123.143,140.820 132.265,144.919 141.386,149.017 150.507,153.116 159.628,157.215 168.750,161.314 177.871,165.413 186.992,169.512 196.114,173.611 197.266,174.129 205.964,179.062 209.173,180.881 216.975,187.137 221.144,190.480 228.022,197.739 232.579,202.549 238.510,210.600 242.879,216.532 247.811,225.232 251.497,231.732 255.332,240.967 257.988,247.362 260.561,257.025 262.051,262.619 263.103,272.563 263.546,276.752 262.700,286.716 262.495,289.121 259.282,298.591 259.064,299.233 253.528,306.761 246.240,311.537 " />
<path fill="none" stroke="#000000" stroke-width="1" d="M 327.339,114.817 320.195,112.834 312.074,113.526 303.284,116.993 312.466,120.952 315.002,122.046 323.321,127.596 326.454,129.687 333.756,136.520 337.076,139.626 343.245,147.497 346.323,151.423 351.243,160.129 353.719,164.511 357.249,173.867 358.897,178.235 360.856,188.041 361.629,191.913 361.788,201.912 361.836,204.886 359.947,214.706 359.589,216.566 355.454,225.671 355.088,226.477 348.708,234.176 348.631,234.269 " />
</g>
<g>
<path fill="none" stroke="#000000" stroke-width="1" stroke-dasharray="5,2" d="M 157.267,310.849 165.999,314.920 175.788,316.134 185.682,314.685 186.215,314.607 195.557,311.041 196.884,310.535 205.448,305.373 207.433,304.176 198.968,298.852 190.504,293.528 182.039,288.203 173.574,282.879 165.110,277.555 156.645,272.230 148.180,266.906 139.716,261.581 131.251,256.257 122.786,250.933 115.737,246.498 124.418,241.535 133.099,236.572 141.781,231.609 150.462,226.645 159.143,221.682 167.825,216.719 176.506,211.756 185.187,206.793 193.869,201.829 202.550,196.866 207.549,194.009 199.567,189.337 191.889,183.049 185.072,175.732 184.743,175.380 178.858,167.295 178.339,166.582 173.404,157.885 172.862,156.930 168.918,147.741 168.477,146.712 165.597,137.136 165.326,136.233 163.625,126.379 163.527,125.812 163.172,115.780 164.319,106.481 166.984,98.261 171.140,91.461 176.696,86.402 183.503,83.368 " />
<path fill="none" stroke="#000000" stroke-width="1" stroke-dasharray="5,2" d="M 225.104,83.584 231.815,87.949 237.278,94.224 241.346,102.102 243.933,111.242 244.993,121.185 245.004,121.291 244.598,131.282 244.573,131.895 242.857,141.746 242.690,142.705 239.777,152.272 239.439,153.384 235.406,162.535 234.933,163.608 229.824,172.204 229.313,173.066 223.152,180.943 222.743,181.465 215.545,188.406 215.417,188.530 207.549,194.009 216.594,198.271 225.640,202.534 234.686,206.797 243.732,211.059 252.778,215.322 261.824,219.585 270.870,223.847 279.916,228.110 288.962,232.373 298.008,236.635 300.459,237.790 308.115,231.357 308.385,231.130 315.100,223.720 315.930,222.805 321.751,214.674 322.876,213.103 327.835,204.419 329.025,202.334 333.127,193.214 334.204,190.821 337.421,181.353 338.255,178.900 340.524,169.161 341.045,166.922 342.252,156.995 342.463,155.252 342.428,145.252 342.425,144.266 340.878,134.351 337.813,125.893 333.267,119.267 327.339,114.817 " />
<path fill="none" stroke="#000000" stroke-width="1" stroke-dasharray="5,2" d="M 74.714,128.869 70.261,133.809 67.313,140.720 65.899,149.258 65.998,159.059 67.428,168.956 67.544,169.754 70.041,179.437 70.438,180.978 73.836,190.383 74.558,192.380 78.756,201.456 79.758,203.620 84.703,212.312 85.877,214.375 91.551,222.609 92.737,224.331 99.151,232.003 100.145,233.191 107.337,240.138 107.888,240.670 115.737,246.498 106.662,250.700 105.420,251.275 95.722,253.714 94.853,253.932 84.859,254.266 84.396,254.281 74.608,252.235 74.440,252.200 65.509,247.702 65.397,247.645 " />
<path fill="none" stroke="#000000" stroke-width="1" stroke-dasharray="5,2" d="M 348.631,234.269 340.582,239.724 331.341,242.750 321.315,243.360 311.447,241.742 310.897,241.651 301.518,238.182 300.459,237.790 292.319,243.599 284.179,249.408 276.039,255.217 267.899,261.026 259.759,266.835 251.620,272.643 243.480,278.452 235.340,284.261 227.200,290.070 219.060,295.879 210.920,301.688 207.433,304.176 216.278,308.841 217.809,309.648 227.349,312.648 227.984,312.848 237.591,313.536 246.240,311.537 " />
</g>
</svg>
