<?xml version="1.0" encoding="utf-8"?>
<!DOCTYPE svg PUBLIC "-//W3C//DTD SVG 1.0//EN"
"http://www.w3.org/TR/2000/CR-SVG-20001102/DTD/svg-20001102.dtd">
<svg xmlns="http://www.w3.org/2000/svg" width="400" height="400">
<g>
<path fill="none" stroke="#000000" stroke-width="1" d="M 183.686,81.361 176.691,88.508 171.629,93.680 177.713,85.744 183.796,77.807 189.879,69.870 194.383,63.994 200.466,56.057 201.561,54.630 207.644,46.693 213.727,38.756 219.810,30.819 222.018,27.939 " />
<path fill="none" stroke="#000000" stroke-width="1" d="M 194.490,59.317 194.624,59.507 195.026,60.076 193.061,63.896 192.522,64.714 188.466,70.868 182.631,78.989 181.257,80.901 175.240,88.888 171.629,93.680 165.489,101.573 159.980,108.653 153.743,116.469 147.505,124.285 146.895,125.049 140.572,132.796 134.249,140.544 133.105,141.946 126.698,149.625 120.292,157.303 119.409,158.362 112.913,165.965 106.590,173.366 99.987,180.877 95.328,186.176 91.541,190.318 89.212,192.866 86.142,196.223 79.360,203.181 75.122,206.951 73.409,207.626 " />
<path fill="none" stroke="#000000" stroke-width="1" d="M 54.706,227.138 61.877,220.169 69.049,213.201 76.220,206.232 79.360,203.181 86.531,196.212 88.815,193.993 91.199,191.676 98.371,184.707 105.542,177.738 112.046,171.418 118.129,163.481 124.212,155.545 130.296,147.608 136.379,139.671 142.462,131.734 148.546,123.797 154.629,115.861 160.712,107.924 166.796,99.987 171.629,93.680 166.533,102.284 162.442,109.191 159.413,118.721 156.667,127.360 155.701,137.313 154.715,147.465 155.702,157.416 156.689,167.368 156.814,168.624 159.600,178.228 162.386,187.832 162.968,189.839 167.391,198.808 171.813,207.777 172.944,210.071 178.843,218.146 184.742,226.221 186.273,228.316 193.486,235.242 200.699,242.168 202.284,243.690 210.089,249.941 217.895,256.192 225.700,262.444 233.505,268.695 241.310,274.946 249.116,281.197 256.921,287.449 264.726,293.700 271.523,299.143 279.328,305.395 286.335,311.006 " />
<path fill="none" stroke="#000000" stroke-width="1" d="M 112.046,171.418 119.851,177.669 127.656,183.921 135.461,190.172 143.267,196.423 151.072,202.674 158.877,208.925 166.683,215.177 174.488,221.428 182.293,227.679 190.098,233.930 197.904,240.182 202.284,243.690 194.213,237.787 186.141,231.883 184.257,230.506 175.714,225.309 167.170,220.113 165.047,218.822 156.082,214.392 147.116,209.963 145.745,209.286 136.388,205.757 127.417,202.373 117.705,199.990 111.003,198.345 101.034,197.554 97.234,197.253 90.326,198.361 87.700,198.782 86.603,198.958 79.360,203.181 " />
<path fill="none" stroke="#000000" stroke-width="1" d="M 292.782,261.254 283.166,264.001 276.112,266.017 266.121,266.425 257.945,266.759 248.112,264.939 239.015,263.256 229.768,259.449 220.521,255.641 220.162,255.493 211.817,249.983 203.471,244.474 202.284,243.690 209.795,250.292 217.306,256.893 218.129,257.617 224.924,264.954 230.988,271.502 236.783,279.652 240.313,284.616 244.576,293.662 245.839,296.343 247.559,306.223 245.679,313.953 " />
</g>
<g>
<path fill="none" stroke="#000000" stroke-width="2" d="M 194.490,59.317 193.546,58.644 " />
<path fill="none" stroke="#000000" stroke-width="2" d="M 79.360,203.181 74.105,211.689 69.371,219.355 65.847,225.258 62.943,233.413 " />
<path fill="none" stroke="#000000" stroke-width="2" d="M 245.679,313.953 242.092,319.179 241.057,320.688 250.835,318.597 260.614,316.506 270.393,314.415 280.172,312.324 286.335,311.006 290.831,302.074 295.328,293.142 299.825,284.210 304.321,275.278 308.818,266.346 313.314,257.414 317.811,248.482 318.600,246.916 318.703,246.856 325.893,239.906 330.632,235.326 337.521,228.078 339.441,226.058 344.816,217.625 348.073,212.515 352.157,203.387 352.337,202.984 " />
<path fill="none" stroke="#000000" stroke-width="2" d="M 292.782,261.254 301.624,256.584 304.196,255.227 312.858,250.229 315.774,248.546 318.600,246.916 " />
<path fill="none" stroke="#000000" stroke-width="2" d="M 71.421,205.745 73.409,207.626 " />
<path fill="none" stroke="#000000" stroke-width="2" d="M 234.631,329.894 235.004,329.507 240.663,321.262 241.057,320.688 " />
<path fill="none" stroke="#000000" stroke-width="2" d="M 237.469,41.785 244.916,48.459 252.041,54.843 242.068,55.577 236.211,56.007 226.675,59.019 221.987,60.499 221.047,60.796 211.534,63.880 208.314,64.924 199.788,70.148 194.060,73.659 186.031,79.620 183.686,81.361 " />
<path fill="none" stroke="#000000" stroke-width="2" d="M 315.081,73.120 306.335,68.272 302.741,66.280 294.425,62.445 284.972,59.181 279.474,57.283 269.571,55.888 264.369,55.155 254.372,54.879 252.321,54.823 252.041,54.843 " />
<path fill="none" stroke="#000000" stroke-width="2" d="M 360.870,162.951 360.888,161.980 360.788,157.532 360.667,152.186 " />
</g>
<g>
<path fill="none" stroke="#000000" stroke-width="3" d="M 222.018,27.939 215.219,35.272 208.419,42.604 201.620,49.937 194.820,57.269 193.546,58.644 185.405,52.837 178.972,48.249 169.850,44.151 161.505,40.403 151.754,38.188 142.778,36.148 132.781,35.918 123.553,35.705 122.419,35.742 112.582,37.540 103.423,39.214 94.167,43.000 85.771,46.434 83.831,47.723 75.573,53.363 69.150,57.749 67.672,59.014 65.836,60.791 63.711,63.015 61.382,65.599 58.946,68.435 56.504,71.408 54.159,74.391 52.007,77.261 50.138,79.899 48.626,82.199 47.527,84.070 46.880,85.445 43.007,94.665 39.702,102.534 37.862,112.364 36.230,121.084 35.900,122.873 36.081,132.872 36.249,142.170 38.425,151.930 40.457,161.046 44.523,170.182 48.319,178.712 54.102,186.871 59.471,194.446 66.737,201.316 71.421,205.745 65.264,213.625 59.107,221.505 54.706,227.138 62.661,233.198 62.943,233.413 59.589,242.831 59.529,242.999 58.223,252.914 57.012,262.112 57.005,267.950 57.821,277.916 58.521,286.458 61.466,296.014 64.119,304.620 65.841,308.993 70.854,317.645 74.823,324.495 77.141,327.970 80.558,331.899 87.619,338.981 90.391,341.761 92.644,343.944 95.331,346.232 98.354,348.543 101.604,350.795 104.967,352.909 108.323,354.810 111.556,356.431 114.547,357.712 123.875,361.316 126.823,362.455 131.999,364.205 136.365,365.151 146.305,366.242 153.670,367.050 158.771,367.201 168.703,366.041 177.263,365.041 182.069,363.578 191.513,360.291 200.445,357.182 208.989,351.985 216.681,347.304 223.938,340.423 230.191,334.494 234.631,329.894 239.215,331.985 248.629,335.358 254.975,337.632 264.896,338.882 271.189,339.675 278.705,339.718 288.651,338.673 293.786,338.133 301.661,335.997 311.016,332.464 313.917,331.369 320.857,328.019 328.186,323.132 335.571,316.897 338.853,313.846 343.609,308.944 347.933,303.554 351.633,297.919 354.631,293.146 358.950,284.801 361.897,276.892 363.374,269.768 365.094,259.917 365.740,256.218 365.689,248.640 364.850,238.675 364.385,233.151 361.262,223.651 359.371,217.899 357.014,210.875 352.337,202.984 353.105,201.268 356.540,191.877 358.303,187.057 359.839,177.176 360.713,171.555 360.870,162.951 364.542,155.658 360.667,152.186 360.569,147.794 358.741,137.962 357.889,133.378 354.617,123.928 352.976,119.193 348.394,110.304 346.010,105.679 340.231,97.518 337.213,93.256 330.339,85.993 326.856,82.313 318.986,76.143 315.248,73.213 315.081,73.120 314.340,72.034 307.476,64.762 306.143,63.350 298.290,57.158 296.459,55.715 287.807,50.699 285.748,49.505 276.464,45.790 274.533,45.018 264.789,42.772 263.356,42.442 255.762,41.658 245.777,41.111 243.102,40.964 237.469,41.785 230.022,35.112 222.576,28.439 222.018,27.939 " />
</g>
</svg>
