<?xml version="1.0" encoding="UTF-8" standalone="no"?>
<!-- Created with Inkscape (http://www.inkscape.org/) -->

<svg
   xmlns:dc="http://purl.org/dc/elements/1.1/"
   xmlns:cc="http://creativecommons.org/ns#"
   xmlns:rdf="http://www.w3.org/1999/02/22-rdf-syntax-ns#"
   xmlns:svg="http://www.w3.org/2000/svg"
   xmlns="http://www.w3.org/2000/svg"
   version="1.1"
   width="400"
   height="400"
   id="svg2">
  <metadata
     id="metadata178">
    <rdf:RDF>
      <cc:Work
         rdf:about="">
        <dc:format>image/svg+xml</dc:format>
        <dc:type
           rdf:resource="http://purl.org/dc/dcmitype/StillImage" />
        <dc:title></dc:title>
      </cc:Work>
    </rdf:RDF>
  </metadata>
  <defs
     id="defs176" />
  <g
     id="g4">
    <path
       d="m 84.759,279.136 -8.496,5.275 -8.496,5.274 -6.256,3.884 -1.032,-9.946 -1.032,-9.947 -1.033,-9.946 -1.032,-9.947 -0.14,-1.351 -1.032,-9.947 -0.728,-7.016 -2.476,-3.667 -3.677,-9.3 -2.563,-6.481 -1.908,-9.817 -1.682,-8.651 -4.439,1.85 -4.516,1.881 8.955,-3.731 -0.302,-9.996 -0.301,-9.995 -0.008,-0.266 1.184,-9.929 1.185,-9.93 0.129,-1.087 1.595,-5.919 -1.032,-9.946 -1.032,-9.947 -1.032,-9.947 -1.033,-9.946 -1.032,-9.947 -0.913,-8.804 9.777,-2.099 9.777,-2.098 9.094,-1.952 9.777,-2.099 9.74,-2.09 3.073,-0.66 0.329,-0.228 1.435,-0.99 9.395,-3.425 3.401,-1.241 9.985,-0.555 2.36,-0.131 2.483,0.262 -0.82,0.176 -5.45,1.17 -9.777,2.098 -9.778,2.099 -2.983,0.641 -0.58,0.124 -2.973,2.052 0.381,5.293 0.113,1.573 0.353,-1.515 0.564,-2.413 4.956,-3.688 0.328,-0.131"
       id="path6"
       style="fill:none;stroke:#aaaaaa;stroke-width:1" />
    <path
       d="m 89.343,89.814 0.028,0.032 -6.777,7.352 -0.353,0.383 -4.359,4.73 -5.355,8.445 -4.962,7.825 -3.964,9.181 -0.13,0.3 -3.964,9.18 -0.136,0.316 -2.594,9.658 -2.593,9.657 -0.361,1.342 -1.203,9.928 -1.204,9.927 -0.157,1.302 0.019,0.737"
       id="path8"
       style="fill:none;stroke:#aaaaaa;stroke-width:1" />
    <path
       d="m 195.473,93.649 -5.426,7.176 -1.176,1.555 -2.8,5.911 -1.542,3.255 -2.085,4.401 -2.287,8.939 -6.147,-4.736 -8.936,-4.489 -6.288,-3.159 -5.404,-2.715 -9.683,-2.499 -9.683,-2.498 -1.156,-0.298 9.944,1.058 9.944,1.058 2.037,0.216 1.886,0.106 -1.103,-2.905 -4.862,-8.111 -1.939,-3.235 -1.005,-1.068"
       id="path10"
       style="fill:none;stroke:#aaaaaa;stroke-width:1" />
    <path
       d="m 161.402,121.078 -0.854,-3.934 -1.762,-4.642 -1.79,-4.715 -0.325,-0.857 9.984,0.56 9.985,0.561 2.831,0.158 6.6,0.082 9.999,0.123 9.377,0.115 9.995,-0.301 9.996,-0.302 5.64,-0.17 9.971,-0.757 9.972,-0.757 3.753,-0.285 9.916,-1.3 9.915,-1.3 0.582,-0.076 9.792,-2.028 6.364,-1.317 9.488,-3.161 0.95,-0.316 0.922,-0.307 6.424,-3.995 1.673,-4.003 0.139,-1.928 0.706,-9.809 0.062,-0.868"
       id="path12"
       style="fill:none;stroke:#aaaaaa;stroke-width:1" />
    <path
       d="m 88.423,77.031 0.326,4.525 0.1,1.392 -7.918,5.467 -6.836,7.298 -5.006,5.344 -5.406,8.412 -4.93,7.673 -3.997,9.167 -3.996,9.166 -0.19,0.435 -2.601,9.656 -1.311,4.865 0.658,6.341 1.032,9.946 1.032,9.947 1.032,9.946 1.032,9.947 0.338,3.257 1.032,9.947 1.033,9.947 1.032,9.946 0.603,5.814 5.596,8.287 0.342,0.506 4.399,3.85 5.637,4.932 9.117,4.108 1.973,0.889 3.132,0.355"
       id="path14"
       style="fill:none;stroke:#aaaaaa;stroke-width:1" />
    <path
       d="m 40.584,91.894 9.908,1.353 9.908,1.352 9.908,1.353 9.908,1.353 2.025,0.276 9.908,1.353 9.908,1.353 9.908,1.352 9.909,1.353 9.908,1.353 1.078,0.147 -9.999,-0.137 -9.441,-0.13 -9.695,2.454 -7.861,1.989 -0.651,0.373"
       id="path16"
       style="fill:none;stroke:#aaaaaa;stroke-width:1" />
    <path
       d="m 216.548,313.873 6.863,-6.53 5.624,-8.269 4.976,-7.316 3.451,-9.386 3.45,-9.386 0.169,-0.459 1.321,-9.912 1.32,-9.913 0.313,-2.35 0.008,-0.241 0.319,-9.995 0.104,-3.242 0.319,-9.995 0.32,-9.995 0.319,-9.995 0.32,-9.994 0.319,-9.995 0.319,-9.995 0.32,-9.995 0.319,-9.995 0.32,-9.995 0.319,-9.995 0.32,-9.995 0.213,-6.693 9.147,-4.041 9.147,-4.042 9.147,-4.042 9.147,-4.041 9.146,-4.042 7.922,-3.5 0.854,-0.377 9.147,-4.042 9.146,-4.042 9.147,-4.041 9.147,-4.042 2.091,-0.924 -0.908,9.959 -0.909,9.958 -0.909,9.959 -0.269,2.95 -0.909,9.959 -0.909,9.958 -0.909,9.959 -0.784,8.593 -0.909,9.959 -0.909,9.958 -0.554,6.072 -0.909,9.959 -0.762,8.351 1.828,-4.238 1.94,-9.81 1.427,-7.21 -0.073,-9.999 -0.058,-8.055 -1.021,-4.987 -1.61,-7.862 -1.102,-5.385 -3.815,-9.244 -3.41,-8.264 -5.47,-8.372 -4.915,-7.522 -3.136,-3.248 -6.945,-7.195 -2.937,-3.042 -6.965,-4.86 -8.003,-5.583 -9.181,-3.964 -4.76,-2.055 -2.204,-0.951 -0.504,-0.101 -9.807,-1.952 -6.212,-1.237 -9.997,0.238 -5.663,0.135 -9.961,-0.885 -9.96,-0.886 -9.961,-0.885 -9.961,-0.886 -9.96,-0.885 -9.961,-0.886 -7.522,-0.668 0.105,5.647"
       id="path18"
       style="fill:none;stroke:#aaaaaa;stroke-width:1" />
    <path
       d="m 98.519,83.294 -7.371,5.186 -1.474,1.038 -0.303,0.328 3.589,3.99 8.477,3.933 9.652,2.614 3.748,1.015 9.856,1.692 8.167,1.402 9.909,1.352 9.908,1.353 4.319,0.59 9.908,1.353 9.908,1.352 7.717,1.054 9.908,1.352 9.908,1.353 9.908,1.353 9.908,1.352 9.909,1.353 9.908,1.353 4.215,0.575"
       id="path20"
       style="fill:none;stroke:#aaaaaa;stroke-width:1" />
    <path
       d="m 341.381,79.061 -9.96,-0.885 -0.99,-0.088 -9.961,-0.886 -8.825,-0.785 -0.326,-0.028 -9.961,-0.886 -9.961,-0.885 -9.961,-0.886 -9.96,-0.885 -1.558,-0.139 -9.961,-0.885 -9.96,-0.886 -0.769,-0.068 -9.96,-0.886 -1.029,-0.091 -0.477,0.011 -0.462,0.119 -9.686,2.484 -4.925,1.263 -0.353,0.184"
       id="path22"
       style="fill:none;stroke:#aaaaaa;stroke-width:1" />
    <path
       d="m 170.953,63.911 -2.482,0.533 -9.778,2.098 -9.777,2.099 -9.777,2.098 -9.777,2.099 -8.152,1.75 0.757,0.08 5.193,0.547"
       id="path24"
       style="fill:none;stroke:#aaaaaa;stroke-width:1" />
    <path
       d="m 118.727,74.326 1.663,0.438 0.423,0.112 2.213,0.582"
       id="path26"
       style="fill:none;stroke:#aaaaaa;stroke-width:1" />
    <path
       d="m 82.546,258.041 8.004,2.564"
       id="path28"
       style="fill:none;stroke:#aaaaaa;stroke-width:1" />
    <path
       d="m 95.864,108.668 -9.299,2.559"
       id="path30"
       style="fill:none;stroke:#aaaaaa;stroke-width:1" />
    <path
       d="m 223.411,307.343 -5.824,4.993"
       id="path32"
       style="fill:none;stroke:#aaaaaa;stroke-width:1" />
    <path
       d="m 313.107,221.997 3.637,-3.461 5.873,-8.094 3.47,-4.783 3.736,-8.664 1.009,-2.34 -0.909,9.959 -0.909,9.959 -0.909,9.958 -0.909,9.959 -0.909,9.958 -0.908,9.959 -0.289,3.16 -0.417,4.566 -2.168,2.517 -0.763,0.886 -6.527,7.576 -6.527,7.576 -6.527,7.577 -6.531,7.58 -6.527,7.577 -0.32,0.371 -6.526,7.576 -6.527,7.576 -0.457,0.531 -0.201,0.232 -6.527,7.577 -1.788,2.075 -6.527,7.577 -6.527,7.576 -6.495,7.54 -6.527,7.576 -0.144,0.166 0.32,-9.994 0.319,-9.995 0.32,-9.995 0.056,-1.761 0.319,-9.995 0.32,-9.994 0.319,-9.995 0.32,-9.995 0.319,-9.995 0.319,-9.995 0.32,-9.995 0.247,-7.734 -0.016,-0.249 -0.641,-9.979 -0.238,-3.715 -0.641,-9.98 -0.014,-0.221 -2.405,-9.707 -2.405,-9.706 -1.362,-5.496 -3.99,-9.169 -3.991,-9.169 -2.61,-5.997 -5.429,-8.398 -5.429,-8.398 -3.629,-5.615 -6.74,-7.388 -6.739,-7.387 -4.095,-4.489 -7.922,-6.103 -5.582,-4.3 -1.475,5.765 -0.184,2.587"
       id="path34"
       style="fill:none;stroke:#aaaaaa;stroke-width:1" />
    <path
       d="m 61.511,293.569 2.161,0.8 8.48,-5.301 8.479,-5.3 5.251,-3.282 8.479,-5.301 8.48,-5.3 8.48,-5.301 6.252,-3.908 8.48,-5.3 8.479,-5.301 8.48,-5.3 8.479,-5.301 8.48,-5.3 8.48,-5.301 3.293,-2.059 9.683,2.5 9.683,2.499 9.682,2.5 9.683,2.499 9.682,2.5 9.683,2.5 6.43,1.659 9.683,2.5 1.828,0.472 9.683,2.5 0.276,0.071 9.683,2.5 9.682,2.499 9.683,2.5 9.683,2.499 9.682,2.5 5.651,1.459 9.682,2.499 0.256,0.066 9.682,2.5 5.445,1.405"
       id="path36"
       style="fill:none;stroke:#aaaaaa;stroke-width:1" />
    <path
       d="m 126.324,315.895 0.498,0.361 9.071,4.208 6.619,3.07 9.379,3.469 9.379,3.47 9.379,3.469 3.048,1.128 9.379,3.469 9.379,3.47 3.181,1.177 8.969,0.31 9.964,-0.844 9.964,-0.844 1.764,-0.149 9.781,-2.08 9.781,-2.081 0.588,-0.125 9.392,-3.436 8.122,-2.971 2.796,-1.606 8.673,-4.978 2.587,-1.486 7.392,-6.735 2.711,-2.47 5.195,-8.545 0.77,-1.266 1.545,-8.035 0.348,-1.808 0.016,-0.082 0.68,-9.45"
       id="path38"
       style="fill:none;stroke:#aaaaaa;stroke-width:1" />
    <path
       d="m 240.537,359.795 -9.378,-3.469 -9.379,-3.469 -9.379,-3.47 -9.379,-3.469 -7.386,-2.732 -9.994,-0.346 -3.004,-0.104 -9.878,-1.554 -9.879,-1.554 -1.182,-0.186 -9.585,-2.851 -9.146,-2.721 -9.024,-4.308 -6.555,-3.129 -8.015,-5.98 -3.777,-2.817 -4.611,-5.765 -3.085,-3.856 -2.613,-7.256 -0.964,-2.677 0.242,-7.029"
       id="path40"
       style="fill:none;stroke:#aaaaaa;stroke-width:1" />
    <path
       d="m 103.637,288.537 0.687,9.545"
       id="path42"
       style="fill:none;stroke:#aaaaaa;stroke-width:1" />
    <path
       d="m 235.947,238.763 7.886,2.803 9.548,2.972 4.569,1.422 0.052,0.023"
       id="path44"
       style="fill:none;stroke:#aaaaaa;stroke-width:1" />
    <path
       d="m 258.193,243.778 -9.883,-1.523 -4.477,-0.689 9.691,2.465 4.547,1.157"
       id="path46"
       style="fill:none;stroke:#aaaaaa;stroke-width:1" />
    <path
       d="m 316.744,218.536 -3.065,2.671"
       id="path48"
       style="fill:none;stroke:#aaaaaa;stroke-width:1" />
    <path
       d="m 222.689,73.769 -4.956,1.364"
       id="path50"
       style="fill:none;stroke:#aaaaaa;stroke-width:1" />
    <path
       d="m 168.226,52.315 0.202,9.998 0.043,2.131 0.105,5.242 0.202,9.998 0.201,9.998 0.067,3.282 0.201,9.998 0.202,9.998 0.201,9.998 0.07,3.466 0.202,9.998 0.166,8.256 0.202,9.998 0.202,9.998 0.201,9.998 0.202,9.998 0.201,9.998 0.202,9.998 0.201,9.998 0.202,9.998 0.043,2.152"
       id="path52"
       style="fill:none;stroke:#aaaaaa;stroke-width:1" />
    <path
       d="m 323.49,95.92 -9.945,-1.048 -2.46,-0.26 -8.382,1.54 -0.731,0.505 -8.226,5.686 -0.319,0.22 -6.499,7.6 -3.279,3.836 -5.153,8.57 -4.63,7.7 -4.099,9.122 -4.099,9.121 -1.016,2.261 -3.217,9.468 -3.217,9.469 -1.623,4.777 -2.416,9.704 -2.417,9.703 -1.53,6.146 -1.629,9.867 -1.629,9.866 -1.004,6.084 -0.788,9.969 -0.099,1.265 -0.617,-0.217 -1.326,-0.465 -7.537,-2.645"
       id="path54"
       style="fill:none;stroke:#aaaaaa;stroke-width:1" />
    <path
       d="m 258.545,239.709 -7.142,-1.071 -3.334,-0.499 -2.986,-1.048 -0.788,9.969 -0.241,3.055 -0.019,0.237 0.192,9.998 0.192,9.998 0.034,1.776 1.438,9.896 1.173,8.079 3.165,9.487 1.339,4.017 5.666,8.24 0.347,0.505 7.108,4.035 4.909,-0.245"
       id="path56"
       style="fill:none;stroke:#aaaaaa;stroke-width:1" />
    <path
       d="m 264.689,316.383 4.765,1.526 1.599,-0.892 7.568,-4.221 0.273,-0.242"
       id="path58"
       style="fill:none;stroke:#aaaaaa;stroke-width:1" />
    <path
       d="m 311.085,94.612 6.242,2.537"
       id="path60"
       style="fill:none;stroke:#aaaaaa;stroke-width:1" />
    <path
       d="m 276.404,320.135 -1.332,-0.427 -5.618,-1.799 -4.987,2.782 -9.423,3.349 -6.891,2.449 -1.331,0.473 -5.27,1.088 -9.793,2.023 -5.247,1.084 -9.967,0.82 -9.966,0.819 -1.937,0.159 -9.994,-0.335 -6.621,-0.223 -5.531,-0.185 -9.885,-1.51 -9.885,-1.511 -1.338,-0.204 -9.607,-2.776 -9.269,-2.677 -9.379,-3.47 -9.378,-3.469 -9.379,-3.47 -3.39,-1.254 -9.379,-3.469 -3.153,-1.166 -9.378,-3.47 -9.379,-3.469 -9.379,-3.47 -6.646,-2.458 -8.479,5.3 -8.48,5.301 -0.415,0.259"
       id="path62"
       style="fill:none;stroke:#aaaaaa;stroke-width:1" />
    <path
       d="m 155.526,92.291 1.253,1.363 5.043,8.635 1.624,2.782 3.453,9.385 1.405,3.819 1.75,8.408"
       id="path64"
       style="fill:none;stroke:#aaaaaa;stroke-width:1" />
    <path
       d="m 172.149,128.309 -0.186,-9.998 -0.185,-9.998 -0.186,-9.998 -0.097,-5.23"
       id="path66"
       style="fill:none;stroke:#aaaaaa;stroke-width:1" />
    <path
       d="m 174.241,129.934 2.438,-9.699 0.618,-2.457 4.243,-9.055 2.185,-4.665 6.002,-7.999 1.84,-2.452"
       id="path68"
       style="fill:none;stroke:#aaaaaa;stroke-width:1" />
    <path
       d="m 236.615,248.501 6.952,1.457 0.452,0.145 0.024,0.008 0.011,0.004 6.843,2.198 6.43,2.066"
       id="path70"
       style="fill:none;stroke:#aaaaaa;stroke-width:1" />
    <path
       d="m 236.03,239.981 7.803,1.585 -7.831,-1.993"
       id="path72"
       style="fill:none;stroke:#aaaaaa;stroke-width:1" />
    <path
       d="m 295.41,290.953 0.584,3.002"
       id="path74"
       style="fill:none;stroke:#aaaaaa;stroke-width:1" />
    <path
       d="m 289.698,86.526 7.665,5.368 0.064,0.044 4.354,4.521 0.068,0.07 0.123,0.128 6.047,6.278"
       id="path76"
       style="fill:none;stroke:#aaaaaa;stroke-width:1" />
    <path
       d="m 304.389,82.256 3.742,2.055 1.662,2.393 1.007,1.45"
       id="path78"
       style="fill:none;stroke:#aaaaaa;stroke-width:1" />
    <path
       d="m 313.207,259.216 9.691,2.465 1.775,0.452"
       id="path80"
       style="fill:none;stroke:#aaaaaa;stroke-width:1" />
  </g>
  <g
     id="g82">
    <path
       d="m 168.226,52.315 -9.834,1.812 -9.835,1.812 -9.834,1.812 -9.835,1.812 -9.834,1.812 -9.834,1.812 -3.512,0.647 -9.834,1.812 -9.834,1.812 -9.835,1.812 -9.834,1.812 -9.835,1.812 -9.834,1.812 -9.834,1.812 -9.835,1.812 -6.948,1.281 1.155,9.933 1.154,9.933 1.154,9.933 1.154,9.933 1.154,9.933 1.154,9.934 1.154,9.933 1.154,9.933 1.154,9.933 1.154,9.933 1.154,9.934 1.154,9.933 0.287,2.475 1.154,9.933 1.155,9.933 1.154,9.933 1.154,9.933 1.154,9.933 1.154,9.934 1.154,9.933 1.154,9.933 1.154,9.933 1.154,9.933 0.536,4.614 9.315,3.639 9.314,3.638 9.315,3.638 9.315,3.638 9.314,3.638 9.315,3.639 9.315,3.638 9.314,3.638 9.315,3.638 5.394,2.107 9.314,3.638 9.315,3.638 9.315,3.639 9.314,3.638 9.315,3.638 9.315,3.638 9.314,3.638 9.315,3.638 9.315,3.639 9.315,3.638 9.314,3.638 8.069,3.152 6.237,-7.817 6.237,-7.816 6.237,-7.817 6.237,-7.816 6.237,-7.817 6.238,-7.816 6.237,-7.817 6.237,-7.816 2.938,-3.682 6.237,-7.816 6.237,-7.817 6.237,-7.816 6.237,-7.817 6.237,-7.816 6.238,-7.816 0.557,-0.699 1.002,-9.95 1.002,-9.949 1.003,-9.95 1.002,-9.949 1.002,-9.95 1.002,-9.95 1.003,-9.949 1.002,-9.95 1.002,-9.95 0.474,-4.708 1.002,-9.949 1.003,-9.95 1.002,-9.95 1.002,-9.949 1.002,-9.95 1.003,-9.95 1.002,-9.949 1.002,-9.95 1.002,-9.95 1.003,-9.949 0.887,-8.809 -9.971,-0.768 -9.97,-0.769 -9.97,-0.768 -9.971,-0.768 -9.97,-0.768 -9.971,-0.769 -9.97,-0.768 -9.971,-0.768 -9.97,-0.768 -9.97,-0.768 -3.304,-0.255 -9.97,-0.768 -9.971,-0.768 -9.97,-0.769 -9.971,-0.768 -9.97,-0.768 -9.971,-0.768 -9.97,-0.769 -9.97,-0.768 -6.276,-0.483"
       id="path84"
       style="fill:none;stroke:#000000;stroke-width:3" />
    <path
       d="m 51.782,199.815 -0.256,-9.996 -0.248,-9.71 1.369,-9.905 1.177,-8.516 3.195,-9.476 2.596,-7.7 5.147,-8.574 3.876,-6.456 7.065,-7.077 5.096,-5.104 8.677,-4.972 5.737,-3.288 9.025,-2.281 9.998,0.169 9.625,0.163 9.672,2.543 9.671,2.543 1.423,0.375 8.915,4.53 7.86,3.995 2.114,9.748 0.159,0.732 0.836,9.964 0.445,5.295 -0.338,9.994 -0.192,5.693 -1.437,9.896 -0.846,5.824 -2.496,9.683 -1.468,5.691 -3.545,9.351 -2.011,5.306 -4.608,8.875 -2.434,4.687 -5.705,8.212 -2.689,3.87 -6.844,7.291 -2.736,2.913 -8.001,5.999 -2.555,1.916 -9.074,4.201 -2.19,1.014 -9.837,1.794 -1.8,0.328 -8.472,-0.959 -6.09,-2.761 -7.478,-6.639 -2.43,-2.156 -5.52,-8.338 -2.769,-4.181 -3.595,-9.331 -2.527,-6.557 -1.841,-9.829 -1.646,-8.789"
       id="path86"
       style="fill:none;stroke:#000000;stroke-width:3" />
    <path
       d="m 142.512,323.534 -9.043,-4.268 -7.145,-3.371 -8.096,-5.87 -3.274,-2.374 -6.351,-7.724 -1.383,-1.683 -2.654,-7.191 0.095,-2.764 3.895,-9.284 6.366,-7.712 0.638,-0.774 7.901,-6.13 1.732,-1.344 8.813,-4.725 2.964,-1.589 9.361,-3.515 4.095,-1.538 9.693,-2.459 5.006,-1.27 9.886,-1.506 5.648,-0.861 9.982,-0.615 6.002,-0.369 9.997,0.252 6.064,0.153 9.936,1.129 5.831,0.662 8.144,1.707 0.524,7.619 -1.27,9.919 -1.27,9.919 -0.344,2.689 -3.407,9.402 -3.407,9.402 -0.248,0.683 -5.602,8.283 -4.004,5.919 -7.605,6.521 -9.054,4.245 -6.457,3.026 -9.839,1.787 -7.019,1.274 -9.985,-0.548 -7.54,-0.414 -9.661,-2.58 -7.915,-2.113"
       id="path88"
       style="fill:none;stroke:#000000;stroke-width:3" />
    <path
       d="m 288.783,303.793 -7.485,6.631 -2.404,2.13 -6.404,3.44 -2.892,0.144 -5.454,-8.381 -0.188,-0.289 -2.944,-9.556 -1.23,-3.992 -1.263,-9.92 -1.042,-8.18 -0.07,-10 -0.07,-10 -0.01,-1.441 0.267,0.086 9.075,4.198 3.457,1.599 8.339,5.519 2.247,1.486 7.103,7.038 1.057,1.048 5.047,8.633 0.203,0.348 1.288,6.619 -0.637,3.25 -5.297,8.481 -0.693,1.109"
       id="path90"
       style="fill:none;stroke:#000000;stroke-width:3" />
    <path
       d="m 249.228,70.869 9.804,1.972 6.898,1.387 9.172,3.983 7.164,3.11 7.432,5.205 -9.831,1.806 -3.979,0.731 -9.933,1.155 -9.934,1.154 -0.725,0.084 -9.977,0.672 -9.978,0.672 -3.963,0.267 -9.996,0.267 -9.997,0.267 -5.885,0.158 -10.027,-0.11 2.396,-3.169 7.608,-6.49 3.768,-3.215 8.868,-4.622 4.223,-2.2 9.687,-2.483 0.911,-0.234 9.997,-0.225 6.297,-0.142"
       id="path92"
       style="fill:none;stroke:#000000;stroke-width:3" />
    <path
       d="m 332.503,176.345 -1.919,9.814 -1.45,7.419 -3.943,9.19 -2.67,6.226 -5.865,8.1 -2.977,4.113 -7.54,6.569 -0.973,0.848 -8.827,4.7 -4.406,2.346 -9.648,2.632 -4.652,1.27 -9.986,0.526 -4.811,0.254 -4.291,-0.643 0.859,-9.939 0.059,-0.692 1.659,-9.862 1.658,-9.861 1.079,-6.413 2.404,-9.707 2.404,-9.707 1.605,-6.48 3.163,-9.487 3.163,-9.486 1.692,-5.075 4.005,-9.163 4.004,-9.163 1.083,-2.477 5.018,-8.65 4.564,-7.868 6.335,-7.737 3.179,-3.885 1.541,-1.122 2.606,2.705 5.469,8.372 5.074,7.768 3.821,9.242 3.527,8.529 2.02,9.794 1.796,8.702 0.093,9.999 0.078,8.299"
       id="path94"
       style="fill:none;stroke:#000000;stroke-width:3" />
    <path
       d="m 114.94,75.934 8.086,-0.476 7.108,1.873 8.492,5.281 1.608,0.999 6.853,7.283 0.675,0.717 -9.949,-0.938 -5.585,-0.527 -9.886,-1.505 -8.287,-1.261 -9.723,-2.338 -3.773,-0.907 -2.04,-0.841 3.729,-2.624 9.369,-3.496 3.323,-1.24"
       id="path96"
       style="fill:none;stroke:#000000;stroke-width:3" />
    <path
       d="m 178.498,133.238 7.023,5.452 6.724,7.402 6.723,7.402 4.454,4.904 5.426,8.4 5.425,8.4 3.944,6.105 4.004,9.164 4.004,9.163 2.849,6.518 2.435,9.699 2.435,9.699 1.507,5.998 0.152,2.22 -1.797,-0.631 -8.705,-4.921 -4.628,-2.616 -7.764,-6.303 -4.27,-3.466 -6.658,-7.462 -3.754,-4.208 -5.415,-8.407 -3.095,-4.805 -4.051,-9.143 -2.318,-5.232 -2.572,-9.664 -1.456,-5.47 -0.983,-9.951 -0.544,-5.508 0.709,-9.975 0.196,-2.764"
       id="path98"
       style="fill:none;stroke:#000000;stroke-width:3" />
  </g>
  <g
     id="g100">
    <path
       d="m 311.707,75.549 -0.388,0.84 -1.266,2.733 -5.664,3.134 -0.784,0.434 -9.035,2.672 -2.398,0.71 -2.474,0.454"
       id="path102"
       style="fill:none;stroke:#000000;stroke-width:2" />
    <path
       d="m 88.423,77.031 3.615,3.59 0.113,0.047 0.251,0.104 3.142,1.295 8.096,-3.212 9.681,-2.503 1.619,-0.418 5.873,-1.058 1.154,-0.208 6.581,-1.186 9.92,-1.258 5.47,-0.693 9.963,-0.856 6.73,-0.578 7.945,-0.411 2.482,-0.128 7.134,-0.369 9.998,-0.209 8.026,-0.167 10,0.085 8.104,0.07 9.993,0.385 7.809,0.301 5.178,0.368 9.975,0.708 1.953,0.139 9.942,1.08 6.048,0.657 7.408,1.154 7.005,1.091 9.763,2.162 2.567,0.569 9.503,3.111 0.192,0.063 2.733,1.5"
       id="path104"
       style="fill:none;stroke:#000000;stroke-width:2" />
    <path
       d="m 90.55,260.605 -4.872,-2.209"
       id="path106"
       style="fill:none;stroke:#000000;stroke-width:2" />
    <path
       d="m 86.565,111.227 8.648,-2.186"
       id="path108"
       style="fill:none;stroke:#000000;stroke-width:2" />
    <path
       d="m 126.324,315.895 -0.903,-0.426 -8.254,-5.646 -7.887,-5.394 -3.992,-3.67 -7.362,-6.769 -3.436,-3.159 -6.396,-7.687 -2.212,-2.658 -1.123,-1.35 -3.358,-4.035 -5.365,-8.438 -5.365,-8.439 -0.348,-0.548 -4.26,-9.047 -0.244,-0.517 -4.288,-9.109 -3.061,-9.519 -3.062,-9.52 -0.132,-0.413 -1.743,-9.847 -1.751,-9.889 -0.275,-9.996 -0.26,-9.485 0.031,-0.225"
       id="path110"
       style="fill:none;stroke:#000000;stroke-width:2" />
    <path
       d="m 296.674,284.505 -1.264,6.448"
       id="path112"
       style="fill:none;stroke:#000000;stroke-width:2" />
    <path
       d="m 217.733,75.133 4.603,-1.18"
       id="path114"
       style="fill:none;stroke:#000000;stroke-width:2" />
    <path
       d="m 276.404,320.135 -1.131,-0.659 -4.22,-2.459 -1.423,-0.83 -0.032,-0.049"
       id="path116"
       style="fill:none;stroke:#000000;stroke-width:2" />
    <path
       d="m 323.49,95.92 -6.163,1.229 0.972,0.394 5.876,6.854 4.017,9.157 0.439,1.002 2.289,9.735 0.731,3.109 1.073,9.942 0.539,4.993 0.002,0.159 0.158,9.999 0.1,6.322 -0.581,9.983 -0.439,7.547 -1.216,9.926 -1.005,8.205 -0.459,2.519 -1.793,9.838 -1.086,5.956 -2.348,9.72 -2.023,8.378 -2.907,9.568 -2.407,7.922 -3.502,9.367 -0.55,1.472 -1.403,3.755 -0.705,1.885 -4.166,9.091 -2.727,5.95 -4.953,8.688 -2.541,4.457 -0.734,0.995 -5.935,8.048 -1.26,1.708 -7.214,6.925 -0.944,0.906 -1.731,0.93"
       id="path118"
       style="fill:none;stroke:#000000;stroke-width:2" />
    <path
       d="M 98.519,83.294 95.544,82.067"
       id="path120"
       style="fill:none;stroke:#000000;stroke-width:2" />
    <path
       d="m 104.566,291.053 -0.929,-2.516"
       id="path122"
       style="fill:none;stroke:#000000;stroke-width:2" />
    <path
       d="m 123.026,75.458 4.134,-0.243"
       id="path124"
       style="fill:none;stroke:#000000;stroke-width:2" />
    <path
       d="m 161.402,121.078 4.146,2.107 4.172,3.239 0.334,0.259 2.095,1.626 2.092,1.625 4.257,3.304"
       id="path126"
       style="fill:none;stroke:#000000;stroke-width:2" />
    <path
       d="m 195.473,93.649 -3.906,-0.042 -10,-0.11 -2.295,-0.025 -7.777,-0.387 -2.449,-0.121 -9.988,-0.497 -3.532,-0.176 -1.174,-0.058 -6.59,-0.622"
       id="path128"
       style="fill:none;stroke:#000000;stroke-width:2" />
    <path
       d="m 217.587,312.336 -1.039,1.537"
       id="path130"
       style="fill:none;stroke:#000000;stroke-width:2" />
    <path
       d="m 235.603,233.764 0.344,4.999 0.055,0.81 0.028,0.408 0.24,3.49 0.345,5.03"
       id="path132"
       style="fill:none;stroke:#000000;stroke-width:2" />
    <path
       d="m 257.327,254.379 -0.004,-0.535 0.417,-4.83 0.262,-3.031 0.069,-0.795 0.122,-1.41 0.352,-4.069"
       id="path134"
       style="fill:none;stroke:#000000;stroke-width:2" />
    <path
       d="m 308.019,102.935 3.398,-2.476 4.028,-2.935 1.882,-0.375"
       id="path136"
       style="fill:none;stroke:#000000;stroke-width:2" />
    <path
       d="m 313.679,221.207 -0.572,0.79"
       id="path138"
       style="fill:none;stroke:#000000;stroke-width:2" />
  </g>
  <g
     id="g140">
    <path
       d="m 311.707,75.549 -2.722,-3.428 -6.554,-3.17 -9.607,-2.775 -0.184,-0.053 -9.814,-1.919 -2.623,-0.513 -9.907,-1.364 -4.621,-0.636 -9.954,-0.955 -6.154,-0.591 -9.98,-0.626 -7.246,-0.455 -9.995,-0.341 -7.929,-0.27 -10,-0.076 -8.226,-0.062 -9.998,0.185 -8.149,0.15 -9.989,0.457 -7.693,0.351 -9.971,0.757 -6.842,0.519 -9.938,1.114 -5.569,0.623 -9.876,1.572 -3.844,0.612 -9.749,2.225 -1.654,0.377 -8.513,2.98 -5.026,3.289 -0.957,3.505"
       id="path142"
       style="fill:none;stroke:#000000;stroke-width:1" />
    <path
       d="m 357.273,66.881 -9.228,3.853 -9.228,3.852 -8.386,3.502 -9.228,3.852 -4.732,1.976 -5.532,2.31 -1.146,0.478 -9.228,3.853 -3.202,1.337 -9.228,3.852 -9.228,3.853 -9.228,3.853 -9.228,3.853 -4.255,1.776 -9.923,-1.238 -9.923,-1.239 -9.923,-1.238 -9.923,-1.239 -9.923,-1.239 -9.923,-1.238 -6.611,-0.825 -9.923,-1.239 -9.923,-1.238 -9.923,-1.239 -9.572,-1.195 -9.923,-1.238 -9.923,-1.239 -7.73,-0.965 -9.923,-1.238 -9.923,-1.239 L 93.361,88.757 91.148,88.48 89.696,88.299 89.23,88.241 79.307,87.002 69.232,85.745 59.309,84.506 49.386,83.268 39.463,82.029 29.54,80.791 20.085,79.611"
       id="path144"
       style="fill:none;stroke:#000000;stroke-width:1" />
    <path
       d="m 127.16,75.215 9.662,2.578 1.609,0.429 8.446,5.353 1.511,0.958 6.77,7.359 0.368,0.399"
       id="path146"
       style="fill:none;stroke:#000000;stroke-width:1" />
    <path
       d="m 174.241,129.934 -0.682,2.714 -0.67,9.978 -0.372,5.523 -0.376,9.993 -0.219,5.807 -1.453,9.894 -0.874,5.944 -2.49,9.685 -1.494,5.812 -3.516,9.361 -2.037,5.422 -4.56,8.899 -2.455,4.791 -5.643,8.256 -2.703,3.954 -6.775,7.356 -2.737,2.973 -7.934,6.087 -2.535,1.946 8.874,-4.609 2.986,-1.55 9.398,-3.419 4.148,-1.509 9.711,-2.386 5.081,-1.249 9.893,-1.461 5.737,-0.847 9.982,-0.595 6.097,-0.364 9.997,0.244 6.16,0.15 9.94,1.095 5.923,0.652 7.387,1.5"
       id="path148"
       style="fill:none;stroke:#000000;stroke-width:1" />
    <path
       d="m 172.149,128.309 0.186,9.999 0.182,9.841 0.186,9.998 0.186,9.999 0.185,9.998 0.186,9.998 0.186,9.998 0.185,9.999 0.186,9.998 0.105,5.642 -8.496,5.274 -8.496,5.275 -8.495,5.275 -8.496,5.274 -8.496,5.275 -6.727,4.177 -9.027,4.302 -2.135,1.018 -9.821,1.883 -1.702,0.326 -9.941,-1.085 -1.54,-0.168"
       id="path150"
       style="fill:none;stroke:#000000;stroke-width:1" />
    <path
       d="m 86.565,111.227 -8.658,5.002 -6.457,3.73 -7.017,7.125 -0.962,0.978 -4.174,4.239 -5.071,8.619 -3.893,6.617 -3.017,9.235 -2.674,8.182 -1.284,9.917 -1.164,8.992 0.348,9.994 0.34,9.767 1.798,9.837 1.797,9.837 0.064,0.351 3.096,9.509 3.096,9.509 0.238,0.731 4.271,9.034 4.275,9.04 0.424,0.897 5.362,8.441 5.361,8.441 0.534,0.84 6.378,7.703 6.377,7.702 0.511,0.617 7.332,6.801 4.658,4.322 2.975,2.759 8.218,5.697 8.095,5.61 9.01,4.338 8.248,3.971 9.638,2.665 8.098,2.239 9.98,0.636 7.695,0.49 3.286,-0.571 9.852,-1.714 3.858,-0.671 0.62,-0.288 9.074,-4.204 5.933,-2.749 7.596,-6.504 5.918,-5.067"
       id="path152"
       style="fill:none;stroke:#000000;stroke-width:1" />
    <path
       d="m 256.196,109.081 -0.37,9.993 -0.37,9.994 -0.369,9.993 -0.37,9.993 -0.37,9.993 -0.369,9.993 -0.37,9.993 -0.37,9.994 -0.369,9.993 -0.37,9.993 -0.37,9.993 -0.369,9.993 -0.357,9.639 -0.37,9.994 -0.136,3.681 -0.275,7.451 -0.37,9.993 -0.37,9.993 -0.369,9.994 -0.37,9.993 -0.37,9.993 -0.369,9.993 -0.251,6.766 -0.369,9.993 -0.37,9.993 -0.206,5.578 -0.37,9.993 -0.37,9.993 -0.369,9.993 -0.045,1.22"
       id="path154"
       style="fill:none;stroke:#000000;stroke-width:1" />
    <path
       d="m 103.637,288.537 0.361,-9.568 3.941,-9.065 6.491,-7.607 0.577,-0.676 7.995,-6.006 1.714,-1.286 -8.496,5.274 -8.496,5.275 -8.496,5.274 -8.495,5.275 -5.974,3.709"
       id="path156"
       style="fill:none;stroke:#000000;stroke-width:1" />
    <path
       d="m 173.922,223.779 9.691,2.466 9.691,2.465 9.691,2.466 9.692,2.465 9.691,2.466 9.691,2.466 3.933,1"
       id="path158"
       style="fill:none;stroke:#000000;stroke-width:1" />
    <path
       d="m 313.107,221.997 -7.541,6.567 -4.134,3.599 -8.834,4.685 -4.513,2.393 -9.655,2.604 -4.769,1.286 -9.988,0.489 -4.94,0.242 -0.54,-0.084"
       id="path160"
       style="fill:none;stroke:#000000;stroke-width:1" />
    <path
       d="m 323.49,95.92 6.867,2.919 5.535,6.882 2.494,6.166 1.64,4.055 2.063,9.785 0.663,3.147 0.898,9.959 0.458,5.083 0.027,10 0.018,6.605 -0.671,9.978 -0.518,7.69 -1.271,9.919 -1.071,8.361 -1.815,9.834 -1.595,8.639 -2.339,9.723 -2.055,8.545 -2.866,9.581 -2.421,8.089 -2.441,6.687 -2.585,7.083 -1.057,2.897 -4.061,9.138 -2.709,6.097 -4.812,8.766 -2.511,4.574 -5.761,8.173 -1.953,2.772 -7.022,7.119 -0.883,0.895 -7.846,4.533 -7.486,0.521"
       id="path162"
       style="fill:none;stroke:#000000;stroke-width:1" />
    <path
       d="m 170.054,126.683 1.27,6.102 0.774,9.97 0.419,5.394 1.013,9.949 0.58,5.69 2.591,9.658 1.518,5.654 4.059,9.139 2.404,5.413 5.413,8.408 3.202,4.975 6.647,7.47 3.879,4.36 7.748,6.321 4.408,3.596 8.688,4.95 4.772,2.719 6.508,2.312"
       id="path164"
       style="fill:none;stroke:#000000;stroke-width:1" />
    <path
       d="m 171.495,93.085 -0.186,-9.998 -0.186,-9.998 -0.065,-3.531"
       id="path166"
       style="fill:none;stroke:#000000;stroke-width:1" />
    <path
       d="m 191.567,93.607 1.188,-1.584 7.59,-6.51 3.849,-3.301 8.861,-4.634 4.678,-2.445"
       id="path168"
       style="fill:none;stroke:#000000;stroke-width:1" />
    <path
       d="m 258.002,245.983 9.126,4.089 3.441,1.542 8.42,5.395 2.246,1.439 7.218,6.921 1.012,0.97 5.175,8.556 0.128,0.212 1.906,9.398"
       id="path170"
       style="fill:none;stroke:#000000;stroke-width:1" />
    <path
       d="m 258.071,245.188 9.691,2.466 9.692,2.465 9.691,2.466 9.691,2.466 9.691,2.465 6.68,1.7"
       id="path172"
       style="fill:none;stroke:#000000;stroke-width:1" />
  </g>
</svg>
