<?xml version="1.0" encoding="utf-8"?>
<!DOCTYPE svg PUBLIC "-//W3C//DTD SVG 1.0//EN"
"http://www.w3.org/TR/2000/CR-SVG-20001102/DTD/svg-20001102.dtd">
<svg xmlns="http://www.w3.org/2000/svg" width="400" height="400">
<g>
<path fill="none" stroke="#000000" stroke-width="3" d="M 354.263,100.083 344.317,99.050 216.413,85.767 56.219,95.868 69.405,284.587 175.788,368.514 339.185,300.804 354.263,100.083 " />
<path fill="none" stroke="#000000" stroke-width="3" d="M 241.775,217.129 241.991,207.131 242.699,174.278 273.184,168.594 270.997,227.922 241.775,217.129 " />
<path fill="none" stroke="#000000" stroke-width="3" d="M 137.636,174.429 137.951,184.424 139.212,224.443 131.465,226.174 129.522,171.522 137.636,174.429 " />
</g>
<g>
<path fill="none" stroke="#000000" stroke-width="2" d="M 81.919,154.470 91.333,157.843 129.522,171.522 " />
<path fill="none" stroke="#000000" stroke-width="2" d="M 139.212,224.443 139.527,234.438 139.963,248.297 132.098,243.980 131.465,226.174 " />
<path fill="none" stroke="#000000" stroke-width="2" d="M 275.751,98.973 265.789,99.843 188.208,106.620 126.867,96.867 " />
<path fill="none" stroke="#000000" stroke-width="2" d="M 224.770,294.845 224.903,284.846 226.336,177.330 242.699,174.278 " />
<path fill="none" stroke="#000000" stroke-width="2" d="M 270.997,227.922 270.629,237.915 270.153,250.808 225.175,264.418 " />
<path fill="none" stroke="#000000" stroke-width="2" d="M 139.963,248.297 140.278,258.292 141.271,289.808 " />
<path fill="none" stroke="#000000" stroke-width="2" d="M 273.184,168.594 283.015,166.760 313.740,161.031 " />
</g>
<g>
<path fill="none" stroke="#000000" stroke-width="1" d="M 209.072,104.797 209.116,94.797 209.132,91.150 126.867,96.867 " />
<path fill="none" stroke="#000000" stroke-width="1" d="M 209.132,91.150 219.064,92.316 275.751,98.973 " />
<path fill="none" stroke="#000000" stroke-width="1" d="M 175.788,368.514 175.652,358.515 172.395,118.311 56.219,95.868 " />
<path fill="none" stroke="#000000" stroke-width="1" d="M 81.919,154.470 82.508,164.453 87.846,254.814 139.768,242.103 " />
<path fill="none" stroke="#000000" stroke-width="1" d="M 87.846,254.814 96.211,260.293 141.271,289.808 " />
<path fill="none" stroke="#000000" stroke-width="1" d="M 354.263,100.083 344.313,101.080 172.395,118.311 " />
<path fill="none" stroke="#000000" stroke-width="1" d="M 313.740,161.031 313.170,171.015 307.727,266.383 224.770,294.845 " />
<path fill="none" stroke="#000000" stroke-width="1" d="M 225.603,232.340 234.840,236.169 307.727,266.383 " />
<path fill="none" stroke="#000000" stroke-width="1" d="M 225.753,221.052 235.466,218.674 241.775,217.129 " />
</g>
</svg>
