<?xml version="1.0" encoding="UTF-8" standalone="no"?>
<!-- Created with Inkscape (http://www.inkscape.org/) -->

<svg
   xmlns:dc="http://purl.org/dc/elements/1.1/"
   xmlns:cc="http://creativecommons.org/ns#"
   xmlns:rdf="http://www.w3.org/1999/02/22-rdf-syntax-ns#"
   xmlns:svg="http://www.w3.org/2000/svg"
   xmlns="http://www.w3.org/2000/svg"
   version="1.1"
   width="750"
   height="750"
   viewBox="-144 -144 288 288"
   id="svg2">
  <metadata
     id="metadata14">
    <rdf:RDF>
      <cc:Work
         rdf:about="">
        <dc:format>image/svg+xml</dc:format>
        <dc:type
           rdf:resource="http://purl.org/dc/dcmitype/StillImage" />
        <dc:title></dc:title>
      </cc:Work>
    </rdf:RDF>
  </metadata>
  <defs
     id="defs12" />
  <circle
     cx="0"
     cy="0"
     r="140"
     id="circle6"
     style="fill:#555566" />
  <path
     d="M 0,-140 -99,-99 -140,0 -99,99 0,140 99,99 140,0 99,-99 z m 0,0 L 99,99 -140,0 99,-99 0,140 -99,-99 140,0 -99,99 M 0,-58 -41,41 58,0 -41,-41 0,58 41,-41 -58,0 41,41 M 0,-24 17,17 -24,0 17,-17 0,24 -17,-17 24,0 -17,17 M 0,-10 -7,7 10,0 -7,-7 0,10 7,-7 -10,0 7,7 M 0,-4 3,3 -4,0 3,-3 0,4 -3,-3 4,0 -3,3"
     id="path8"
     style="fill:#cccccc;fill-rule:evenodd" />
</svg>
