<?xml version="1.0" encoding="utf-8"?>
<!-- Generator: Adobe Illustrator 13.0.0, SVG Export Plug-In . SVG Version: 6.00 Build 14948)  -->
<!DOCTYPE svg PUBLIC "-//W3C//DTD SVG 1.1//EN" "http://www.w3.org/Graphics/SVG/1.1/DTD/svg11.dtd">
<svg version="1.1" xmlns="http://www.w3.org/2000/svg" xmlns:xlink="http://www.w3.org/1999/xlink" x="0px" y="0px" width="68.75px"
	 height="59px" viewBox="0 0 68.75 59" enable-background="new 0 0 68.75 59" xml:space="preserve">
<symbol  id="Little_Bean" viewBox="-1.185 -0.941 2.37 1.883">
	<path fill="#382500" stroke="#000000" stroke-width="0.25" stroke-miterlimit="7" d="M1.031-0.341
		C0.895-0.75,0.325-0.929-0.245-0.742c-0.569,0.189-0.921,0.674-0.787,1.084c0.136,0.409,0.708,0.588,1.276,0.4
		C0.815,0.555,1.166,0.069,1.031-0.341z"/>
</symbol>
<g id="Layer_1">
	<path fill="none" stroke="#000000" stroke-width="0.5" stroke-linecap="round" stroke-linejoin="bevel" d="M58.766,25
		c-0.269,0.9,0.366,2.019,1.281,2.281"/>
	<g>
		<g opacity="0.69">
			<circle fill="#E5C5A1" stroke="#000000" stroke-width="0.5" stroke-miterlimit="7" cx="7.341" cy="37.052" r="3.249"/>
			<path fill="none" stroke="#000000" stroke-width="0.5" stroke-miterlimit="7" d="M5.178,37.374
				c1.089,0.198,1.726,0.974,2.505,1.68"/>
			<path fill="none" stroke="#000000" stroke-width="0.5" stroke-miterlimit="7" d="M6.323,35.61
				c1.218-0.029,2.014,1.321,2.661,2.188"/>
		</g>
		<g opacity="0.69">
			<circle fill="#E5C5A1" stroke="#000000" stroke-width="0.5" stroke-miterlimit="7" cx="5.904" cy="23.052" r="3.249"/>
			<path fill="none" stroke="#000000" stroke-width="0.5" stroke-miterlimit="7" d="M4.397,24.638
				c0.98-0.514,1.959-0.295,3.008-0.219"/>
			<path fill="none" stroke="#000000" stroke-width="0.5" stroke-miterlimit="7" d="M4.214,22.543
				c0.941-0.773,2.4-0.199,3.443,0.085"/>
		</g>
		<g>
			<path fill="#E5C5A1" stroke="#000000" stroke-width="0.5" stroke-miterlimit="7" d="M25.702,49.815
				c-1.761-0.887-4.187-0.576-5.417,0.698c-1.229,1.273-0.797,3.027,0.966,3.915c1.761,0.89,4.187,0.578,5.417-0.696
				C27.896,52.458,27.465,50.705,25.702,49.815z"/>
			<g>
				<path fill="none" stroke="#000000" stroke-width="0.5" stroke-miterlimit="7" d="M22.204,50.54
					c0.943,0.828,1.324,1.953,1.852,3.093"/>
				<path fill="none" stroke="#000000" stroke-width="0.5" stroke-miterlimit="7" d="M23.703,49.497
					c1.118,0.683,1.496,2.459,1.864,3.677"/>
			</g>
		</g>
		<g opacity="0.69">
			<circle fill="#E5C5A1" stroke="#000000" stroke-width="0.5" stroke-miterlimit="7" cx="28.279" cy="10.115" r="3.249"/>
			<g>
				<path fill="none" stroke="#000000" stroke-width="0.5" stroke-miterlimit="7" d="M26.509,9.288
					c0.95,0.569,1.273,1.519,1.754,2.453"/>
				<path fill="none" stroke="#000000" stroke-width="0.5" stroke-miterlimit="7" d="M28.144,8.407
					c1.15,0.401,1.42,1.945,1.721,2.983"/>
			</g>
		</g>
		<g opacity="0.69">
			<circle fill="#E5C5A1" stroke="#000000" stroke-width="0.5" stroke-miterlimit="7" cx="15.894" cy="12.008" r="3.249"/>
			<g>
				<path fill="none" stroke="#000000" stroke-width="0.5" stroke-miterlimit="7" d="M15.055,14.033
					c0.816-0.748,1.818-0.788,2.852-0.982"/>
				<path fill="none" stroke="#000000" stroke-width="0.5" stroke-miterlimit="7" d="M14.677,12.215
					c0.712-0.989,2.269-0.807,3.35-0.8"/>
			</g>
		</g>
		<g opacity="0.69">
			<circle fill="#E5C5A1" stroke="#000000" stroke-width="0.5" stroke-miterlimit="7" cx="48.113" cy="47.698" r="3.249"/>
			<g>
				<path fill="none" stroke="#000000" stroke-width="0.5" stroke-miterlimit="7" d="M49.871,48.551
					c-0.942-0.582-1.251-1.537-1.718-2.479"/>
				<path fill="none" stroke="#000000" stroke-width="0.5" stroke-miterlimit="7" d="M48.223,49.408
					c-1.145-0.418-1.392-1.966-1.678-3.01"/>
			</g>
		</g>
		<g opacity="0.69">
			<circle fill="#E5C5A1" stroke="#000000" stroke-width="0.5" stroke-miterlimit="7" cx="25.062" cy="38.625" r="2.78"/>
			<g>
				<path fill="none" stroke="#000000" stroke-width="0.5" stroke-miterlimit="7" d="M26.567,39.354
					c-0.807-0.498-1.071-1.315-1.47-2.121"/>
				<path fill="none" stroke="#000000" stroke-width="0.5" stroke-miterlimit="7" d="M25.156,40.088
					c-0.979-0.357-1.191-1.682-1.436-2.575"/>
			</g>
		</g>
		<g opacity="0.69">
			<path fill="#E5C5A1" stroke="#000000" stroke-width="0.5" stroke-miterlimit="7" d="M60.484,21.809
				c0.049-1.536-1.091-2.822-2.548-2.875c-1.457-0.053-2.681,1.15-2.728,2.684c-0.052,1.536,1.09,2.822,2.547,2.875
				C59.213,24.545,60.436,23.344,60.484,21.809z"/>
			<g>
				<path fill="none" stroke="#000000" stroke-width="0.5" stroke-miterlimit="7" d="M56.391,21.046
					c0.784,0.464,1.068,1.27,1.477,2.059"/>
				<path fill="none" stroke="#000000" stroke-width="0.5" stroke-miterlimit="7" d="M57.7,20.255
					c0.941,0.316,1.195,1.63,1.462,2.513"/>
			</g>
		</g>
		<g opacity="0.69">
			<circle fill="#E5C5A1" stroke="#000000" stroke-width="0.5" stroke-miterlimit="7" cx="16.863" cy="42.448" r="3.249"/>
			<g>
				<path fill="none" stroke="#000000" stroke-width="0.5" stroke-miterlimit="7" d="M18.622,43.301
					c-0.942-0.582-1.251-1.537-1.718-2.479"/>
				<path fill="none" stroke="#000000" stroke-width="0.5" stroke-miterlimit="7" d="M16.973,44.158
					c-1.145-0.418-1.392-1.966-1.678-3.01"/>
			</g>
		</g>
		<g opacity="0.69">
			<path fill="#E5C5A1" stroke="#000000" stroke-width="0.5" stroke-miterlimit="7" d="M33.958,54.202
				c-0.153,1.79,1.36,3.351,3.381,3.487c2.02,0.136,3.783-1.206,3.935-2.995c0.155-1.79-1.358-3.351-3.381-3.487
				C35.873,51.071,34.11,52.411,33.958,54.202z"/>
			<g>
				<path fill="none" stroke="#000000" stroke-width="0.5" stroke-miterlimit="7" d="M36.827,52.778
					c0.563,1.073,0.324,2.062,0.242,3.138"/>
				<path fill="none" stroke="#000000" stroke-width="0.5" stroke-miterlimit="7" d="M38.467,52.536
					c0.828,1.076,0.182,2.51-0.144,3.553"/>
			</g>
		</g>
		<g opacity="0.69">
			<path fill="#E5C5A1" stroke="#000000" stroke-width="0.5" stroke-miterlimit="7" d="M53.794,40.489
				c-0.153,1.628,1.36,3.046,3.381,3.171c2.02,0.123,3.783-1.097,3.935-2.724c0.155-1.627-1.358-3.046-3.381-3.17
				C55.709,37.644,53.946,38.861,53.794,40.489z"/>
			<g>
				<path fill="none" stroke="#000000" stroke-width="0.5" stroke-miterlimit="7" d="M56.663,39.195
					c0.563,0.976,0.324,1.874,0.242,2.853"/>
				<path fill="none" stroke="#000000" stroke-width="0.5" stroke-miterlimit="7" d="M58.303,38.975
					c0.828,0.979,0.182,2.282-0.144,3.23"/>
			</g>
		</g>
		<g opacity="0.69">
			<path fill="#E5C5A1" stroke="#000000" stroke-width="0.5" stroke-miterlimit="7" d="M45.044,16.081
				c-0.153,1.832,1.36,3.427,3.381,3.567c2.02,0.139,3.783-1.234,3.935-3.064c0.155-1.83-1.358-3.427-3.381-3.566
				C46.959,12.879,45.196,14.25,45.044,16.081z"/>
			<g>
				<path fill="none" stroke="#000000" stroke-width="0.5" stroke-miterlimit="7" d="M48.962,18.369
					c-0.117-1.229,0.479-2.079,0.963-3.071"/>
				<path fill="none" stroke="#000000" stroke-width="0.5" stroke-miterlimit="7" d="M47.347,17.993
					c-0.362-1.329,0.781-2.452,1.479-3.323"/>
			</g>
		</g>
		<g opacity="0.69">
			<circle fill="#E5C5A1" stroke="#000000" stroke-width="0.5" stroke-miterlimit="7" cx="38.529" cy="12.281" r="3.25"/>
			<g>
				<path fill="none" stroke="#000000" stroke-width="0.5" stroke-miterlimit="7" d="M37.354,10.72
					c0.572,0.948,0.411,1.938,0.398,2.989"/>
				<path fill="none" stroke="#000000" stroke-width="0.5" stroke-miterlimit="7" d="M39.211,10.71
					c0.828,0.894,0.342,2.384,0.12,3.442"/>
			</g>
		</g>
	</g>
	
		<ellipse transform="matrix(0.707 0.7072 -0.7072 0.707 43.8893 2.4904)" fill="#382500" stroke="#000000" stroke-width="0.25" stroke-miterlimit="7" cx="18.939" cy="54.212" rx="1.086" ry="0.782"/>
	
		<ellipse transform="matrix(0.9885 -0.1515 0.1515 0.9885 -7.3978 2.9228)" fill="#382500" stroke="#000000" stroke-width="0.25" stroke-miterlimit="7" cx="15.48" cy="50.004" rx="1.086" ry="0.782"/>
	
		<use xlink:href="#Little_Bean"  width="2.37" height="1.883" x="-1.185" y="-0.941" transform="matrix(1 0 0 -1 18.314 47.6924)" overflow="visible"/>
	
		<use xlink:href="#Little_Bean"  width="2.37" height="1.883" x="-1.185" y="-0.941" transform="matrix(0.23 -0.9732 -0.9732 -0.23 66.625 38.25)" overflow="visible"/>
	
		<use xlink:href="#Little_Bean"  width="2.37" height="1.883" x="-1.185" y="-0.941" transform="matrix(1 0 0 -1 64.25 24.75)" overflow="visible"/>
	
		<use xlink:href="#Little_Bean"  width="2.37" height="1.883" x="-1.185" y="-0.941" transform="matrix(0.4835 -0.8753 -0.8753 -0.4835 65.083 33.334)" overflow="visible"/>
	
		<use xlink:href="#Little_Bean"  width="2.37" height="1.883" x="-1.185" y="-0.941" transform="matrix(1 0 0 -1 59.583 34.834)" overflow="visible"/>
	
		<use xlink:href="#Little_Bean"  width="2.37" height="1.883" x="-1.185" y="-0.941" transform="matrix(0.8652 -0.5014 -0.5014 -0.8652 61.083 46.667)" overflow="visible"/>
	
		<use xlink:href="#Little_Bean"  width="2.37" height="1.883" x="-1.185" y="-0.941" transform="matrix(-0.1922 -0.9814 -0.9814 0.1922 63.25 41.667)" overflow="visible"/>
	
		<use xlink:href="#Little_Bean"  width="2.37" height="1.883" x="-1.185" y="-0.941" transform="matrix(0.9333 -0.3592 -0.3592 -0.9333 52.667 43.084)" overflow="visible"/>
	
		<use xlink:href="#Little_Bean"  width="2.37" height="1.883" x="-1.185" y="-0.941" transform="matrix(0.6069 0.7948 0.7948 -0.6069 42.333 50.334)" overflow="visible"/>
	
		<use xlink:href="#Little_Bean"  width="2.37" height="1.883" x="-1.185" y="-0.941" transform="matrix(0.7071 0.7071 0.7071 -0.7071 2.6875 17.9063)" overflow="visible"/>
	
		<use xlink:href="#Little_Bean"  width="2.37" height="1.883" x="-1.185" y="-0.941" transform="matrix(1 0 0 -1 9.625 18.5928)" overflow="visible"/>
	
		<use xlink:href="#Little_Bean"  width="2.37" height="1.883" x="-1.185" y="-0.941" transform="matrix(1 0 0 -1 7.1875 14.2813)" overflow="visible"/>
	
		<use xlink:href="#Little_Bean"  width="2.37" height="1.883" x="-1.185" y="-0.941" transform="matrix(0.4897 -0.8719 -0.8719 -0.4897 19.1563 6.7188)" overflow="visible"/>
	
		<use xlink:href="#Little_Bean"  width="2.37" height="1.883" x="-1.185" y="-0.941" transform="matrix(0.7618 0.6478 0.6478 -0.7618 9.8438 11.5)" overflow="visible"/>
	
		<use xlink:href="#Little_Bean"  width="2.37" height="1.883" x="-1.185" y="-0.941" transform="matrix(0.9505 0.3108 0.3108 -0.9505 21.4063 8.9688)" overflow="visible"/>
	
		<use xlink:href="#Little_Bean"  width="2.37" height="1.883" x="-1.185" y="-0.941" transform="matrix(0.7026 -0.7116 -0.7116 -0.7026 21.5 11.6875)" overflow="visible"/>
	
		<use xlink:href="#Little_Bean"  width="2.37" height="1.883" x="-1.185" y="-0.941" transform="matrix(0.7729 0.6345 0.6345 -0.7729 11.2188 15.875)" overflow="visible"/>
	<g>
		
			<use xlink:href="#Little_Bean"  width="2.37" height="1.883" x="-1.185" y="-0.941" transform="matrix(0.963 -0.2695 -0.2695 -0.963 34.4824 7.6226)" overflow="visible"/>
		
			<use xlink:href="#Little_Bean"  width="2.37" height="1.883" x="-1.185" y="-0.941" transform="matrix(0.963 -0.2695 -0.2695 -0.963 39.0176 2.3779)" overflow="visible"/>
	</g>
	
		<use xlink:href="#Little_Bean"  width="2.37" height="1.883" x="-1.185" y="-0.941" transform="matrix(1 0 0 -1 24.7085 2.5415)" overflow="visible"/>
	
		<use xlink:href="#Little_Bean"  width="2.37" height="1.883" x="-1.185" y="-0.941" transform="matrix(1 0 0 -1 30.8125 3.75)" overflow="visible"/>
	
		<use xlink:href="#Little_Bean"  width="2.37" height="1.883" x="-1.185" y="-0.941" transform="matrix(0.479 -0.8778 -0.8778 -0.479 34.2813 3.8125)" overflow="visible"/>
	
		<use xlink:href="#Little_Bean"  width="2.37" height="1.883" x="-1.185" y="-0.941" transform="matrix(0.6438 0.7652 0.7652 -0.6438 36.7188 6.75)" overflow="visible"/>
	
		<use xlink:href="#Little_Bean"  width="2.37" height="1.883" x="-1.185" y="-0.941" transform="matrix(0.3503 -0.9366 -0.9366 -0.3503 41.0938 6.2813)" overflow="visible"/>
	
		<use xlink:href="#Little_Bean"  width="2.37" height="1.883" x="-1.185" y="-0.941" transform="matrix(1 0 0 -1 46.1563 6.5)" overflow="visible"/>
	
		<use xlink:href="#Little_Bean"  width="2.37" height="1.883" x="-1.185" y="-0.941" transform="matrix(1 0 0 -1 50.9063 9.3125)" overflow="visible"/>
	
		<use xlink:href="#Little_Bean"  width="2.37" height="1.883" x="-1.185" y="-0.941" transform="matrix(0.2875 -0.9578 -0.9578 -0.2875 45.6875 10.375)" overflow="visible"/>
	
		<use xlink:href="#Little_Bean"  width="2.37" height="1.883" x="-1.185" y="-0.941" transform="matrix(1 0 0 -1 33.3125 12.2813)" overflow="visible"/>
	
		<use xlink:href="#Little_Bean"  width="2.37" height="1.883" x="-1.185" y="-0.941" transform="matrix(1 0 0 -1 29.4375 15.7188)" overflow="visible"/>
	
		<use xlink:href="#Little_Bean"  width="2.37" height="1.883" x="-1.185" y="-0.941" transform="matrix(0.4163 -0.9092 -0.9092 -0.4163 24.7188 15.3438)" overflow="visible"/>
	
		<use xlink:href="#Little_Bean"  width="2.37" height="1.883" x="-1.185" y="-0.941" transform="matrix(1 0 0 -1 21.2813 14.4375)" overflow="visible"/>
	
		<use xlink:href="#Little_Bean"  width="2.37" height="1.883" x="-1.185" y="-0.941" transform="matrix(0.6985 -0.7156 -0.7156 -0.6985 41.8125 17.5938)" overflow="visible"/>
	
		<use xlink:href="#Little_Bean"  width="2.37" height="1.883" x="-1.185" y="-0.941" transform="matrix(0.5109 0.8597 0.8597 -0.5109 37.6875 17.6875)" overflow="visible"/>
	
		<use xlink:href="#Little_Bean"  width="2.37" height="1.883" x="-1.185" y="-0.941" transform="matrix(0.8051 0.5931 0.5931 -0.8051 42.3125 20.6875)" overflow="visible"/>
	
		<use xlink:href="#Little_Bean"  width="2.37" height="1.883" x="-1.185" y="-0.941" transform="matrix(1 0 0 -1 36.5 21.9375)" overflow="visible"/>
	
		<use xlink:href="#Little_Bean"  width="2.37" height="1.883" x="-1.185" y="-0.941" transform="matrix(0.9399 -0.3415 -0.3415 -0.9399 33.5 20.5)" overflow="visible"/>
	
		<use xlink:href="#Little_Bean"  width="2.37" height="1.883" x="-1.185" y="-0.941" transform="matrix(-0.4966 0.868 0.868 0.4966 55.125 14.291)" overflow="visible"/>
	
		<use xlink:href="#Little_Bean"  width="2.37" height="1.883" x="-1.185" y="-0.941" transform="matrix(0.7051 -0.7091 -0.7091 -0.7051 54.167 17.6665)" overflow="visible"/>
	
		<use xlink:href="#Little_Bean"  width="2.37" height="1.883" x="-1.185" y="-0.941" transform="matrix(1 0 0 -1 53.042 20.25)" overflow="visible"/>
	
		<use xlink:href="#Little_Bean"  width="2.37" height="1.883" x="-1.185" y="-0.941" transform="matrix(1 0 0 -1 59.083 16.875)" overflow="visible"/>
	
		<use xlink:href="#Little_Bean"  width="2.37" height="1.883" x="-1.185" y="-0.941" transform="matrix(0.345 -0.9386 -0.9386 -0.345 62 20.0415)" overflow="visible"/>
	
		<use xlink:href="#Little_Bean"  width="2.37" height="1.883" x="-1.185" y="-0.941" transform="matrix(0.6421 0.7666 0.7666 -0.6421 61.833 27.0835)" overflow="visible"/>
	
		<use xlink:href="#Little_Bean"  width="2.37" height="1.883" x="-1.185" y="-0.941" transform="matrix(0.7112 0.703 0.703 -0.7112 57.292 45.417)" overflow="visible"/>
	
		<use xlink:href="#Little_Bean"  width="2.37" height="1.883" x="-1.185" y="-0.941" transform="matrix(1 0 0 -1 57.125 48.625)" overflow="visible"/>
	
		<use xlink:href="#Little_Bean"  width="2.37" height="1.883" x="-1.185" y="-0.941" transform="matrix(0.6611 -0.7503 -0.7503 -0.6611 54.208 49.75)" overflow="visible"/>
	
		<use xlink:href="#Little_Bean"  width="2.37" height="1.883" x="-1.185" y="-0.941" transform="matrix(0.8763 -0.4818 -0.4818 -0.8763 53.083 52.708)" overflow="visible"/>
	
		<use xlink:href="#Little_Bean"  width="2.37" height="1.883" x="-1.185" y="-0.941" transform="matrix(0.8147 -0.5799 -0.5799 -0.8147 51.042 40)" overflow="visible"/>
	
		<use xlink:href="#Little_Bean"  width="2.37" height="1.883" x="-1.185" y="-0.941" transform="matrix(0.2596 -0.9657 -0.9657 -0.2596 41.833 46.708)" overflow="visible"/>
	
		<use xlink:href="#Little_Bean"  width="2.37" height="1.883" x="-1.185" y="-0.941" transform="matrix(1 0 0 -1 39.417 48.542)" overflow="visible"/>
	
		<use xlink:href="#Little_Bean"  width="2.37" height="1.883" x="-1.185" y="-0.941" transform="matrix(0.8002 -0.5997 -0.5997 -0.8002 30.5835 51.958)" overflow="visible"/>
	
		<use xlink:href="#Little_Bean"  width="2.37" height="1.883" x="-1.185" y="-0.941" transform="matrix(1 0 0 -1 28.2085 55)" overflow="visible"/>
	
		<use xlink:href="#Little_Bean"  width="2.37" height="1.883" x="-1.185" y="-0.941" transform="matrix(0.5133 -0.8582 -0.8582 -0.5133 12.6665 46.542)" overflow="visible"/>
	
		<use xlink:href="#Little_Bean"  width="2.37" height="1.883" x="-1.185" y="-0.941" transform="matrix(0.5732 -0.8194 -0.8194 -0.5732 20.7085 37.833)" overflow="visible"/>
	
		<use xlink:href="#Little_Bean"  width="2.37" height="1.883" x="-1.185" y="-0.941" transform="matrix(1.0904 -0.3889 -0.336 -0.9419 15.7588 35.8955)" overflow="visible"/>
	
		<use xlink:href="#Little_Bean"  width="2.37" height="1.883" x="-1.185" y="-0.941" transform="matrix(1 0 0 -1 9.8335 29.917)" overflow="visible"/>
	
		<use xlink:href="#Little_Bean"  width="2.37" height="1.883" x="-1.185" y="-0.941" transform="matrix(0.4304 -0.9026 -0.9026 -0.4304 4.875 31.042)" overflow="visible"/>
	
		<use xlink:href="#Little_Bean"  width="2.37" height="1.883" x="-1.185" y="-0.941" transform="matrix(1 0 0 -1 5.7915 27.875)" overflow="visible"/>
	
		<use xlink:href="#Little_Bean"  width="2.37" height="1.883" x="-1.185" y="-0.941" transform="matrix(0.6073 -0.7944 -0.7944 -0.6073 9.2085 26.7085)" overflow="visible"/>
	
		<use xlink:href="#Little_Bean"  width="2.37" height="1.883" x="-1.185" y="-0.941" transform="matrix(1.2113 -0.2654 -0.214 -0.9768 14.6758 22.6055)" overflow="visible"/>
	
		<use xlink:href="#Little_Bean"  width="2.37" height="1.883" x="-1.185" y="-0.941" transform="matrix(0.5568 -0.8306 -0.8306 -0.5568 10.1948 42.8154)" overflow="visible"/>
</g>
<g id="Layer_4">
	<path fill="#F7FBD4" stroke="#000000" stroke-width="0.25" d="M34.301,15.969c-1.62,1.258-3.621,1.415-5.574,1.4
		c-1.675-0.012-2.858,0.366-3.507,2.05c-0.756,1.961,0.892,2.917,2.644,2.837c1.874-0.085,2.264-2.274,3.764-3.123
		c0.925-0.524,2.569-1.006,3.097-2.015c0.255-0.486,0.307-0.853,0.307-1.9C34.76,15.567,34.532,15.79,34.301,15.969z"/>
	<path fill="#F7FBD4" stroke="#000000" stroke-width="0.25" d="M15.202,19.515c1.054,0.772,2.596,1.247,3.887,1.17
		c0.797-0.048,1.456-0.583,2.254-0.265c0.643,0.257,0.881,0.899,1.259,1.419c1.579,2.166,3.964,1.293,2.674-1.396
		c-0.577-1.203-1.612-2.604-2.991-2.938c-2.168-0.523-4.055,1.107-6.243,0.923c-0.684-0.058-1.457-0.219-2.313-0.387
		C14.438,18.75,14.457,18.969,15.202,19.515z"/>
	<path fill="#D34642" stroke="#000000" stroke-linecap="round" stroke-linejoin="bevel" d="M28.031,30.789
		c1.871-0.933,5.667,0.037,6.611,1.687c2.456,4.29-12.388,4.204-7.194-1.265C27.609,31.042,27.806,30.901,28.031,30.789z"/>
</g>
<g id="Layer_3">
	<path fill="#F44E43" stroke="#000000" stroke-width="0.5" stroke-linecap="round" stroke-miterlimit="7" d="M13.318,30.604
		c0.043-0.573-0.318-1.135,1.401-1.479c-1.594-0.219-2.166-1.754-1.048-2.977c1.112-1.215,3.323-1.47,4.858-1.646
		c1.456-0.168,2.658-0.844,3.828-1.691c2.506-1.816,6.455-3.067,9.011-0.494c1.765,1.776,3.792,8.323,0.264,9.544
		c-0.927,0.321-1.88-0.539-2.625,0.07c-0.667,0.546-0.547,1.902-1.321,2.462c-0.684,0.494-1.64,0.35-2.424,0.243
		c-1.86-0.252-3.542-1.23-5.388-1.501c-1.533-0.225-3.14-0.302-4.622-0.79C14.646,32.146,13.258,31.396,13.318,30.604z"/>
	
		<ellipse fill="#FFEFD4" stroke="#000000" stroke-width="0.5" stroke-linecap="round" stroke-linejoin="bevel" cx="22.74" cy="27.125" rx="2.125" ry="1.813"/>
	<circle stroke="#000000" stroke-width="0.5" stroke-linecap="round" stroke-linejoin="bevel" cx="22.844" cy="27.031" r="0.563"/>
</g>
<g id="Layer_2">
	<g>
		<g>
			<path fill="#F44E43" stroke="#000000" stroke-width="0.5" stroke-linecap="round" stroke-linejoin="round" d="M30.865,46
				c-1.092,0.965-2.717,2.618-4.312,1.875c-0.93-0.433-1.663-0.479-2.597-1.048c-2.036-1.242-1.204-3.217,0.279-4.548
				c1.434-1.286,3.447-1.674,5.326-1.743c0.969-0.036,1.968-0.102,2.901-0.314c-0.18,0.041-3.793-4.461-3.84-5.007
				c-0.049-0.573,0.313-1.391,0.665-1.818c0.535-0.652,0.909-0.484,1.688-0.804c1.755-0.72,1.539-2.305,1.866-3.824
				c0.325-1.506,1.572-2.858,2.687-3.865c0.919-0.831,2.109-0.809,3.227-1.222c0.623-0.231,1.115-0.153,1.757-0.259
				c0.644-0.106,1.003-0.489,1.563-0.787c1.621-0.863,3.496-0.75,5.277-0.838c3.718-0.184,7.639,0.333,10.729,2.599
				c1.604,1.177,2.282,2.729,2.133,4.71c-0.299,3.933-2.33,5.682-5.612,7.504c-1.972,1.096-4.29,1.545-6.521,1.541
				c-1.467-0.002-2.935-0.076-4.402-0.089"/>
			<path fill="#F44E43" stroke="#000000" stroke-width="0.5" stroke-linecap="round" stroke-linejoin="bevel" d="M38.938,23.667
				c1.85,0.84,1.592,4.58,1.28,6.125c-0.383,1.899-2.209,2.965-4.088,3c-1.264,0.022-2.819-0.363-2.994,1.35
				c-0.099,0.971,0.57,2.491,1.352,3.099c1.363,1.061,3.143,1.266,4.673,1.94c0.121,0.054-4.307,2.545-4.6,2.693
				c-2.057,1.038-4.336,2.281-5.197,4.634c-0.601,1.642-0.529,2.815,1.252,3.253c1.167,0.286,2.067-1.124,3.121-0.912
				c0.467,0.094,0.729,0.896,1.377,0.966c0.664,0.072,1.208-0.362,1.629-0.82c0.985-1.07,1.323-2.7,2.602-3.542
				c1.962-1.293,4.584-1.379,6.201-3.269c2.1-2.453-1.673-4.679-3.289-5.954c-1.154-0.911-3.629-2.441-3.631-4.12"/>
		</g>
		<g>
			<path fill="none" stroke="#000000" stroke-width="0.5" stroke-linecap="round" stroke-linejoin="bevel" d="M55.313,22.969
				c-0.527,2.837,0.969,5.08,3.179,6.609c0.531,0.368,0.926,0.81,1.399,1.234"/>
			<path fill="none" stroke="#000000" stroke-width="0.5" stroke-linecap="round" stroke-linejoin="bevel" d="M38.891,31.938
				c1.486,1.035,2.599,1.622,4.481,1.649c1.711,0.024,3.405-0.315,5.114-0.352c1.964-0.041,3.955,0.09,5.906-0.19
				c0.977-0.14,2.004-0.373,2.909-0.774c0.791-0.35,1.465-1.137,2.345-1.25"/>
			<path fill="none" stroke="#000000" stroke-width="0.5" stroke-linecap="round" stroke-linejoin="bevel" d="M57.604,31.938
				c-0.79-0.293-1.594-0.557-2.372-0.88c-1.725-0.715-2.713-1.652-3.555-3.301c-0.889-1.744-2.03-3.848-1.552-5.881"/>
			<path fill="none" stroke="#000000" stroke-width="0.5" stroke-linecap="round" stroke-linejoin="bevel" d="M53.271,33.083
				c-1.509-0.554-2.783-1.969-3.997-3.007c-1.837-1.572-2.432-2.901-2.952-5.268c-0.204-0.925-0.578-1.889-0.259-2.83"/>
			<path fill="none" stroke="#000000" stroke-width="0.5" stroke-linecap="round" stroke-linejoin="bevel" d="M47.313,33.104
				c-1.223-1.507-3.466-2.428-4.291-4.254c-0.357-0.795-0.349-1.895-0.578-2.76c-0.233-0.878-0.403-1.865-0.242-2.772
				c0.044-0.252,0.134-0.51,0.257-0.735"/>
			<path fill="none" stroke="#000000" stroke-width="0.75" stroke-linecap="round" d="M25.818,47.297
				c-0.158-0.567-0.084-0.932,0.219-1.438"/>
			<path fill="none" stroke="#000000" stroke-width="0.75" stroke-linecap="round" d="M24.275,46.863
				c-0.499-0.718-0.185-1.262,0.333-1.795"/>
		</g>
	</g>
</g>
</svg>
