<?xml version="1.0" encoding="UTF-8" standalone="no"?>
<!-- Created with Inkscape (http://www.inkscape.org/) -->

<svg
   xmlns:dc="http://purl.org/dc/elements/1.1/"
   xmlns:cc="http://creativecommons.org/ns#"
   xmlns:rdf="http://www.w3.org/1999/02/22-rdf-syntax-ns#"
   xmlns:svg="http://www.w3.org/2000/svg"
   xmlns="http://www.w3.org/2000/svg"
   xmlns:sodipodi="http://sodipodi.sourceforge.net/DTD/sodipodi-0.dtd"
   xmlns:inkscape="http://www.inkscape.org/namespaces/inkscape"
   width="331.22369"
   height="331.19272"
   id="svg3154"
   version="1.1"
   inkscape:version="0.48.3.1 r9886"
   sodipodi:docname="New document 2">
  <defs
     id="defs3156" />
  <sodipodi:namedview
     id="base"
     pagecolor="#ffffff"
     bordercolor="#666666"
     borderopacity="1.0"
     inkscape:pageopacity="0.0"
     inkscape:pageshadow="2"
     inkscape:zoom="0.35"
     inkscape:cx="143.46899"
     inkscape:cy="-0.12070337"
     inkscape:document-units="px"
     inkscape:current-layer="layer1"
     showgrid="false"
     fit-margin-top="0"
     fit-margin-left="0"
     fit-margin-right="0"
     fit-margin-bottom="0"
     inkscape:window-width="472"
     inkscape:window-height="383"
     inkscape:window-x="334"
     inkscape:window-y="319"
     inkscape:window-maximized="0" />
  <metadata
     id="metadata3159">
    <rdf:RDF>
      <cc:Work
         rdf:about="">
        <dc:format>image/svg+xml</dc:format>
        <dc:type
           rdf:resource="http://purl.org/dc/dcmitype/StillImage" />
        <dc:title></dc:title>
      </cc:Work>
    </rdf:RDF>
  </metadata>
  <g
     inkscape:label="Layer 1"
     inkscape:groupmode="layer"
     id="layer1"
     transform="translate(-231.53101,-201.04875)">
    <g
       id="g3288"
       transform="translate(923.78571,-657.42839)">
      <path
         transform="matrix(0.9907607,0,0,0.9907607,-379.01951,468.89146)"
         d="m 12,560.36218 c 0,88.91785 -72.082155,161 -161,161 -88.91784,0 -161,-72.08215 -161,-161 0,-88.91784 72.08216,-161 161,-161 88.917845,0 161,72.08216 161,161 z"
         sodipodi:ry="161"
         sodipodi:rx="161"
         sodipodi:cy="560.36218"
         sodipodi:cx="-149"
         id="path3871"
         style="fill:#acacac;fill-opacity:1;stroke:#ffed00;stroke-width:12.28853703;stroke-linecap:round;stroke-miterlimit:4;stroke-opacity:1;stroke-dasharray:none"
         sodipodi:type="arc" />
      <path
         sodipodi:type="arc"
         style="fill:#acacac;fill-opacity:1;stroke:#ffed00;stroke-width:12.10834694;stroke-linecap:round;stroke-miterlimit:4;stroke-opacity:1;stroke-dasharray:none"
         id="path3873"
         sodipodi:cx="-149"
         sodipodi:cy="560.36218"
         sodipodi:rx="161"
         sodipodi:ry="161"
         d="m 12,560.36218 c 0,88.91785 -72.082155,161 -161,161 -88.91784,0 -161,-72.08215 -161,-161 0,-88.91784 72.08216,-161 161,-161 88.917845,0 161,72.08216 161,161 z"
         transform="matrix(0.7432889,0,0,0.7432889,-415.8928,607.56528)" />
      <path
         inkscape:connector-curvature="0"
         sodipodi:nodetypes="cccccccccccccccc"
         id="path3877"
         d="m -493.05228,1138.961 0,-138.2384 -78.83415,0 0,69.7817 26,0 0,-43.4975 26,0 0,69.4975 -78,0 0,-121.78173 48.83415,0 0,-20 28,0 0,-20 28,0 0,-29.23869"
         style="fill:none;stroke:#ffed00;stroke-width:9;stroke-linecap:butt;stroke-linejoin:miter;stroke-miterlimit:4;stroke-opacity:1;stroke-dasharray:none" />
      <path
         transform="matrix(0.160329,0,0,0.160329,-426.38629,924.33447)"
         d="m 12,560.36218 c 0,88.91785 -72.082155,161 -161,161 -88.91784,0 -161,-72.08215 -161,-161 0,-88.91784 72.08216,-161 161,-161 88.917845,0 161,72.08216 161,161 z"
         sodipodi:ry="161"
         sodipodi:rx="161"
         sodipodi:cy="560.36218"
         sodipodi:cx="-149"
         id="path3879"
         style="fill:#acacac;fill-opacity:1;stroke:#ffed00;stroke-width:56.13457489;stroke-linecap:round;stroke-miterlimit:4;stroke-opacity:1;stroke-dasharray:none"
         sodipodi:type="arc" />
      <path
         sodipodi:type="arc"
         style="fill:#acacac;fill-opacity:1;stroke:#ffed00;stroke-width:134.0057373;stroke-linecap:round;stroke-miterlimit:4;stroke-opacity:1;stroke-dasharray:none"
         id="path3881"
         sodipodi:cx="-149"
         sodipodi:cy="560.36218"
         sodipodi:rx="161"
         sodipodi:ry="161"
         d="m 12,560.36218 c 0,88.91785 -72.082155,161 -161,161 -88.91784,0 -161,-72.08215 -161,-161 0,-88.91784 72.08216,-161 161,-161 88.917845,0 161,72.08216 161,161 z"
         transform="matrix(0.0671613,0,0,0.0671613,-440.26827,976.54212)" />
    </g>
  </g>
</svg>
