<?xml version="1.0" encoding="UTF-8" standalone="no"?>
<!-- Created with Inkscape (http://www.inkscape.org/) -->

<svg
   xmlns:dc="http://purl.org/dc/elements/1.1/"
   xmlns:cc="http://creativecommons.org/ns#"
   xmlns:rdf="http://www.w3.org/1999/02/22-rdf-syntax-ns#"
   xmlns:svg="http://www.w3.org/2000/svg"
   xmlns="http://www.w3.org/2000/svg"
   xmlns:xlink="http://www.w3.org/1999/xlink"
   xmlns:inkscape="http://www.inkscape.org/namespaces/inkscape"
   version="1.0"
   width="331.22369"
   height="331.19272"
   id="svg2">
  <defs
     id="defs4">
    <inkscape:path-effect
       effect="spiro"
       id="path-effect2627" />
    <inkscape:path-effect
       id="path-effect2623" />
    <inkscape:path-effect
       effect="spiro"
       id="path-effect2621" />
    <inkscape:path-effect
       effect="spiro"
       id="path-effect2615" />
    <inkscape:path-effect
       effect="spiro"
       id="path-effect2613" />
    <inkscape:path-effect
       id="path-effect2626" />
    <inkscape:path-effect
       effect="spiro"
       id="path-effect2624" />
    <inkscape:path-effect
       id="path-effect2620" />
    <inkscape:path-effect
       effect="spiro"
       id="path-effect2618" />
  </defs>
  <metadata
     id="metadata7">
    <rdf:RDF>
      <cc:Work
         rdf:about="">
        <dc:format>image/svg+xml</dc:format>
        <dc:type
           rdf:resource="http://purl.org/dc/dcmitype/StillImage" />
        <dc:title></dc:title>
      </cc:Work>
    </rdf:RDF>
  </metadata>
  <g
     transform="translate(-43.674012,-50.946678)"
     id="layer1">
    <g
       transform="translate(803.92871,-351.53047)"
       id="g3295">
      <path
         d="m 12,560.36218 a 161,161 0 1 1 -322,0 161,161 0 1 1 322,0 z"
         transform="matrix(0.9907607,0,0,0.9907607,-447.01951,12.891464)"
         id="path3245"
         style="fill:#acacac;fill-opacity:1;stroke:#ffed00;stroke-width:12.28853703;stroke-linecap:round;stroke-miterlimit:4;stroke-opacity:1;stroke-dasharray:none" />
      <path
         d="m -594.64285,418.41818 c -82.57223,0 -149.64135,67.09754 -149.64135,149.66978 0,82.57223 67.06912,149.64135 149.64135,149.64135 82.57224,0 149.64135,-67.06912 149.64135,-149.64135 0,-82.57224 -67.06911,-149.66978 -149.64135,-149.66978 z m 0,6.34049 c 79.14755,0 143.32929,64.18173 143.32929,143.32929 0,79.14755 -64.18174,143.30085 -143.32929,143.30085 -79.14755,0 -143.32929,-64.1533 -143.32929,-143.30085 0,-79.14756 64.18174,-143.32929 143.32929,-143.32929 z"
         id="path3247"
         style="fill:#ffff00;fill-opacity:1;stroke:none" />
      <g
         id="g3773"
         style="fill:#ffed00;fill-opacity:1">
        <g
           id="g3424"
           style="fill:#ffed00;fill-opacity:1">
          <path
             d="m -594.64286,453.18271 c -63.39078,0 -114.90251,51.51173 -114.90251,114.90251 0,63.39078 51.51173,114.90251 114.90251,114.90251 63.39078,0 114.90251,-51.51173 114.90251,-114.90251 0,-63.39078 -51.51173,-114.90251 -114.90251,-114.90251 z m 0,6.33287 c 59.96585,0 108.56964,48.60379 108.56964,108.56964 0,59.96585 -48.60379,108.56964 -108.56964,108.56964 -59.96585,0 -108.56965,-48.60379 -108.56965,-108.56964 0,-59.96585 48.6038,-108.56964 108.56965,-108.56964 z"
             id="path3249"
             style="fill:#ffed00;fill-opacity:1;stroke:none" />
          <path
             d="m -651.83814,487.20088 c 5.91677,4.78999 6.03033,12.02949 0.25254,16.92006 -1.76776,1.26269 -9.59645,3.03046 -9.59645,3.03046 0,0 1.01015,6.81853 -1.51523,8.83884 -2.52538,2.0203 -5.30329,2.27285 -7.19733,0.63135 -3.77953,-4.54396 -5.94456,-9.48827 -7.07106,-13.132 0,0 6.56599,-3.53552 6.43972,-4.41941 -0.12627,-0.88388 0.56819,-6.62912 0.56819,-6.62912 0,0 10.2788,0.52692 14.20529,-1.95717 3.09359,-1.95717 3.91433,-3.28301 3.91433,-3.28301 z"
             id="path3276"
             style="fill:#ffed00;fill-opacity:1;fill-rule:evenodd;stroke:none" />
          <g
             transform="translate(-445.71429,77.673315)"
             id="g3229"
             style="fill:#ffed00;fill-opacity:1">
            <path
               d="m -148.9375,383.96875 c -1.84858,0 -3.24549,0.88219 -4.34375,1.8125 -1.09826,0.93031 -2.01726,2.01166 -2.9375,3.1875 -1.84048,2.35168 -3.65644,5.0519 -5.53125,7.09375 -1.87481,2.04185 -3.65831,3.21907 -5.125,3.34375 -1.46669,0.12468 -3.45124,-0.47068 -6.53125,-4.03125 -0.69188,-0.8841 -1.81347,-1.3167 -2.91982,-1.12618 -1.10636,0.19052 -2.01865,0.97336 -2.37495,2.03796 -0.3563,1.0646 -0.099,2.23887 0.66977,3.05697 3.78703,4.3779 7.81923,6.45382 11.6875,6.125 3.86827,-0.32882 6.76884,-2.7492 9.09375,-5.28125 2.32491,-2.53205 4.2229,-5.36644 5.84375,-7.4375 0.81043,-1.03553 1.54029,-1.87015 2.0625,-2.3125 0.52221,-0.44235 0.69493,-0.375 0.40625,-0.375 1.12304,0.0533 2.18434,-0.51549 2.76182,-1.48015 0.57747,-0.96467 0.57747,-2.16878 0,-3.13345 -0.57748,-0.96466 -1.63878,-1.53345 -2.76182,-1.48015 z"
               id="path3231"
               style="fill:#ffed00;fill-opacity:1;fill-rule:evenodd;stroke:none" />
            <path
               d="m -149.21875,383.96875 c -1.66875,0.0955 -2.9498,1.51625 -2.87274,3.18595 0.0771,1.6697 1.48354,2.96639 3.15399,2.9078 -0.28868,0 -0.11596,-0.0673 0.40625,0.375 0.52221,0.44235 1.28332,1.27697 2.09375,2.3125 1.62085,2.07106 3.51884,4.90545 5.84375,7.4375 2.32491,2.53205 5.22548,4.95243 9.09375,5.28125 3.86827,0.32882 7.86922,-1.7471 11.65625,-6.125 0.84293,-0.7999 1.15814,-2.00926 0.8129,-3.11885 -0.34524,-1.10958 -1.29095,-1.92662 -2.4389,-2.10707 -1.14796,-0.18046 -2.29873,0.30702 -2.96775,1.25717 -3.08001,3.56057 -5.09581,4.15593 -6.5625,4.03125 -1.46669,-0.12468 -3.21894,-1.3019 -5.09375,-3.34375 -1.87481,-2.04185 -3.69077,-4.74207 -5.53125,-7.09375 -0.92024,-1.17584 -1.83924,-2.25719 -2.9375,-3.1875 -1.09826,-0.93031 -2.52642,-1.8125 -4.375,-1.8125 -0.0937,-0.004 -0.18755,-0.004 -0.28125,0 l 0,0 z"
               id="use3233"
               style="fill:#ffed00;fill-opacity:1;fill-rule:evenodd;stroke:none" />
          </g>
          <path
             d="m -698.64761,574.95119 5.79465,0 0,-5.17858 3.77541,-1.04194 0,-5.11877 c 0,0 -6.20105,3.12602 -8.9897,1.16071 -3.6216,-2.55234 5.47912,-23.16868 8.78571,-21.70535 11.41155,9.19915 14.45528,43.57939 0.80357,50.8125 -8.21017,0 -9.87762,-11.20547 -10.16964,-18.92857 z"
             id="path3235"
             style="fill:#ffed00;fill-opacity:1;fill-rule:evenodd;stroke:none" />
          <use
             transform="matrix(-1,0,0,1,-1189.2857,0)"
             id="use3325"
             style="fill:#ffed00;fill-opacity:1"
             x="0"
             y="0"
             width="744.09448"
             height="1052.3622"
             xlink:href="#path3235" />
          <use
             transform="matrix(0.9999999,-8.5712909e-8,-8.5712909e-8,-0.9999999,2.5033707e-5,1136.1525)"
             id="use3327"
             style="fill:#ffed00;fill-opacity:1"
             x="0"
             y="0"
             width="744.09448"
             height="1052.3622"
             xlink:href="#path3276" />
          <rect
             width="5.833631"
             height="29.168152"
             ry="0"
             x="-801.93079"
             y="84.609711"
             transform="matrix(0.8660254,-0.5,0.5,0.8660254,0,0)"
             id="rect3329"
             style="fill:#ffed00;fill-opacity:1;stroke:none" />
          <use
             transform="matrix(0.8660254,-0.4999999,0.4999999,0.8660254,-363.70517,-221.21366)"
             id="use3361"
             style="fill:#ffed00;fill-opacity:1"
             x="0"
             y="0"
             width="744.09448"
             height="1052.3622"
             xlink:href="#rect3329" />
          <use
             transform="matrix(8.5712909e-8,-0.9999999,0.9999999,8.5712909e-8,-1162.7191,-26.566634)"
             id="use3363"
             style="fill:#ffed00;fill-opacity:1"
             x="0"
             y="0"
             width="744.09448"
             height="1052.3622"
             xlink:href="#rect3329" />
          <path
             d="m -537.44763,487.20088 c -5.91677,4.78999 -6.03033,12.02949 -0.25254,16.92006 1.76776,1.26269 9.59645,3.03046 9.59645,3.03046 0,0 -1.01015,6.81853 1.51523,8.83884 2.52538,2.0203 5.30329,2.27285 7.19733,0.63135 3.77953,-4.54396 5.94456,-9.48827 7.07106,-13.132 0,0 -6.56599,-3.53552 -6.43972,-4.41941 0.12627,-0.88388 -0.56819,-6.62912 -0.56819,-6.62912 0,0 -10.2788,0.52692 -14.20529,-1.95717 -3.09359,-1.95717 -3.91433,-3.28301 -3.91433,-3.28301 z"
             id="path3365"
             style="fill:#ffed00;fill-opacity:1;fill-rule:evenodd;stroke:none" />
          <use
             transform="matrix(-0.9999999,-8.5712909e-8,8.5712909e-8,-0.9999999,-1189.2858,1136.1525)"
             id="use3367"
             style="fill:#ffed00;fill-opacity:1"
             x="0"
             y="0"
             width="744.09448"
             height="1052.3622"
             xlink:href="#path3276" />
          <rect
             width="5.833631"
             height="29.168152"
             ry="0"
             x="228.0209"
             y="679.25262"
             transform="matrix(-0.8660254,-0.5,-0.5,0.8660254,0,0)"
             id="rect3369"
             style="fill:#ffed00;fill-opacity:1;stroke:none" />
          <use
             transform="matrix(-0.8660254,-0.4999999,-0.4999999,0.8660254,-825.5806,-221.21366)"
             id="use3371"
             style="fill:#ffed00;fill-opacity:1"
             x="0"
             y="0"
             width="744.09448"
             height="1052.3622"
             xlink:href="#rect3329" />
          <use
             transform="matrix(-8.5712909e-8,-0.9999999,-0.9999999,8.5712909e-8,-26.566668,-26.566634)"
             id="use3373"
             style="fill:#ffed00;fill-opacity:1"
             x="0"
             y="0"
             width="744.09448"
             height="1052.3622"
             xlink:href="#rect3329" />
          <path
             d="m -176.75,417.11091 21.21873,36.75191 -42.43746,0 z"
             transform="matrix(0.6432457,-0.6432456,1.0720016,1.0720016,-1044.5877,-109.25589)"
             id="path2494"
             style="fill:#ffed00;fill-opacity:1;stroke:none" />
          <use
             transform="matrix(0,-1,1,0,-1162.7191,-26.566596)"
             id="use2496"
             style="fill:#ffed00;fill-opacity:1"
             x="0"
             y="0"
             width="744.09448"
             height="1052.3622"
             xlink:href="#path2494" />
          <use
             transform="matrix(-1,0,0,-1,-1189.2857,1136.1525)"
             id="use2498"
             style="fill:#ffed00;fill-opacity:1"
             x="0"
             y="0"
             width="744.09448"
             height="1052.3622"
             xlink:href="#path2494" />
          <use
             transform="matrix(0,1,-1,0,-26.566594,1162.7191)"
             id="use2500"
             style="fill:#ffed00;fill-opacity:1"
             x="0"
             y="0"
             width="744.09448"
             height="1052.3622"
             xlink:href="#path2494" />
          <path
             d="m -595.28442,486.46374 c -28.95553,0.26623 -56.8788,15.95586 -71.41662,43.2975 -21.1459,39.76968 -6.03299,89.23377 33.73669,110.37967 0.48827,0.25926 1.09427,0.0736 1.35353,-0.41467 0.25926,-0.48827 0.0736,-1.09427 -0.41466,-1.35353 -38.81422,-20.63787 -53.56088,-68.85839 -32.923,-107.6726 20.63789,-38.81421 68.87403,-53.56088 107.68824,-32.923 38.81421,20.63789 53.56088,68.85839 32.923,107.6726 -7.81092,14.69021 -18.2328,25.11208 -32.923,32.923 -0.48827,0.25926 -0.67392,0.86526 -0.41466,1.35353 0.25926,0.48828 0.86526,0.67393 1.35353,0.41467 14.99704,-7.97407 25.76262,-18.75528 33.73669,-33.75233 21.14591,-39.76968 6.03298,-89.23376 -33.73669,-110.37967 -12.42802,-6.6081 -25.80145,-9.66618 -38.96305,-9.54517 z"
             id="path3253"
             style="fill:#ffed00;fill-opacity:1;stroke:none" />
          <path
             d="m -631.71875,638.59375 -1.53125,1.3125 c 3.78503,4.42963 3.68376,9.34462 1.78125,14.5625 -1.90251,5.21788 -5.69889,10.56295 -9.125,15.25 l 1.625,1.1875 c 3.43808,-4.70342 7.33314,-10.14996 9.375,-15.75 2.04186,-5.60004 2.1617,-11.54576 -2.125,-16.5625 z"
             id="path3379"
             style="fill:#ffed00;fill-opacity:1;fill-rule:evenodd;stroke:none" />
          <use
             transform="matrix(-1,0,0,1,-1189.2857,0)"
             id="use3274"
             style="fill:#ffed00;fill-opacity:1"
             x="0"
             y="0"
             width="744.09448"
             height="1052.3622"
             xlink:href="#path3379" />
        </g>
        <g
           id="g3750"
           style="fill:#ffed00;fill-opacity:1">
          <path
             d="m -594.6875,490.90625 c -21.6893,0 -44.72544,15.23736 -56.59375,31.125 7.0711,15.79206 5.18603,30.16137 -5.65625,43.125 34.33053,7.22989 29.28703,34.07068 25.28125,60.46875 l 25.40625,17.1875 c 0.7101,2.5755 1.12172,5.50176 3.40625,7.5625 2.28452,2.06071 5.62318,0.16782 8.15625,-0.71875 2.53307,0.88657 5.84047,2.77946 8.125,0.71875 2.28453,-2.06074 2.69614,-4.987 3.40625,-7.5625 L -557.75,625.625 c -4.00578,-26.39807 -9.04928,-53.23886 25.28125,-60.46875 -10.84228,-12.96363 -12.72735,-27.33294 -5.65625,-43.125 -11.86831,-15.88764 -34.8732,-31.125 -56.5625,-31.125 z m -28.09375,37.53125 c 11.39554,-5e-5 20.74998,9.29199 20.75,20.6875 0,11.39552 -9.35447,20.78127 -20.75,20.78125 -11.39554,5e-5 -20.68747,-9.38573 -20.6875,-20.78125 0,-11.39551 9.29201,-20.68749 20.6875,-20.6875 z m 56.15625,0 c 11.39549,10e-6 20.6875,9.29199 20.6875,20.6875 3e-5,11.39552 -9.29196,20.7813 -20.6875,20.78125 -11.39553,2e-5 -20.75,-9.38573 -20.75,-20.78125 10e-6,-11.39551 9.35446,-20.68755 20.75,-20.6875 z m -56.15625,7.90625 c -7.13032,0 -12.78124,5.65093 -12.78125,12.78125 0,7.13033 5.65097,12.875 12.78125,12.875 7.13032,0 12.84374,-5.74467 12.84375,-12.875 0,-7.13032 -5.71343,-12.78128 -12.84375,-12.78125 z m 56.15625,0 c -7.13032,-3e-5 -12.84375,5.65093 -12.84375,12.78125 10e-6,7.13033 5.71343,12.875 12.84375,12.875 7.13028,0 12.78125,-5.74467 12.78125,-12.875 -10e-6,-7.13032 -5.65093,-12.78125 -12.78125,-12.78125 z m -28.0625,22.8125 c 3.63966,1.96093 11.02275,14.19776 12.40625,20.75 0.82881,3.92529 -1.47195,6.5443 -6,2.875 -1.88388,-1.52661 -6.40626,-8.43753 -6.40625,-8.4375 10e-6,-3e-5 -4.55362,6.91089 -6.4375,8.4375 -4.52805,3.6693 -6.82881,1.05029 -6,-2.875 1.3835,-6.55224 8.79784,-18.78907 12.4375,-20.75 z M -650.8125,570.5 c -7.2051,2e-5 -13.09375,5.88868 -13.09375,13.09375 -3e-5,4.9043 2.73078,9.22168 6.75,11.46875 4.59221,4.03974 6.00673,8.39724 8.40625,12.65625 l 10.90625,-3.21875 0,-19.125 c 0.0793,-0.57969 0.15625,-1.18083 0.15625,-1.78125 -3e-5,-7.20505 -5.91992,-13.09379 -13.125,-13.09375 z m 112.21875,0 c -7.20508,-4e-5 -13.12497,5.8887 -13.125,13.09375 0,0.60042 0.0769,1.20156 0.15625,1.78125 l 0,19.125 10.90625,3.21875 c 2.39952,-4.25901 3.81404,-8.61651 8.40625,-12.65625 4.01922,-2.24707 6.75003,-6.56445 6.75,-11.46875 0,-7.20507 -5.88865,-13.09373 -13.09375,-13.09375 z m -112.21875,5.59375 c 4.18378,-4e-5 7.5625,3.31622 7.5625,7.5 2e-5,4.1838 -3.37872,7.5625 -7.5625,7.5625 -4.18374,3e-5 -7.5,-3.37872 -7.5,-7.5625 -2e-5,-4.18376 3.31622,-7.5 7.5,-7.5 z m 112.21875,0 c 4.18378,0 7.53127,3.31624 7.53125,7.5 0,4.18378 -3.34751,7.56253 -7.53125,7.5625 -4.18378,0 -7.56252,-3.3787 -7.5625,-7.5625 0,-4.18378 3.37872,-7.50004 7.5625,-7.5 z m -85.25,8.625 c 4.69125,-2e-5 8.40625,7.5625 8.40625,7.5625 -10e-6,-3e-5 20.75,-0.1875 20.75,-0.1875 0,0 20.71875,0.18747 20.71875,0.1875 0,0 3.71499,-7.56252 8.40625,-7.5625 0,0 0.40626,39.25 0.40625,39.25 0,0 -12.28221,9.19777 -17.59375,13.75 0,0 -4.04797,-2.81252 -11.9375,-2.8125 -7.88953,-2e-5 -11.96875,2.8125 -11.96875,2.8125 -5.31154,-4.55223 -17.59375,-13.75 -17.59375,-13.75 -10e-6,0 0.40625,-39.25 0.40625,-39.25 z"
             id="path3239"
             style="fill:#ffed00;fill-opacity:1;fill-rule:evenodd;stroke:none" />
          <rect
             width="4.9497476"
             height="9.8994951"
             ry="2.4748738"
             x="-617.03888"
             y="602.81909"
             id="rect3257"
             style="fill:#ffed00;fill-opacity:1;stroke:none" />
          <rect
             width="4.9497476"
             height="9.8994951"
             ry="2.4748738"
             x="-609.03888"
             y="602.46552"
             id="rect3259"
             style="fill:#ffed00;fill-opacity:1;stroke:none" />
          <rect
             width="4.9497476"
             height="9.8994951"
             ry="2.4748738"
             x="-601.03888"
             y="602.11194"
             id="rect3261"
             style="fill:#ffed00;fill-opacity:1;stroke:none" />
          <rect
             width="4.9497476"
             height="9.8994951"
             ry="2.4748738"
             x="-617.03888"
             y="616.81909"
             id="rect3265"
             style="fill:#ffed00;fill-opacity:1;stroke:none" />
          <rect
             width="4.9497476"
             height="9.8994951"
             ry="2.4748738"
             x="-609.03888"
             y="614.81909"
             id="rect3267"
             style="fill:#ffed00;fill-opacity:1;stroke:none" />
          <rect
             width="4.9497476"
             height="9.8994951"
             ry="2.4748738"
             x="-601.03888"
             y="614.112"
             id="rect3269"
             style="fill:#ffed00;fill-opacity:1;stroke:none" />
          <path
             d="m -619.125,656.73718 a 2.8125,5.125 0 1 1 -5.625,0 2.8125,5.125 0 1 1 5.625,0 z"
             transform="matrix(1.1777778,0,0,0.9634146,110.06667,23.83947)"
             id="path2487"
             style="fill:#ffed00;fill-opacity:1;stroke:none" />
          <path
             d="m -619.125,656.73718 a 2.8125,5.125 0 1 1 -5.625,0 2.8125,5.125 0 1 1 5.625,0 z"
             transform="matrix(1.1067491,0.4028238,-0.1209583,0.3323302,152.82908,692.07718)"
             id="path2489"
             style="fill:#ffed00;fill-opacity:1;stroke:none" />
          <path
             d="m -619.125,656.73718 a 2.8125,5.125 0 1 1 -5.625,0 2.8125,5.125 0 1 1 5.625,0 z"
             transform="matrix(1.1598847,0.204519,-0.1672952,0.9487782,232.80726,168.64978)"
             id="path2490"
             style="fill:#ffed00;fill-opacity:1;stroke:none" />
          <path
             d="m -619.125,656.73718 a 2.8125,5.125 0 1 1 -5.625,0 2.8125,5.125 0 1 1 5.625,0 z"
             transform="matrix(0.5888888,1.0199856,-0.3062772,0.1768293,-39.166854,1180.6615)"
             id="path2492"
             style="fill:#ffed00;fill-opacity:1;stroke:none" />
          <rect
             width="4.9497476"
             height="9.8994951"
             ry="2.4748738"
             x="572.35956"
             y="602.81909"
             transform="scale(-1,1)"
             id="rect3606"
             style="fill:#ffed00;fill-opacity:1;stroke:none" />
          <rect
             width="4.9497476"
             height="9.8994951"
             ry="2.4748738"
             x="580.35956"
             y="602.46552"
             transform="scale(-1,1)"
             id="rect3608"
             style="fill:#ffed00;fill-opacity:1;stroke:none" />
          <rect
             width="4.9497476"
             height="9.8994951"
             ry="2.4748738"
             x="588.35956"
             y="602.11194"
             transform="scale(-1,1)"
             id="rect3610"
             style="fill:#ffed00;fill-opacity:1;stroke:none" />
          <rect
             width="4.9497476"
             height="9.8994951"
             ry="2.4748738"
             x="572.35956"
             y="616.81909"
             transform="scale(-1,1)"
             id="rect3612"
             style="fill:#ffed00;fill-opacity:1;stroke:none" />
          <rect
             width="4.9497476"
             height="9.8994951"
             ry="2.4748738"
             x="580.35956"
             y="614.81909"
             transform="scale(-1,1)"
             id="rect3614"
             style="fill:#ffed00;fill-opacity:1;stroke:none" />
          <rect
             width="4.9497476"
             height="9.8994951"
             ry="2.4748738"
             x="588.35956"
             y="614.112"
             transform="scale(-1,1)"
             id="rect3616"
             style="fill:#ffed00;fill-opacity:1;stroke:none" />
          <path
             d="m -619.125,656.73718 a 2.8125,5.125 0 1 1 -5.625,0 2.8125,5.125 0 1 1 5.625,0 z"
             transform="matrix(-1.1777778,0,0,0.9634146,-1299.4651,23.83947)"
             id="path3618"
             style="fill:#ffed00;fill-opacity:1;stroke:none" />
          <path
             d="m -619.125,656.73718 a 2.8125,5.125 0 1 1 -5.625,0 2.8125,5.125 0 1 1 5.625,0 z"
             transform="matrix(-1.1067491,0.4028238,0.1209583,0.3323302,-1342.2275,692.07718)"
             id="path3620"
             style="fill:#ffed00;fill-opacity:1;stroke:none" />
          <path
             d="m -619.125,656.73718 a 2.8125,5.125 0 1 1 -5.625,0 2.8125,5.125 0 1 1 5.625,0 z"
             transform="matrix(-1.1598847,0.204519,0.1672952,0.9487782,-1422.2057,168.64978)"
             id="path3622"
             style="fill:#ffed00;fill-opacity:1;stroke:none" />
          <path
             d="m -619.125,656.73718 a 2.8125,5.125 0 1 1 -5.625,0 2.8125,5.125 0 1 1 5.625,0 z"
             transform="matrix(-0.5888888,1.0199856,0.3062772,0.1768293,-1150.2316,1180.6615)"
             id="path3624"
             style="fill:#ffed00;fill-opacity:1;stroke:none" />
        </g>
      </g>
      <g
         id="g3491"
         style="fill:#ffff00;fill-opacity:1;stroke:#ffed00;stroke-width:1;stroke-miterlimit:4;stroke-opacity:1;stroke-dasharray:none">
        <g
           transform="matrix(0.8660254,-0.4999999,0.4999999,0.8660254,-695.2307,68.853036)"
           id="g3284"
           style="fill:#ffff00;fill-opacity:1;stroke:#ffed00;stroke-width:1;stroke-miterlimit:4;stroke-opacity:1;stroke-dasharray:none">
          <path
             d="m -672.53125,429.25 c -0.64455,0.0799 -1.27744,0.31125 -1.875,0.65625 -2.39023,1.38 -3.22374,4.42228 -1.84375,6.8125 0.95144,1.64794 2.69027,2.55126 4.46875,2.5 -1.42492,1.88449 -1.66305,4.51068 -0.40625,6.6875 0.91365,1.58245 2.42975,2.61261 4.09375,2.9375 l 6.53125,14 c -0.20208,0.0883 -0.39807,0.19952 -0.59375,0.3125 -2.90236,1.67568 -3.89447,5.37881 -2.21875,8.28125 1.67577,2.90239 5.37885,3.89446 8.28125,2.21875 0.63865,-0.36872 1.17917,-0.8392 1.625,-1.375 0.0104,5e-4 0.0209,-4.8e-4 0.0312,0 1.31903,0.0614 2.68904,-0.24795 3.9375,-0.96875 1.24853,-0.72083 2.17493,-1.76455 2.78125,-2.9375 0.69806,-0.11623 1.38263,-0.34427 2.03125,-0.71875 2.90248,-1.67574 3.89446,-5.37883 2.21875,-8.28125 -1.15199,-1.99545 -3.25298,-3.0868 -5.40625,-3.03125 -0.9787,0.0252 -1.968,0.28884 -2.875,0.8125 -0.19696,0.11371 -0.38233,0.24419 -0.5625,0.375 l -8.875,-12.71875 c 0.53464,-1.59355 0.43711,-3.39977 -0.46875,-4.96875 -1.15203,-1.99543 -3.28423,-3.0868 -5.4375,-3.03125 -0.20419,0.005 -0.42074,0.0363 -0.625,0.0625 0.9535,-1.51911 1.08364,-3.49582 0.125,-5.15625 -1.035,-1.79267 -3.00384,-2.7083 -4.9375,-2.46875 z m 9.25,18.5 7.96875,11.375 c -0.62095,0.15982 -1.22832,0.41272 -1.8125,0.75 -0.57628,0.33272 -1.08872,0.74088 -1.53125,1.1875 l -5.875,-12.59375 c 0.21859,-0.0939 0.44518,-0.19064 0.65625,-0.3125 0.21407,-0.12359 0.40075,-0.26162 0.59375,-0.40625 z"
             transform="matrix(0.8660255,0.5,-0.5,0.8660255,636.51402,287.98683)"
             id="path3286"
             style="fill:#ffff00;fill-opacity:1;fill-rule:evenodd;stroke:#ffed00;stroke-width:0.99999994;stroke-linecap:butt;stroke-linejoin:miter;stroke-miterlimit:4;stroke-opacity:1;stroke-dasharray:none" />
        </g>
        <use
           transform="matrix(0.8660254,-0.4999999,0.4999999,0.8660254,-363.70517,-221.21364)"
           id="use3305"
           style="fill:#ffff00;fill-opacity:1;stroke:#ffed00;stroke-width:1;stroke-miterlimit:4;stroke-opacity:1;stroke-dasharray:none"
           x="0"
           y="0"
           width="744.09448"
           height="1052.3622"
           xlink:href="#g3284" />
        <use
           transform="matrix(8.5712909e-8,-0.9999999,0.9999999,8.5712909e-8,-1162.7191,-26.566575)"
           id="use3307"
           style="fill:#ffff00;fill-opacity:1;stroke:#ffed00;stroke-width:1.00000012;stroke-miterlimit:4;stroke-opacity:1;stroke-dasharray:none"
           x="0"
           y="0"
           width="744.09448"
           height="1052.3622"
           xlink:href="#g3284" />
        <use
           transform="matrix(-0.4999999,-0.8660254,0.8660254,-0.4999999,-1383.9328,337.13859)"
           id="use3309"
           style="fill:#ffff00;fill-opacity:1;stroke:#ffed00;stroke-width:1;stroke-miterlimit:4;stroke-opacity:1;stroke-dasharray:none"
           x="0"
           y="0"
           width="744.09448"
           height="1052.3622"
           xlink:href="#g3284" />
        <use
           transform="matrix(-1,0,0,1,-1189.2858,0)"
           id="use3317"
           style="fill:#ffff00;fill-opacity:1;stroke:#ffed00;stroke-width:1;stroke-miterlimit:4;stroke-opacity:1;stroke-dasharray:none"
           x="0"
           y="0"
           width="744.09448"
           height="1052.3622"
           xlink:href="#g3284" />
        <use
           transform="matrix(-0.8660254,-0.4999999,-0.4999999,0.8660254,-825.58058,-221.21364)"
           id="use3319"
           style="fill:#ffff00;fill-opacity:1;stroke:#ffed00;stroke-width:1;stroke-miterlimit:4;stroke-opacity:1;stroke-dasharray:none"
           x="0"
           y="0"
           width="744.09448"
           height="1052.3622"
           xlink:href="#g3284" />
        <use
           transform="matrix(-8.5712909e-8,-0.9999999,-0.9999999,8.5712909e-8,-26.566651,-26.566575)"
           id="use3321"
           style="fill:#ffff00;fill-opacity:1;stroke:#ffed00;stroke-width:1.00000012;stroke-miterlimit:4;stroke-opacity:1;stroke-dasharray:none"
           x="0"
           y="0"
           width="744.09448"
           height="1052.3622"
           xlink:href="#g3284" />
        <use
           transform="matrix(0.4999999,-0.8660254,-0.8660254,-0.4999999,194.64705,337.13859)"
           id="use3323"
           style="fill:#ffff00;fill-opacity:1;stroke:#ffed00;stroke-width:1;stroke-miterlimit:4;stroke-opacity:1;stroke-dasharray:none"
           x="0"
           y="0"
           width="744.09448"
           height="1052.3622"
           xlink:href="#g3284" />
      </g>
      <g
         id="g3509"
         style="fill:#ffff00;fill-opacity:1;stroke:#ffed00;stroke-opacity:1">
        <use
           transform="matrix(8.5712909e-8,0.9999999,-0.9999999,8.5712909e-8,-26.566619,1162.7191)"
           id="use3355"
           style="fill:#ffff00;fill-opacity:1;stroke:#ffed00;stroke-opacity:1"
           x="0"
           y="0"
           width="744.09448"
           height="1052.3622"
           xlink:href="#path3251" />
        <use
           transform="matrix(-0.9999999,8.5712909e-8,-8.5712909e-8,-0.9999999,-1189.2857,1136.1524)"
           id="use3357"
           style="fill:#ffff00;fill-opacity:1;stroke:#ffed00;stroke-opacity:1"
           x="0"
           y="0"
           width="744.09448"
           height="1052.3622"
           xlink:href="#path3251" />
        <use
           transform="matrix(-8.5712909e-8,-0.9999999,0.9999999,-8.5712909e-8,-1162.719,-26.566598)"
           id="use3359"
           style="fill:#ffff00;fill-opacity:1;stroke:#ffed00;stroke-opacity:1"
           x="0"
           y="0"
           width="744.09448"
           height="1052.3622"
           xlink:href="#path3251" />
        <path
           d="m -594.64286,417.25 c 0.9773,0.56425 2.37976,2.1623 3.4375,2.71875 1.61022,0.71991 3.0046,2.56032 4.15625,4.71875 1.12692,2.21387 1.80221,4.98021 2.625,7.9375 0.78012,2.97144 1.73483,6.17771 3.40625,9.28125 1.66079,3.15442 4.35345,5.98578 7.875,7.5625 3.86267,1.61216 8.16182,1.28896 11.625,-0.65625 3.44034,-1.95907 5.81004,-5.31437 6.59375,-9 0.69949,-3.201 0.14324,-6.65269 -1.6875,-9.34375 -0.9229,-1.33856 -2.16373,-2.44451 -3.59375,-3.1875 -1.4324,-0.74302 -3.03703,-1.101 -4.625,-1 -1.69532,0.1119 -3.33446,0.75229 -4.625,1.78125 -1.28961,1.03024 -2.19937,2.43313 -2.65625,3.96875 -0.45589,1.53597 -0.42542,3.18107 0.0625,4.65625 0.48843,1.47504 1.41991,2.78528 2.625,3.6875 -1.10595,-1.02133 -1.87477,-2.38942 -2.1875,-3.8125 -0.31324,-1.42293 -0.16401,-2.91727 0.375,-4.21875 0.53801,-1.30182 1.47904,-2.42328 2.625,-3.15625 1.14503,-0.73426 2.50159,-1.08401 3.8125,-1.03125 1.23068,0.0455 2.4267,0.46141 3.4375,1.125 1.01329,0.6637 1.86205,1.57537 2.4375,2.625 1.1644,2.08283 1.2165,4.74611 0.5,7 -0.84673,2.59541 -2.81185,4.79981 -5.15625,5.78125 -2.32019,0.99462 -5.15598,0.88433 -7.15625,-0.28125 -1.94601,-1.0137 -3.38559,-3.13717 -4.40625,-5.40625 -1.01078,-2.32147 -1.46001,-5.02717 -1.96875,-7.96875 -0.46607,-2.95576 -0.98741,-6.18975 -2.1875,-9.5625 -1.17491,-3.42711 -3.36455,-6.82245 -6.84375,-9.375 -2.46821,-1.71071 -5.84703,-3.31205 -8.5,-4.84375 -2.65297,1.5317 -6.03179,3.13304 -8.5,4.84375 -3.4792,2.55255 -5.66884,5.94789 -6.84375,9.375 -1.2001,3.37275 -1.72144,6.60674 -2.1875,9.5625 -0.50874,2.94158 -0.95797,5.64728 -1.96875,7.96875 -1.02066,2.26908 -2.46024,4.39255 -4.40625,5.40625 -2.00026,1.16558 -4.83606,1.27587 -7.15625,0.28125 -2.34441,-0.98144 -4.34077,-3.18584 -5.1875,-5.78125 -0.7165,-2.25389 -0.63315,-4.91717 0.53125,-7 0.57545,-1.04963 1.42421,-1.9613 2.4375,-2.625 1.0108,-0.66359 2.20682,-1.07946 3.4375,-1.125 1.31091,-0.0528 2.66747,0.29699 3.8125,1.03125 1.14596,0.73297 2.08699,1.85443 2.625,3.15625 0.539,1.30148 0.68824,2.79582 0.375,4.21875 -0.31273,1.42308 -1.08155,2.79117 -2.1875,3.8125 1.20509,-0.90222 2.13657,-2.21246 2.625,-3.6875 0.48792,-1.47518 0.5184,-3.12028 0.0625,-4.65625 -0.45689,-1.53562 -1.39789,-2.93851 -2.6875,-3.96875 -1.29054,-1.02896 -2.89843,-1.66935 -4.59375,-1.78125 -1.58796,-0.101 -3.19259,0.25698 -4.625,1 -1.43001,0.74299 -2.67085,1.84894 -3.59375,3.1875 -1.83074,2.69106 -2.38699,6.14274 -1.6875,9.34375 0.78371,3.68563 3.15341,7.04093 6.59375,9 3.46317,1.94521 7.76232,2.26841 11.625,0.65625 3.52155,-1.57672 6.2142,-4.40808 7.875,-7.5625 1.67142,-3.10354 2.62613,-6.30981 3.40625,-9.28125 0.82279,-2.95729 1.49808,-5.72363 2.625,-7.9375 1.15166,-2.15843 2.54602,-3.99884 4.15625,-4.71875 1.05774,-0.55645 2.4602,-2.1545 3.4375,-2.71875 z"
           id="path3251"
           style="fill:#ffff00;fill-opacity:1;stroke:#ffed00;stroke-width:2.70000005;stroke-linecap:butt;stroke-miterlimit:2.29999995;stroke-opacity:1;stroke-dasharray:none" />
      </g>
    </g>
  </g>
</svg>
