<?xml version="1.0" encoding="UTF-8" standalone="no"?>
<!-- Created with Inkscape (http://www.inkscape.org/) -->

<svg
   xmlns:dc="http://purl.org/dc/elements/1.1/"
   xmlns:cc="http://creativecommons.org/ns#"
   xmlns:rdf="http://www.w3.org/1999/02/22-rdf-syntax-ns#"
   xmlns:svg="http://www.w3.org/2000/svg"
   xmlns="http://www.w3.org/2000/svg"
   xmlns:sodipodi="http://sodipodi.sourceforge.net/DTD/sodipodi-0.dtd"
   xmlns:inkscape="http://www.inkscape.org/namespaces/inkscape"
   width="533.19702"
   height="390.00082"
   id="svg3751"
   version="1.1"
   inkscape:version="0.47 r22583"
   sodipodi:docname="New document 7">
  <title
     id="title4502">Cactus3</title>
  <defs
     id="defs3753">
    <inkscape:perspective
       sodipodi:type="inkscape:persp3d"
       inkscape:vp_x="0 : 300 : 1"
       inkscape:vp_y="0 : 1000 : 0"
       inkscape:vp_z="800 : 300 : 1"
       inkscape:persp3d-origin="400 : 200 : 1"
       id="perspective3759" />
    <inkscape:perspective
       id="perspective4283"
       inkscape:persp3d-origin="0.5 : 0.33333333 : 1"
       inkscape:vp_z="1 : 0.5 : 1"
       inkscape:vp_y="0 : 1000 : 0"
       inkscape:vp_x="0 : 0.5 : 1"
       sodipodi:type="inkscape:persp3d" />
  </defs>
  <sodipodi:namedview
     id="base"
     pagecolor="#ffffff"
     bordercolor="#666666"
     borderopacity="1.0"
     inkscape:pageopacity="0.0"
     inkscape:pageshadow="2"
     inkscape:zoom="1"
     inkscape:cx="162.97827"
     inkscape:cy="191.54097"
     inkscape:current-layer="layer1"
     inkscape:document-units="px"
     showgrid="false"
     inkscape:window-width="1680"
     inkscape:window-height="1022"
     inkscape:window-x="0"
     inkscape:window-y="1"
     inkscape:window-maximized="1" />
  <metadata
     id="metadata3756">
    <rdf:RDF>
      <cc:Work
         rdf:about="">
        <dc:format>image/svg+xml</dc:format>
        <dc:type
           rdf:resource="http://purl.org/dc/dcmitype/StillImage" />
        <cc:license
           rdf:resource="http://creativecommons.org/licenses/publicdomain/" />
        <dc:title>Cactus3</dc:title>
        <dc:date>26/19/2010</dc:date>
        <dc:creator>
          <cc:Agent>
            <dc:title>Steve</dc:title>
          </cc:Agent>
        </dc:creator>
        <dc:description>Cactus 3</dc:description>
      </cc:Work>
      <cc:License
         rdf:about="http://creativecommons.org/licenses/publicdomain/">
        <cc:permits
           rdf:resource="http://creativecommons.org/ns#Reproduction" />
        <cc:permits
           rdf:resource="http://creativecommons.org/ns#Distribution" />
        <cc:permits
           rdf:resource="http://creativecommons.org/ns#DerivativeWorks" />
      </cc:License>
    </rdf:RDF>
  </metadata>
  <g
     id="layer1"
     inkscape:label="Layer 1"
     inkscape:groupmode="layer"
     transform="translate(-122.27418,-142)">
    <g
       id="g4445">
      <path
         sodipodi:nodetypes="ccc"
         id="path3761"
         d="M 411,532 C 761.49802,532.64905 714.54058,154.6919 401,142 24.117194,150.50748 31.379078,531.91332 411,532 z"
         style="fill:#005500;stroke:none" />
      <g
         id="g4306"
         transform="matrix(1.110985,0,0,0.96963947,-17.749651,17.481973)">
        <g
           transform="translate(-69,-7)"
           id="g4308">
          <path
             style="fill:#002b00;stroke:none"
             d="m 266.49083,220.5 c -84.25769,125.06684 -40.6299,156.56755 24,263 -31.69467,-112.452 -64.2437,-142.54943 -24,-263 z"
             id="path4310"
             sodipodi:nodetypes="ccc" />
          <path
             style="fill:#008000;stroke:none"
             d="M 266,223 C 197.00439,345.29192 241.43118,375.01099 292,484 260.30533,371.548 225.7563,343.45057 266,223 z"
             id="path4312"
             sodipodi:nodetypes="ccc" />
        </g>
      </g>
      <g
         id="g4314"
         transform="translate(55,-2)">
        <g
           transform="translate(-69,-7)"
           id="g4316">
          <path
             style="fill:#002b00;stroke:none"
             d="m 305.49083,181.5 c -84.25769,125.06684 -71.6299,219.56755 -7,326 -31.69467,-112.452 -33.2437,-205.54943 7,-326 z"
             id="path4318"
             sodipodi:nodetypes="ccc" />
          <path
             style="fill:#008000;stroke:none"
             d="M 308,181 C 239.00439,303.29192 250.43118,402.01099 301,511 269.30533,398.548 267.7563,301.45057 308,181 z"
             id="path4320"
             sodipodi:nodetypes="ccc" />
        </g>
      </g>
      <g
         id="g4322"
         transform="matrix(1.2330992,0,0,1.0253521,108.31959,-1.9042254)">
        <g
           transform="translate(-69,-7)"
           id="g4324">
          <path
             style="fill:#002b00;stroke:none"
             d="m 290.49083,165.5 c -84.25769,125.06684 -72.6299,239.56755 -8,346 -31.69467,-112.452 -32.2437,-225.54943 8,-346 z"
             id="path4326"
             sodipodi:nodetypes="ccc" />
          <path
             style="fill:#008000;stroke:none"
             d="M 295,161 C 226.00439,283.29192 235.43118,407.01099 286,516 254.30533,403.548 254.7563,281.45057 295,161 z"
             id="path4328"
             sodipodi:nodetypes="ccc" />
        </g>
      </g>
      <g
         id="g4330"
         transform="matrix(0.99889428,0.04701289,-0.06039417,1.2832096,245.06717,-114.46547)">
        <g
           transform="translate(-69,-7)"
           id="g4332">
          <path
             style="fill:#002b00;stroke:none"
             d="m 266.49083,220.5 c -60.08656,125.06684 -16.80153,156.56755 24,263 -14.7297,-113.65256 -24.56342,-145.35747 -24,-263 z"
             id="path4334"
             sodipodi:nodetypes="ccc" />
          <path
             style="fill:#008000;stroke:none"
             d="m 266,223 c -27.94524,119.38692 -9.66094,150.95601 26,261 -8.79297,-112.452 -0.41266,-140.54943 -26,-261 z"
             id="path4336"
             sodipodi:nodetypes="ccc" />
        </g>
      </g>
      <g
         id="g4338"
         transform="matrix(-1.5875602,0.13870097,0.17497616,1.170619,735.40503,-102.41008)">
        <g
           transform="translate(-69,-7)"
           id="g4340">
          <path
             style="fill:#002b00;stroke:none"
             d="m 266.49083,220.5 c -84.25769,125.06684 -44.0883,176.62504 20.5416,283.05749 C 255.33776,391.10549 226.24713,340.95057 266.49083,220.5 z"
             id="path4342"
             sodipodi:nodetypes="ccc" />
          <path
             style="fill:#008000;stroke:none"
             d="M 266,223 C 197.00439,345.29192 238.06572,395.91172 288.63454,504.90073 256.93987,392.44873 225.7563,343.45057 266,223 z"
             id="path4344"
             sodipodi:nodetypes="ccc" />
        </g>
      </g>
      <g
         id="g4346"
         transform="matrix(-1.1696891,0.15828761,0.14987892,1.1075519,744.39741,-61.225609)">
        <g
           transform="translate(-69,-7)"
           id="g4348">
          <path
             style="fill:#002b00;stroke:none"
             d="m 266.49083,220.5 c -84.25769,125.06684 -40.6299,156.56755 24,263 -31.69467,-112.452 -64.2437,-142.54943 -24,-263 z"
             id="path4350"
             sodipodi:nodetypes="ccc" />
          <path
             style="fill:#008000;stroke:none"
             d="M 266,223 C 197.00439,345.29192 241.43118,375.01099 292,484 260.30533,371.548 225.7563,343.45057 266,223 z"
             id="path4352"
             sodipodi:nodetypes="ccc" />
        </g>
      </g>
      <path
         style="fill:#7fff2a;stroke:none"
         d="m 260.95775,206 3.2676,29.38667 22.87324,-12.37334 L 268.30986,238.48 292,248.53333 266.67606,240.8 258.50704,264 262.59155,240.02667 234,234.61333 l 26.14085,2.32 L 260.95775,206 z"
         id="path4387" />
      <path
         style="fill:#7fff2a;stroke:none"
         d="m 162.95775,326 3.2676,29.38667 22.87324,-12.37334 L 170.30986,358.48 194,368.53333 168.67606,360.8 160.50704,384 164.59155,360.02667 136,354.61333 l 26.14085,2.32 L 162.95775,326 z"
         id="path4389" />
      <path
         style="fill:#7fff2a;stroke:none"
         d="m 329.95775,366 3.2676,29.38667 22.87324,-12.37334 L 337.30986,398.48 361,408.53333 335.67606,400.8 327.50704,424 331.59155,400.02667 303,394.61333 l 26.14085,2.32 L 329.95775,366 z"
         id="path4391" />
      <path
         style="fill:#7fff2a;stroke:none"
         d="m 493.95775,192 3.2676,29.38667 22.87324,-12.37334 L 501.30986,224.48 525,234.53333 499.67606,226.8 491.50704,250 495.59155,226.02667 467,220.61333 l 26.14085,2.32 L 493.95775,192 z"
         id="path4393" />
      <path
         style="fill:#7fff2a;stroke:none"
         d="m 604.95775,331 3.2676,29.38667 22.87324,-12.37334 L 612.30986,363.48 636,373.53333 610.67606,365.8 602.50704,389 606.59155,365.02667 578,359.61333 l 26.14085,2.32 L 604.95775,331 z"
         id="path4395" />
      <path
         style="fill:#7fff2a;stroke:none"
         d="m 475.88084,199.09958 20.32978,21.46983 10.78259,-23.66475 -5.65893,23.66877 24.9599,-6.26858 -24.86391,9.10451 7.47602,23.4325 -11.20047,-21.58595 -26.07114,12.9258 22.2507,-13.91519 -18.00454,-25.16694 z"
         id="path4397"
         inkscape:transform-center-x="-19" />
      <path
         style="fill:#7fff2a;stroke:none"
         d="m 306.88084,375.09958 20.32978,21.46983 10.78259,-23.66475 -5.65893,23.66877 24.9599,-6.26858 -24.86391,9.10451 7.47602,23.4325 -11.20047,-21.58595 -26.07114,12.9258 22.2507,-13.91519 -18.00454,-25.16694 z"
         id="path4399"
         inkscape:transform-center-x="-19" />
      <path
         style="fill:#7fff2a;stroke:none"
         d="m 407.88084,376.09958 20.32978,21.46983 10.78259,-23.66475 -5.65893,23.66877 24.9599,-6.26858 -24.86391,9.10451 7.47602,23.4325 -11.20047,-21.58595 -26.07114,12.9258 22.2507,-13.91519 -18.00454,-25.16694 z"
         id="path4401"
         inkscape:transform-center-x="-19" />
      <path
         style="fill:#7fff2a;stroke:none"
         d="m 339.88084,192.09958 20.32978,21.46983 10.78259,-23.66475 -5.65893,23.66877 24.9599,-6.26858 -24.86391,9.10451 7.47602,23.4325 -11.20047,-21.58595 -26.07114,12.9258 22.2507,-13.91519 -18.00454,-25.16694 z"
         id="path4403"
         inkscape:transform-center-x="-19" />
      <path
         style="fill:#7fff2a;stroke:none"
         d="m 240.88084,215.09958 20.32978,21.46983 10.78259,-23.66475 -5.65893,23.66877 24.9599,-6.26858 -24.86391,9.10451 7.47602,23.4325 -11.20047,-21.58595 -26.07114,12.9258 22.2507,-13.91519 -18.00454,-25.16694 z"
         id="path4405"
         inkscape:transform-center-x="-19" />
      <path
         style="fill:#7fff2a;stroke:none"
         d="m 142.88084,336.09958 20.32978,21.46983 10.78259,-23.66475 -5.65893,23.66877 24.9599,-6.26858 -24.86391,9.10451 7.47602,23.4325 -11.20047,-21.58595 -26.07114,12.9258 22.2507,-13.91519 -18.00454,-25.16694 z"
         id="path4407"
         inkscape:transform-center-x="-19" />
      <path
         style="fill:#7fff2a;stroke:none"
         d="m 232.88084,303.09958 20.32978,21.46983 10.78259,-23.66475 -5.65893,23.66877 24.9599,-6.26858 -24.86391,9.10451 7.47602,23.4325 -11.20047,-21.58595 -26.07114,12.9258 22.2507,-13.91519 -18.00454,-25.16694 z"
         id="path4409"
         inkscape:transform-center-x="-19" />
      <path
         style="fill:#7fff2a;stroke:none"
         d="m 404.88084,278.09958 20.32978,21.46983 10.78259,-23.66475 -5.65893,23.66877 24.9599,-6.26858 -24.86391,9.10451 7.47602,23.4325 -11.20047,-21.58595 -26.07114,12.9258 22.2507,-13.91519 -18.00454,-25.16694 z"
         id="path4411"
         inkscape:transform-center-x="-19" />
      <path
         style="fill:#7fff2a;stroke:none"
         d="m 575.88084,260.09958 20.32978,21.46983 10.78259,-23.66475 -5.65893,23.66877 24.9599,-6.26858 -24.86391,9.10451 7.47602,23.4325 -11.20047,-21.58595 -26.07114,12.9258 22.2507,-13.91519 -18.00454,-25.16694 z"
         id="path4413"
         inkscape:transform-center-x="-19" />
      <path
         style="fill:#7fff2a;stroke:none"
         d="m 396.08624,300.49678 29.54889,1.05678 -8.90216,-24.43432 12.55855,20.84507 13.40356,-21.96898 -11.34689,23.92392 21.75915,11.46789 -23.12039,-7.54 -9.52868,27.49518 6.11076,-25.52224 -30.48279,-5.3233 z"
         id="path4415"
         inkscape:transform-center-x="-9.63236"
         inkscape:transform-center-y="-10.204435" />
      <path
         style="fill:#7fff2a;stroke:none"
         d="m 563.08624,287.49678 29.54889,1.05678 -8.90216,-24.43432 12.55855,20.84507 13.40356,-21.96898 -11.34689,23.92392 21.75915,11.46789 -23.12039,-7.54 -9.52868,27.49518 6.11076,-25.52224 -30.48279,-5.3233 z"
         id="path4417"
         inkscape:transform-center-x="-9.63236"
         inkscape:transform-center-y="-10.204435" />
      <path
         style="fill:#7fff2a;stroke:none"
         d="m 573.08624,363.49678 29.54889,1.05678 -8.90216,-24.43432 12.55855,20.84507 13.40356,-21.96898 -11.34689,23.92392 21.75915,11.46789 -23.12039,-7.54 -9.52868,27.49518 6.11076,-25.52224 -30.48279,-5.3233 z"
         id="path4419"
         inkscape:transform-center-x="-9.63236"
         inkscape:transform-center-y="-10.204435" />
      <path
         style="fill:#7fff2a;stroke:none"
         d="m 397.08624,396.49678 29.54889,1.05678 -8.90216,-24.43432 12.55855,20.84507 13.40356,-21.96898 -11.34689,23.92392 21.75915,11.46789 -23.12039,-7.54 -9.52868,27.49518 6.11076,-25.52224 -30.48279,-5.3233 z"
         id="path4421"
         inkscape:transform-center-x="-9.63236"
         inkscape:transform-center-y="-10.204435" />
      <path
         style="fill:#7fff2a;stroke:none"
         d="m 222.08624,326.49678 29.54889,1.05678 -8.90216,-24.43432 12.55855,20.84507 13.40356,-21.96898 -11.34689,23.92392 21.75915,11.46789 -23.12039,-7.54 -9.52868,27.49518 6.11076,-25.52224 -30.48279,-5.3233 z"
         id="path4423"
         inkscape:transform-center-x="-9.63236"
         inkscape:transform-center-y="-10.204435" />
      <path
         style="fill:#7fff2a;stroke:none"
         d="m 330.08624,218.49678 29.54889,1.05678 -8.90216,-24.43432 12.55855,20.84507 13.40356,-21.96898 -11.34689,23.92392 21.75915,11.46789 -23.12039,-7.54 -9.52868,27.49518 6.11076,-25.52224 -30.48279,-5.3233 z"
         id="path4425"
         inkscape:transform-center-x="-9.63236"
         inkscape:transform-center-y="-10.204435" />
      <path
         style="fill:#7fff2a;stroke:none"
         d="m 474.08624,455.49678 29.54889,1.05678 -8.90216,-24.43432 12.55855,20.84507 13.40356,-21.96898 -11.34689,23.92392 21.75915,11.46789 -23.12039,-7.54 -9.52868,27.49518 6.11076,-25.52224 -30.48279,-5.3233 z"
         id="path4427"
         inkscape:transform-center-x="-9.63236"
         inkscape:transform-center-y="-10.204435" />
      <path
         style="fill:#7fff2a;stroke:none"
         d="m 231.08624,435.49678 29.54889,1.05678 -8.90216,-24.43432 12.55855,20.84507 13.40356,-21.96898 -11.34689,23.92392 21.75915,11.46789 -23.12039,-7.54 -9.52868,27.49518 6.11076,-25.52224 -30.48279,-5.3233 z"
         id="path4429"
         inkscape:transform-center-x="-9.63236"
         inkscape:transform-center-y="-10.204435" />
      <path
         style="fill:#7fff2a;stroke:none"
         d="m 160.08624,240.49678 29.54889,1.05678 -8.90216,-24.43432 12.55855,20.84507 13.40356,-21.96898 -11.34689,23.92392 21.75915,11.46789 -23.12039,-7.54 -9.52868,27.49518 6.11076,-25.52224 -30.48279,-5.3233 z"
         id="path4431"
         inkscape:transform-center-x="-9.63236"
         inkscape:transform-center-y="-10.204435" />
      <path
         style="fill:#7fff2a;stroke:none"
         d="m 396.08624,179.49678 29.54889,1.05678 -8.90216,-24.43432 12.55855,20.84507 13.40356,-21.96898 -11.34689,23.92392 21.75915,11.46789 -23.12039,-7.54 -9.52868,27.49518 6.11076,-25.52224 -30.48279,-5.3233 z"
         id="path4433"
         inkscape:transform-center-x="-9.63236"
         inkscape:transform-center-y="-10.204435" />
      <path
         style="fill:#7fff2a;stroke:none"
         d="m 404.40308,206.0018 20.51035,-21.29741 -24.13642,-9.68078 23.90436,4.56238 -7.41193,-24.64457 10.24042,24.41802 23.06317,-8.54772 -21.04697,12.18314 14.11329,25.44789 -14.92561,-21.58592 -24.31066,19.14497 z"
         id="path4435"
         inkscape:transform-center-x="1.28941"
         inkscape:transform-center-y="-19.181173" />
      <path
         style="fill:#7fff2a;stroke:none"
         d="m 481.40308,478.0018 20.51035,-21.29741 -24.13642,-9.68078 23.90436,4.56238 -7.41193,-24.64457 10.24042,24.41802 23.06317,-8.54772 -21.04697,12.18314 14.11329,25.44789 -14.92561,-21.58592 -24.31066,19.14497 z"
         id="path4437"
         inkscape:transform-center-x="1.28941"
         inkscape:transform-center-y="-19.181173" />
      <path
         style="fill:#7fff2a;stroke:none"
         d="m 241.40308,463.0018 20.51035,-21.29741 -24.13642,-9.68078 23.90436,4.56238 -7.41193,-24.64457 10.24042,24.41802 23.06317,-8.54772 -21.04697,12.18314 14.11329,25.44789 -14.92561,-21.58592 -24.31066,19.14497 z"
         id="path4439"
         inkscape:transform-center-x="1.28941"
         inkscape:transform-center-y="-19.181173" />
      <path
         style="fill:#7fff2a;stroke:none"
         d="m 172.40308,268.0018 20.51035,-21.29741 -24.13642,-9.68078 23.90436,4.56238 -7.41193,-24.64457 10.24042,24.41802 23.06317,-8.54772 -21.04697,12.18314 14.11329,25.44789 -14.92561,-21.58592 -24.31066,19.14497 z"
         id="path4441"
         inkscape:transform-center-x="1.28941"
         inkscape:transform-center-y="-19.181173" />
      <path
         style="fill:#7fff2a;stroke:none"
         d="m 496.08498,368.558 8.80807,-28.22538 -25.91671,2.14682 23.41815,-6.61997 -17.65908,-18.72027 20.087,17.25162 16.79774,-17.96689 -13.36755,20.31533 24.01121,16.43903 -23.00896,-12.62194 -13.16987,28.00165 z"
         id="path4443"
         inkscape:transform-center-x="8.344355"
         inkscape:transform-center-y="-11.382293" />
      <path
         inkscape:transform-center-y="6.927717"
         inkscape:transform-center-x="-14.57178"
         id="path4385"
         d="m 498.31121,308.93377 7.53201,28.59236 20.81674,-15.58678 -16.3236,18.04921 24.90609,6.47905 -26.18288,-3.94498 -4.68672,24.14555 0.533,-24.31296 -29.07588,-1.17184 26.19897,-1.52965 -3.71773,-30.71996 z"
         style="fill:#7fff2a;stroke:none" />
    </g>
  </g>
</svg>
