<?xml version="1.0" encoding="utf-8"?>
<!-- Generator: Adobe Illustrator 13.0.0, SVG Export Plug-In . SVG Version: 6.00 Build 14948)  -->
<!DOCTYPE svg PUBLIC "-//W3C//DTD SVG 1.1//EN" "http://www.w3.org/Graphics/SVG/1.1/DTD/svg11.dtd">
<svg version="1.1" id="Layer_1" xmlns="http://www.w3.org/2000/svg" xmlns:xlink="http://www.w3.org/1999/xlink" x="0px" y="0px"
	 width="600px" height="600px" viewBox="0 0 600 600" enable-background="new 0 0 600 600" xml:space="preserve">
<g>
	<path fill="#FFFFFF" stroke="#000000" stroke-width="6" d="M427.989,524.979c126.738-73.17,170.163-235.229,96.989-361.968
		C451.809,36.272,289.747-7.15,163.011,66.021C36.272,139.196-7.151,301.251,66.021,427.989
		C139.194,554.728,301.253,598.152,427.989,524.979z"/>
	<circle fill="#87514F" stroke="#000000" stroke-width="6" cx="295.5" cy="295.5" r="216.291"/>
	<circle fill="#3D5437" stroke="#000000" stroke-width="6" cx="295.5" cy="295.5" r="156.152"/>
</g>
<g>
	<g>
		<path fill="#FFFFFF" stroke="#000000" stroke-width="6" d="M103.316,103.318c15.753-15.758,15.753-41.299,0-57.057
			c-15.754-15.753-41.299-15.753-57.054,0c-15.754,15.758-15.754,41.299,0,57.057C62.018,119.071,87.563,119.071,103.316,103.318z"
			/>
		<circle fill="none" stroke="#000000" stroke-width="4" cx="74.79" cy="74.79" r="18.36"/>
	</g>
	<g>
		<path fill="#FFFFFF" stroke="#000000" stroke-width="6" d="M544.736,103.318c15.755-15.758,15.755-41.299,0-57.057
			c-15.753-15.753-41.299-15.753-57.055,0c-15.753,15.758-15.753,41.299,0,57.057C503.438,119.071,528.983,119.071,544.736,103.318z
			"/>
		<circle fill="none" stroke="#000000" stroke-width="4" cx="516.21" cy="74.79" r="18.36"/>
	</g>
	<g>
		<circle fill="#FFFFFF" stroke="#000000" stroke-width="6" cx="516.209" cy="516.209" r="40.344"/>
		<circle fill="none" stroke="#000000" stroke-width="4" cx="516.21" cy="516.21" r="18.36"/>
	</g>
	<g>
		<circle fill="#FFFFFF" stroke="#000000" stroke-width="6" cx="74.79" cy="516.209" r="40.343"/>
		<circle fill="none" stroke="#000000" stroke-width="4" cx="74.79" cy="516.21" r="18.36"/>
	</g>
</g>
<g>
	<g>
		<line fill="#3D5437" stroke="#000000" stroke-width="6" x1="295.5" y1="79.208" x2="295.5" y2="30.521"/>
		<line fill="none" stroke="#000000" stroke-width="6" x1="295.5" y1="511.791" x2="295.5" y2="560.478"/>
	</g>
	<g>
		<line fill="none" stroke="#000000" stroke-width="6" x1="79.209" y1="295.5" x2="30.521" y2="295.5"/>
		<line fill="none" stroke="#000000" stroke-width="6" x1="511.791" y1="295.5" x2="560.478" y2="295.5"/>
	</g>
	<g>
		<line fill="none" stroke="#000000" stroke-width="6" x1="187.354" y1="108.185" x2="163.011" y2="66.021"/>
		<line fill="none" stroke="#000000" stroke-width="6" x1="403.646" y1="482.814" x2="427.989" y2="524.979"/>
	</g>
	<g>
		<line fill="none" stroke="#000000" stroke-width="6" x1="482.814" y1="187.354" x2="524.979" y2="163.011"/>
		<line fill="none" stroke="#000000" stroke-width="6" x1="108.186" y1="403.646" x2="66.021" y2="427.989"/>
	</g>
	<g>
		<line fill="none" stroke="#000000" stroke-width="6" x1="105.668" y1="185.902" x2="66.022" y2="163.011"/>
		<line fill="none" stroke="#000000" stroke-width="6" x1="524.979" y1="427.989" x2="482.839" y2="403.659"/>
	</g>
	<g>
		<line fill="none" stroke="#000000" stroke-width="6" x1="427.989" y1="66.021" x2="403.663" y2="108.154"/>
		<line fill="none" stroke="#000000" stroke-width="6" x1="163.011" y1="524.979" x2="187.336" y2="482.846"/>
	</g>
</g>
<line fill="none" stroke="#000000" stroke-width="5" x1="82.496" y1="257.942" x2="58.363" y2="253.686"/>
<line fill="none" stroke="#000000" stroke-width="5" x1="92.253" y1="221.521" x2="69.202" y2="213.134"/>
<line fill="none" stroke="#000000" stroke-width="5" stroke-linecap="round" stroke-linejoin="round" x1="69.203" y1="213.134" x2="58.364" y2="253.686"/>
<line fill="none" stroke="#000000" stroke-width="6" x1="508.503" y1="333.058" x2="532.637" y2="337.313"/>
<line fill="none" stroke="#000000" stroke-width="6" x1="498.746" y1="369.476" x2="521.798" y2="377.868"/>
<line fill="none" stroke="#000000" stroke-width="6" stroke-linecap="round" stroke-linejoin="round" x1="532.637" y1="337.313" x2="521.798" y2="377.868"/>
<line fill="none" stroke="#000000" stroke-width="5" x1="92.082" y1="369.772" x2="69.055" y2="378.153"/>
<line fill="none" stroke="#000000" stroke-width="5" x1="82.324" y1="333.354" x2="58.166" y2="337.615"/>
<line fill="none" stroke="#000000" stroke-width="5" stroke-linecap="round" stroke-linejoin="round" x1="58.167" y1="337.615" x2="69.055" y2="378.153"/>
<line fill="none" stroke="#000000" stroke-width="6" x1="498.574" y1="221.82" x2="521.604" y2="213.44"/>
<line fill="none" stroke="#000000" stroke-width="6" x1="508.331" y1="258.238" x2="532.492" y2="253.98"/>
<line fill="none" stroke="#000000" stroke-width="6" stroke-linecap="round" stroke-linejoin="round" x1="521.604" y1="213.44" x2="532.492" y2="253.98"/>
<line fill="none" stroke="#000000" stroke-width="5" x1="156.597" y1="461.656" x2="140.845" y2="480.43"/>
<line fill="none" stroke="#000000" stroke-width="5" x1="129.938" y1="434.998" x2="111.145" y2="450.767"/>
<line fill="none" stroke="#000000" stroke-width="5" stroke-linecap="round" stroke-linejoin="round" x1="111.146" y1="450.767" x2="140.845" y2="480.428"/>
<line fill="none" stroke="#000000" stroke-width="6" x1="434.654" y1="130.282" x2="450.407" y2="111.506"/>
<line fill="none" stroke="#000000" stroke-width="6" x1="461.313" y1="156.941" x2="480.104" y2="141.172"/>
<line fill="none" stroke="#000000" stroke-width="6" stroke-linecap="round" stroke-linejoin="round" x1="450.407" y1="111.506" x2="480.104" y2="141.172"/>
<line fill="none" stroke="#000000" stroke-width="5" x1="258.366" y1="509.144" x2="254.109" y2="533.277"/>
<line fill="none" stroke="#000000" stroke-width="5" x1="221.948" y1="499.387" x2="213.557" y2="522.438"/>
<line fill="none" stroke="#000000" stroke-width="5" stroke-linecap="round" stroke-linejoin="round" x1="213.557" y1="522.438" x2="254.107" y2="533.277"/>
<line fill="none" stroke="#000000" stroke-width="6" x1="333.481" y1="83.135" x2="337.738" y2="59.003"/>
<line fill="none" stroke="#000000" stroke-width="6" x1="369.899" y1="92.894" x2="378.287" y2="69.84"/>
<line fill="none" stroke="#000000" stroke-width="6" stroke-linecap="round" stroke-linejoin="round" x1="337.738" y1="59.003" x2="378.287" y2="69.84"/>
<line fill="none" stroke="#000000" stroke-width="5" x1="370.194" y1="499.556" x2="378.579" y2="522.585"/>
<line fill="none" stroke="#000000" stroke-width="5" x1="333.778" y1="509.315" x2="338.039" y2="533.476"/>
<line fill="none" stroke="#000000" stroke-width="5" stroke-linecap="round" stroke-linejoin="round" x1="338.039" y1="533.476" x2="378.575" y2="522.585"/>
<line fill="none" stroke="#000000" stroke-width="6" x1="222.242" y1="93.065" x2="213.862" y2="70.036"/>
<line fill="none" stroke="#000000" stroke-width="6" x1="258.66" y1="83.309" x2="254.399" y2="59.148"/>
<line fill="none" stroke="#000000" stroke-width="6" stroke-linecap="round" stroke-linejoin="round" x1="213.862" y1="70.036" x2="254.399" y2="59.148"/>
<line fill="none" stroke="#000000" stroke-width="5" x1="462.078" y1="435.042" x2="480.854" y2="450.793"/>
<line fill="none" stroke="#000000" stroke-width="5" x1="435.417" y1="461.703" x2="451.188" y2="480.497"/>
<line fill="none" stroke="#000000" stroke-width="5" stroke-linecap="round" stroke-linejoin="round" x1="451.188" y1="480.497" x2="480.85" y2="450.795"/>
<line fill="none" stroke="#000000" stroke-width="6" x1="130.702" y1="156.988" x2="111.929" y2="141.235"/>
<line fill="none" stroke="#000000" stroke-width="6" x1="157.363" y1="130.327" x2="141.593" y2="111.536"/>
<line fill="none" stroke="#000000" stroke-width="6" stroke-linecap="round" stroke-linejoin="round" x1="111.929" y1="141.235" x2="141.593" y2="111.536"/>
</svg>
