<?xml version="1.0" encoding="UTF-8" standalone="no"?>
<!-- Created with Inkscape (http://www.inkscape.org/) -->

<svg
   xmlns:dc="http://purl.org/dc/elements/1.1/"
   xmlns:cc="http://creativecommons.org/ns#"
   xmlns:rdf="http://www.w3.org/1999/02/22-rdf-syntax-ns#"
   xmlns:svg="http://www.w3.org/2000/svg"
   xmlns="http://www.w3.org/2000/svg"
   version="1.1"
   width="275.3125"
   height="950.55493"
   id="svg3419">
  <defs
     id="defs3" />
  <metadata
     id="metadata3423">
    <rdf:RDF>
      <cc:Work
         rdf:about="">
        <dc:format>image/svg+xml</dc:format>
        <dc:type
           rdf:resource="http://purl.org/dc/dcmitype/StillImage" />
        <dc:title></dc:title>
      </cc:Work>
    </rdf:RDF>
  </metadata>
  <g
     transform="translate(24.3125,352.278)"
     id="layer1">
    <path
       d="m 107.77309,103.38916 0,-0.0312 10.9688,-9.281247 -11.2188,-9.8125 -57.656197,-3.2813 c -6.7667,0.27067 -27.3438,17.875 -27.3438,17.875 l 85.249997,4.531247 z"
       id="path4096-2"
       style="color:#000000;fill:#ffcc00;fill-opacity:1;fill-rule:nonzero;stroke:#000000;stroke-width:2;stroke-linecap:round;stroke-linejoin:miter;stroke-miterlimit:4;stroke-opacity:1;stroke-dasharray:none;stroke-dashoffset:0;marker:none;visibility:visible;display:inline;overflow:visible" />
    <path
       d="m 107.39809,479.07666 c -0.9721,-0.66906 -1.7828,-1.39311 -2.4375,-2.15625 -0.6546,-0.76314 -1.1592,-1.55043 -1.5312,-2.375 -0.372,-0.82457 -0.5947,-1.6779 -0.7188,-2.53125 -0.124,-0.85335 -0.1515,-1.71301 -0.062,-2.5625 0.089,-0.84949 0.2951,-1.68702 0.5625,-2.5 0.2675,-0.81298 0.5889,-1.59992 1,-2.34375 0.8222,-1.48766 1.9056,-2.79733 3.0938,-3.8125 l -60.968797,-3.84375 -23.2812,17.3125 84.343697,4.8125 z"
       id="path4064-7"
       style="color:#000000;fill:#0066ff;fill-opacity:1;fill-rule:nonzero;stroke:#000000;stroke-width:2;stroke-linecap:round;stroke-linejoin:miter;stroke-miterlimit:4;stroke-opacity:1;stroke-dasharray:none;stroke-dashoffset:0;marker:none;visibility:visible;display:inline;overflow:visible" />
    <path
       d="m 107.39809,567.85791 36.6563,0.875 16.7812,-17.59375 -53.5312,-0.40625 c -0.915,0.53484 -1.72,1.15537 -2.4063,1.84375 -0.6862,0.68838 -1.2616,1.42825 -1.7187,2.21875 -0.4571,0.7905 -0.8037,1.62754 -1.0313,2.46875 -0.2275,0.84121 -0.3149,1.69076 -0.3125,2.53125 0,0.84049 0.1109,1.68039 0.3438,2.46875 0.2329,0.78836 0.5675,1.53394 1.0312,2.21875 0.4638,0.68481 1.055,1.28266 1.75,1.8125 0.6951,0.52984 1.5108,0.98904 2.4375,1.3125 l 0,0.25 z"
       id="path4058-6"
       style="color:#000000;fill:#00aa00;fill-opacity:1;fill-rule:nonzero;stroke:#000000;stroke-width:2;stroke-linecap:round;stroke-linejoin:miter;stroke-miterlimit:4;stroke-opacity:1;stroke-dasharray:none;stroke-dashoffset:0;marker:none;visibility:visible;display:inline;overflow:visible" />
    <path
       d="m 107.39809,379.88916 16.9063,0.1875 22.1875,-15.71875 -38.9375,-0.65625 c -0.5491,0.41676 -1.0634,0.9316 -1.5,1.5 -0.4366,0.5684 -0.8116,1.19519 -1.125,1.875 -0.6269,1.35961 -0.9924,2.90497 -1.0625,4.46875 -0.035,0.78189 0,1.57118 0.125,2.34375 0.1201,0.77257 0.3389,1.52698 0.625,2.25 0.2861,0.72302 0.631,1.39803 1.0937,2.03125 0.4627,0.63322 1.0375,1.21557 1.6875,1.71875 z"
       id="path4074-4"
       style="color:#000000;fill:#00aa00;fill-opacity:1;fill-rule:nonzero;stroke:#000000;stroke-width:2;stroke-linecap:round;stroke-linejoin:miter;stroke-miterlimit:4;stroke-opacity:1;stroke-dasharray:none;stroke-dashoffset:0;marker:none;visibility:visible;display:inline;overflow:visible" />
    <path
       d="m 107.27309,190.76416 19.7188,-0.15625 16.5312,-14.625 -36.125,-0.375 c -0.978,0.72497 -1.9369,1.72683 -2.6875,2.90625 -0.7505,1.17942 -1.2844,2.52618 -1.5,3.9375 -0.1077,0.70566 -0.1461,1.43434 -0.062,2.15625 0.084,0.72191 0.2802,1.44592 0.5938,2.15625 0.3135,0.71033 0.7619,1.39156 1.3437,2.0625 0.5819,0.67094 1.2989,1.33377 2.1875,1.9375 z"
       id="path4090-4"
       style="color:#000000;fill:#0055d4;fill-opacity:1;fill-rule:nonzero;stroke:#000000;stroke-width:2;stroke-linecap:round;stroke-linejoin:miter;stroke-miterlimit:4;stroke-opacity:1;stroke-dasharray:none;stroke-dashoffset:0;marker:none;visibility:visible;display:inline;overflow:visible" />
    <path
       d="m 107.39809,-30.579587 40.8438,-0.75 45.625,-0.84375 23.5312,-18.40625 -110.125,3.40625 c 0.8244,0.58459 1.5551,1.22692 2.1875,1.875 0.6325,0.64808 1.1593,1.3055 1.5938,2 0.4345,0.6945 0.7693,1.40116 1,2.125 0.2307,0.72384 0.3541,1.48263 0.375,2.21875 0.021,0.73612 -0.055,1.45618 -0.25,2.1875 -0.1948,0.73132 -0.4899,1.47805 -0.9063,2.1875 -0.4163,0.70945 -0.9498,1.39199 -1.5937,2.0625 -0.6439,0.67051 -1.4039,1.32301 -2.2813,1.9375 z"
       id="path4110-3"
       style="color:#000000;fill:#0066ff;fill-opacity:1;fill-rule:nonzero;stroke:#000000;stroke-width:2;stroke-linecap:round;stroke-linejoin:miter;stroke-miterlimit:4;stroke-opacity:1;stroke-dasharray:none;stroke-dashoffset:0;marker:none;visibility:visible;display:inline;overflow:visible" />
    <path
       d="m 106.67939,60.732913 27.0937,4.5625 c 0,0 6.2188,-4.89862 6.2188,-9.5 0,-4.60137 -3.7813,-7.84375 -3.7813,-7.84375 l -19.7812,-0.53125 -6.625,3.1875 c 0.1528,-0.0737 0.3459,0.38605 0.4687,1.15625 0.1229,0.7702 0.1817,1.84833 0.062,3 -0.1191,1.15167 -0.4268,2.39807 -1,3.46875 -0.2866,0.53534 -0.6226,1.00912 -1.0625,1.4375 -0.4398,0.42838 -0.9741,0.79888 -1.5937,1.0625 z"
       id="path4102-6"
       style="color:#000000;fill:#3771c8;fill-opacity:1;fill-rule:nonzero;stroke:#000000;stroke-width:2;stroke-linecap:round;stroke-linejoin:miter;stroke-miterlimit:4;stroke-opacity:1;stroke-dasharray:none;stroke-dashoffset:0;marker:none;visibility:visible;display:inline;overflow:visible" />
    <path
       d="m 106.67939,60.732913 c 0.6196,-0.26362 1.1539,-0.63412 1.5937,-1.0625 0.4399,-0.42838 0.7759,-0.90216 1.0625,-1.4375 0.5732,-1.07068 0.8809,-2.31708 1,-3.46875 0.1192,-1.15167 0.06,-2.2298 -0.062,-3 -0.1228,-0.7702 -0.3159,-1.22997 -0.4687,-1.15625 l -16.374997,7.90625 13.249997,2.21875 z"
       id="path4100-5"
       style="color:#000000;fill:#008000;fill-opacity:1;fill-rule:nonzero;stroke:#000000;stroke-width:2;stroke-linecap:round;stroke-linejoin:miter;stroke-miterlimit:4;stroke-opacity:1;stroke-dasharray:none;stroke-dashoffset:0;marker:none;visibility:visible;display:inline;overflow:visible" />
    <path
       d="m 107.46059,-211.17334 c 3.9176,-0.78187 14.4063,-2.875 14.4063,-2.875 l 38.1562,-22.46875 -52.5312,9.875 c -1.0477,0.99621 -2.0254,2.03698 -2.7813,3.15625 -0.7558,1.11927 -1.3131,2.32309 -1.5,3.59375 -0.093,0.63533 -0.1008,1.29026 0,1.96875 0.1009,0.67849 0.3266,1.36857 0.6563,2.09375 0.3297,0.72518 0.7817,1.47458 1.375,2.25 0.5933,0.77542 1.3272,1.57705 2.2187,2.40625 z"
       id="path4126-9"
       style="color:#000000;fill:#00aa00;fill-opacity:1;fill-rule:nonzero;stroke:#000000;stroke-width:2;stroke-linecap:round;stroke-linejoin:miter;stroke-miterlimit:4;stroke-opacity:1;stroke-dasharray:none;stroke-dashoffset:0;marker:none;visibility:visible;display:inline;overflow:visible" />
    <path
       d="m 106.92939,335.54541 c 30.1495,0.83583 60.2885,1.81033 90.4375,2.5625 5.9547,0 26.8125,-17.84375 26.8125,-17.84375 l -116.875,-0.96875 -9.156297,8.46875 8.781297,7.78125 z"
       id="path4078-7"
       style="color:#000000;fill:#ffcc00;fill-opacity:1;fill-rule:nonzero;stroke:#000000;stroke-width:2;stroke-linecap:round;stroke-linejoin:miter;stroke-miterlimit:4;stroke-opacity:1;stroke-dasharray:none;stroke-dashoffset:0;marker:none;visibility:visible;display:inline;overflow:visible" />
    <path
       d="m 30.097093,-328.00042 c 0,0 -48.1792,36.81102 -24.9015997,73.0807 23.2775997,36.26969 37.3523997,56.29922 127.7558967,104.47835 90.4035,48.17913 90.4035,48.17913 90.4035,48.17913 0,0 21.11228,7.578743 21.65358,25.984253 0.5413,18.40551 -1.0827,24.36024 0,33.02166 1.0827,8.66141 -1.624,20.02952 -15.6988,32.48031 -14.07478,12.4507898 -104.47838,56.84055 -104.47838,56.84055 0,0 -108.808997,43.30709 -126.1318967,79.035427 0,0 -1.4831,2.34824 -1.4966,6.09986 -0.015,4.09999 1.7257,9.87609 9.0754,16.09502 14.0747997,11.90945 146.1613967,89.86221 146.1613967,89.86221 l 63.878,36.26968 c 0,0 28.14958,10.82677 29.23218,31.93898 0,0 -0.1559,3.44359 -1.3043,7.27143 -1.1483,3.82784 -1.1483,17.22529 0,21.05313 1.1484,3.82784 2.6795,13.78023 -3.0622,19.90478 -5.7418,6.12455 -24.49818,23.73262 -41.72348,32.15387 -17.2253,8.42125 -154.214197,73.78165 -154.214197,73.78165 0,0 -41.6277997,33.25438 -46.6996997,43.25461 0,0 4.9284,17.32098 16.4118997,26.12502 11.4835,8.80404 67.7528,35.98171 67.7528,35.98171 0,0 8.4212,4.21063 3.4451,8.80404 l -29.8572,20.67034 c 0,0 -5.7418,5.35898 -14.9286,0.38279 -9.1868,-4.9762 -63.5422,-41.62778 -63.5422,-66.89154 0,-16.41186 3.7322,-20.86174 3.7322,-20.86174 0,0 -4.1149,-14.4501 -4.1149,-24.40248 0,-9.95239 11.1007,-28.70882 22.20140033,-38.66121 5.98169997,-5.36285 23.75519967,-17.14824 42.70299967,-28.56724 16.2156,-9.7724 33.2912,-19.27645 44.5718,-24.25697 24.457997,-10.79844 113.373597,-57.09994 129.446597,-64.74554 0,0 -10.4007,-17.93584 -50.9758,-38.60619 -40.5751,-20.67035 -71.580697,-38.27842 -71.580697,-38.27842 0,0 -114.7997,-54.35579 -115.218,-86.50922 -0.3828,-29.33084 0.7656,-31.00552 0.7656,-31.00552 0,0 -2.6795,-19.13921 -2.6795,-24.49819 0,-5.35897 8.4212,-30.239947 39.044,-53.206997 30.6227,-22.96705 128.232697,-66.60444 128.232697,-66.60444 0,0 68.5183,-34.45058 77.7052,-43.6374 0,0 -8.4213,-16.45972 -101.8206,-60.097113 -93.399397,-43.6374 -122.1081967,-85.74366 -129.3810967,-107.56236 -7.2729003,-21.8187 -6.5073003,-46.69968 -6.5073003,-46.69968 0,0 -2.6795,-54.35534 14.5458003,-77.32239 0,0 5.6461,-7.27289 10.7179,-1.14835 3.2846997,3.96636 14.1629997,20.67035 20.8810997,20.81349 z"
       id="path1933-9-0"
       style="color:#000000;fill:#374845;fill-opacity:1;fill-rule:nonzero;stroke:#000000;stroke-width:2;stroke-linecap:round;stroke-linejoin:round;stroke-miterlimit:4;stroke-opacity:1;stroke-dasharray:none;stroke-dashoffset:0;marker:none;visibility:visible;display:inline;overflow:visible" />
    <path
       d="m 107.27309,248.70166 c 0.9006,-0.47229 1.6713,-0.96244 2.3125,-1.46875 0.6413,-0.50631 1.1418,-1.03084 1.5625,-1.5625 0.8415,-1.06332 1.2765,-2.16854 1.4688,-3.28125 0.1923,-1.11271 0.1464,-2.21975 0,-3.3125 -0.1464,-1.09275 -0.3879,-2.15281 -0.5625,-3.15625 l -20.249997,9.90625 15.468697,2.875 z"
       id="path4084-6"
       style="color:#000000;fill:#00aa00;fill-opacity:1;fill-rule:nonzero;stroke:#000000;stroke-width:2;stroke-linecap:round;stroke-linejoin:miter;stroke-miterlimit:4;stroke-opacity:1;stroke-dasharray:none;stroke-dashoffset:0;marker:none;visibility:visible;display:inline;overflow:visible" />
    <path
       d="m 106.67939,8.1079128 27.9062,-14.5625 -27.0625,4.0625 c -0.448,1.04573 -1.4196,1.92113005 -1.9062,3.40625 -0.2433,0.74256 -0.3874,1.63099 -0.25,2.78125 0.1374,1.15026 0.5342,2.55597 1.3125,4.3125 z"
       id="path4106-3"
       style="color:#000000;fill:#00aa00;fill-opacity:1;fill-rule:nonzero;stroke:#000000;stroke-width:2;stroke-linecap:round;stroke-linejoin:miter;stroke-miterlimit:4;stroke-opacity:1;stroke-dasharray:none;stroke-dashoffset:0;marker:none;visibility:visible;display:inline;overflow:visible" />
    <path
       d="m 106.58559,-150.32959 c -0.5072,-0.43474 -1.0796,-0.83423 -1.4375,-1.375 -0.5606,-0.84719 -0.9391,-1.80617 -1.1875,-2.875 -0.2483,-1.06883 -0.3413,-2.25666 -0.3437,-3.5 0,-1.24334 0.073,-2.53552 0.25,-3.90625 0.1253,-0.96971 0.407,-2.04918 0.5937,-3.0625 l -17.249997,10 -5.4062,8.65625 17.0312,6.25 7.749997,-10.1875 z"
       id="path4120-8"
       style="color:#000000;fill:#0066ff;fill-opacity:1;fill-rule:nonzero;stroke:#000000;stroke-width:2;stroke-linecap:round;stroke-linejoin:miter;stroke-miterlimit:4;stroke-opacity:1;stroke-dasharray:none;stroke-dashoffset:0;marker:none;visibility:visible;display:inline;overflow:visible" />
    <path
       d="m 106.58559,-150.32959 21.75,-28.53125 -23.875,13.8125 c -0.1867,1.01332 -0.4684,2.09279 -0.5937,3.0625 -0.1771,1.37073 -0.2524,2.66291 -0.25,3.90625 0,1.24334 0.095,2.43117 0.3437,3.5 0.2484,1.06883 0.6269,2.02781 1.1875,2.875 0.3579,0.54077 0.9303,0.94026 1.4375,1.375 z"
       id="path4122-0"
       style="color:#000000;fill:#00aa00;fill-opacity:1;fill-rule:nonzero;stroke:#000000;stroke-width:2;stroke-linecap:round;stroke-linejoin:miter;stroke-miterlimit:4;stroke-opacity:1;stroke-dasharray:none;stroke-dashoffset:0;marker:none;visibility:visible;display:inline;overflow:visible" />
    <path
       d="m 107.46059,-211.17334 c -0.8915,-0.8292 -1.6254,-1.63083 -2.2187,-2.40625 -0.5933,-0.77542 -1.0453,-1.52482 -1.375,-2.25 -0.3297,-0.72518 -0.5554,-1.41526 -0.6563,-2.09375 -0.1008,-0.67849 -0.093,-1.33342 0,-1.96875 0.1869,-1.27066 0.7442,-2.47448 1.5,-3.59375 0.7559,-1.11927 1.7336,-2.16004 2.7813,-3.15625 l -80.093797,15.03125 c 0,0 -6.919,3.72453 -4.5937,8.375 2.436,4.87205 7.2928,6.78125 9.1875,6.78125 1.586,0 55.3415,-10.70173 75.468697,-14.71875 z"
       id="path4124-1"
       style="color:#000000;fill:#0066ff;fill-opacity:1;fill-rule:nonzero;stroke:#000000;stroke-width:2;stroke-linecap:round;stroke-linejoin:miter;stroke-miterlimit:4;stroke-opacity:1;stroke-dasharray:none;stroke-dashoffset:0;marker:none;visibility:visible;display:inline;overflow:visible" />
    <path
       d="m 107.27309,248.70166 25.125,4.6875 c 0,0 6.251,-1.88853 7.875,-7.03125 1.6241,-5.14271 -2.7187,-9.1875 -2.7187,-9.1875 l -20.3125,-3.8125 -5.1875,2.53125 0,0.0312 c 0.1746,1.00344 0.4161,2.0635 0.5625,3.15625 0.1464,1.09275 0.1923,2.19979 0,3.3125 -0.1923,1.11271 -0.6273,2.21793 -1.4688,3.28125 -0.4207,0.53166 -0.9212,1.05619 -1.5625,1.5625 -0.6412,0.50631 -1.4119,0.99646 -2.3125,1.46875 z"
       id="path4086-8"
       style="color:#000000;fill:#0066ff;fill-opacity:1;fill-rule:nonzero;stroke:#000000;stroke-width:2;stroke-linecap:round;stroke-linejoin:miter;stroke-miterlimit:4;stroke-opacity:1;stroke-dasharray:none;stroke-dashoffset:0;marker:none;visibility:visible;display:inline;overflow:visible" />
    <path
       d="m 204.05319,-289.09958 c 0,0 4.2106,-16.45972 19.522,-11.48352 15.31128,4.97619 26.02928,16.07693 26.02928,21.05312 0,4.9762 -4.5934,10.71795 -4.2106,19.13921 0.3828,8.42125 4.5934,14.16302 4.5934,18.75643 0,4.59341 -2.6795,11.48352 -13.3975,17.22528 -10.71788,5.74177 -130.14658,54.73814 -179.142977,89.95429 -48.9962997,35.216143 -60.6712997,62.967993 -60.6712997,62.967993 0,0 12.8233,39.61816 73.6859997,73.3031698 C 131.32419,35.501403 202.13929,76.076523 207.49819,80.669933 c 5.359,4.59341 36.36448,20.287557 35.98168,34.450577 -0.3827,14.16301 -2.2966,18.37364 0,26.41211 2.2968,8.03846 2.2968,17.99085 -9.9523,31.3883 -12.24908,13.39744 -38.66118,30.62273 -114.83528,62.7766 -76.173997,32.15387 -111.3901967,60.4799 -121.3425967,80.76746 0,0 1.1484,16.84251 27.1776997,31.38831 26.0293,14.54579 142.395697,83.44695 142.395697,83.44695 l 47.848,29.85716 c 0,0 31.77108,10.71796 32.15388,29.47438 0.3828,18.75643 -3.8278,16.07694 -2.6795,24.49819 1.1484,8.42125 2.2967,25.64654 -4.9762,34.45058 -7.2729,8.80403 -31.00548,30.23995 -73.49448,45.9341 0,0 -8.0385,4.21062 -11.8663,-0.38279 -5.0519,-6.06227 -13.7803,-25.64654 -13.7803,-25.64654 0,0 -2.6795,-8.42125 5.7418,-12.24909 8.4212,-3.82784 68.9011,-34.83336 74.6429,-40.57512 0,0 -32.1539,-32.15387 -63.1594,-47.08246 -31.0055,-14.92858 -111.007397,-61.81964 -111.007397,-61.81964 0,0 -81.9158,-29.66577 -66.6044,-85.55226 0,0 -3.0623,-18.75643 -2.6795,-30.23995 0.3827,-11.48353 19.5220003,-36.74728 48.2308,-56.26928 28.7088,-19.52199 90.719797,-48.2308 90.719797,-48.2308 0,0 94.9305,-45.16854 97.2272,-47.84803 0,0 -6.1245,-21.43591 -68.1356,-51.293077 C 83.093393,58.468453 22.996293,24.400663 4.2397933,2.5819628 -14.516607,-19.236737 -23.703407,-31.485827 -17.961607,-62.874127 c 0,0 0.3827,-17.60808 -0.3828,-27.94325 -0.7656,-10.335173 3.445,-33.685013 16.4597003,-47.465243 13.0146997,-13.78023 49.7618997,-43.63739 66.9871997,-53.207 17.2253,-9.5696 111.772997,-54.35535 111.772997,-54.35535 l 22.4489,-7.38501 4.7288,-35.8696 z"
       id="path1935-2-2"
       style="color:#000000;fill:#374845;fill-opacity:1;fill-rule:nonzero;stroke:#000000;stroke-width:2;stroke-linecap:round;stroke-linejoin:miter;stroke-miterlimit:4;stroke-opacity:1;stroke-dasharray:none;stroke-dashoffset:0;marker:none;visibility:visible;display:inline;overflow:visible" />
    <path
       d="m 106.67939,8.1079128 c -0.7783,-1.75653 -1.1751,-3.16224 -1.3125,-4.3125 -0.1374,-1.15026 0.01,-2.03869 0.25,-2.78125 0.4866,-1.48511995 1.4582,-2.36052 1.9062,-3.40625 l -54.156197,8.125 c 0,0 -6.7601,2.7222 -6.2188,8.4062502 0.5414,5.68406 5.9688,9.1875 5.9688,9.1875 l 32.1875,-4.0625 21.374997,-11.1562502 z"
       id="path4104-6"
       style="color:#000000;fill:#0066ff;fill-opacity:1;fill-rule:nonzero;stroke:#000000;stroke-width:2;stroke-linecap:round;stroke-linejoin:miter;stroke-miterlimit:4;stroke-opacity:1;stroke-dasharray:none;stroke-dashoffset:0;marker:none;visibility:visible;display:inline;overflow:visible" />
    <path
       d="m 15.723393,54.257823 c 30.6227,-22.96705 128.232697,-66.60444 128.232697,-66.60444 l 15.278,41.7816 m 0.7756,-1.04758 c -19.3998,9.92955 -35.1784,17.67713 -35.1784,17.67713 0,0 -22.9086,9.11785 -49.376197,22.43772 l -58.8677,-13.89433"
       id="path4689-7-8"
       style="color:#000000;fill:#374845;fill-opacity:1;fill-rule:nonzero;stroke:none;stroke-width:2;marker:none;visibility:visible;display:inline;overflow:visible" />
    <path
       d="m 76.606493,444.56172 c 20.0822,-9.58806 46.682397,-22.29302 70.149097,-33.51753 m -70.382397,33.74423 -34.0237,-29.42355 c 16.2155,-9.7724 33.2911,-19.27645 44.5717,-24.25697 3.5836,-1.58218 8.551,-3.92655 15.009097,-6.68721 l 45.2417,27.32826"
       id="path12680-9-6"
       style="color:#000000;fill:#374845;fill-opacity:1;fill-rule:nonzero;stroke:none;stroke-width:2;marker:none;visibility:visible;display:inline;overflow:visible" />
    <path
       d="m -20.210507,322.15889 c 0,0 5.3111,-17.943 29.0438003,-37.46499"
       id="path1967-4-0"
       style="color:#000000;fill:none;stroke:#000000;stroke-width:2;stroke-linecap:round;stroke-linejoin:miter;stroke-miterlimit:4;stroke-opacity:1;stroke-dasharray:none;stroke-dashoffset:0;marker:none;visibility:visible;display:inline;overflow:visible" />
    <path
       d="m -2.4110067,315.93866 c 0,0 -33.9243003,34.59411 26.1727997,76.31759"
       id="path1969-3-2"
       style="color:#000000;fill:none;stroke:#000000;stroke-width:2;stroke-linecap:round;stroke-linejoin:miter;stroke-miterlimit:4;stroke-opacity:1;stroke-dasharray:none;stroke-dashoffset:0;marker:none;visibility:visible;display:inline;overflow:visible" />
    <path
       d="m 220.12449,517.06711 c 0,0 27.34378,-29.48565 -5.1736,-55.88649"
       id="path1975-3-4"
       style="color:#000000;fill:none;stroke:#000000;stroke-width:2;stroke-linecap:round;stroke-linejoin:miter;stroke-miterlimit:4;stroke-opacity:1;stroke-dasharray:none;stroke-dashoffset:0;marker:none;visibility:visible;display:inline;overflow:visible" />
    <path
       d="m -18.440107,506.99581 c 0,0 10.4309003,-20.95744 29.5701,-35.12045"
       id="path1971-3-8"
       style="color:#000000;fill:none;stroke:#000000;stroke-width:2;stroke-linecap:round;stroke-linejoin:miter;stroke-miterlimit:4;stroke-opacity:1;stroke-dasharray:none;stroke-dashoffset:0;marker:none;visibility:visible;display:inline;overflow:visible" />
    <path
       d="m -1.4541067,502.73733 c 0,0 -32.8716003,36.50804 25.5986997,75.93481"
       id="path1973-4-6"
       style="color:#000000;fill:none;stroke:#000000;stroke-width:2;stroke-linecap:round;stroke-linejoin:miter;stroke-miterlimit:4;stroke-opacity:1;stroke-dasharray:none;stroke-dashoffset:0;marker:none;visibility:visible;display:inline;overflow:visible" />
    <path
       d="m 14.574993,92.919033 c 0,0 -32.8764,26.890587 -35.2209,39.043977"
       id="path1963-1-5"
       style="color:#000000;fill:none;stroke:#000000;stroke-width:2;stroke-linecap:round;stroke-linejoin:miter;stroke-miterlimit:4;stroke-opacity:1;stroke-dasharray:none;stroke-dashoffset:0;marker:none;visibility:visible;display:inline;overflow:visible" />
    <path
       d="m -2.2675067,127.75239 c 0,0 -34.4506003,39.42677 26.4120997,76.17405"
       id="path1965-1-0"
       style="color:#000000;fill:none;stroke:#000000;stroke-width:2;stroke-linecap:round;stroke-linejoin:miter;stroke-miterlimit:4;stroke-opacity:1;stroke-dasharray:none;stroke-dashoffset:0;marker:none;visibility:visible;display:inline;overflow:visible" />
    <path
       d="m -17.961607,-62.491347 c 0,0 7.6557,-36.3645 66.2216,-71.963423"
       id="path1959-8-9"
       style="color:#000000;fill:none;stroke:#000000;stroke-width:2;stroke-linecap:round;stroke-linejoin:miter;stroke-miterlimit:4;stroke-opacity:1;stroke-dasharray:none;stroke-dashoffset:0;marker:none;visibility:visible;display:inline;overflow:visible" />
    <path
       d="m -3.0331067,-71.678167 c 0,0 -29.0916003,56.65206 48.9963997,100.28945"
       id="path1961-7-0"
       style="color:#000000;fill:none;stroke:#000000;stroke-width:2;stroke-linecap:round;stroke-linejoin:miter;stroke-miterlimit:4;stroke-opacity:1;stroke-dasharray:none;stroke-dashoffset:0;marker:none;visibility:visible;display:inline;overflow:visible" />
    <path
       d="m 217.83339,-44.117707 c 0,0 28.79768,-11.10074 26.88378,-35.21614"
       id="path1981-4-0"
       style="color:#000000;fill:none;stroke:#000000;stroke-width:2;stroke-linecap:round;stroke-linejoin:miter;stroke-miterlimit:4;stroke-opacity:1;stroke-dasharray:none;stroke-dashoffset:0;marker:none;visibility:visible;display:inline;overflow:visible" />
    <path
       d="m 221.27849,-55.601227 c 0,0 24.22748,-33.8648 -3.333,-49.558953"
       id="path1983-2-6"
       style="color:#000000;fill:none;stroke:#000000;stroke-width:2;stroke-linecap:round;stroke-linejoin:miter;stroke-miterlimit:4;stroke-opacity:1;stroke-dasharray:none;stroke-dashoffset:0;marker:none;visibility:visible;display:inline;overflow:visible" />
    <path
       d="m -15.856307,-260.58218 c 0,0 0.9569,-39.61815 30.8141,-64.49912"
       id="path1955-7-1"
       style="color:#000000;fill:none;stroke:#000000;stroke-width:2;stroke-linecap:round;stroke-linejoin:miter;stroke-miterlimit:4;stroke-opacity:1;stroke-dasharray:none;stroke-dashoffset:0;marker:none;visibility:visible;display:inline;overflow:visible" />
    <path
       d="m 199.07699,-253.11789 c 0,0 39.00518,-17.99262 39.42678,-26.79487 0.3827,-7.99203 -1.5312,-8.80404 -1.5312,-8.80404"
       id="path1957-7-3"
       style="color:#000000;fill:none;stroke:#000000;stroke-width:2;stroke-linecap:round;stroke-linejoin:miter;stroke-miterlimit:4;stroke-opacity:1;stroke-dasharray:none;stroke-dashoffset:0;marker:none;visibility:visible;display:inline;overflow:visible" />
    <path
       d="m 107.39809,479.07666 95.375,5.46875 c 0,0 4.3438,-4.32554 4.3438,-8.65625 0,-4.33071 -6.5,-9.21875 -6.5,-9.21875 l -93.3125,-5.875 c -1.1882,1.01517 -2.2716,2.32484 -3.0938,3.8125 -0.4111,0.74383 -0.7325,1.53077 -1,2.34375 -0.2674,0.81298 -0.4734,1.65051 -0.5625,2.5 -0.089,0.84949 -0.062,1.70915 0.062,2.5625 0.1241,0.85335 0.3468,1.70668 0.7188,2.53125 0.372,0.82457 0.8766,1.61186 1.5312,2.375 0.6547,0.76314 1.4654,1.48719 2.4375,2.15625 z"
       id="path4066-6"
       style="color:#000000;fill:#00aa00;fill-opacity:1;fill-rule:nonzero;stroke:#000000;stroke-width:2;stroke-linecap:round;stroke-linejoin:miter;stroke-miterlimit:4;stroke-opacity:1;stroke-dasharray:none;stroke-dashoffset:0;marker:none;visibility:visible;display:inline;overflow:visible" />
    <path
       d="m 107.39809,-30.579587 c 0.8774,-0.61449 1.6374,-1.26699 2.2813,-1.9375 0.6439,-0.67051 1.1774,-1.35305 1.5937,-2.0625 0.4164,-0.70945 0.7115,-1.45618 0.9063,-2.1875 0.1947,-0.73132 0.2709,-1.45138 0.25,-2.1875 -0.021,-0.73612 -0.1443,-1.49491 -0.375,-2.21875 -0.2307,-0.72384 -0.5655,-1.4305 -1,-2.125 -0.4345,-0.6945 -0.9613,-1.35192 -1.5938,-2 -0.6324,-0.64808 -1.3631,-1.29041 -2.1875,-1.875 l -108.8436967,3.375 c 0,0 -3.2601,4.07505 -2.7188,7.59375 0.2707,1.75935 1.4174,3.6389 2.5,5.09375 1.08270003,1.45485 2.12500003,2.46875 2.12500003,2.46875 l 107.06249667,-1.9375 z"
       id="path4108-1"
       style="color:#000000;fill:#00aa00;fill-opacity:1;fill-rule:nonzero;stroke:#000000;stroke-width:2;stroke-linecap:round;stroke-linejoin:miter;stroke-miterlimit:4;stroke-opacity:1;stroke-dasharray:none;stroke-dashoffset:0;marker:none;visibility:visible;display:inline;overflow:visible" />
    <path
       d="m 212.96399,139.99403 c 0,0 38.13198,-25.51024 -1.2551,-56.441607"
       id="path1979-9-8"
       style="color:#000000;fill:none;stroke:#000000;stroke-width:2;stroke-linecap:round;stroke-linejoin:miter;stroke-miterlimit:4;stroke-opacity:1;stroke-dasharray:none;stroke-dashoffset:0;marker:none;visibility:visible;display:inline;overflow:visible" />
    <path
       d="m 15.723393,54.257823 c 30.6227,-22.96705 128.232697,-66.60444 128.232697,-66.60444 m 16.0536,40.73402 c -19.3998,9.92955 -35.1784,17.67713 -35.1784,17.67713 0,0 -22.9086,9.11785 -49.376197,22.43772"
       id="path4687-5-4"
       style="color:#000000;fill:#374845;fill-opacity:1;fill-rule:nonzero;stroke:#000000;stroke-width:2;stroke-linecap:round;stroke-linejoin:miter;stroke-miterlimit:4;stroke-opacity:1;stroke-dasharray:none;stroke-dashoffset:0;marker:none;visibility:visible;display:inline;overflow:visible" />
    <path
       d="m 107.39809,379.88916 c -0.65,-0.50318 -1.2248,-1.08553 -1.6875,-1.71875 -0.4627,-0.63322 -0.8076,-1.30823 -1.0937,-2.03125 -0.2861,-0.72302 -0.5049,-1.47743 -0.625,-2.25 -0.1202,-0.77257 -0.1601,-1.56186 -0.125,-2.34375 0.07,-1.56378 0.4356,-3.10914 1.0625,-4.46875 0.3134,-0.67981 0.6884,-1.3066 1.125,-1.875 0.4366,-0.5684 0.9509,-1.08324 1.5,-1.5 l -88.281297,-1.5 c 0,0 -4.875,3.24188 -4.875,7.03125 0,3.78937 3.25,9.75 3.25,9.75 l 89.749997,0.90625 z"
       id="path4072-2"
       style="color:#000000;fill:#0066ff;fill-opacity:1;fill-rule:nonzero;stroke:#000000;stroke-width:2;stroke-linecap:round;stroke-linejoin:miter;stroke-miterlimit:4;stroke-opacity:1;stroke-dasharray:none;stroke-dashoffset:0;marker:none;visibility:visible;display:inline;overflow:visible" />
    <path
       d="m 107.39809,567.85791 0,-0.25 c -0.9267,-0.32346 -1.7424,-0.78266 -2.4375,-1.3125 -0.695,-0.52984 -1.2862,-1.12769 -1.75,-1.8125 -0.4637,-0.68481 -0.7983,-1.43039 -1.0312,-2.21875 -0.2329,-0.78836 -0.3413,-1.62826 -0.3438,-2.46875 0,-0.84049 0.085,-1.69004 0.3125,-2.53125 0.2276,-0.84121 0.5742,-1.67825 1.0313,-2.46875 0.4571,-0.7905 1.0325,-1.53037 1.7187,-2.21875 0.6863,-0.68838 1.4913,-1.30891 2.4063,-1.84375 l -87.499997,-0.6875 c 0,0 -4.5938,2.42987 -4.5938,7.03125 0,4.60138 3.25,8.6875 3.25,8.6875 l 88.937497,2.09375 z"
       id="path2909-6-9"
       style="color:#000000;fill:#0066ff;fill-opacity:1;fill-rule:nonzero;stroke:#000000;stroke-width:2;stroke-linecap:round;stroke-linejoin:miter;stroke-miterlimit:4;stroke-opacity:1;stroke-dasharray:none;stroke-dashoffset:0;marker:none;visibility:visible;display:inline;overflow:visible" />
    <path
       d="m 107.27309,190.76416 c 1.8211,-2.27523 9.5808,-7.57219 0.1245,-15.15625 l -88.656197,-0.96875 c 0,0 -4.625,4.58563 -4.625,8.375 0,3.78937 4.3437,8.40625 4.3437,8.40625 l 88.812497,-0.65625 5e-4,0 z"
       id="path4088-3"
       style="color:#000000;fill:#00aa00;fill-opacity:1;fill-rule:nonzero;stroke:#000000;stroke-width:2;stroke-linecap:round;stroke-linejoin:miter;stroke-miterlimit:4;stroke-opacity:1;stroke-dasharray:none;stroke-dashoffset:0;marker:none;visibility:visible;display:inline;overflow:visible" />
    <path
       d="m 216.14159,326.1657 c 0,0 38.39458,-30.04533 -11.7501,-59.51972"
       id="path1977-1-5"
       style="color:#000000;fill:none;stroke:#000000;stroke-width:2;stroke-linecap:round;stroke-linejoin:miter;stroke-miterlimit:4;stroke-opacity:1;stroke-dasharray:none;stroke-dashoffset:0;marker:none;visibility:visible;display:inline;overflow:visible" />
    <path
       d="m 215.48599,326.75569 c 0,0 3.5376,-2.34362 7.0094,-7.12236 l 0,0 -14.2265,0.47039"
       id="path6470-9-9"
       style="color:#000000;fill:#ffcc00;fill-opacity:1;fill-rule:nonzero;stroke:#000000;stroke-width:2;stroke-linecap:round;stroke-linejoin:miter;stroke-miterlimit:4;stroke-opacity:1;stroke-dasharray:none;stroke-dashoffset:0;marker:none;visibility:visible;display:inline;overflow:visible" />
    <path
       d="m 111.67939,-255.36084 -10.4063,-8.8125 10.375,-9.625 -113.0936967,-1.8125 c 0,0 -4.1858,7.29773 -1.3438,17.3125 l 114.4687967,2.9375 z"
       id="path4128-4"
       style="color:#000000;fill:#d40000;fill-opacity:1;fill-rule:nonzero;stroke:#000000;stroke-width:2;stroke-linecap:round;stroke-linejoin:miter;stroke-miterlimit:4;stroke-opacity:1;stroke-dasharray:none;stroke-dashoffset:0;marker:none;visibility:visible;display:inline;overflow:visible" />
    <path
       d="m 107.46059,-75.642087 -10.937497,-8.5 12.124997,-8.34375 -92.906197,-7.0625 c -5.4134,2.43603 -14.0624997,16.21875 -14.0624997,16.21875 l 105.7811967,7.6875 z"
       id="path4112-0"
       style="color:#000000;fill:#d40000;fill-opacity:1;fill-rule:nonzero;stroke:#000000;stroke-width:2;stroke-linecap:round;stroke-linejoin:miter;stroke-miterlimit:4;stroke-opacity:1;stroke-dasharray:none;stroke-dashoffset:0;marker:none;visibility:visible;display:inline;overflow:visible" />
    <path
       d="m 106.92939,335.54541 -8.781297,-7.78125 9.156297,-8.46875 -111.7187967,-0.9375 c -1.9749,2.67662 -4.9057,7.46985 -6.4687003,13.875 39.2638,1.24786 78.5372,2.22367 117.812497,3.3125 z"
       id="path4076-7"
       style="color:#000000;fill:#d40000;fill-opacity:1;fill-rule:nonzero;stroke:#000000;stroke-width:2;stroke-linecap:round;stroke-linejoin:miter;stroke-miterlimit:4;stroke-opacity:1;stroke-dasharray:none;stroke-dashoffset:0;marker:none;visibility:visible;display:inline;overflow:visible" />
    <path
       d="m -4.5177067,318.51769 c -2.0388,2.79546 -5.0331,7.75639 -6.5224003,14.35465"
       id="path7360-1-6"
       style="color:#000000;fill:#d40000;stroke:#000000;stroke-width:2;stroke-linecap:round;stroke-linejoin:miter;stroke-miterlimit:4;stroke-opacity:1;stroke-dasharray:none;stroke-dashoffset:0;marker:none;visibility:visible;display:inline;overflow:visible" />
    <path
       d="m 19.962493,318.56205 -24.3647997,-0.2017 c -1.9748,2.67662 -4.9255,7.47116 -6.4885003,13.87631 9.6659003,0.3072 19.3324003,0.60928 28.9993,0.9064"
       id="path7362-2-3"
       style="color:#000000;fill:#d40000;fill-opacity:1;fill-rule:nonzero;stroke:#000000;stroke-width:2;stroke-linecap:butt;stroke-linejoin:miter;stroke-miterlimit:4;stroke-opacity:1;stroke-dasharray:none;stroke-dashoffset:0;marker:none;visibility:visible;display:inline;overflow:visible" />
    <path
       d="m 107.42939,436.32666 26.5937,3.84375 c 0,0 7.5938,-1.63804 7.5938,-5.96875 0,-4.33071 -4.3438,-9.1875 -4.3438,-9.1875 l -14.7812,-2.34375 -8.1563,3.90625 -6.9062,9.75 z"
       id="path4070-6"
       style="color:#000000;fill:#d40000;fill-opacity:1;fill-rule:nonzero;stroke:#000000;stroke-width:2;stroke-linecap:round;stroke-linejoin:miter;stroke-miterlimit:4;stroke-opacity:1;stroke-dasharray:none;stroke-dashoffset:0;marker:none;visibility:visible;display:inline;overflow:visible" />
    <path
       d="m 107.39809,522.85791 99.3438,2.53125 c 7.0533,-4.00606 12.2832,-7.22072 13.7812,-8.71875 0,0 2.8898,-2.72436 5.0625,-7.4375 l -118.1875,-3.375 8.2813,8.71875 -8.2813,8.21875 0,0.0625 z"
       id="path4062-1"
       style="color:#000000;fill:#d40000;fill-opacity:1;fill-rule:nonzero;stroke:#000000;stroke-width:2;stroke-linecap:round;stroke-linejoin:miter;stroke-miterlimit:4;stroke-opacity:1;stroke-dasharray:none;stroke-dashoffset:0;marker:none;visibility:visible;display:inline;overflow:visible" />
    <path
       d="m -3.3831067,129.07666 c -5.4367,7.57258 -7.1250003,15.03125 -7.1250003,15.03125 l 47.8125,1.34375 30.1875,0.84375 0,0.0625 39.781197,1.15625 0,-0.0312 -10.749997,-8.40625 11.218797,-7.625 -7.4375,-0.15625 -32.843797,-0.6875 -19,-0.40625 -51.8436997,-1.125 z"
       id="path4092-5"
       style="color:#000000;fill:#d40000;fill-opacity:1;fill-rule:nonzero;stroke:#000000;stroke-width:2;stroke-linecap:round;stroke-linejoin:miter;stroke-miterlimit:4;stroke-opacity:1;stroke-dasharray:none;stroke-dashoffset:0;marker:none;visibility:visible;display:inline;overflow:visible" />
    <path
       d="m 107.77309,-139.51709 11.2813,12.46875 -10.6875,6.3125 58.1562,19.8125 c 0,0 9.4803,0.2783 11.375,-4.59375 1.8947,-4.87205 -3.8125,-10 -3.8125,-10 l -66.3125,-24 z"
       id="path4118-4"
       style="color:#000000;fill:#d40000;fill-opacity:1;fill-rule:nonzero;stroke:#000000;stroke-width:2;stroke-linecap:round;stroke-linejoin:miter;stroke-miterlimit:4;stroke-opacity:1;stroke-dasharray:none;stroke-dashoffset:0;marker:none;visibility:visible;display:inline;overflow:visible" />
    <path
       d="m 107.77309,103.38916 93.125,4.9375 c 0,0 3.7813,-4.07603 3.7813,-9.218747 0,-5.14272 -7.3125,-9.75 -7.3125,-9.75 l -89.8438,-5.09375 11.2188,9.8125 -10.9688,9.281247 0,0.0312 z"
       id="path4098-2"
       style="color:#000000;fill:#d40000;fill-opacity:1;fill-rule:nonzero;stroke:#000000;stroke-width:2;stroke-linecap:round;stroke-linejoin:miter;stroke-miterlimit:4;stroke-opacity:1;stroke-dasharray:none;stroke-dashoffset:0;marker:none;visibility:visible;display:inline;overflow:visible" />
    <path
       d="m 107.21059,291.32666 93.9375,5.09375 c 0,0 4.3438,-3.51304 4.3438,-7.84375 0,-4.33071 -5.6875,-8.65625 -5.6875,-8.65625 l -92.3438,-5.6875 8.4063,8.8125 -8.6563,8.28125 z"
       id="path4082-0"
       style="color:#000000;fill:#d40000;fill-opacity:1;fill-rule:nonzero;stroke:#000000;stroke-width:2;stroke-linecap:round;stroke-linejoin:miter;stroke-miterlimit:4;stroke-opacity:1;stroke-dasharray:none;stroke-dashoffset:0;marker:none;visibility:visible;display:inline;overflow:visible" />
    <path
       d="m 101.93029,384.09292 c -6.458097,2.76066 -11.425497,5.4328 -15.009097,7.01498 -11.2806,4.98052 -28.3562,14.48457 -44.5717,24.25697 m 34.257,29.19685 c 20.0822,-9.58806 46.682397,-22.29302 70.149097,-33.51753"
       id="path11793-8-9"
       style="color:#000000;fill:none;stroke:#000000;stroke-width:2;stroke-linecap:round;stroke-linejoin:round;stroke-miterlimit:4;stroke-opacity:1;stroke-dasharray:none;stroke-dashoffset:0;marker:none;visibility:visible;display:inline;overflow:visible" />
    <path
       d="m 107.46059,-75.642087 110.75,8.03125 c 0,0 3.5313,-4.05487 3.5313,-8.65625 0,-4.60137 -3,-7.875 -3,-7.875 l -110.0938,-8.34375 -12.124997,8.34375 10.937497,8.5 z"
       id="path4114-3"
       style="color:#000000;fill:#ffcc00;fill-opacity:1;fill-rule:nonzero;stroke:#000000;stroke-width:2;stroke-linecap:round;stroke-linejoin:miter;stroke-miterlimit:4;stroke-opacity:1;stroke-dasharray:none;stroke-dashoffset:0;marker:none;visibility:visible;display:inline;overflow:visible" />
    <path
       d="m 107.21059,291.32666 8.6563,-8.28125 -8.4063,-8.8125 -61.656197,-3.78125 c -2.9774,0.27067 -23.5625,16.25 -23.5625,16.25 l 84.968697,4.625 z"
       id="path4080-6"
       style="color:#000000;fill:#ffcc00;fill-opacity:1;fill-rule:nonzero;stroke:#000000;stroke-width:2;stroke-linecap:round;stroke-linejoin:miter;stroke-miterlimit:4;stroke-opacity:1;stroke-dasharray:none;stroke-dashoffset:0;marker:none;visibility:visible;display:inline;overflow:visible" />
    <path
       d="m 107.42939,436.32666 6.9062,-9.75 -17.249997,8.25 10.343797,1.5 z"
       id="path4068-0"
       style="color:#000000;fill:#ffcc00;fill-opacity:1;fill-rule:nonzero;stroke:#000000;stroke-width:2;stroke-linecap:round;stroke-linejoin:miter;stroke-miterlimit:4;stroke-opacity:1;stroke-dasharray:none;stroke-dashoffset:0;marker:none;visibility:visible;display:inline;overflow:visible" />
    <path
       d="m 108.33559,-120.73584 0.031,0 10.6875,-6.3125 -11.2812,-12.46875 -28.687497,-10.375 -18.9375,12.71875 48.187497,16.4375 z"
       id="path4116-1"
       style="color:#000000;fill:#ffcc00;fill-opacity:1;fill-rule:nonzero;stroke:#000000;stroke-width:2;stroke-linecap:round;stroke-linejoin:miter;stroke-miterlimit:4;stroke-opacity:1;stroke-dasharray:none;stroke-dashoffset:0;marker:none;visibility:visible;display:inline;overflow:visible" />
    <path
       d="m 107.74189,131.45166 -11.218797,7.625 10.749997,8.40625 0,0.0312 23.2188,0.65625 31.5,0.90625 31.5,0.90625 c 6.8859,-3.13621 11.4479,-5.32989 14.7812,-7.15625 0.5564,-0.30518 1.1003,-0.58641 1.5938,-0.875 1.9716,-1.15275 3.4676,-2.19817 4.8437,-3.3125 1.0321,-0.83575 2.0096,-1.72556 3.0313,-2.71875 0.6811,-0.66213 1.3767,-1.36731 2.1562,-2.15625 l -38.0937,-0.81245 -38.125,-0.78125 -0.031,0.0312 -35.9063,-0.75 z"
       id="path4094-6"
       style="color:#000000;fill:#ffcc00;fill-opacity:1;fill-rule:nonzero;stroke:#000000;stroke-width:2;stroke-linecap:round;stroke-linejoin:miter;stroke-miterlimit:4;stroke-opacity:1;stroke-dasharray:none;stroke-dashoffset:0;marker:none;visibility:visible;display:inline;overflow:visible" />
    <path
       d="m 107.39809,522.85791 0,-0.0625 8.2813,-8.21875 -8.2813,-8.71875 -108.8436967,-3.125 c 0,0 -5.9302,6.55958 -8.2813,17.125 l 117.1249967,3 z"
       id="path4060-5"
       style="color:#000000;fill:#ffcc00;fill-opacity:1;fill-rule:nonzero;stroke:#000000;stroke-width:2;stroke-linecap:round;stroke-linejoin:miter;stroke-miterlimit:4;stroke-opacity:1;stroke-dasharray:none;stroke-dashoffset:0;marker:none;visibility:visible;display:inline;overflow:visible" />
    <path
       d="m 111.67939,-255.36084 87.4062,2.25 c 0,0 21.7419,-10.03609 32.93748,-18.78125 l -120.37498,-1.90625 -10.375,9.625 10.4063,8.8125 z"
       id="path4130-7"
       style="color:#000000;fill:#ffcc00;fill-opacity:1;fill-rule:nonzero;stroke:#000000;stroke-width:2;stroke-linecap:round;stroke-linejoin:miter;stroke-miterlimit:4;stroke-opacity:1;stroke-dasharray:none;stroke-dashoffset:0;marker:none;visibility:visible;display:inline;overflow:visible" />
  </g>
</svg>
