<?xml version="1.0" encoding="UTF-8" standalone="no"?>
<!-- Created with Inkscape (http://www.inkscape.org/) -->

<svg
   xmlns:dc="http://purl.org/dc/elements/1.1/"
   xmlns:cc="http://creativecommons.org/ns#"
   xmlns:rdf="http://www.w3.org/1999/02/22-rdf-syntax-ns#"
   xmlns:svg="http://www.w3.org/2000/svg"
   xmlns="http://www.w3.org/2000/svg"
   xmlns:xlink="http://www.w3.org/1999/xlink"
   version="1.0"
   width="263.92218"
   height="153.84279"
   id="svg2">
  <defs
     id="defs4">
    <linearGradient
       id="linearGradient3337">
      <stop
         id="stop3339"
         style="stop-color:#ff4d00;stop-opacity:1"
         offset="0" />
      <stop
         id="stop3341"
         style="stop-color:#ff2c00;stop-opacity:1"
         offset="1" />
    </linearGradient>
    <linearGradient
       id="linearGradient3261">
      <stop
         id="stop3263"
         style="stop-color:#ffda59;stop-opacity:1"
         offset="0" />
      <stop
         id="stop3265"
         style="stop-color:#fecd21;stop-opacity:1"
         offset="1" />
    </linearGradient>
    <linearGradient
       id="linearGradient3253">
      <stop
         id="stop3255"
         style="stop-color:#0065c0;stop-opacity:1"
         offset="0" />
      <stop
         id="stop3257"
         style="stop-color:#00386a;stop-opacity:1"
         offset="1" />
    </linearGradient>
    <radialGradient
       cx="353.81482"
       cy="375.55215"
       r="345.25037"
       fx="353.81482"
       fy="375.55215"
       id="radialGradient3409"
       xlink:href="#linearGradient3253"
       gradientUnits="userSpaceOnUse"
       gradientTransform="matrix(1.0244279,0.01954232,-0.02182611,1.1441464,-12.694686,-189.39003)" />
  </defs>
  <metadata
     id="metadata7">
    <rdf:RDF>
      <cc:Work
         rdf:about="">
        <dc:format>image/svg+xml</dc:format>
        <dc:type
           rdf:resource="http://purl.org/dc/dcmitype/StillImage" />
        <dc:title></dc:title>
      </cc:Work>
    </rdf:RDF>
  </metadata>
  <g
     transform="translate(-207.59375,-14.15721)"
     id="layer1"
     style="display:inline" />
  <g
     transform="translate(-207.59375,-14.15721)"
     id="layer2">
    <g
       id="g3760">
      <g
         transform="translate(-9.8232302,0.8484849)"
         id="g7736"
         style="fill:#00386a;fill-opacity:1;stroke:#ffffff" />
      <g
         id="g3691">
        <path
           d="m 351.48929,57.08015 c 0,0 -13.3434,-3.49573 -19.0623,-4.9925 -8.8499,-2.31622 -20.5469,-5.84265 -29.5011,-7.71568 -2.5636,-0.53625 -6.0045,-1.33009 -8.6234,-1.36159 -2.0603,-0.02478 -4.9608,-0.0051 -6.808,0.90772 -0.8631,0.42654 -2.1517,1.31375 -2.2693,2.26932 -0.194,1.57598 1.5746,3.44223 2.7232,4.53864 2.9084,2.77624 8.2157,4.53308 11.8004,6.35409 3.095,1.57222 7.1778,3.80253 10.4389,4.9925 3.5677,1.30187 8.4696,2.86184 12.2543,3.17704 7.764,0.64659 25.8702,-2.26931 25.8702,-2.26931 l 3.1771,-5.90023 z"
           id="path7078"
           style="fill:#ffffff;fill-opacity:1;fill-rule:evenodd;stroke:#ffffff;stroke-width:1.5;stroke-linecap:butt;stroke-linejoin:miter;stroke-miterlimit:4;stroke-opacity:1;stroke-dasharray:none" />
        <path
           d="m 348.79199,65.62086 -8.8489,-4.61681 c 0,0 -7.2476,-6.72165 -9.2336,-10.38784 -0.6268,-1.15713 -0.5614,-3.05717 -1.1542,-4.23209 -1.2586,-2.49452 -3.3991,-5.83339 -5.7711,-7.30996 -1.403,-0.87333 -3.7367,-1.05475 -5.3863,-1.1542 -2.5451,-0.15344 -5.9337,1.08231 -8.4641,0.76947 -2.4272,-0.30008 -7.6947,-2.69315 -7.6947,-2.69315 0,0 1.4603,6.05186 3.0779,8.07943 1.8167,2.27719 6.3271,3.05919 8.0794,5.38629 1.6029,2.12868 2.2843,5.83103 2.6931,8.46417 0.1948,1.25459 0,4.23208 0,4.23208 0,0 -8.6814,-5.28045 -12.6962,-6.92523 -3.8878,-1.59274 -9.2717,-3.59879 -13.4657,-3.84734 -3.6179,-0.21441 -8.5797,0.53367 -11.9268,1.92367 -5.2665,2.18706 -10.2312,8.72585 -15.3894,11.15731 -2.9121,1.37269 -8.8489,2.30841 -10.3878,2.69314 -1.539,0.38474 -8.0904,0.27439 -11.5421,0 -2.913,-0.23157 -9.61836,-1.53894 -9.61836,-1.53894 l 3.46261,3.84735 c 0,0 3.09535,4.27772 5.00155,5.38629 1.7425,1.01337 6.5405,1.53894 6.5405,1.53894 0,0 -0.19671,0.410181 -1.43789,0.688882 -1.66175,0.373142 -4.6116,0.627431 -5.87211,0.465318 -3.99852,-0.514243 -8.58529,-3.84741 -12.31148,-5.38628 -2.06035,-0.8509 -4.70372,-2.508902 -6.92523,-2.69315 -1.0529,-0.08733 -2.74444,-0.254001 -4.27848,0.08868 -2.57441,0.575088 -4.95515,1.834999 -4.95515,1.834999 0,0 5.41145,0.34814 7.30996,1.53894 2.71851,1.70514 4.42055,6.05508 6.54049,8.46416 2.37231,2.69587 5.49582,6.44315 8.46417,8.46417 2.39282,1.62914 6.20242,2.6745 8.84892,3.84735 3.5893,1.59068 11.9268,5.38628 11.9268,5.38628 0,0 -7.3071,0.88029 -10.3879,1.538941 -3.752,0.80215 -8.88662,1.7332 -12.3115,3.46262 -3.52417,1.77956 -10.38784,8.07943 -10.38784,8.07943 0,0 6.70393,-1.75186 9.61837,-1.53894 4.22329,0.30854 9.51867,2.69856 13.46577,4.23208 8.9043,3.45948 19.7118,10.69913 28.8551,13.46572 5.1403,1.55535 12.3279,2.77058 17.6978,2.69314 5.1612,-0.0744 16.9283,-3.07788 16.9283,-3.07788 0,0 -5.662,5.82643 -8.8489,6.92523 -3.2735,1.12866 -8.1153,-0.49699 -11.542,0 -3.2166,0.46651 -7.68671,0.87148 -10.55931,2.39224 -1.24977,0.66162 -3.50884,2.03943 -5.08983,3.39313 -2.08708,1.78705 -3.20296,4.21774 -3.20296,4.21774 0,0 10.2075,-2.80448 14.62,-2.30841 3.0883,0.3472 6.8373,2.46018 9.6183,3.84734 3.9855,1.98797 8.3148,6.89532 12.6963,7.6947 4.9663,0.90607 16.5436,-3.07788 16.5436,-3.07788 0,0 0.0636,0.44491 -1.06738,1.56288 -1.51032,1.49295 -4.45809,3.83976 -5.85782,4.59288 -1.5779,0.84899 -5.7711,1.53894 -5.7711,1.53894 0,0 3.7534,2.67578 7.2987,2.14076 2.5647,-0.38703 10.3473,-3.37364 12.7075,-4.44917 5.1217,-2.33391 11.1516,-7.23452 16.5436,-8.8489 2.4426,-0.73133 8.4642,-0.76947 8.4642,-0.76947 0,0 -6.926,4.05082 -9.2336,6.54049 -1.3725,1.4808 -2.9237,3.82525 -3.4626,5.77102 -0.5546,2.00218 0,6.92523 0,6.92523 0,0 3.4868,-4.60221 5.3862,-6.15576 1.4406,-1.17828 3.6524,-2.40153 5.3863,-3.07788 3.8606,-1.50595 9.6593,-1.43992 13.4658,-3.07787 3.8226,-1.64491 8.508,-4.8463 11.542,-7.6947 2.2216,-2.08568 4.3238,-5.64441 6.1558,-8.07943 3.0254,-4.02139 6.73943,-13.84968 6.73943,-13.84968 l 21.9298,-2.30841 3.0779,1.92368 c 0,0 2.1438,8.82287 0,11.54204 -1.8372,2.33031 -8.3294,0.25455 -11.1572,1.15421 -2.9615,0.94222 -4.3577,1.25047 -6.5406,3.46261 -1.1292,1.14431 -1.0772,5.1738 -1.9237,6.54049 -0.9894,1.59732 -5.771,4.61682 -5.771,4.61682 0,0 5.4714,-0.10699 7.6947,-0.76947 3.1169,-0.92874 4.6867,-4.61795 7.31,-6.54049 1.0533,-0.77192 4.1379,-1.1559 5.3863,-1.53894 2.9215,-0.89638 6.9472,1.93499 10.0031,1.92367 2.9426,-0.0109 7.1113,-0.38281 9.6183,-1.92367 1.7507,-1.07607 3.6145,-3.42628 4.2321,-5.38629 0.6253,-1.98459 0.2981,-4.95968 -0.3847,-6.92523 -1.2505,-3.59961 -7.31,-10.38784 -7.31,-10.38784 l -10.7725,-4.61682 -48.29083,-0.3855 -17.6978,-48.861331 z"
           id="path6985"
           style="fill:#aa0000;fill-opacity:1;fill-rule:evenodd;stroke:#ffffff;stroke-width:1.5;stroke-linecap:butt;stroke-linejoin:miter;stroke-miterlimit:4;stroke-opacity:1;stroke-dasharray:none" />
        <path
           d="m 351.96989,82.25141 1.7802,-6.52745 -2.7693,-6.72526 -2.5714,-2.00957 c 0,0 -4.4447,2.42921 -6.5274,2.96702 -2.1901,0.56555 -5.2604,1.25355 -7.5165,1.41617 -2.7284,0.19666 -6.3648,0.50435 -9.0988,0.59341 -3.262,0.10626 -7.6241,-0.23883 -10.8791,0 -3.6491,0.26775 -8.5178,0.88642 -12.0659,1.78021 -2.876,0.72448 -9.2967,3.36263 -9.2967,3.36263 0,0 0,0 0,0 0,0 -2.0401,0.84364 -2.967,0.989 -5.511,0.86425 -13.0151,0.82088 -18.5934,0.79121 -2.7296,-0.01452 -6.4606,-0.7006 -9.0988,0 -1.3872,0.36838 -3.2545,0.26612 -4.1539,1.38461 -0.6234,0.77518 -1.273,2.2115 -0.989,3.16483 0.3731,1.25247 1.6123,1.56816 2.7693,2.17582 1.1474,0.60261 2.8593,1.12515 4.1538,1.18681 1.6276,0.07752 4.3306,-0.10567 5.934,-0.39561 2.0161,-0.36456 4.692,-0.93547 6.7253,-1.18681 1.6532,-0.20435 3.873,-0.42837 5.5384,-0.3956 0.5372,0.01057 1.5128,-0.26826 1.7802,0.1978 0.5818,1.01381 -0.8326,2.66372 -1.5824,3.56042 -1.288,1.5404 -3.8059,2.74328 -5.5384,3.75823 -1.3739,0.80485 -3.2705,1.77818 -4.7473,2.37362 -0.9226,0.37198 -2.1958,0.7644 -3.1648,0.98901 -2.281,0.52872 -5.3795,1.00827 -7.7142,1.18681 -3.8459,0.29411 -9.045,-0.5876 -12.8571,0 -1.1686,0.18012 -2.8405,0.44138 -3.7583,1.18681 -0.8456,0.68678 -1.8123,2.07595 -1.7802,3.16482 0.0291,0.98719 0.9913,2.1751 1.7802,2.76922 1.4847,1.11808 4.1396,1.29612 5.9341,1.78022 1.473,0.39737 4.2143,0.48694 5.7362,0.59341 3.0924,0.21634 6.4654,0.26345 9.4945,-0.39561 3.374,-0.73412 7.7108,-2.38525 10.8791,-3.75823 3.3854,-1.46707 7.928,-3.52162 10.8791,-5.73624 1.9804,-1.48616 4.1211,-4.05739 5.7362,-5.93405 0.8284,-0.96254 1.4329,-2.80001 2.5714,-3.36263 0.6384,-0.31547 1.6806,0.1636 2.3736,0 1.2914,-0.30486 2.7999,-1.32702 3.9561,-1.97801 1.6498,-0.92887 3.4551,-3.19113 5.3406,-3.36263 0.6365,-0.05789 1.5176,0.34789 1.978,0.79121 0.421,0.40539 0.6699,1.20851 0.7912,1.78021 0.0739,0.34829 0.1265,0.85401 0,1.18681 -0.2539,0.66791 -1.0626,1.28991 -1.5824,1.78022 -1.0449,0.98568 -2.4722,2.32706 -3.7582,2.96702 -1.2628,0.62838 -3.4537,0.29862 -4.5494,1.18681 -0.7215,0.58488 -1.3846,1.8404 -1.3846,2.76922 0,1.06151 0.6288,2.69844 1.5824,3.16482 0.8154,0.39881 3.4494,-0.29541 4.3516,-0.3956 2.4778,-0.27516 3.5805,-0.56246 5.9341,-1.38461 2.3193,-0.81017 5.2297,-2.37386 6.923,-4.15383 1.089,-1.14481 1.9589,-3.13494 2.967,-4.35163 0.9638,-1.16319 2.8221,-2.64986 4.1539,-3.36263 1.3339,-0.71386 3.4412,-0.82393 4.945,-0.98901 2.773,-0.3044 6.508,-0.12456 9.2967,-0.1978 3.7983,-0.09975 12.6593,-0.3956 12.6593,-0.3956 z"
           id="path6956"
           style="fill:#550000;fill-opacity:1;fill-rule:evenodd;stroke:#ffffff;stroke-width:1.5;stroke-linecap:butt;stroke-linejoin:miter;stroke-miterlimit:4;stroke-opacity:1;stroke-dasharray:none" />
        <g
           transform="translate(-765.01531,-130.71779)"
           id="g6928">
          <path
             d="m 1215.1925,232.70588 c 0,0 5.7253,-1.28922 8.1577,-0.90641 1.9637,0.30905 4.3907,1.61349 6.0427,2.71922 1.865,1.24828 5.4385,5.13632 5.4385,5.13632 l -3.3235,0 -3.6256,0.60427 c 0,0 1.8779,1.54478 2.417,2.4171 0.9041,1.46295 1.8129,5.43845 1.8129,5.43845 l -4.5321,-1.81282 -1.5107,0 c 0,0 1.4152,2.04199 1.8129,3.02137 0.5956,1.46664 1.2085,5.13631 1.2085,5.13631 0,0 -5.5134,-1.61425 -7.5534,-2.41708 -1.8727,-0.73699 -3.1395,-2.66857 -5.1363,-2.4171 -2.8095,0.35383 -4.8063,4.70378 -6.0428,7.25128 -1.3352,2.75079 -2.2292,6.91494 -2.1149,9.9705 0.085,2.26443 2.1149,7.25127 2.1149,7.25127 l -9.6683,-7.55341 -3.0214,4.83418 c 0,0 -3.1188,-2.92502 -3.9278,-4.53204 -0.7515,-1.49284 -1.2085,-5.43846 -1.2085,-5.43846 0,0 -1.9147,1.29276 -2.4171,2.11496 -0.5846,0.95671 -0.9064,3.62563 -0.9064,3.62563 0,0 -2.5018,-3.2048 -3.0214,-4.83418 -0.4689,-1.4706 -0.3021,-5.13632 -0.3021,-5.13632 0,0 -1.3196,2.44936 -2.115,3.3235 -1.391,1.5288 -5.4384,4.22991 -5.4384,4.22991 0,0 0.8866,-4.03207 0.6043,-5.74059 -0.2116,-1.28042 -1.8129,-3.92777 -1.8129,-3.92777 0,0 -1.5124,4.46303 -2.7192,6.04272 -1.2118,1.58625 -5.1363,4.22991 -5.1363,4.22991 0,0 0.011,-2.99693 -0.3021,-4.22991 -0.2699,-1.06145 -1.5107,-3.3235 -1.5107,-3.3235 0,0 -2.6684,4.27846 -4.2299,5.7406 -1.9638,1.83886 -7.5534,4.83418 -7.5534,4.83418 0,0 -0.096,-3.81745 -0.3022,-5.43846 -0.1166,-0.91698 -0.6043,-3.02136 -0.6043,-3.02136 0,0 -2.7023,6.05516 -4.0091,7.23394 -0.8433,0.7607 -3.3235,1.81282 -3.3235,1.81282 l 0.6856,-6.62967 c 0,0 -2.8314,3.80481 -4.532,4.83418 -1.4486,0.87683 -3.783,1.15471 -5.4385,1.51068 -2.3311,0.50124 -7.8555,1.20855 -7.8555,1.20855 0,0 4.3222,-4.26204 5.1363,-6.647 0.205,-0.60047 0.3126,-1.56283 0,-2.11496 -0.5208,-0.91983 -1.9918,-1.57323 -3.0213,-1.81281 -1.0631,-0.24739 -2.593,-0.0513 -3.6257,0.30213 -2.0456,0.70012 -4.0785,3.02407 -6.0427,3.92778 -2.9183,1.34267 -7.8809,2.82576 -11.0405,3.40532 -1.1624,0.21322 -3.1599,-0.0818 -3.1599,-0.0818 0,0 4.2317,-2.08009 5.4384,-3.62564 1.6585,-2.12418 3.0214,-8.45982 3.0214,-8.45982 0,0 -4.1652,4.01982 -6.3449,5.13632 -1.8396,0.94232 -6.647,1.81282 -6.647,1.81282 l 1.6883,-5.34763 c 0,0 -3.4989,0.80284 -5.0801,0.71033 -1.4438,-0.0845 -4.2862,-1.08699 -4.2862,-1.08699 l 3.6257,-4.53204 c 0,0 -2.9278,-1.95021 -5.3139,-2.13126 -2.6319,-0.1997 -8.4598,2.41709 -8.4598,2.41709 0,0 2.1747,-4.70135 3.6256,-6.34487 1.4997,-1.6988 6.0428,-4.53204 6.0428,-4.53204 0,0 -3.4879,-0.30257 -4.8342,-0.90641 -2.2994,-1.03131 -6.647,-5.13632 -6.647,-5.13632 0,0 3.2251,0.37482 4.532,0 1.6439,-0.47147 3.3258,-2.21539 4.8342,-3.02136 1.7533,-0.93683 4.1245,-2.1975 6.0427,-2.71923 8.0941,-2.20148 27.7966,-3.02137 27.7966,-3.02137 l 6.3448,9.97051 63.1465,13.294 18.1282,-16.6175 z"
             id="path6819"
             style="fill:#ffcc00;fill-opacity:1;fill-rule:evenodd;stroke:#ffffff;stroke-width:1.5;stroke-linecap:butt;stroke-linejoin:miter;stroke-miterlimit:4;stroke-opacity:1;stroke-dasharray:none" />
          <path
             d="m 1218.2784,236.26651 -17.9242,17.63972 -5.4057,0.56902 -11.665,-5.97474 -17.0707,-2.84512 -23.3299,-2.5606 -3.4142,-17.63972 c 0,0 30.8413,3.49502 44.0993,4.55219 6.0505,0.48246 14.2489,-0.0547 20.2003,1.13804 4.5262,0.90708 14.5101,5.12121 14.5101,5.12121 z"
             id="path6732"
             style="fill:#000000;fill-opacity:1;fill-rule:evenodd;stroke:#ffffff;stroke-width:1px;stroke-linecap:butt;stroke-linejoin:miter;stroke-opacity:1" />
          <path
             d="m 1161.5346,244.56911 c 4.5338,-1.33194 3.6617,-4.14862 8.3186,-4.94986 1.816,-0.31245 3.3364,-2.74525 5.0645,-3.27031 1.6377,-0.49758 2.6869,-0.889 4.4305,-0.79207 2.1576,0.11995 5.1594,1.73064 7.3116,1.53573 3.0649,-0.27757 6.8294,-1.66508 9.1147,-3.72618 1.3326,-1.20182 3.4011,-4.50849 4.5797,-5.86161 1.9436,-2.23139 3.654,-4.0948 6.307,-5.40572 3.001,-1.48287 9.1471,-2.22102 12.4707,-2.61876 2.5552,-0.30578 8.5354,0.85354 8.5354,0.85354 0,0 -4.4732,-3.96773 -6.8283,-4.8367 -2.4192,-0.89262 -5.6358,-1.33228 -8.623,-1.35995 -1.3814,-0.0128 -2.7138,0.0625 -3.8955,0.2219 -2.1682,0.29241 -4.8479,1.6308 -6.8283,2.56061 -1.8687,0.87737 -4.563,3.22427 -6.1907,4.49403 -2.3323,1.81936 -4.0649,4.52938 -6.6123,6.03289 -1.1411,0.67351 -3.7381,0.56198 -5.063,0.54154 -1.782,-0.0275 -4.0463,-1.01874 -5.6902,-1.70707 -2.7835,-1.1655 -5.9326,-3.95896 -8.8198,-4.8367 -3.6894,-1.1216 -8.1555,-0.37066 -12.0078,-0.54153 -3.0697,-0.13616 -10.2424,0 -10.2424,0 l -11.0959,5.12121 1.138,9.9579 13.0875,6.54377 c 0,0 10.3466,2.39364 11.539,2.04334 z"
             id="path6746"
             style="fill:#ff0000;fill-opacity:1;fill-rule:evenodd;stroke:#ffffff;stroke-width:1.5;stroke-linecap:butt;stroke-linejoin:miter;stroke-miterlimit:4;stroke-opacity:1;stroke-dasharray:none" />
          <path
             d="m 1150.5647,218.91131 c 0,0 1.3738,3.4664 1.7618,5.8991 0.3773,2.36609 2.6805,3.75366 2.6912,6.14962 0.01,1.36831 -0.4698,7.01355 -0.4698,7.01355 0,0 3.0427,-2.65499 3.9831,-5.40572 0.6356,-1.85934 0.4399,-5.15396 0.2845,-7.11279 -0.1767,-2.22692 -0.8535,-7.3973 -0.8535,-7.3973 l -4.2677,-0.85353 -3.1296,1.70707 z"
             id="path6748"
             style="fill:#ffffff;fill-rule:evenodd;stroke:#ffffff;stroke-width:1px;stroke-linecap:butt;stroke-linejoin:miter;stroke-opacity:1" />
          <path
             d="m 1165.6438,243.94832 c 0,0 0.3351,-4.57943 0.2845,-6.54376 -0.046,-1.79994 -0.569,-5.97474 -0.569,-5.97474 0,0 2.4003,2.85741 3.1296,4.26767 0.7439,1.43851 1.5143,3.51325 1.7071,5.12121 0.1223,1.02048 -0.2845,3.41413 -0.2845,3.41413 l -4.2677,-0.28451 z"
             id="path6750"
             style="fill:#ffffff;fill-rule:evenodd;stroke:#ffffff;stroke-width:1px;stroke-linecap:butt;stroke-linejoin:miter;stroke-opacity:1" />
          <path
             d="m 1195.5175,254.75976 4.0957,-0.3849 1.879,-2.1757 c 0,0 -3.3081,-6.40193 -5.1212,-8.53535 -1.2123,-1.42638 -3.9831,-3.41414 -3.9831,-3.41414 0,0 -0.4672,3.19612 -0.2845,4.55219 0.4217,3.12979 3.4141,9.9579 3.4141,9.9579 z"
             id="path6756"
             style="fill:#ffffff;fill-rule:evenodd;stroke:#ffffff;stroke-width:1px;stroke-linecap:butt;stroke-linejoin:miter;stroke-opacity:1" />
          <path
             d="m 1213.795,239.82964 3.9639,-1.10021 -1.0941,-1.05005 c 0,0 -1.8233,-7.14181 -3.9838,-8.92257 -1.4446,-1.19058 -4.5221,-2.65928 -4.5221,-2.65928 0,0 0.103,3.22844 0.5216,4.53114 0.9663,3.0066 5.1145,9.20097 5.1145,9.20097 z"
             id="path6758"
             style="fill:#ffffff;fill-rule:evenodd;stroke:#ffffff;stroke-width:1px;stroke-linecap:butt;stroke-linejoin:miter;stroke-opacity:1" />
          <path
             d="m 1165.2746,188.70567 c 0,0 -17.7556,-9.67762 -27.9905,-11.15015 -2.5701,-0.36977 -6.1422,-1.05969 -8.6471,-0.37596 -2.5955,0.70844 -5.6059,2.99615 -7.5193,4.8875 -0.5784,0.57176 -0.7867,1.87199 -1.5038,2.25577 -1.3922,0.7451 -3.7678,-0.50634 -5.2635,0 -2.2863,0.774 -4.9087,2.98276 -6.3913,4.88751 -1.0552,1.35567 -2.0865,3.55388 -2.2558,5.26346 -0.2158,2.17929 -1.121,5.28914 0.8768,6.18628 0.8295,0.37253 2.3633,-0.70492 3.2588,-0.54686 1.8915,0.33385 3.5353,3.06299 4.1356,4.88751 0.5299,1.61065 -0.6504,3.96619 -0.376,5.63942 0.9085,5.53942 6.6211,11.70515 7.1433,17.29424 0.2572,2.75306 -1.919,6.25831 -1.8798,9.02308 0.034,2.43452 0.8032,5.71138 1.8798,7.89519 1.0282,2.08553 2.9894,4.67242 4.8875,6.01539 2.7375,1.93685 7.2227,3.18728 10.5269,3.75962 3.8897,0.67374 9.2431,0.50231 13.1586,0 5.3183,-0.68228 11.9957,-3.68969 17.2943,-4.51154 2.1206,-0.32892 4.9981,-0.43406 7.1433,-0.37596 3.175,0.086 7.5227,0.0971 10.5269,1.12788 2.6349,0.90405 5.2595,3.9859 7.8952,4.8875 2.0388,0.69743 5.0468,1.24996 7.1433,0.75193 1.8263,-0.43386 3.9567,-2.03595 5.2634,-3.38366 0.9156,-0.94435 1.4316,-2.73453 2.2558,-3.75962 1.7498,-2.1763 4.5141,-4.74172 6.7673,-6.39134 0.937,-0.68598 2.4697,-1.16348 3.3837,-1.87981 1.696,-1.32924 4.8641,-3.10877 4.8875,-5.26347 0.015,-1.35807 -1.8368,-2.69541 -3.0077,-3.38365 -0.8965,-0.52695 -3.3837,-0.75193 -3.3837,-0.75193 0,0 0.7571,2.69208 0.376,3.75962 -0.429,1.20179 -1.9348,2.31686 -3.0077,3.0077 -0.8102,0.52171 -2.2039,0.59633 -3.0077,1.12788 -2.7283,1.8042 -5.7521,5.14278 -7.5193,7.8952 -0.6563,1.02221 -0.6612,2.8846 -1.5038,3.75961 -0.7705,0.80017 -2.2807,1.37177 -3.3837,1.50385 -1.252,0.14993 -2.9579,-0.30092 -4.1355,-0.75192 -4.8233,-1.84726 -9.7664,-7.37845 -14.6625,-9.02308 -3.33,-1.11855 -8.9973,-1.3015 -12.5084,-1.4124 -3.3838,-0.10688 -6.5195,-0.47439 -9.8563,-1.0466 -2.7456,-0.47083 -7.1236,-0.21818 -9.0231,-2.25576 -1.2892,-1.38294 -1.7113,-4.13224 -1.8798,-6.01539 -0.1621,-1.81142 0.2126,-3.61059 1.3108,-5.06025 1.4041,-1.85343 4.1714,-2.69216 6.3914,-3.38365 2.6399,-0.82229 6.3758,-1.08133 9.023,-1.87981 3.4891,-1.0524 8.027,-2.86649 11.2789,-4.51154 4.3846,-2.21808 10.4098,-5.19902 13.9106,-8.64712 1.3374,-1.31725 2.5502,-3.58146 3.3836,-5.26346 1.1723,-2.3658 2.8707,-5.6344 3.0077,-8.27116 0.096,-1.85765 -1.5038,-6.01538 -1.5038,-6.01538 l -17.6702,-4.13558 -9.2297,3.63091 z"
             id="path6726"
             style="fill:#800000;fill-opacity:1;fill-rule:evenodd;stroke:#ffffff;stroke-width:1.5;stroke-linecap:butt;stroke-linejoin:miter;stroke-miterlimit:4;stroke-opacity:1;stroke-dasharray:none" />
          <path
             d="m 1187.7772,167.11707 c 0.1917,-1.29939 0.6167,-2.8913 0.8587,-4.29317 0.418,-2.42295 1.8768,-5.53905 3.4345,-7.4415 2.6274,-3.20915 9.8743,-8.58634 9.8743,-8.58634 l -3.1484,11.16224 c 0,0 3.0199,-3.08488 4.6102,-3.98767 2.0365,-1.15611 7.5538,-2.59519 7.5538,-2.59519 0,0 -2.6623,3.50734 -3.1827,5.28291 -0.3272,1.11625 -0.1087,3.87586 -0.1087,3.87586 0,0 2.4855,-0.8842 3.6003,-1.00588 1.5747,-0.17187 4.6998,-0.28207 4.6998,-0.28207 l -5.1518,6.15354 c 0,0 3.2739,-0.50252 4.682,-0.42311 2.3317,0.13151 7.6251,1.56795 7.6251,1.56795 0,0 -10.193,4.92332 -12.164,9.01566 -1.5845,3.28979 -1.2553,8.92434 0.4293,12.16399 1.1171,2.14829 6.4398,4.86559 6.4398,4.86559 0,0 -4.2634,1.88506 -6.0104,2.14658 -2.1919,0.32812 -6.5829,-0.71552 -6.5829,-0.71552 0,0 -0.395,2.74226 -0.2089,3.89866 0.196,1.21769 1.4968,3.82904 1.4968,3.82904 0,0 -5.6056,-1.64218 -7.8708,-2.5759 -0.7156,-0.29495 -2.1466,-1.43106 -2.1466,-1.43106 0,0 -1.1458,2.75232 -1.2879,4.00696 -0.1697,1.49854 0.4293,5.0087 0.4293,5.0087 0,0 -4.9268,-2.24556 -6.0104,-4.15006 -0.9363,-1.64566 -0.4294,-6.29665 -0.4294,-6.29665 0,0 -1.7639,3.77179 -3.0052,5.0087 -1.4864,1.48118 -6.0104,3.57764 -6.0104,3.57764 0,0 1.7286,-4.84169 2.0035,-7.01218 0.4102,-3.23806 -1.0134,-7.69414 -0.2862,-10.87603 0.7102,-3.10724 3.9674,-6.38677 4.8655,-9.44498 0.8871,-3.02082 0.5422,-7.33205 1.0018,-10.44671 z"
             id="path6716"
             style="fill:#aa0000;fill-rule:evenodd;stroke:#ffffff;stroke-width:1.5;stroke-linecap:butt;stroke-linejoin:miter;stroke-miterlimit:4;stroke-opacity:1;stroke-dasharray:none" />
          <g
             id="g6706">
            <path
               d="m 1184.6897,183.96551 c 0,0 0.8536,3.29113 1.5271,4.6381 0.6314,1.26278 1.3718,1.74833 2.7468,2.06893 1.4922,0.34793 3.4502,0.58493 4.8926,0.068 2.0224,-0.72475 3.7312,-1.98364 4.8246,-3.83294 0.8144,-1.37734 1.1371,-3.03828 0.814,-4.31554 -0.2266,-0.89593 -1.9417,-2.39149 -1.9417,-2.39149 0,0 3.052,-1.54616 3.8242,-2.8829 0.7125,-1.23334 1.0548,-3.3474 0.6275,-4.70613 -0.4597,-1.46163 -1.7942,-2.89342 -3.1967,-3.51038 -0.458,-0.20147 -2.276,0.1472 -2.9655,0.23873 -0.3482,0.0462 0.123,-0.15644 0.123,-0.15644 0,0 0.7767,-2.00128 0.5485,-3.04991 -0.1563,-0.71831 -0.5595,-1.79967 -1.2252,-2.11148 -1.449,-0.67868 -3.8846,-0.67869 -5.3336,0 -1.9971,0.93542 -3.4461,2.86082 -4.3243,4.8838 -0.6043,1.39217 -0.6275,5.01987 -0.6275,5.01987 0,0 -3.5975,0.0983 -5.0199,0.62748 -0.9542,0.355 -2.0267,1.249 -2.8237,1.88246 -1.7202,1.36717 -3.8374,3.41063 -5.3336,5.01987 -1.3212,1.42107 -2.7285,3.62619 -4.0786,5.01987 -1.2999,1.3419 -3.2107,2.95886 -4.7062,4.07865 -1.254,0.93892 -20.0114,-1.77015 -20.0114,-1.77015 0,0 0.038,3.10035 0.3138,4.39239 0.2297,1.07747 0.9643,2.38853 1.255,3.45116 0.4043,1.47789 15.81,8.27771 16.5602,9.61369 0.62,1.10412 1.9552,2.37001 3.1374,2.82368 0.7909,0.30349 2.1115,0.45861 2.8237,0 0.9562,-0.61571 0.5611,-2.92381 1.5687,-3.45116 0.9323,-0.48795 2.4041,0.73286 3.4511,0.62748 0.5043,-0.0508 1.2104,-0.26905 1.5688,-0.62748 0.7168,-0.71681 0.3853,-2.61638 1.2549,-3.13742 0.7311,-0.43808 1.991,0.49548 2.8237,0.31374 1.0724,-0.23405 2.4257,-1.04679 3.1374,-1.88245 0.6573,-0.77178 1.0341,-2.14804 1.255,-3.13742 0.3492,-1.56434 0.064,-3.75028 0.3137,-5.33361 0.4084,-2.59336 2.1962,-8.47104 2.1962,-8.47104 z"
               id="path6643"
               style="fill:#550000;fill-opacity:1;fill-rule:evenodd;stroke:#ffffff;stroke-width:1.5;stroke-linecap:butt;stroke-linejoin:miter;stroke-miterlimit:4;stroke-opacity:1;stroke-dasharray:none" />
            <path
               d="m 1196.8556,179.71875 c 0,0 -0.554,0.2506 -1.1875,0.59375 -0.6335,0.34315 -1.3338,0.73685 -1.75,1.28125 -0.2208,0.28878 -0.4181,0.63422 -0.5313,1.03125 -0.1131,0.39703 -0.1531,0.8555 0,1.28125 0.1872,0.52015 0.5902,0.97863 1.0626,1.34375 0.4723,0.36512 1.0103,0.627 1.625,0.5625 0.4142,-0.0435 0.8528,-0.30364 1.0832,-0.56769 0.2305,-0.26405 0.4185,-0.57872 0.4376,-0.96875 0.014,-0.29066 -0.1081,-0.47359 -0.2188,-0.65625 -0.1107,-0.18266 -0.2457,-0.35697 -0.375,-0.5 -0.2585,-0.28606 -0.7987,-0.26305 -0.977,-0.085 -0.1668,0.16656 -0.093,0.55059 0.1124,0.77767 0.1027,0.11354 0.1911,0.24648 0.25,0.34375 0.059,0.0973 0.06,0.18231 0.063,0.125 0,0.0231 -0.068,0.20658 -0.1876,0.34375 -0.1197,0.13717 -0.2841,0.21905 -0.2812,0.21875 -0.1918,0.0201 -0.5922,-0.13935 -0.9375,-0.40625 -0.3453,-0.2669 -0.6314,-0.63223 -0.7187,-0.875 -0.039,-0.10737 -0.047,-0.38298 0.031,-0.65625 0.078,-0.27327 0.2204,-0.5574 0.3438,-0.71875 0.1816,-0.23763 0.8463,-0.67981 1.4374,-1 0.5912,-0.32019 1.1251,-0.5625 1.125,-0.5625 l -0.4062,-0.90625 z"
               id="path6647"
               style="fill:#ffffff;fill-opacity:1;fill-rule:evenodd;stroke:none" />
            <path
               d="m 1193.0959,165.66351 c -0.5958,0.0308 -0.9447,0.47337 -1.1875,0.90625 -0.2428,0.43288 -0.3809,0.90696 -0.2813,1.40625 0.1021,0.51144 0.3864,1.20682 1.0938,1.59375 0.4615,0.2524 0.9796,0.34557 1.4062,0.40625 0.4267,0.0607 1.5698,0.12208 1.5698,0.12208 0,0 -0.3227,-0.90044 -0.6898,-0.95264 -0.2255,-0.0321 -0.8779,-0.012 -1.2865,-0.12699 -0.2566,-0.0722 -0.4301,-0.26856 -0.5309,-0.3237 -0.3603,-0.19704 -0.5325,-0.59907 -0.5938,-0.90625 -0.018,-0.09 0.036,-0.44786 0.1875,-0.71875 0.1213,-0.21637 0.2494,-0.27188 0.3125,-0.3125 0.026,0.0378 0.036,0.0465 0.062,0.0937 0.1053,0.18885 0.089,0.31553 0.1875,0.40625 0.1267,0.11621 0.3747,0.24412 0.5392,0.19431 0.1922,-0.0582 0.1817,-0.289 0.2015,-0.48885 0.017,-0.17528 0.099,-0.30683 -0.053,-0.58046 -0.076,-0.13682 -0.1528,-0.27054 -0.2813,-0.40625 -0.1284,-0.13571 -0.3402,-0.3288 -0.6562,-0.3125 z"
               id="path6649"
               style="fill:#ffffff;fill-opacity:1;fill-rule:evenodd;stroke:none" />
            <path
               d="m 1192.5516,171.52936 c -0.9662,0.19758 -2.2941,0.49045 -3.2907,1.51955 -0.3076,0.31746 -0.2952,0.40243 -0.3623,0.55522 -0.067,0.15278 -0.1467,0.31884 -0.2114,0.49677 -0.1293,0.35587 -0.2511,0.78902 -0.3925,1.1981 -0.1413,0.40908 -0.2761,0.80781 -0.3924,1.08122 -0.013,0.0297 -0.018,0.032 -0.03,0.0584 -0.2608,0.0949 -1.0953,0.31953 -2.053,0.40911 -1.0416,0.0974 -2.1102,0.11594 -2.9286,0.263 -1.4378,0.25841 -2.3363,0.91401 -3.2908,1.60721 -0.6156,0.44703 -1.9747,1.43511 -3.2306,2.80532 -1.1822,1.2899 -1.657,2.08615 -1.902,2.71765 -0.5737,1.47926 -0.4756,2.2007 -0.5735,3.53587 -0.084,1.13594 0.2036,2.13869 0.3018,2.86376 0.034,0.25493 0.3706,1.17186 0.8182,2.18649 0.432,0.97919 1.0196,1.71207 1.4968,2.086 0.4711,0.36916 1.1275,-0.27414 1.126,-0.71867 0,-1.0805 -0.5096,-3.10626 -0.9351,-3.41563 -0.1543,-0.11218 -0.4332,-1.87031 -0.3924,-2.42543 0.111,-1.5119 -0.07,-1.70011 0.3924,-2.89299 0.1008,-0.25979 0.4004,-1.21102 1.4793,-2.38828 1.057,-1.15308 2.2426,-2.02942 2.8682,-2.48388 0.9849,-0.7153 1.3486,-0.99888 2.2946,-1.16888 0.4587,-0.0824 1.5687,-0.15839 2.6869,-0.263 1.1184,-0.10461 2.2159,-0.16089 3.2004,-0.70133 0.4864,-0.26701 0.5299,-0.46501 0.634,-0.64288 0.104,-0.17787 0.1915,-0.36675 0.2717,-0.55522 0.1604,-0.37693 0.3062,-0.80275 0.4529,-1.22732 0.1466,-0.42458 0.2805,-0.83164 0.3924,-1.13966 0.042,-0.11552 0.061,-0.19006 0.091,-0.263 0.2288,-0.19599 1.2906,-1.23182 1.9926,-1.3197 l 3.9566,-0.49529 c 0,0 -0.9416,-0.69701 -1.9826,-1.05199 -0.9699,-0.33074 -2.026,-0.32487 -2.4873,-0.23056 z"
               id="path6711"
               style="fill:#ffffff;fill-opacity:1;fill-rule:evenodd;stroke:none" />
            <path
               d="m 1171.086,184.66299 c 0.039,-0.37678 0.1368,-1.25509 0.1368,-1.25509 0,0 -1.7245,1.0884 -1.879,1.60806 -0.1546,0.51966 -0.3465,1.12276 -0.4376,1.625 -0.2138,1.18031 -0.1982,2.63757 0.1563,3.84375 0.2919,0.99351 0.9015,1.99372 1.5937,2.71875 0.9604,1.00581 2.6894,2.36762 3.4083,1.51086 0.6705,-0.79905 -1.3609,-2.27989 -1.9395,-2.88586 -0.4131,-0.43265 -0.9657,-1.36403 -1.125,-1.90625 -0.2181,-0.742 -0.2731,-2.08851 -0.125,-2.90625 0.058,-0.32092 0.1729,-1.98143 0.211,-2.35297 z"
               id="path6667"
               style="fill:#ffffff;fill-opacity:1;fill-rule:evenodd;stroke:none" />
            <path
               d="m 1166.0189,187.53338 c -0.5141,0.53834 -0.6985,1.31521 -0.8806,2.31968 -0.2139,1.18041 -0.1983,2.63761 0.1563,3.84375 0.2919,0.99342 0.9014,1.99371 1.5937,2.71875 0.9604,1.00574 2.7306,2.33238 3.4408,1.46404 0.6614,-0.8087 -1.3933,-2.26426 -1.9721,-2.87029 -0.413,-0.43264 -0.9655,-1.33267 -1.125,-1.875 -0.218,-0.74204 -0.2731,-2.08862 -0.125,-2.90625 0.1164,-0.64185 0.1105,-1.12743 0.2112,-1.70544 0.078,-0.44573 0.3436,-1.70118 0.3436,-1.70118 0,0 -1.2719,0.32345 -1.6429,0.71194 z"
               id="path6669"
               style="fill:#ffffff;fill-opacity:1;fill-rule:evenodd;stroke:none" />
            <path
               d="m 1163.7392,191.25111 c 0.1,-0.3043 0.3391,-1.01227 0.3391,-1.01227 0,0 -0.5499,-0.0444 -1.1315,0.29595 -0.5228,0.30603 -1.079,0.98516 -1.1522,1.23117 -0.1546,0.51967 -0.3465,1.12276 -0.4376,1.625 -0.2138,1.1803 -0.1982,2.63757 0.1563,3.84375 0.292,0.9935 0.9015,1.99372 1.5937,2.71875 0.9604,1.0058 2.6793,2.3594 3.3956,1.50576 0.6766,-0.80644 -1.3794,-2.30603 -1.958,-2.91201 -0.4132,-0.43265 -0.9345,-1.33277 -1.0938,-1.875 -0.2181,-0.742 -0.5159,-2.32211 -0.3678,-3.13985 0.058,-0.32092 0.2287,-0.91432 0.375,-1.40625 0.1463,-0.49193 0.1952,-0.61303 0.2812,-0.875 z"
               id="path6671"
               style="fill:#ffffff;fill-opacity:1;fill-rule:evenodd;stroke:none" />
          </g>
          <path
             d="m 1153.9788,179.93323 c 0,0 6.6847,0.31858 8.8199,1.99158 1.2019,0.94169 2.6424,1.9008 2.8451,3.41414 0.1155,0.86273 -0.1401,2.08766 -0.569,2.84511 -0.6252,1.10418 -2.0602,2.16235 -3.1297,2.84512 -1.4832,0.94682 -3.6571,2.07956 -5.4057,2.27609 -1.4642,0.16457 -3.4328,-0.40613 -4.8367,-0.85354 -1.7097,-0.54489 -5.4057,-2.5606 -5.4057,-2.5606 0,0 4.1575,-2.62112 5.4057,-4.26767 1.3406,-1.76848 2.2761,-5.69023 2.2761,-5.69023 z"
             id="path6728"
             style="fill:#ffffff;fill-opacity:1;fill-rule:evenodd;stroke:#ffffff;stroke-width:1px;stroke-linecap:butt;stroke-linejoin:miter;stroke-opacity:1" />
          <path
             d="m 1144.5899,195.01234 c 0,0 7.1016,0.69319 9.9579,1.70707 1.4766,0.52414 3.6317,1.29258 4.5522,2.5606 1.534,2.11324 1.679,4.84261 1.1381,7.3973 -0.3679,1.73758 -1.9885,3.77752 -3.4142,4.83669 -1.5167,1.12671 -4.0925,1.82678 -5.9747,1.99158 -2.3208,0.20321 -5.1252,0.51475 -7.3973,1e-5 -1.1323,-0.25651 -3.6987,-2.2761 -3.6987,-2.2761 0,0 4.2574,-2.60097 5.1212,-4.55218 0.9148,-2.06643 0.9334,-5.13885 0.8536,-7.3973 -0.047,-1.32422 -1.1381,-4.26767 -1.1381,-4.26767 z"
             id="path6730"
             style="fill:#ffffff;fill-opacity:1;fill-rule:evenodd;stroke:#ffffff;stroke-width:1px;stroke-linecap:butt;stroke-linejoin:miter;stroke-opacity:1" />
          <path
             d="m 1154.9375,181.28125 c -2.3523,0 -4.3126,1.88019 -4.3125,4.21875 0,2.33845 1.9774,4.1875 4.3125,4.1875 2.3351,0 4.3126,-1.84894 4.3125,-4.1875 0,-2.33845 -1.9602,-4.21875 -4.3125,-4.21875 z"
             transform="translate(0.0998565,0.25917)"
             id="path7288"
             style="fill:#000000;fill-opacity:1;fill-rule:evenodd;stroke:#ff0000;stroke-width:2;stroke-linecap:butt;stroke-linejoin:miter;stroke-miterlimit:4;stroke-opacity:1;stroke-dasharray:none;stroke-dashoffset:0;marker:none;visibility:visible;display:inline;overflow:visible;enable-background:accumulate" />
          <path
             d="m 1154.9375,181.34375 c -2.3119,0 -4.2501,1.86073 -4.25,4.15625 0,2.29542 1.9543,4.125 4.25,4.125 2.2957,0 4.2501,-1.82948 4.25,-4.125 0,-2.29542 -1.9381,-4.15625 -4.25,-4.15625 z"
             transform="matrix(1.1054314,0,0,1.147948,-126.64118,-8.4903401)"
             id="path7286"
             style="fill:#000000;fill-opacity:1;fill-rule:evenodd;stroke:#ff0000;stroke-width:2;stroke-linecap:butt;stroke-linejoin:miter;stroke-miterlimit:4;stroke-opacity:1;stroke-dasharray:none;stroke-dashoffset:0;marker:none;visibility:visible;display:inline;overflow:visible;enable-background:accumulate" />
          <path
             d="m 1143.6484,191.64052 c 1.6546,-0.3135 3.5042,-1.8497 4.7673,-2.96349 1.9787,-1.74485 3.4743,-3.43081 4.6386,-5.79813 0.6662,-1.35453 1.1763,-3.87013 0.6442,-5.28273 -0.6352,-1.68622 -1.5146,-2.90057 -3.2212,-3.47888 -2.0514,-0.69517 -5.3286,-0.40649 -7.3442,0.38655 -1.2209,0.48035 -2.1362,2.19402 -3.0924,3.09233 -1.2775,1.20006 -4.252,3.22118 -4.252,3.22118 0,0 1.1199,0.31237 2.1759,0.26411 0.8574,-0.0392 1.6289,-0.49172 2.0761,-0.13526 0.7185,0.57268 1.0258,2.08011 0.7731,2.96348 -0.2782,0.97267 -1.66,1.68487 -2.4481,2.31926 -0.9103,0.73279 -1.1596,1.41732 -1.1596,1.41732 0,0 1.2875,-0.20366 2.701,-0.31219 0.7644,-0.0587 1.6568,-0.45421 2.1951,0.0545 0.3103,0.29326 0.1078,1.0619 -0.1288,1.41732 -0.824,1.23791 -2.1904,2.1904 -2.1904,2.1904 0,0 1.9733,1.00275 3.8654,0.64424 z"
             id="path6778"
             style="fill:#550000;fill-rule:evenodd;stroke:#ffffff;stroke-width:1.5;stroke-linecap:butt;stroke-linejoin:miter;stroke-miterlimit:4;stroke-opacity:1;stroke-dasharray:none" />
          <path
             d="m 1128.9553,194.97169 c 0,0 2.9401,-1.88227 4.2067,-2.33706 1.0713,-0.38464 2.3519,-6.7e-4 3.5835,-0.46741 1.0813,-0.40977 2.5858,-1.01622 3.7393,-0.93482 1.6104,0.11365 3.8179,0.91074 4.9857,2.02545 0.9683,0.92416 1.7744,2.71583 1.8697,4.05091 0.1981,2.77316 -1.1089,6.51832 -1.8696,9.19243 -0.6361,2.23569 -1.5222,4.27596 -2.4929,6.38796 -0.5901,1.28397 -2.6487,3.89509 -2.6487,3.89509 0,0 0.1402,-2.98699 -0.9348,-3.73928 -0.8364,-0.58531 -1.7689,0.57292 -2.6487,1.09062 -0.5697,0.33522 -1.2464,1.40224 -2.0254,1.40224 -0.779,0 -2.5677,0.27302 -3.6768,0.0806 -1.1129,-0.19304 -3.0228,-1.95029 -3.0228,-1.95029 0,0 3.0141,0.0648 4.0256,-0.61529 0.8673,-0.58319 2.1787,-1.95334 1.5834,-2.8124 -0.5086,-0.73398 -2.0788,0.45465 -2.9603,0.31161 -0.5575,-0.0905 -1.7139,-0.77902 -1.7139,-0.77902 0,0 3.9943,-2.63433 5.609,-3.8951 0.3916,-0.30577 1.2989,-0.59655 1.2464,-1.09063 -0.1017,-0.95708 -1.8609,-1.36851 -2.8045,-1.55804 -0.8299,-0.16669 -2.8044,0.31161 -2.8044,0.31161 0,0 1.1213,-2.74232 2.0254,-3.58349 0.7194,-0.66938 2.7783,-0.36775 2.9603,-1.40223 0.2355,-1.33816 -2.0058,-2.21381 -3.1161,-2.80448 -0.8507,-0.45256 -3.1161,-0.77902 -3.1161,-0.77902 z"
             id="path6780"
             style="fill:#550000;fill-rule:evenodd;stroke:#ffffff;stroke-width:1.5;stroke-linecap:butt;stroke-linejoin:miter;stroke-miterlimit:4;stroke-opacity:1;stroke-dasharray:none" />
          <path
             d="m 1130.8724,218.87066 c 0,0 -8.6568,-5.74538 -12.8945,-6.85876 -3.1851,-0.83683 -7.9694,-1.40339 -11.2484,-1.0974 -3.52,0.32848 -8.0779,1.72802 -11.2483,3.29221 -2.6179,1.29162 -5.671,3.96345 -7.4075,6.31006 -1.6007,2.16315 -3.5665,8.23051 -3.5665,8.23051 0,0 4.1453,-2.56724 6.0357,-2.19481 2.401,0.47302 3.9395,4.2243 6.0357,5.48701 2.6985,1.62554 6.7855,2.95896 9.8766,3.56656 1.9399,0.38132 3.8376,0.18162 5.7613,-0.27435 2.4736,-0.5863 5.9347,-2.47502 8.2306,-3.56656 0.8006,-0.38062 2.7435,-1.0974 2.7435,-1.0974"
             id="path6782"
             style="fill:#800000;fill-opacity:1;fill-rule:evenodd;stroke:none" />
          <path
             d="m 1096.0299,224.35767 c 2.4692,0.27435 3.0578,0.96983 4.3896,0.82305 1.8691,-0.206 4.0433,-1.70469 5.7614,-2.46915 2.1533,-0.95812 4.8311,-2.78661 7.1331,-3.29221 1.6078,-0.35313 3.8689,-0.30226 5.487,0 2.6894,0.50237 5.8154,2.78984 8.5048,3.29221 1.1327,0.21159 3.841,0 3.841,0 0,0 -1.2149,0.97644 -3.6366,2.0041 -1.5995,0.67879 -4.9858,2.24634 -6.0668,2.70322 -1.5629,0.66055 -4.2506,1.66479 -5.8625,2.19481 -2.3325,0.76698 -4.2035,0.94608 -6.6565,1.05403 -1.6629,0.0732 -3.9255,-0.24644 -5.487,-0.82305 -1.4568,-0.53795 -3.1517,-1.80591 -4.3896,-2.7435 -0.9754,-0.73873 -3.0179,-2.74351 -3.0179,-2.74351 z"
             id="path6784"
             style="fill:#000000;fill-rule:evenodd;stroke:#ffffff;stroke-width:1.5;stroke-linecap:butt;stroke-linejoin:miter;stroke-miterlimit:4;stroke-opacity:1;stroke-dasharray:none" />
        </g>
        <path
           d="m 361.1043,54.780189 c -0.658,0.66594 -2.18,1.53605 -3.0625,1.75 -0.6424,0.15573 -1.3387,0.13981 -2.2187,0.125 -0.8801,-0.01481 -1.9525,-0.0046 -3.0938,0.5 -0.5496,0.24301 -1.4024,0.57376 -2.2188,1.03125 -0.8163,0.45749 -1.6612,0.99918 -2.2187,2 -0.5777,1.03711 -1.0043,2.44136 -1.375,3.6875 0,0 -0.8302,2.82697 0.0527,3.21706 0.998,0.44094 2.3789,-1.22923 2.7286,-2.40456 0.3496,-1.17533 0.838,-2.57855 1.125,-3.09375 0.0526,-0.0946 0.5075,-0.52901 1.125,-0.875 0.6174,-0.34599 1.3403,-0.6422 1.9374,-0.90625 0.5489,-0.24268 1.1159,-0.2633 1.9063,-0.25 0.7904,0.0133 1.7839,0.06092 2.9375,-0.21875 1.6334,-0.39598 3.2759,-1.35569 4.4375,-2.53125 0.5949,-0.60215 0.8708,-1.20506 1.1563,-1.78125 0.2854,-0.57619 -0.3164,-1.47133 -0.8438,-1.625 -0.7904,-0.23031 -2.3891,1.38924 -2.375,1.375 z"
           id="path7174"
           style="fill:#ffffff;fill-opacity:1;fill-rule:evenodd;stroke:none" />
        <path
           d="m 366.54049,99.09606 c -2.0865,0.4279 -4.9258,1.29471 -6.5937,3.28125 -1.1284,1.34373 -1.2465,3.06519 -1.3126,4.28125 -0.101,1.86073 0.0209,3.64517 0.9063,5.5 1.0997,2.3037 3.211,4.66474 5.2813,6.0625 2.0013,1.35115 3.2464,1.85574 5.0977,2.34375 1.9716,0.51971 3.6318,0.61883 5.8152,0.7201 2.5364,0.11763 3.9786,0.0432 6.4109,-0.43818 2.2007,-0.43555 5.6807,-1.04418 7.4661,-1.56385 2.2694,-0.66057 5.24094,-1.62649 7.4062,-1.96875 1.37761,-0.21776 0.33976,-0.34308 3.43458,-0.72584 3.46154,-0.42811 7.6094,0.78636 7.6094,0.78636 0,0 -3.4453,-1.78373 -6.7783,-2.65937 -2.5211,-0.66231 -3.09718,-0.25908 -4.73438,0.0363 -2.4452,0.44126 -5.4351,1.416 -7.6563,2.0625 -2.0569,0.59871 -5.5223,1.12871 -7.2473,1.4701 -2.2144,0.43827 -3.6216,0.50875 -5.8171,0.40693 -1.7914,-0.0831 -3.3768,-0.16309 -5.2527,-0.6576 -1.9569,-0.51583 -3.0226,-1.11623 -4.2853,-1.96875 -1.5861,-1.07086 -3.6054,-3.35356 -4.4063,-5.03125 -0.6507,-1.36335 -0.7485,-2.51869 -0.6562,-4.21875 0.0529,-0.97396 0.4367,-2.41407 0.7188,-2.75 0.8446,-1.0059 3.3835,-2.04912 5.125,-2.40625 0.1671,-0.0343 1.0443,-0.0331 1.75,0.0312 0.7057,0.0644 1.3124,0.125 1.3124,0.125 0,0 2.0509,-0.16857 2.1839,-0.86005 0.1407,-0.7318 -1.8089,-1.70245 -1.8089,-1.70245 0,0 -0.6443,-0.08391 -1.4374,-0.15625 -0.7932,-0.07234 -1.6643,-0.17781 -2.5313,0 z"
           id="path7180"
           style="fill:#ffffff;fill-opacity:1;fill-rule:evenodd;stroke:none" />
        <path
           d="m 412.19247,77.712776 c -1.61455,-0.0976 -3.69434,1.563923 -4.80324,2.274297 -1.72396,1.104465 -4.51866,2.243932 -6.62082,3.089965 -2.67468,1.076362 -6.30519,2.147487 -9.12549,2.663384 -1.62298,0.29689 -4.25313,0.682973 -6.46318,0.657774 -1.47402,-0.0168 -3.73256,-0.957863 -4.52776,-0.05743 -0.49418,0.559573 0.56462,2.196733 1.12355,2.69155 0.72376,0.640736 1.72536,0.319183 2.7983,0.302223 2.37427,-0.03754 5.27296,-0.699396 7.52221,-1.110831 3.04791,-0.557525 6.74829,-1.660742 9.60815,-2.811619 2.09292,-0.842282 4.96255,-1.970667 7.04634,-3.305636 1.72979,-1.108207 4.34527,-2.024182 4.45086,-3.771082 0.0452,-0.748468 -0.26041,-0.57734 -1.00892,-0.622591 z"
           id="path7186"
           style="fill:#ffffff;fill-opacity:1;fill-rule:evenodd;stroke:none" />
        <path
           d="m 409.70886,111.34724 c 0,0 -0.001,-2.51323 -0.0519,-4.47757 -0.0464,-1.79994 -0.569,-5.97473 -0.569,-5.97473 0,0 2.4003,2.85741 3.1296,4.26767 0.7439,1.4385 1.5143,3.51324 1.7071,5.12121 0.1223,1.02048 -0.14035,1.68429 -0.14035,1.68429 l -4.07549,-0.62087 z"
           id="path2492"
           style="fill:#ffffff;fill-rule:evenodd;stroke:#ffffff;stroke-width:1px;stroke-linecap:butt;stroke-linejoin:miter;stroke-opacity:1" />
      </g>
    </g>
    <path
       d="m 341.64089,79.43846 c -3.6565,0.34122 -8.233,1.76315 -11.5,3.375 -2.7784,1.37083 -5.8628,4.06556 -7.6874,6.53125 -0.9125,1.23309 -1.7689,3.3161 -2.4688,5.125 -0.6999,1.8089 -1.2188,3.34375 -1.2188,3.34375 l -0.625,1.9375 1.75,-1.09375 c 0,0 0.992,-0.6137 2.2188,-1.1875 1.2268,-0.5738 2.7587,-1.00919 3.2812,-0.90625 0.8615,0.1697 1.7603,1.05655 2.6876,2.1875 0.9272,1.13095 1.8339,2.45985 3.0937,3.21875 2.8299,1.70472 6.9529,3.03273 10.125,3.65625 2.0794,0.40874 4.0789,0.18892 6.0625,-0.28125 2.6725,-0.63346 6.1494,-2.55201 8.4062,-3.625 0.7054,-0.33535 2.36111,-0.51305 2.71448,-1.2952 0.18435,-0.40804 0.37344,-0.931028 -0.0346,-1.115374 -0.82815,-0.374146 -2.44028,0.640914 -3.33608,1.066824 -2.3349,1.11009 -5.8192,2.96085 -8.0938,3.5 -1.8638,0.44177 -3.637,0.63516 -5.4374,0.28125 -3.0102,-0.59168 -7.058,-1.92238 -9.625,-3.46875 -0.8364,-0.50381 -1.7525,-1.69638 -2.7188,-2.875 -0.9663,-1.17862 -2.0229,-2.41544 -3.5625,-2.71875 -1.3679,-0.26949 -2.869,0.41454 -4.1875,1.03125 -0.3619,0.16929 -0.349,0.18225 -0.6562,0.34375 0.2016,-0.57572 0.2219,-0.66935 0.5312,-1.46875 0.6832,-1.76557 1.6243,-3.81994 2.3125,-4.75 1.6484,-2.22753 4.6676,-4.88134 7.125,-6.09375 3.0738,-1.51653 7.6166,-2.90302 11,-3.21875 3.1265,-0.29176 7.8817,0.28268 10.9687,1.09375 1.9336,0.50802 5.1703,2.18639 7.8438,3.75 2.6735,1.56361 3.63058,3.776552 5.25103,3.232704 0.41923,-0.140701 0.6699,-0.722398 0.5312,-1.142296 -0.51148,-1.548491 -2.28673,-1.784228 -5.00103,-3.371658 -2.7142,-1.58743 -5.9458,-3.33214 -8.25,-3.9375 -3.2831,-0.86259 -8.0685,-1.44522 -11.5,-1.125 z"
       id="path2555"
       style="fill:#ffffff;fill-opacity:1;fill-rule:evenodd;stroke:none" />
  </g>
</svg>
