<?xml version="1.0" encoding="UTF-8" standalone="no"?>
<!-- Created with Inkscape (http://www.inkscape.org/) -->
<svg
   xmlns:svg="http://www.w3.org/2000/svg"
   xmlns="http://www.w3.org/2000/svg"
   version="1.0"
   width="350"
   height="350"
   id="svg2295">
  <defs
     id="defs2297" />
  <g
     id="layer1">
    <g
       transform="translate(-221,-356.86218)"
       id="g3490">
      <path
         d="M 449.5,571.36218 L 414.5,615.86218 L 361.21321,630.91767 L 309.79756,611.74215 L 280.49395,565.91653 L 280.98362,510.27633 L 315.7627,465.23083 L 367.64667,450.86218 L 419.5,470.44801 L 449.77125,516.27633 L 449.5,571.36218 z "
         style="fill:#9e9e9e;fill-opacity:1;stroke:#000000;stroke-width:1;stroke-linecap:butt;stroke-miterlimit:4;stroke-opacity:1"
         id="path3460" />
      <path
         d="M 280.49395,565.91654 L 272.41232,609.70564 L 260,621.36219 L 246,601.36218 L 240,557.36219 L 241,497.36219 L 249,455.36218 L 261.5,442.36218 L 273.69429,464.03768 L 280.98362,510.27634 L 280.49395,565.91654 z "
         style="fill:#787878;fill-opacity:1;stroke:#000000;stroke-width:1;stroke-linecap:butt;stroke-miterlimit:4;stroke-opacity:1"
         id="path3458" />
      <path
         d="M 409.5,420.86218 L 367.64667,450.86218 L 315.7627,465.23083 L 273.69429,464.03768 L 261.5,442.36218 L 280,412.36218 L 326,382.36218 L 378,366.36218 L 418.5,370.36218 L 429.5,390.86218 L 409.5,420.86218 z "
         style="fill:#a6a6a6;fill-opacity:1;stroke:#000000;stroke-width:1;stroke-linecap:butt;stroke-miterlimit:4;stroke-opacity:1"
         id="path3456" />
      <path
         d="M 552,510.86218 L 534.5,540.86218 L 492.5,542.86218 L 449.77125,516.27633 L 419.5,470.44801 L 409.5,420.86218 L 429.5,390.86218 L 469.5,388.36218 L 514.5,415.86218 L 544.5,460.86218 L 552,510.86218 z "
         style="fill:#c8c8c8;fill-opacity:1;stroke:#000000;stroke-width:1;stroke-linecap:butt;stroke-miterlimit:4;stroke-opacity:1"
         id="path3454" />
      <path
         d="M 543,608.36218 L 511,652.36218 L 465,682.36218 L 426,684.36218 L 407,659.36218 L 414.5,615.86218 L 449.5,571.36218 L 492.5,542.86218 L 534.5,540.86218 L 552,565.36218 L 543,608.36218 z "
         style="fill:#808080;fill-opacity:1;stroke:#000000;stroke-width:1;stroke-linecap:butt;stroke-miterlimit:4;stroke-opacity:1"
         id="path3452" />
      <path
         d="M 426,684.36218 L 414,697.36218 L 372,693.36218 L 321,674.36218 L 279,648.36218 L 260,621.36219 L 272.41232,609.70564 L 310.05804,611.86218 L 361.47368,631.03768 L 407,659.36218 L 426,684.36218 z "
         style="fill:#636363;fill-opacity:1;stroke:#000000;stroke-width:1;stroke-linecap:butt;stroke-miterlimit:4;stroke-opacity:1"
         id="path3450" />
      <path
         d="M 465,682.36218 L 414.5,696.86218 L 426,684.36218 L 465,682.36218 z "
         style="fill:#737373;fill-opacity:1;stroke:#000000;stroke-width:1;stroke-linecap:butt;stroke-miterlimit:4;stroke-dashoffset:0;stroke-opacity:1"
         id="path3462" />
      <path
         d="M 414.5,615.86218 L 361.47368,631.03768 L 407,659.36218 L 414.5,615.86218 z "
         style="fill:#6c6c6c;fill-opacity:1;stroke:#000000;stroke-width:1;stroke-linecap:butt;stroke-miterlimit:4;stroke-dashoffset:0;stroke-opacity:1"
         id="path3465" />
      <path
         d="M 514.5,415.86218 L 544.5,460.86218 L 533,440.36218 L 514.5,415.86218 z "
         style="fill:#848484;fill-opacity:1;stroke:#000000;stroke-width:1;stroke-linecap:butt;stroke-miterlimit:4;stroke-dashoffset:0;stroke-opacity:1"
         id="path3480" />
      <path
         d="M 310.05804,611.86218 L 280.49395,565.91653 L 272.41232,609.70564 L 310.05804,611.86218 z "
         style="fill:#656565;fill-opacity:1;stroke:#000000;stroke-width:1;stroke-linecap:butt;stroke-miterlimit:4;stroke-dashoffset:0;stroke-opacity:1"
         id="path3467" />
      <path
         d="M 315.7627,465.23083 L 273.69429,464.03768 L 280.98362,510.27633 L 315.7627,465.23083 z "
         style="fill:#979797;fill-opacity:1;stroke:#000000;stroke-width:1;stroke-linecap:butt;stroke-miterlimit:4;stroke-dashoffset:0;stroke-opacity:1"
         id="path3469" />
      <path
         d="M 280,412.36218 L 249,455.36218 L 261.5,442.36218 L 280,412.36218 z "
         style="fill:#808080;fill-opacity:1;stroke:#000000;stroke-width:1;stroke-linecap:butt;stroke-miterlimit:4;stroke-dashoffset:0;stroke-opacity:1"
         id="path3471" />
      <path
         d="M 419.5,470.44801 L 409.5,420.86218 L 367.64667,450.86218 L 419.5,470.44801 z "
         style="fill:#d4d4d4;fill-opacity:1;stroke:#000000;stroke-width:1;stroke-linecap:butt;stroke-miterlimit:4;stroke-dashoffset:0;stroke-opacity:1"
         id="path3473" />
      <path
         d="M 469.5,388.36218 L 418.5,370.36218 L 429.5,390.86218 L 469.5,388.36218 z "
         style="fill:#a8a8a8;fill-opacity:1;stroke:#000000;stroke-width:1;stroke-linecap:butt;stroke-miterlimit:4;stroke-dashoffset:0;stroke-opacity:1"
         id="path3475" />
      <path
         d="M 552,565.36218 L 552,510.86218 L 534.5,540.86218 L 552,565.36218 z "
         style="fill:#999999;fill-opacity:1;stroke:#000000;stroke-width:1;stroke-linecap:butt;stroke-miterlimit:4;stroke-dashoffset:0;stroke-opacity:1"
         id="path3477" />
      <path
         d="M 449.5,571.36218 L 492.5,542.86218 L 449.77125,516.27633 L 449.5,571.36218 z "
         style="fill:#b7b7b7;fill-opacity:1;stroke:#000000;stroke-width:1;stroke-linecap:butt;stroke-miterlimit:4;stroke-dashoffset:0;stroke-opacity:1"
         id="path3483" />
      <path
         d="M 321,674.36218 L 361,672.36218 L 372,693.36218 M 361,672.36218 L 381,641.36218 L 425.5,612.36218 L 480,597.36218 L 512,552.86218 L 513,496.36218 L 483,450.36218 L 429.5,431.36218 L 386,404.36218 L 366,379.36218 L 326,382.36218 M 381,641.36218 L 375,593.36218 L 425.5,612.36218 M 511,652.36218 L 530,621.36218 L 543,608.36218 M 530,621.36218 L 519,600.36218 L 480,597.36218 M 512,552.86218 L 519,600.36218 M 366,379.36218 L 378,366.36218 M 429.5,431.36218 L 378.5,446.86218 L 345.5,490.86218 L 300.5,519.86218 L 260.5,521.86218 L 241,497.36218 M 300.5,519.86218 L 344.5,546.86218 L 375,593.36218 M 345.5,490.86218 L 344.5,546.86218 M 483,450.36218 L 521.5,452.86218 L 533,440.36218 M 513,496.36218 L 521.5,452.86218 M 260.5,521.86218 L 240,557.36219 M 378.5,446.86218 L 386,404.36218"
         style="fill:none;fill-rule:evenodd;stroke:#000000;stroke-width:1;stroke-linecap:butt;stroke-linejoin:miter;stroke-miterlimit:4;stroke-dasharray:4, 4;stroke-dashoffset:0;stroke-opacity:1"
         id="path3355" />
    </g>
  </g>
</svg>
