<?xml version="1.0" encoding="UTF-8" standalone="no"?>
<!-- Created with Inkscape (http://www.inkscape.org/) -->
<svg
   xmlns:dc="http://purl.org/dc/elements/1.1/"
   xmlns:cc="http://web.resource.org/cc/"
   xmlns:rdf="http://www.w3.org/1999/02/22-rdf-syntax-ns#"
   xmlns:svg="http://www.w3.org/2000/svg"
   xmlns="http://www.w3.org/2000/svg"
   xmlns:sodipodi="http://sodipodi.sourceforge.net/DTD/sodipodi-0.dtd"
   xmlns:inkscape="http://www.inkscape.org/namespaces/inkscape"
   width="680"
   height="700"
   id="svg2"
   sodipodi:version="0.32"
   inkscape:version="0.45.1"
   sodipodi:docbase="D:\DougsDocs\Wikipedia"
   sodipodi:docname="maya glyph yellow.svg"
   inkscape:output_extension="org.inkscape.output.svg.inkscape"
   version="1.0">
  <defs
     id="defs4" />
  <sodipodi:namedview
     id="base"
     pagecolor="#ffffff"
     bordercolor="#666666"
     borderopacity="1.0"
     gridtolerance="10000"
     guidetolerance="10"
     objecttolerance="10"
     inkscape:pageopacity="0.0"
     inkscape:pageshadow="2"
     inkscape:zoom="0.69136848"
     inkscape:cx="593.80988"
     inkscape:cy="499.2776"
     inkscape:document-units="px"
     inkscape:current-layer="layer1"
     inkscape:window-width="1015"
     inkscape:window-height="1018"
     inkscape:window-x="869"
     inkscape:window-y="85"
     height="700px"
     width="680px" />
  <metadata
     id="metadata7">
    <rdf:RDF>
      <cc:Work
         rdf:about="">
        <dc:format>image/svg+xml</dc:format>
        <dc:type
           rdf:resource="http://purl.org/dc/dcmitype/StillImage" />
      </cc:Work>
    </rdf:RDF>
  </metadata>
  <g
     inkscape:label="Layer 1"
     inkscape:groupmode="layer"
     id="layer1"
     transform="translate(-53.794975,-22.631562)">
    <path
       style="fill:#000000"
       d="M 237.63953,713.95118 C 175.72415,704.19897 160.23065,697.5544 122.82528,664.71222 C 101.24696,645.76613 78.7963,617.75165 72.93507,602.45787 C 58.32727,564.34123 61.11103,242.8732 76.58087,181.4366 C 94.39215,110.70192 153.67313,54.06566 226.17465,38.51691 C 256.94706,31.91739 345.5753,26.51779 423.12626,26.51779 C 586.42141,26.51779 630.90952,41.40682 677.36403,111.60444 C 732.48441,194.89679 741.46521,525.19834 691.06182,615.39023 C 653.02149,683.45968 618.42967,703.2424 522.10195,712.01665 C 433.55142,720.08235 283.06305,721.10589 237.63953,713.95118 z M 579.10801,673.86887 C 628.4998,652.48581 650.79227,631.09212 677.90337,579.05692 C 693.96009,548.23871 696.92424,516.33486 695.72074,387.28316 C 693.96487,198.99357 683.15242,153.43969 627.67923,100.61648 C 576.96812,52.32791 518.54321,41.95571 350.77019,51.45665 C 124.54957,64.26734 85.68183,115.10142 85.68183,398.15823 C 85.68183,613.31003 98.92179,638.97265 237.63953,692.69306 C 246.59418,696.16084 317.41732,697.53074 395.02429,695.73721 C 498.55469,693.34463 547.57266,687.5215 579.10801,673.86887 z M 275.62895,657.47209 C 205.24464,647.79347 168.15861,622.0629 139.61867,563.10744 C 119.01136,520.53834 116.89817,500.3741 120.09102,376.7729 C 123.24827,254.54844 126.87724,231.86278 150.80656,184.76263 C 192.58885,102.52247 233.00069,86.21545 395.02429,86.21545 C 512.15556,86.21545 529.7909,88.80394 570.12416,111.91682 C 596.06638,126.78284 625.79202,156.52639 640.63325,182.46861 C 664.13611,223.5507 666.22651,239.17466 665.5135,368.42261 C 664.21057,604.59396 629.04001,648.59591 433.01371,659.30285 C 376.30093,662.40051 305.47779,661.57668 275.62895,657.47209 z M 546.83871,617.6214 C 570.63908,605.92717 600.66896,580.50063 613.57191,561.11799 C 642.62759,517.47075 655.53683,404.69328 644.70658,289.1186 C 637.54547,212.69842 633.80507,203.04704 597.1405,166.38237 C 549.20349,118.44546 497.78275,102.63763 389.52559,102.5572 C 195.81643,102.41328 139.95244,165.86669 139.95244,386.03602 C 139.95244,599.71796 189.63707,647.45753 405.87841,641.5517 C 476.7086,639.61717 515.46248,633.03805 546.83871,617.6214 z M 252.02645,585.94864 C 196.86906,561.95636 179.66495,524.67029 174.56862,418.07522 C 168.84263,298.31215 186.17189,211.54061 222.67104,177.21434 C 247.50571,153.85801 261.4551,151.00262 366.02012,147.87099 C 580.3215,141.45305 612.10671,170.64098 612.10671,373.84967 C 612.10671,517.79778 600.0328,553.54583 541.54244,582.77468 C 493.42981,606.81753 304.75837,608.88589 252.02645,585.94864 z M 426.69889,584.34375 C 439.61008,579.38928 443.86783,562.22261 443.86783,515.12105 C 443.86783,477.46398 449.40951,447.88736 457.76447,440.95332 C 465.40773,434.61006 498.37712,427.90655 531.02979,426.05669 L 590.39847,422.69321 L 590.39847,379.27673 L 590.39847,335.86024 L 526.03157,332.5467 C 446.74819,328.46522 433.82429,314.16893 433.35887,230.03256 L 433.01371,167.62136 L 389.59723,167.62136 L 346.18074,167.62136 L 345.83558,230.03256 C 345.37905,312.56166 331.94556,328.34539 258.6162,332.51077 L 199.6501,335.86024 L 199.6501,379.27673 L 199.6501,422.69321 L 253.64512,426.10097 C 283.34233,427.97537 313.86954,434.67888 321.48338,440.99771 C 329.74782,447.85654 335.32662,477.46723 335.32662,514.47327 C 335.32662,548.56596 338.58286,579.7162 342.56274,583.69597 C 351.60433,592.73757 403.77813,593.13928 426.69889,584.34375 z M 369.53458,396.79441 C 348.07533,383.21004 358.84935,346.71436 384.31876,346.71436 C 399.8814,346.71436 405.87841,354.01072 405.87841,372.94519 C 405.87841,401.89433 391.98893,411.00864 369.53458,396.79441 z M 324.4725,526.42279 C 324.4725,483.28157 319.74542,469.45678 300.3491,455.871 C 273.88448,437.33444 210.03196,433.03035 200.0923,449.11301 C 186.81022,470.60385 228.24084,545.50792 262.85029,562.57602 C 317.87515,589.7122 324.4725,585.84162 324.4725,526.42279 z M 517.51076,568.41174 C 558.30598,554.19046 584.97141,516.04929 584.97141,471.91861 C 584.97141,441.04319 582.3967,438.97439 543.97007,438.97439 C 478.9668,438.97439 454.72195,462.73037 454.72195,526.42279 C 454.72195,584.92954 460.00096,588.45974 517.51076,568.41174 z M 307.41601,302.52257 C 327.49884,282.43973 331.86448,167.62136 312.54523,167.62136 C 278.3758,167.62136 224.61046,206.08641 210.0414,240.95506 C 182.43373,307.02953 187.5813,319.57906 242.29128,319.57906 C 271.51752,319.57906 297.04544,312.89325 307.41601,302.52257 z M 589.12626,310.78342 C 592.11602,305.94574 589.23805,281.01187 582.73057,255.37466 C 570.02278,205.30959 525.65287,167.73924 479.14372,167.66196 C 456.81159,167.62484 454.72195,172.6631 454.72195,226.54372 C 454.72195,300.0818 471.81025,319.57906 536.26256,319.57906 C 562.34784,319.57906 586.13649,315.621 589.12626,310.78342 z "
       id="path2170" />
  </g>
</svg>
