<?xml version="1.0" encoding="UTF-8" standalone="no"?>
<!-- Created with Inkscape (http://www.inkscape.org/) -->

<svg
   xmlns:dc="http://purl.org/dc/elements/1.1/"
   xmlns:cc="http://creativecommons.org/ns#"
   xmlns:rdf="http://www.w3.org/1999/02/22-rdf-syntax-ns#"
   xmlns:svg="http://www.w3.org/2000/svg"
   xmlns="http://www.w3.org/2000/svg"
   version="1.0"
   width="244"
   height="250"
   id="svg2">
  <metadata
     id="metadata17">
    <rdf:RDF>
      <cc:Work
         rdf:about="">
        <dc:format>image/svg+xml</dc:format>
        <dc:type
           rdf:resource="http://purl.org/dc/dcmitype/StillImage" />
        <dc:title></dc:title>
      </cc:Work>
    </rdf:RDF>
  </metadata>
  <defs
     id="defs5" />
  <path
     d="m 26.494787,78.001053 c -7.326787,2.216818 -9.896376,6.472435 -9.121156,12.161542 0.502215,6.260466 -6.284653,2.107956 1.737363,19.110995 6.633462,7.29187 15.417381,10.28283 24.323083,13.03022 12.065272,5.21209 21.227169,10.42418 28.666492,15.63627 4.720974,3.38034 7.723021,7.1904 7.818133,11.7272 -0.179784,5.75621 -1.851707,10.02028 -4.343407,13.46457 -1.878081,1.73736 -1.829763,4.3434 -8.252475,6.08076 -4.719543,1.53471 -17.119079,2.21608 -12.595882,4.77775 12.596324,8.7826 27.72362,11.60955 43.434077,15.20193 l 26.060445,9.5555 c 8.27539,2.36232 16.32699,4.27706 23.4544,4.34341 8.1077,1.4478 16.21539,0.57912 24.32309,-2.60605 l 1.8864,1.9918 c -5.79121,9.91192 -9.12542,8.72194 -14.91663,12.77579 l -23.4544,0.86868 -19.11099,-2.60605 c -7.54064,5.00354 -6.35459,11.25375 -6.08077,17.37364 l 13.8989,9.55549 16.50495,-4.3434 16.50495,7.81813 11.29286,-2.60605 26.92913,0 10.42418,-7.38379 8.68681,-76.87832 c 8.0407,-10.25732 16.56529,-20.03075 21.46261,-33.43145 l 1.12311,-21.29548 -13.03022,1.73736 3.47473,-15.636268 -2.60605,-12.595883 -19.11099,9.121157 -16.50495,14.333249 -6.94945,15.636265 C 168.96285,100.91923 155.21716,97.094442 142.89812,94.506003 135.6591,88.711987 123.208,89.243106 115.96899,91.465617 L 79.484362,94.071662 48.211826,87.122209 26.494787,78.001053 z"
     id="path5100"
     style="fill:#d8a883;fill-opacity:1;fill-rule:evenodd;stroke:#000000;stroke-width:0;stroke-linecap:butt;stroke-linejoin:miter;stroke-miterlimit:4;stroke-opacity:1;stroke-dasharray:none" />
  <path
     d="m 46.908804,158.78843 c -7.753033,0.014 -15.535192,0.73137 -23.270059,-0.0335 -2.997891,-0.28341 -5.603066,-1.85977 -8.006784,-3.55149 -1.771407,-1.22339 -4.069569,-0.95368 -5.9388723,-1.87817 -1.954197,-1.50721 -1.983452,-4.23108 -2.936102,-6.33602 -1.096154,-2.46057 2.157927,-3.19677 3.9489763,-3.04868 4.464388,-0.17938 8.562428,1.95742 12.950131,2.41041 6.8032,0.77254 13.670339,0.57894 20.505945,0.67494 3.890439,-0.0691 7.795209,0.1699 11.67655,-0.077 0.638583,-0.76467 3.424694,1.14364 4.515655,1.73415 1.210856,1.28312 1.672256,3.51995 0.511329,5.42353 -1.669307,2.34934 -4.242983,4.02968 -6.949631,4.95204 -2.243358,0.40314 -4.501855,-0.44392 -6.769741,-0.26951 l -0.237397,-6.8e-4 0,0 z"
     id="path2171"
     style="fill:#f37378;fill-opacity:1;fill-rule:evenodd;stroke:#000000;stroke-width:1px;stroke-linecap:butt;stroke-linejoin:miter;stroke-opacity:1" />
  <path
     d="m 174.17065,160.5258 13.46456,-20.41402 18.67666,-17.37363 18.24231,-9.12115 -2.60604,13.03022 -16.07061,17.80797 -20.84836,15.20193 -10.85852,0.86868 z"
     id="path2173"
     style="fill:#ed6e70;fill-opacity:1;fill-rule:evenodd;stroke:#000000;stroke-width:1px;stroke-linecap:butt;stroke-linejoin:miter;stroke-opacity:1" />
  <path
     d="m 134.9746,128.56902 c 0,4.07585 -2.23627,5.77143 -5.10575,8.44437 -2.86947,2.67293 -4.22226,1.10209 -8.59781,1.10209 -4.37555,0 -8.03179,-4.4181 -10.90126,-7.09104 -2.86947,-2.67293 -2.64874,-2.83289 -2.64874,-6.90874 0,-4.07586 1.00777,-5.61788 3.87724,-8.29081 2.86947,-2.67293 5.60433,-3.0984 9.97988,-3.0984 4.37555,0 7.5711,1.96109 10.44057,4.63403 2.86947,2.67293 2.95587,7.13264 2.95587,11.2085 z"
     transform="translate(-0.8686818,0.4343405)"
     id="path2177"
     style="fill:#e9c76e;fill-opacity:1;stroke:#483630;stroke-width:2;stroke-linecap:butt;stroke-linejoin:round;stroke-miterlimit:4;stroke-opacity:1" />
  <path
     d="m 155.92834,77.132372 c 0,0 3.47472,-9.121157 3.47472,-10.85852 0,-1.737363 -4.3434,-15.636268 -4.3434,-15.636268 1.63088,-4.579729 -0.58903,-7.23406 5.21209,-13.898904 l 6.51511,16.070608 8.68681,8.252475 6.94946,-15.636268 -0.86869,-35.6159435 7.81814,12.1615425 4.34341,11.7272 5.64643,-12.595882 7.81813,-10.424179 3.04039,8.686816 -6.51511,16.939289 c -2.31916,5.796549 -5.85547,14.027413 -6.08078,15.636268 l 7.81814,-3.474726 9.5555,-9.121156 2.60604,6.080771 -7.81814,12.595882 -13.03022,9.121156 -8.68682,7.818135 -3.90906,9.121156 -6.51511,1.303022 -13.03023,-3.474726 -8.68681,-4.777748 z"
     id="path3154"
     style="fill:#b8c8b5;fill-opacity:1;fill-rule:evenodd;stroke:#000000;stroke-width:1px;stroke-linecap:butt;stroke-linejoin:miter;stroke-opacity:1" />
  <path
     d="m 147.24152,93.637321 9.5555,-13.030223 31.70688,17.373631 -5.64643,16.070611 -35.61595,-20.414019 z"
     id="path7095"
     style="fill:#ed6e70;fill-opacity:1;fill-rule:evenodd;stroke:#000000;stroke-width:1px;stroke-linecap:butt;stroke-linejoin:miter;stroke-opacity:1" />
  <path
     d="m 177.12262,107.58338 c 1.77835,1.0383 5.32255,5.5961 5.40633,4.90432 -3.15909,-2.15172 7.51259,-12.502472 4.15045,-14.331912 -0.32111,-0.174358 -1.71371,-0.886709 -3.33334,-1.695018 m -3.39246,-1.619248 c -2.4584,-1.116369 -3.75005,-1.499925 -5.56965,-2.453849 -1.8196,-0.953924 -6.08891,9.923497 -5.27896,10.523867 0.80995,0.60037 3.45562,2.59461 5.03525,3.48269 m -4.09108,-15.930243 c -2.19219,-1.182957 -3.92115,-2.120388 -4.63716,-2.53314 -1.93988,-1.118264 -5.24013,11.107705 -4.14338,11.303167 2.85048,0.50802 4.36063,3.035226 4.36063,2.479356 m -7.26342,-3.590574 c 0.21043,0.576198 4.01295,-11.64371 2.4262,-12.15746 -2.98113,-0.965211 -5.0376,-1.467137 -5.3742,-0.737908 -0.95342,3.397869 -4.18087,6.440496 -2.42581,9.767639 0.4503,0.278303 4.24615,0.04002 5.37381,3.127729 z M 189,245.02832 c -4.70228,-1.71936 -9.94765,-0.24016 -14.56387,-2.13166 -4.15595,-1.88282 -9.79576,1.01046 -13.22317,-1.03553 0.70847,-2.12541 7.48161,-3.26921 11.76302,-1.98647 2.06583,0.61894 6.62885,1.10476 10.14004,1.07962 5.29165,-0.0379 7.66727,-0.67954 13.88398,-3.75 l 7.5,-3.70428 0.0309,-7.5 c 0.017,-4.125 0.63724,-11.61722 1.37827,-16.64938 -2.31926,-12.22495 10.21486,-41.28745 6.00028,-49.35062 -4.7688,2.4801 -8.28091,6.80478 -13.22025,9 -3.57777,0.47538 -6.8764,2.15385 -10.18924,3.51295 -4.42092,1.81536 -10.44549,3.39119 -11.97835,2.44383 -1.73837,-1.07437 3.7206,-4.06161 11.97835,-6.42005 9.67628,-2.91692 18.58802,-8.55751 25.93709,-15.44335 3.41573,-3.59749 5.464,-4.11756 3.31809,-0.84249 -1.14009,1.74 -1.37042,4.52043 -1.01476,12.25 1.30608,12.59081 -5.83971,24.73803 -6.904,37.13507 -3.49289,16.54119 4.52141,36.46761 -13.07378,42.25573 -3.20472,0.92295 -4.51143,2.51867 -7.76264,1.13663 z m -21.53594,-68.1533 c -2.1315,-1.03607 -4.48905,-8.6896 -4.43701,-14.4043 3.24752,-17.05942 15.06326,-30.81641 27.80675,-41.82815 4.31036,-0.76393 7.27695,-4.45848 11.10999,-6.37345 6.48051,-3.02191 16.164,-8.28127 18.80621,-10.62334 1.2375,-1.09692 2.25,-2.83831 2.25,-3.869754 0,-1.03144 0.71654,-3.260975 1.5923,-4.954521 1.86475,-3.606026 2.10611,-10.140623 0.52221,-14.138646 -3.0668,-5.230293 -7.2472,0.108729 -11.70544,1.86014 -1.1,0.359689 -10.7144,6.972423 -16.58758,13.102383 -11.44805,11.948558 -14.21579,16.880818 -11.90041,21.207148 2.06211,3.85309 -1.02089,2.46141 -8.34867,-3.76862 -4.77643,-4.06089 -11.43886,-8.5789 -22,-13.411483 -16.20815,-7.416558 -22.77391,-7.379819 -30.25231,-7.75862 -8.89274,2.10457 -18.29396,0.913489 -27.136786,3.238528 -14.45619,1.611378 -30.64895,2.659073 -44.111141,-3.611297 C 45.823327,87.944349 38.155708,85.264911 31,81.47552 28.358294,79.947519 22.346232,79.580754 17.109377,80.628125 c -3.98208,0.796416 -9.9252412,8.884401 -8.3293634,11.335342 1.2236664,1.8793 6.7053224,1.603774 9.9134674,-0.498284 3.0021,-1.967051 5.651952,-1.845952 7.638427,0.349078 2.628253,3.214268 -1.425579,7.8871 -3.36988,10.731489 C 20.96329,104.95409 17.052182,104.26512 14.187086,101 11.234035,97.634642 8.5401971,97.201153 5.8287407,99.654988 3.6632889,101.61469 3.5624644,100.8336 5.0987874,94 c 0.5564269,-2.475 1.330285,-6.06468 1.7196846,-7.977066 2.2916644,-5.710627 6.794786,-7.648645 8.014667,-7.885457 2.818811,-2.023151 4.180485,-2.30332 9.479255,-1.950385 5.02278,0.334552 8.436733,1.509954 18.135067,6.243791 10.680189,5.213088 13.225879,6.028796 24,7.690254 12.376388,1.90854 14.618006,1.896468 40.552539,-0.218381 14.73682,-1.201724 25.83297,-0.848914 33.31618,1.059312 4.26039,1.086405 5.03933,1.026172 6.75,-0.521957 C 148.12978,89.477564 149,88.078663 149,87.331444 c 0,-0.74722 0.42867,-2.139976 0.95259,-3.095013 C 152.93224,78.804992 158,67.40595 158,66.135198 c 0,-0.816661 -1.15574,-4.833325 -2.56832,-8.92592 -2.7113,-7.855345 -2.67257,-14.051648 0.10759,-17.211108 0.72684,-0.826006 1.78825,-2.729406 2.35869,-4.229776 0.87357,-2.297673 1.3945,-2.595759 3.30268,-1.889874 1.64932,0.610121 2.33993,1.760595 2.53907,4.229776 0.3616,4.48361 1.89566,8.987413 4.87998,14.326929 4.59466,8.220745 7.97569,8.739235 10.16769,1.55924 1.32681,-4.346027 1.28878,-9.260474 -0.31879,-41.197347 -0.29917,-5.9434638 1.07755,-8.5689944 3.92107,-7.477833 1.40414,0.5388179 8.05246,16.41289 9.19955,21.76099 0.53071,2.474331 1.63452,3.067608 -2.43322,-4.06412 -3.35352,-5.879516 -8.83604,-13.9271128 -6.82805,0.767107 1.97638,14.462802 0.35519,28.679859 -2.66181,35.466738 C 178.26029,62.4125 176.50162,65 175.75798,65 172.15589,65 162,50.012291 162,44.696459 162,41.14825 161.02404,39 159.41206,39 c -3.02901,0 -3.02388,10.644054 0.008,17.33234 0.78985,1.742213 1.72575,5.878328 2.07976,9.191366 0.55178,5.163809 0.34994,6.397113 -1.4139,8.639474 -1.78324,2.267031 -1.86263,2.77754 -0.59548,3.829182 0.80414,0.667379 3.16018,1.318055 5.23564,1.445947 2.07546,0.127893 5.51602,0.981593 7.64568,1.897112 7.15582,3.076199 10.65962,2.072222 11.97001,-3.429886 0.73808,-3.099076 7.60904,-9.484535 17.85064,-16.589321 8.15074,-5.654314 15.39409,-14.623307 14.23956,-17.631963 -1.01457,-2.643927 -2.17845,-2.094068 -9.21464,4.353324 -6.29897,5.771856 -9.06038,6.938799 -9.96816,4.212425 -0.24591,-0.73856 0.45373,-1.25 1.70998,-1.25 2.47665,0 11.54194,-8.135236 13.68647,-12.2823 1.89516,-3.664821 3.3453,-3.103146 5.21292,2.01908 2.37924,6.525457 0.55271,10.872443 -7.63667,18.174565 C 206.525,62.208006 200.575,66.863889 197,69.257753 c -4.70739,3.152128 -7.25197,5.716207 -9.22664,9.297363 -3.07938,5.584585 -3.36397,8.079929 -1.24156,10.886014 0.80751,1.067621 1.4682,2.953563 1.4682,4.190983 0,3.438684 1.87775,3.854805 4.83126,1.070635 2.24272,-2.114132 9.67264,-7.971588 22.16874,-17.476957 2.20596,-1.678 11.8758,-4.796189 12.46899,-4.020818 0.12414,0.162265 0.70909,3.853199 1.2999,8.202076 0.96666,7.115454 0.86292,8.539834 -1.03622,14.227785 -1.16074,3.476405 -1.83149,6.599676 -1.49056,6.940616 0.34094,0.34093 2.93854,0.12261 5.77246,-0.48515 2.83391,-0.60777 5.56497,-0.85016 6.069,-0.53865 0.50404,0.31151 0.91643,3.92839 0.91643,8.0375 0,7.90707 -2.94943,17.03649 -7.23481,22.394 L 229.752,134.5 230.51144,132 c 0.41769,-1.375 1.85364,-4.975 3.191,-8 2.94729,-6.66655 3.9678,-13.87912 2.3828,-16.84072 -1.46913,-2.74511 -5.60912,-2.83511 -11.34614,-0.24667 -2.3315,1.05193 -5.96361,2.44904 -8.07135,3.10469 -4.76803,1.33093 -8.72858,4.55107 -13.43188,5.97065 -2.58222,0.0246 -21.33779,16.48536 -26.32774,23.10644 -1.41164,1.87309 -4.28991,6.78061 -6.39616,10.90561 -3.25315,6.37117 -3.82451,8.44015 -3.79617,13.74642 0.0391,7.3164 2.50411,10.17496 7.13514,10.17496 3.80119,0 3.92042,0.30655 1.2417,2.73076 -2.04775,1.85319 -4.6355,1.67774 -7.62858,0.22288 z m 5.46855,-14.45622 c -1.08409,-1.30625 -1.07903,-1.95833 0.0291,-3.75 C 175.87194,153.96345 187.47645,139 188.21534,139 188.6469,139 189,138.2572 189,137.34933 c 0,-3.76348 18.83634,-19.26867 27.97732,-23.02962 10.39635,-4.27745 13.6429,-2.45992 8.67703,4.85771 -1.29011,1.90108 -2.63781,4.62056 -2.9949,6.04329 -1.42433,5.67501 -24.13702,29.83826 -30.53709,32.48737 -1.9923,0.82465 -5.91578,2.57769 -8.71885,3.89564 -5.94665,2.79601 -8.6521,3.00661 -10.4709,0.81508 z m 16.63184,-7.52435 C 190.6999,153.8525 192.15764,153 192.80386,153 c 1.29225,0 9.55055,-8.18199 17.0889,-15.61136 5.36049,-4.62029 7.98293,-10.67309 12.30805,-16.04943 2.22316,-2.42591 2.07785,-5.66186 -0.27459,-6.1149 -0.85294,-0.16426 -3.54777,1.2887 -5.98851,3.22881 -2.44074,1.94011 -4.88903,3.53184 -5.44064,3.53717 -1.63796,0.0159 -15.773,10.80606 -18.72017,14.29034 -1.4977,1.77065 -2.7352,3.81189 -2.75,4.53609 -3.19932,4.45364 -9.54717,11.32064 -10.44191,16.32079 0.93453,1.51211 8.59212,-0.0523 10.97946,-2.24306 z M 35.402031,160.06009 C 34.452269,159.12856 16.422192,157.29885 15,157.98968 c -0.825,0.40074 -2.9625,1.00575 -4.75,1.34447 -2.547148,0.48266 -3.9015112,5.27154 -3.9015112,4.04215 0,-0.86274 -0.4030223,-7.01606 0.6969777,-7.30372 1.106915,-0.28947 2.0434844,-2.70016 1.7828296,-3.7094 -0.3625811,-1.4039 4.8802039,1.35014 5.4831159,1.11144 1.774853,-0.70269 8.547763,1.16004 16.016884,1.26374 5.153952,0.0716 16.903603,-0.99091 17.66182,-0.83607 1.592643,0.32525 9.640304,-0.005 10.770273,-2.59338 2.043906,-4.68119 -5.663088,-2.80998 -2.744577,-3.60511 1.388259,-0.37822 -11.986079,0.12992 -17.775353,0.0521 -7.55896,-0.10159 -11.052214,0.51556 -19.001719,-1.36947 -9.4559364,-2.24224 -12.5664351,-2.54027 -11.6699007,1.0318 1.1508022,13.4849 -9.3068114,-8.8619 4.4666967,-6.2005 10.732383,2.44631 15.987256,3.41834 28.865975,3.49208 C 51.523236,144.77064 53,144.75301 53,143.52032 48.46768,139.33827 40.814457,133.30486 34.444998,132.38273 33.579686,132.71478 33,132.33381 33,131.43308 c 0,-0.82729 -1.9125,-2.42137 -4.25,-3.54241 -5.775308,-2.76979 -11.785439,-6.10166 -14.742659,-8.17297 -3.180486,-2.2277 -5.2865384,-2.17166 -7.4308135,0.19774 -1.6418335,1.8142 -1.6423057,2.05454 -0.00894,4.54737 1.4184591,2.16485 2.9488986,3.12122 4.8855847,1.69798 1.507344,-1.10772 3.173981,-3.72489 3.987206,-4.59028 0.813226,-0.86538 7.398267,-0.65404 1.63087,1.62071 -4.625329,1.8243 -2.962738,8.09454 1.382128,8.30575 1.685997,0.082 4.902789,-3.66507 5.081215,-6.22216 0.110843,-1.58853 2.345559,0.4455 1.843783,1.48101 -1.72032,3.5502 -2.99134,4.76949 -1.999496,6.59531 0.991844,1.82582 4.246552,4.25817 6.663684,2.86349 1.972189,-1.13795 4.436853,-5.44878 3.988205,-3.73315 -0.139716,0.53428 2.493821,-2.00161 1.734801,-0.34096 -0.75902,1.66065 -4.910596,7.51784 -5.107026,7.63924 -1.209513,0.74752 -8.845607,-2.10365 -9.374089,-3.48085 C 21.010319,135.58451 19.495723,135 17.918691,135 c -2.166608,0 -3.241811,-0.72416 -4.399689,-2.96325 -1.082745,-2.0938 -2.701097,-3.27797 -5.5156223,-4.03584 -5.1090267,-1.37572 -6.1122499,-4.45634 -3.1089131,-9.54662 2.5175107,-4.26686 2.5939201,-5.60917 0.5448521,-9.57163 -0.8583747,-1.65992 -1.408045,-7.07132 -1.2214895,-8.27159 0.2484721,-1.598643 0.8067677,2.2499 2.0874126,5.97745 2.2907708,6.66771 5.1613342,9.24884 17.1947582,15.46104 5.5,2.83934 11.8,6.45226 14,8.02869 2.2,1.57644 6.53099,4.16273 9.624422,5.74733 11.334958,5.80626 17.470397,12.18974 16.400038,17.06305 -0.47847,2.17846 -1.855118,3.36971 -6.318114,5.46721 -6.270869,2.40111 -13.886864,1.54347 -21.804315,1.70425 z m 72.335149,-27.40854 c -3.23805,-2.93314 -5.00929,-14.17211 -0.35885,-16.25609 7.06449,-3.92715 12.99735,-6.60849 20.95017,-2.77853 8.56758,6.52078 10.25128,18.24646 1.62322,25.40891 -7.9603,2.61538 -16.16254,-1.26435 -22.21454,-6.37429 z m 24.188,-10.43634 c -3.9547,-8.45815 -15.1642,-8.02327 -21.76764,-2.90424 -4.98624,4.65964 -0.38147,14.06774 8.42037,17.20381 9.9608,4.03942 15.83803,-5.33627 13.34727,-14.29957 z m -12.58841,8.30812 c -4.71394,-3.30177 -3.30462,-9.3704 2.50968,-10.80684 4.09246,-1.01105 5.15355,0.10392 5.15355,5.41525 0.66452,4.90069 -3.51048,8.32551 -7.66323,5.39159 z M 202.68703,37.25 C 207.56226,24.173739 209.3762,20 210.18401,20 c 1.42532,0 0.89253,2.785794 -1.8627,9.739479 C 205.83072,36.025244 201.49754,44 200.57267,44 c -0.22124,0 0.73023,-3.0375 2.11436,-6.75 z m -11.13655,3.5 c 1.02242,0.79402 -1.99152,-7.406042 -1.25997,-7.686118 0.49334,-0.188876 -1.30505,-13.193308 -0.86176,-12.127764 0.8819,2.119845 3.44904,16.764664 6.22681,7.313882 2.87031,-9.765608 9.91178,-19.2990328 12.38232,-19.25 0.89488,0.017761 3.23155,8.063907 2.53756,8.757892 -0.30975,0.309749 -1.48182,-0.268179 -2.6046,-1.284284 -1.98983,-1.800768 -2.09478,-1.794111 -4.15225,0.263354 -1.16095,1.16095 -3.35061,5.632568 -4.86592,9.936928 C 195.58054,36.252695 193.14398,42 192.4552,42 c -0.28489,0 -0.69201,-0.5625 -0.90472,-1.25 z"
     id="path2163"
     style="fill:#000000;fill-opacity:1" />
  <path
     d="m 7.2391383,162.45431 c 2.8042947,8.54076 5.1857137,8.75074 15.4703877,13.90898 14.876013,7.46101 68.851023,22.1436 87.613034,31.07131 l 16.93929,6.08077 12.16154,1.73737 10.16071,0.56155 9.44636,-2.02266 c 7.20529,-2.25549 9.45048,-6.5965 12.1051,-9.21376"
     id="path3158"
     style="fill:none;stroke:#000000;stroke-width:3;stroke-linecap:butt;stroke-linejoin:miter;stroke-miterlimit:4;stroke-opacity:1;stroke-dasharray:none" />
  <path
     d="m 217.44472,152.33415 8.90663,-9.82801 5.52826,-9.82801 0,0 0,0"
     id="path4129"
     style="fill:none;stroke:#000000;stroke-width:3;stroke-linecap:butt;stroke-linejoin:miter;stroke-miterlimit:4;stroke-opacity:1;stroke-dasharray:none" />
  <path
     d="m 90.909091,200.55283 -1.842752,10.44226 -3.685504,7.98525 -1.535626,5.83538 4.299754,4.60688 7.985258,1.53563 11.056509,0.30713 11.67076,7.371 4.91401,1.84276 15.97051,-3.99263 10.74939,3.6855 7.37101,2.457 2.14988,-0.61425"
     id="path6124"
     style="fill:none;stroke:#000000;stroke-width:3;stroke-linecap:butt;stroke-linejoin:miter;stroke-miterlimit:4;stroke-opacity:1;stroke-dasharray:none" />
  <path
     d="m 125,124.38575 a 1.8427519,1.8427519 0 1 1 -3.6855,0 1.8427519,1.8427519 0 1 1 3.6855,0 z"
     transform="matrix(1.9166667,0,0,2.1666667,-113.35484,-143.88821)"
     id="path8066"
     style="fill:#ec6d6f;fill-opacity:1;stroke:#483630;stroke-width:0;stroke-linecap:butt;stroke-linejoin:round;stroke-miterlimit:4;stroke-opacity:1;stroke-dasharray:none" />
</svg>
