<?xml version="1.0" encoding="UTF-8" standalone="no"?>
<!-- Created with Inkscape (http://www.inkscape.org/) -->

<svg
   xmlns:dc="http://purl.org/dc/elements/1.1/"
   xmlns:cc="http://creativecommons.org/ns#"
   xmlns:rdf="http://www.w3.org/1999/02/22-rdf-syntax-ns#"
   xmlns:svg="http://www.w3.org/2000/svg"
   xmlns="http://www.w3.org/2000/svg"
   version="1.1"
   width="511.03125"
   height="392.50345"
   id="svg2">
  <metadata
     id="metadata133">
    <rdf:RDF>
      <cc:Work
         rdf:about="">
        <dc:format>image/svg+xml</dc:format>
        <dc:type
           rdf:resource="http://purl.org/dc/dcmitype/StillImage" />
        <dc:title></dc:title>
      </cc:Work>
    </rdf:RDF>
  </metadata>
  <defs
     id="defs2080">
    <marker
       refX="0"
       refY="0"
       orient="auto"
       id="Arrow1Lstart"
       style="overflow:visible">
      <path
         d="M 0,0 5,-5 -12.5,0 5,5 0,0 z"
         transform="matrix(0.8,0,0,0.8,10,0)"
         id="path2933"
         style="fill-rule:evenodd;stroke:#000000;stroke-width:1pt;marker-start:none" />
    </marker>
    <marker
       refX="0"
       refY="0"
       orient="auto"
       id="Arrow1Lend"
       style="overflow:visible">
      <path
         d="M 0,0 5,-5 -12.5,0 5,5 0,0 z"
         transform="matrix(-0.8,0,0,-0.8,-10,0)"
         id="path2930"
         style="fill-rule:evenodd;stroke:#000000;stroke-width:1pt;marker-start:none" />
    </marker>
  </defs>
  <defs
     id="defs9">
    <marker
       refX="0"
       refY="0"
       orient="auto"
       id="marker11"
       style="overflow:visible">
      <path
         d="M 0,0 5,-5 -12.5,0 5,5 0,0 z"
         transform="matrix(0.8,0,0,0.8,10,0)"
         id="path13"
         style="fill-rule:evenodd;stroke:#000000;stroke-width:1pt;marker-start:none" />
    </marker>
    <marker
       refX="0"
       refY="0"
       orient="auto"
       id="marker15"
       style="overflow:visible">
      <path
         d="M 0,0 5,-5 -12.5,0 5,5 0,0 z"
         transform="matrix(-0.8,0,0,-0.8,-10,0)"
         id="path17"
         style="fill-rule:evenodd;stroke:#000000;stroke-width:1pt;marker-start:none" />
    </marker>
  </defs>
  <path
     d="m 90.4767,30.312476 c 27.33505,-11.86612 56.11363,-9.42189 83.62793,-6.34575 27.15987,3.03652 55.45615,8.60356 87.4111,11.18567 31.90214,2.92625 59.6953,2.28201 86.18841,3.7334 27.03918,1.48131 50.95365,2.86417 77.38379,15.78231 47.0116,28.46907 45.04349,73.283714 51.39646,120.314344 6.75,62.58333 13,88.29167 7,121.5 -9.62957,36.79041 -40.00913,45.83086 -65.13869,46.24626 -40.06939,1.82669 -69.16345,-10.20844 -121.96075,-20.57934 -77.84068,-9.01561 -74.80601,19.09184 -188.00203,46.49223 -26.00221,1.3899 -70.76697,10.3683 -79.01918,-37.74179 -0.47682,-24.54358 -0.0504,-29.38132 15.33017,-72.07923 8.99842,-24.98051 19.72901,-48.65623 20.20194,-84.27975 C 63.54534,138.6357 53.9758,106.08908 57.61803,77.391016 60.2768,56.441966 67.10754,42.309476 90.4767,30.312476 z M 491.48836,340.46091 c -20.03469,21.21319 -41.15517,22.59559 -57.48277,25.70579 -23.9654,1.5636 -35.93081,1.5022 -69.14621,-1.4343 -49.04167,-7.2083 -57.75123,-5.2639 -87.625,-5.8598 -39.02542,-0.2881 -60.38879,6.4645 -93.32322,13.9393 -35.8986,8.6921 -90.8007,24.9856 -130.58838,17.0607 0,0 -41.69745,-16.38528 -52.80197,-64.3728 C 23.18101,229.43895 31.23505,181.43512 31.23505,181.43512 33.62803,147.75397 27.36951,114.39994 29.73874,75.981536 34.98096,37.518326 50.12029,23.380296 66.86251,13.917096 93.42925,1.0726362 111.03459,1.0934162 132.24778,0.5041662 c 55.36879,0.50694 102.6895,9.1451498 152.55828,11.4020898 43.13394,2.12132 73.03305,3.19714 104.65182,6.92646 38.18287,6.02644 56.25482,17.75447 67.63225,25.72545 30.52344,27.57718 31.3484,47.37617 37.47665,70.003584 7.96763,45.07836 10.81746,93.23099 15.96546,158.22592 -1.30902,37.09424 -10.73712,58.60586 -19.04388,67.67324 z M 108.48438,43.107446 c 31.08151,-10.72213 77.42172,0.0853 98.8125,5.0625 42.5,9.70833 52.23928,10.94256 78.86428,10.52589 36.67202,0.4444 59.57322,-0.63006 91.69822,1.53661 40.72476,6.46496 57.01468,24.82607 66.17072,48.079614 10.07821,28.21397 9.52252,62.47266 15.70429,98.54539 3.26777,23.99389 8.17832,47.81097 5.96601,73.04228 -3.06739,24.84577 -18.94727,35.69155 -27.38966,38.78732 -11.02776,5.94996 -33.93052,4.77493 -47.95827,2.34988 -25.47034,-6.93871 -44.1282,-12.62742 -63.47354,-34.06612 -15.43851,-14.14213 -13.11095,-35.22276 -14.76086,-60.50182 -1.67462,-22.21858 -5.97422,-41.43716 -27.89886,-58.40573 -18.39605,-14.15842 -44.1511,-13.37934 -52.23483,-10.45581 -20.52803,7.38374 -32.04044,12.38098 -46.82322,28.51517 -7.53308,8.84345 -8.34865,17.95204 -7.66161,25.64645 4.21706,25.23528 12.85355,29.25735 18.48483,50.33838 8.04846,24.1836 -1.60889,40.9114 -25.68543,60.96999 -17.11788,14.40731 -52.16028,30.13286 -78.11699,30.83996 -13.75911,0.3241 -28.77084,-0.7143 -38.64087,-15.32779 -7.04161,-13.93592 -6.1756,-25.04338 -3.14093,-37.83023 10.6066,-38.18376 34.72147,-62.5477 46.91905,-95.42816 6.30506,-13.43917 2.92262,-32.34709 -3.14733,-49.66127 -5.5,-18.91911 -15.08101,-40.48989 -15.98483,-61.000004 -0.42095,-19.71108 2.42233,-38.77083 30.29733,-51.5625 z m 10.68193,11.93232 c 16.05493,-5.1783 28.43158,-3.31456 37.52084,-2.56326 23.77647,2.94628 48.21586,13.84751 66.7774,22.0087 13.6118,7.74871 21.83192,12.5806 24.92552,19.26866 0.35354,3.034674 -2.47488,5.892564 -6.36397,8.308514 -22.45063,13.31718 -35.6205,20.44718 -68.94291,36.23922 -9.84413,4.44985 -18.75079,7.86846 -29.28243,8.88081 -11.67452,0.16269 -17.59903,-2.45588 -28.52355,-11.35569 -6.34793,-8.31024 -10.75836,-10.80797 -16.79379,-27.9307 -2.68208,-7.89961 -3.73917,-16.736714 -3.35874,-23.511314 2.3659,-12.57107 5.9818,-15.95463 9.72271,-21.21321 5.39169,-4.30156 9.36917,-6.30504 14.31892,-8.13173 z m -7.42463,20.32932 c 6.89429,-10.69499 19.97576,-12.99308 19.97576,-12.99308 14.34838,-1.88562 20.29986,-0.3241 28.99138,1.23743 10.27488,2.90154 15.49174,5.3214 22.36225,9.01562 7.10053,3.91855 9.16293,6.68805 12.28599,11.22532 1.29635,3.44714 1.79722,6.89429 0.70711,10.34143 -2.88736,6.923754 -7.54248,11.372634 -13.96536,15.998294 -8.13174,5.95148 -17.32413,9.87004 -25.98619,12.28599 -8.33795,2.15078 -17.91335,2.18024 -23.68807,0.0884 -6.86482,-3.21144 -12.49222,-6.15771 -17.67767,-14.14213 -2.85789,-5.00868 -5.18545,-9.39863 -6.45235,-15.556364 -0.88388,-8.48528 1.14905,-11.84404 3.44715,-17.50089 z m 30.6177,-6.13664 c 9.625,-0.125 20.5,4 20.5,4 5.25,2.58333 8.375,5.16667 11.625,8.5 2.54167,3.91667 2.45833,6.45833 2.375,8.75 0.20833,3.33333 -2.33333,6.666674 -4.25,8.875004 -2.66667,2.625 -6.08333,5.375 -10.25,7.5 -4.70833,1.91667 -8.29167,3.33333 -13,3.875 -8.79167,1.5 -14.45833,-0.125 -20,-3 -4.875,-3.5 -7.125,-7.75 -9.375,-11.625 -2.625,-5.833334 -1.75,-7.916674 -1.5,-11.875004 2.41667,-7.58333 6.20834,-9.91667 10.625,-12.25 4.79167,-1.54167 7.70833,-2.45833 13.25,-2.75 z m -1.125,5.875 c 10.125,-0.33333 10.9375,1.27083 16.6875,3.68751 4.18545,2.21038 6.58333,4.95832 7.25,7.625 0.47917,3.5 -1.22917,8.24999 -3.0625,9.562494 -3.8125,3.83333 -10,6.22917 -14.875,6.81251 -5.64583,0.22916 -10.54167,1.02082 -16.875,-4.56251 -2.39583,-3.45833 -4.66666,-7.104174 -4.375,-11.500004 0.91667,-5.52083 3.95833,-7.04167 6.5,-8.875 4.10417,-2.16667 5.39584,-2.20833 8.75,-2.75 z m 3.125,4.25 c 5.83333,0.33333 8.54167,2.54167 12.0625,5.125 3.08333,2.58333 1.88686,8.58365 -4.5,11.562504 -5.375,1.85417 -9.625,1.27083 -14.4375,0.37501 -3.85417,-1.708344 -5.08333,-4.979184 -5.375,-7.562514 -0.20833,-3.25 0.89583,-4.375 2.375,-6 4.22917,-3.22917 5.45833,-3.08333 9.875,-3.5 z m -4.75,4.8125 c 4.8125,-1.87499 8.375,-0.125 8.375,-0.125 3.08333,1.29167 3.7816,2.97284 3.625,3.87501 -0.33333,1.97916 -1.9678,3.4255 -3.4375,4.43749 -2.39583,1.39583 -4.97917,1.04167 -6.4375,0.625 -2.08333,-0.83333 -3.22917,-2.54167 -4.375,-4.18749 -1.0625,-1.66668 0.375,-3.45834 2.25,-4.62501 z M 280.91697,98.17329 c -1.568,8.47805 34.83273,33.23736 51.76471,59.46542 7.41667,9.75 18.98959,32.21874 19.40625,52.96874 0.64584,13.41668 0.91667,27.14583 1.375,40.5625 0.375,10.10417 1.1875,17.27083 5.1875,25.37501 5.5,9.83332 10.9375,14.79166 19,20.31249 10.33823,5.75887 18.80146,9.20525 27.45217,10.08913 11.30309,0.43131 20.3745,0.31086 28.24009,-4.50781 9.89688,-4.87178 15.85161,-16.48205 17.54508,-29.52171 1.11959,-10.66553 -0.10626,-21.8614 -1.72672,-32.79208 -1.88561,-11.54942 -4.56673,-23.45238 -6.45234,-34.64823 -4.65512,-27.34147 -6.89786,-65.60647 -9.78522,-78.71741 -1.42937,-5.33991 -2.92126,-10.42983 -4.85064,-15.64474 -2.89266,-6.39256 -6.60854,-11.59317 -11.12621,-17.360734 -5.7747,-5.12652 -11.63778,-8.66206 -19.09187,-12.63953 -9.72272,-4.18372 -20.24093,-5.53901 -30.49399,-6.45235 -15.32065,-0.85442 -37.00526,2.35702 -54.97755,7.24785 -4.12478,1.29635 -32.17964,9.59944 -31.46626,16.263454 z m 67.62991,-7.440844 c 14.19477,-3.53163 20.71025,-3.375 20.71025,-3.375 8.86114,0.0706 16.14644,2.13756 24.43306,5.21339 9.01531,4.479784 13.08088,8.517624 17.5442,14.411614 4.75765,6.69822 7.21721,13.75 9.5,20.625 1.96215,14.19317 2.5101,29.00506 3.5,43.375 0.80423,15.4395 3.02266,27.25506 6.125,40.75 3.45204,13.69577 7.08088,24.6515 8.58839,37.19824 0.48744,11.27403 1.32842,26.26039 -2.25001,30.64015 -1.91667,5.08333 -7.80745,11.15594 -15.2866,13.80178 -7.39584,2.1875 -15.46845,1.73483 -21.55178,-0.89017 -7.95834,-3.10417 -15.47917,-8.89583 -20.50001,-17 -6.64583,-11.52083 -5.72917,-17.54167 -5.5,-35.125 0.58333,-17.83332 0.47917,-40.10417 -0.25,-46.75 -1.41667,-11.16667 -10.08333,-29.08332 -18.75,-41.75 -8.10417,-12.35417 -19.58333,-30.77083 -21.125,-35.75 -4.60417,-12.4375 0.29167,-18.4375 14.8125,-25.375004 z m 6.61631,13.804804 c 8.40654,-6.30146 12.34404,-6.17646 12.34404,-6.17646 6.89429,-0.78217 12.97608,-0.50183 20.30787,1.59099 10.33721,5.08547 12.54942,8.48344 17.01162,14.19391 3.49165,5.34772 5.0193,10.3501 6.43718,15.7849 3.8268,12.13467 -2.65891,48.20685 -0.7696,61.40403 0.40859,8.65969 17.49396,40.69438 20.15254,60.10407 1.5715,11.73527 -0.0963,19.72056 -3.71231,25.45584 -3.3801,4.29095 -6.3852,7.58189 -15.2653,7.49784 -9.64429,-0.62835 -15.85107,-4.75672 -20.62036,-12.44759 -7.56782,-11.71893 -4.94813,-29.00036 -3.01593,-41.5943 2.70884,-12.02439 5.85518,-25.67378 5.31402,-36.01066 0.48591,-6.6299 -6.15318,-18.63477 -11.97977,-27.51466 -10.01734,-14.67248 -21.2248,-30.29133 -27.08788,-44.07991 -2.53381,-6.24611 -2.23918,-15.14387 0.88388,-18.208 z m 9.69619,8.4452 c 1.75,-4.125 7.5,-6.375 7.5,-6.375 4.85417,-0.72917 7.83333,-0.39583 11.8125,0.25 4.33334,1.22917 6.41667,3.02083 9.625,5 2.27083,2.33333 3.97917,4.41667 5.81251,7 1.16666,2.5 2.33333,5.125 3.5,7.625 1.1788,2.27083 1.13317,10.79167 1.125,16.25 -0.56251,5.58333 -2.93751,9.85417 -4.875,12.125 -2.95834,3.29167 -6.29168,2.77083 -8.375,1.625 -5.60417,-3.20833 -11.64584,-9.41667 -16.62501,-16.62498 -3.66667,-4.97919 -7.33333,-11.08335 -8.75,-15.50002 -1.5,-4.72917 -2.375,-7.33333 -0.75,-11.375 z m 7.375,5.0625 c 0.375,-1.5 4,-4.6875 6.125,-5.375 2.4375,-0.77083 8.25,0.83333 10.25001,2.12501 3.14582,1.91666 4.85417,4.39582 6.8125,7.625 1.66666,3.14582 2.14582,6.10416 2.37499,9.24999 0.25,4.22917 -0.625,8.08333 -1.87499,9.68752 -1.85418,2.16665 -3.95833,3.33331 -6.12501,2.74999 -3.85416,-1.02084 -7.14583,-4.10418 -9.6875,-7.37501 -5.04167,-6.04167 -8.89583,-14.08333 -7.875,-18.6875 z m 11.4375,0.25001 c 4.5,0.87499 7.56251,5.06249 7.56251,5.06249 1.875,2.93751 1.93749,6.125 1.31249,9.1875 -0.29167,1.83333 -1.52082,3.29167 -2.56249,3.4375 -2.33334,0.37502 -3.85417,-0.68749 -5.50001,-1.68749 -2.08333,-1.375 -4.66667,-6.12501 -5.8125,-9.12501 -0.5625,-2.22917 -0.6875,-3.64583 0.3125,-5.4375 1.8125,-1.85417 3.1875,-1.45833 4.6875,-1.43749 z m 23.50076,107.12055 c -4.57192,-0.17202 -8.06325,6.19194 -8.06325,6.19194 -2.63642,6.10983 -4.43315,10.00996 -5.125,19.125 -0.26647,4.50253 0.17417,8.38634 2.25,13.375 1.32819,4.3397 5.52902,9.47487 8.625,10.72098 2.96339,1.11872 5.35224,1.88387 8.625,1.41161 4.72104,-0.87241 7.58593,-3.77774 9.30178,-7.25759 1.51393,-3.52007 2.85108,-12.03408 1.44822,-18.25 -1.88251,-7.572 -7.16798,-18.41436 -9.7134,-20.94822 -0.63747,-0.58709 -2.86597,-4.00261 -7.34835,-4.36872 z m 1.24454,12.9417 c -4.41942,0.50087 -5.17072,3.5208 -6.89429,6.54074 -1.3553,3.21144 -1.64992,7.61613 -1.5468,9.23658 0.0147,4.75824 1.57625,7.8813 3.62391,11.18114 2.32928,3.66126 5.02656,5.32014 8.79465,4.55198 4.7877,-1.53206 5.15598,-4.08059 6.36395,-6.7617 1.63039,-4.97505 1.31033,-8.13283 0.0884,-12.63954 -1.31109,-5.00866 -6.55547,-12.44801 -10.42981,-12.1092 z m -3.18198,21.43417 c -0.8805,-4.90555 0.0636,-9.63608 0.39773,-10.51821 0.93318,-1.89086 2.99049,-1.95927 4.68459,-1.85614 1.72357,0.22096 3.40295,2.12131 4.37522,3.88907 1.16378,2.26864 1.2669,4.75824 0.97227,6.93849 -0.25042,2.2539 -2.18024,4.99394 -3.00519,5.43588 -2.16551,1.44369 -5.70105,-0.38302 -7.42462,-3.88909 z M 66.22169,297.04707 c 3.50174,-10.76391 7.29859,-14.34882 14.40729,-25.27907 7.57113,-10.76908 24.18894,-22.62741 28.28427,-23.77646 5.30332,-1.59435 11.84405,-2.25775 17.23573,-1.32582 12.61007,2.35703 22.21495,13.90643 28.19589,22.80419 4.30155,7.33623 5.68631,14.93762 5.39168,22.53902 -0.26517,9.78165 -7.15944,20.71234 -16.35184,28.54944 -8.42636,8.13172 -19.9463,13.52342 -30.05203,16.97057 -10.16467,3.29987 -23.5997,5.18547 -33.94114,1.85617 -8.01387,-3.09361 -13.46124,-9.57315 -15.02602,-14.76086 -2.31694,-10.61171 -2.06672,-14.43203 1.85617,-27.57718 z m 12.88769,-2.56462 c 5.75,-10.25 9.05863,-13.07253 16.25,-18.875 7.25655,-5.3017 12.33334,-5.95833 18.125,-6.5 5.79167,-0.375 11.58333,2.25 15.875,5.25 4.875,3.79167 7.5,8.70833 9.375,13.25 1.58333,3.5 1.16667,10.875 -0.875,16.5 -2.58333,6.625 -6.04167,10.25 -11.5,15 -7.33333,6.08333 -15.91667,10.16667 -23.875,11.5 -5.83333,0.625 -12.16667,1.125 -17.5,-1.5 -3.45833,-1.375 -6.66667,-4.75 -7.75,-7.125 -2.625,-4.29167 -3.375,-8.95832 -3,-13.625 0.79167,-5.16667 2.83333,-9.20833 4.875,-13.875 z m 6,5.25 c 3.08334,-6.54167 6.66667,-10.08333 11.875,-13.625 5.58333,-3.33333 10.04167,-4.29167 15.25,-4.75 6.625,1.45833 9.875,4.29167 13.125,8.125 2.08333,4.54168 2.41667,8.83333 1.375,13.25 -0.58333,4.20833 -3.41667,7.41667 -6.625,11.125 -3,3.29167 -8.375,6.08333 -12.75,7.625 -4.25,1.91667 -10.5,2.45833 -15,1.25 -3.66666,-1.25 -5.70833,-3.125 -8.375,-7.125 -2.375,-5.29167 -0.375,-10.70833 1.125,-15.875 z m 3.875,8 c 0.33333,-4.08333 3.66667,-9.91667 5.375,-11.875 4.54167,-4.29167 8.20833,-5.45833 12.75,-6.5 4.58334,0.0417 6.54167,1.08333 8.5,2.375 2.5,2.33333 3,4.66667 3.375,7 0.5,4.54167 -1.375,9.45833 -4.25,12.5 -4.125,4.125 -7.5,4.75 -12.625,6.375 -3.66667,0.95833 -6.20833,0.66667 -9.5,-2 -2.79167,-1.875 -3.58333,-5.125 -3.625,-7.875 z m 7.625,-7.875 c 2.25,-2.125 4.03161,-3.94615 7.75,-4.5 5.31286,0.0122 5.625,1.16668 7.875,2.5 3.32607,4.17118 0.40886,8.73243 -0.875,9.75 -1.83333,3 -5.41667,5.125 -9.625,5.625 -4.20833,0.54167 -6.91667,-1.66667 -7.75,-4.75 -0.375,-3.25 1,-6.5 2.625,-8.625 z m 1.75,5.5 c -0.0218,-1.4169 1.32855,-3.50425 2.625,-4.375 1.49522,-1.00425 3.47001,-2.07364 5.75,-1.25 1.01551,0.32158 2.24458,1.86934 1.92678,3.625 -0.1923,1.61052 -1.60659,3.72071 -2.92678,4.75 -1.44751,1.10836 -7.10223,3.18013 -7.375,-2.75 z"
     id="path4117"
     style="fill:none;stroke:#ff0000;stroke-width:1px;stroke-linecap:butt;stroke-linejoin:miter;stroke-opacity:1" />
</svg>
