<?xml version="1.0" encoding="UTF-8" standalone="no"?>
<svg
   xmlns:dc="http://purl.org/dc/elements/1.1/"
   xmlns:cc="http://creativecommons.org/ns#"
   xmlns:rdf="http://www.w3.org/1999/02/22-rdf-syntax-ns#"
   xmlns:svg="http://www.w3.org/2000/svg"
   xmlns="http://www.w3.org/2000/svg"
   width="600" height="600" viewBox="-1 -1 502 502"
   version="1.0">
  <metadata>
    <rdf:RDF>
      <cc:Work rdf:about="">
        <dc:format>image/svg+xml</dc:format>
        <dc:type rdf:resource="http://purl.org/dc/dcmitype/StillImage" />
      </cc:Work>
    </rdf:RDF>
  </metadata>
  <path style="fill:none;stroke:#000000;stroke-width:1.0003643;stroke-miterlimit:4;stroke-dasharray:none;stroke-opacity:1"
     transform="translate(-172.88148,-342.55714)"
     d="M268.50353,829.97174 L576.86961,829.97174 L672.38125,536.02982 L422.88149,355.14253 L173.38171,536.80957 L268.50353,829.97174 z
M197.78697,761.99851 L495.64577,841.80954 L663.98065,582.60372 L469.79943,343.30473 L181.78231,454.20631 L197.78697,761.99851 z
M174.51181,682.47817 L441.56473,836.66127 L671.25115,629.85592 L545.62164,348.45301 L238.71503,381.03147 L174.51181,682.47817 z
M176.165,620.81236 L394.21276,838.86011 L669.59795,698.54872 L621.0816,394.21912 L316.20066,346.25416 L176.165,620.81236 z
M178.67993,573.51017 L332.86301,840.56306 L635.17992,776.30765 L667.08303,469.79079 L385.00486,344.55122 L178.67993,573.51017 z
M173.57864,519.41632 L253.38966,817.27512 L562.0359,833.4545 L672.18432,545.63912 L432.13215,351.65977 L173.57864,519.41632 z
M185.4669,438.17923 L185.4669,746.54532 L479.40872,842.05696 L660.29606,592.55712 L478.62902,343.05732 L185.4669,438.17923 z
M253.44011,367.46264 L173.62908,665.32145 L432.83484,833.65636 L672.13388,639.47509 L561.2323,351.45793 L253.44011,367.46264 z
M332.96044,344.18753 L178.77742,611.2404 L385.58266,840.92676 L666.98554,715.29729 L634.40718,408.39061 L332.96044,344.18753 z
M394.62625,345.84066 L176.57852,563.88836 L316.88981,839.27361 L621.21949,790.75718 L669.18444,485.87627 L394.62625,345.84066 z
M496.02228,343.25428 L198.16358,423.06531 L181.98406,731.7116 L469.79948,841.86 L663.77891,601.80779 L496.02228,343.25428 z
M441.9284,348.3556 L174.87557,502.53864 L239.13089,804.85557 L545.64781,836.75869 L670.88739,554.68051 L441.9284,348.3556 z
M577.25939,355.14255 L268.89335,355.14259 L173.38166,649.08444 L422.88154,829.97172 L672.3813,648.30472 L577.25939,355.14255 z
M647.97593,423.11576 L350.11717,343.30479 L181.78228,602.51051 L375.96355,841.80949 L663.98067,730.90795 L647.97593,423.11576 z
M671.25115,502.63605 L404.19827,348.45306 L174.51181,555.25833 L300.14141,836.66122 L607.04799,804.08281 L671.25115,502.63605 z
M667.08299,611.60401 L512.89987,344.55122 L210.58296,408.80659 L178.67997,715.32344 L460.75801,840.56306 L667.08299,611.60401 z
M672.18432,665.69798 L592.37321,367.83918 L283.72697,351.65975 L173.57864,639.47518 L413.63068,833.45453 L672.18432,665.69798 z
M660.29606,746.93511 L660.29596,438.569 L366.35414,343.05732 L185.4669,592.55727 L367.13383,842.05696 L660.29606,746.93511 z
M592.32287,817.65174 L672.13386,519.79293 L412.92808,351.45793 L173.62911,545.63928 L284.53058,833.65636 L592.32287,817.65174 z
M512.80257,840.92683 L666.98554,573.87395 L460.18035,344.18746 L178.77742,469.81706 L211.35579,776.7236 L512.80257,840.92683 z
M451.13677,839.27363 L669.18444,621.22589 L528.8732,345.84064 L224.54352,394.3571 L176.57852,699.23792 L451.13677,839.27363 z
M403.8346,836.75871 L670.88739,682.57556 L606.63211,380.25863 L300.11519,348.35557 L174.87557,630.43361 L403.8346,836.75871 z
M349.74067,841.86003 L647.59933,762.04891 L663.77891,453.40266 L375.96343,343.25426 L181.98406,583.30632 L349.74067,841.86003 z
M669.59798,564.30188 L451.55024,346.25415 L176.16498,486.56557 L224.68133,790.89516 L529.56231,838.86013 L669.59798,564.30188 z"/>
</svg>
