<?xml version="1.0" encoding="UTF-8" standalone="no"?>
<!-- Created with Inkscape (http://www.inkscape.org/) -->

<svg
   xmlns:dc="http://purl.org/dc/elements/1.1/"
   xmlns:cc="http://creativecommons.org/ns#"
   xmlns:rdf="http://www.w3.org/1999/02/22-rdf-syntax-ns#"
   xmlns:svg="http://www.w3.org/2000/svg"
   xmlns="http://www.w3.org/2000/svg"
   version="1.0"
   width="270.8761"
   height="950.1181"
   id="svg2">
  <metadata
     id="metadata351">
    <rdf:RDF>
      <cc:Work
         rdf:about="">
        <dc:format>image/svg+xml</dc:format>
        <dc:type
           rdf:resource="http://purl.org/dc/dcmitype/StillImage" />
        <dc:title></dc:title>
      </cc:Work>
    </rdf:RDF>
  </metadata>
  <defs
     id="defs4">
    <marker
       refX="0"
       refY="0"
       orient="auto"
       id="Arrow2Mend"
       style="overflow:visible">
      <path
         d="M 8.7185878,4.0337352 -2.2072895,0.01601326 8.7185884,-4.0017078 c -1.7454984,2.3720609 -1.7354408,5.6174519 -6e-7,8.035443 z"
         transform="scale(-0.6,-0.6)"
         id="path7194"
         style="font-size:12px;fill-rule:evenodd;stroke-width:0.625;stroke-linejoin:round" />
    </marker>
  </defs>
  <path
     d="m 132.10707,455.64631 0,-0.0312 10.9688,-9.28125 -11.2188,-9.8125 -57.6562,-3.2813 c -6.7667,0.27067 -27.3438,17.875 -27.3438,17.875 l 85.25,4.53125 z"
     id="path4096-2-4-8"
     style="color:#000000;fill:#ffcc00;fill-opacity:1;fill-rule:nonzero;stroke:#000000;stroke-width:2;stroke-linecap:round;stroke-linejoin:miter;stroke-miterlimit:4;stroke-opacity:1;stroke-dasharray:none;stroke-dashoffset:0;marker:none;visibility:visible;display:inline;overflow:visible" />
  <path
     d="m 131.73207,321.67756 40.8438,-0.75 45.625,-0.84375 23.5312,-18.40625 -110.125,3.40625 0.125,16.59375 z"
     id="path4110-3-0-8"
     style="color:#000000;fill:#0066ff;fill-opacity:1;fill-rule:nonzero;stroke:#000000;stroke-width:2;stroke-linecap:round;stroke-linejoin:miter;stroke-miterlimit:4;stroke-opacity:1;stroke-dasharray:none;stroke-dashoffset:0;marker:none;visibility:visible;display:inline;overflow:visible" />
  <path
     d="m 131.63887,812.96088 -60.9688,-3.75207 -23.2812,17.3125 82.3743,4.72082 1.8754,-18.28125 3e-4,0 z"
     id="path4064-7-5-4"
     style="color:#000000;fill:#0066ff;fill-opacity:1;fill-rule:nonzero;stroke:#000000;stroke-width:2;stroke-linecap:round;stroke-linejoin:miter;stroke-miterlimit:4;stroke-opacity:1;stroke-dasharray:none;stroke-dashoffset:0;marker:none;visibility:visible;display:inline;overflow:visible" />
  <path
     d="m 131.73207,732.14631 16.9063,0.1875 22.1875,-15.71875 -38.9375,-0.65625 c -0.5491,0.41676 -1.0634,0.9316 -1.5,1.5 -0.4366,0.5684 -0.8116,1.19519 -1.125,1.875 -0.6269,1.35961 -0.9924,2.90497 -1.0625,4.46875 -0.035,0.78189 0,1.57118 0.125,2.34375 0.1201,0.77257 0.3389,1.52698 0.625,2.25 0.2861,0.72302 0.631,1.39803 1.0937,2.03125 0.4627,0.63322 1.0375,1.21557 1.6875,1.71875 z"
     id="path4074-4-1-9"
     style="color:#000000;fill:#00aa00;fill-opacity:1;fill-rule:nonzero;stroke:#000000;stroke-width:2;stroke-linecap:round;stroke-linejoin:miter;stroke-miterlimit:4;stroke-opacity:1;stroke-dasharray:none;stroke-dashoffset:0;marker:none;visibility:visible;display:inline;overflow:visible" />
  <path
     d="m 131.01337,412.99006 c 0.6196,-0.26362 1.1539,-0.63412 1.5937,-1.0625 0.4399,-0.42838 0.7759,-0.90216 1.0625,-1.4375 0.5732,-1.07068 0.8809,-2.31708 1,-3.46875 0.1192,-1.15167 0.06,-2.2298 -0.062,-3 -0.1228,-0.7702 -0.3159,-1.22997 -0.4687,-1.15625 l -16.375,7.90625 13.25,2.21875 z"
     id="path4100-5-1-5"
     style="color:#000000;fill:#008000;fill-opacity:1;fill-rule:nonzero;stroke:#000000;stroke-width:2;stroke-linecap:round;stroke-linejoin:miter;stroke-miterlimit:4;stroke-opacity:1;stroke-dasharray:none;stroke-dashoffset:0;marker:none;visibility:visible;display:inline;overflow:visible" />
  <path
     d="m 131.26337,687.80256 c 30.1495,0.83583 60.2885,1.81033 90.4375,2.5625 5.9547,0 26.8125,-17.84375 26.8125,-17.84375 l -116.875,-0.96875 -9.1563,8.46875 8.7813,7.78125 z"
     id="path4078-7-6-1"
     style="color:#000000;fill:#ffcc00;fill-opacity:1;fill-rule:nonzero;stroke:#000000;stroke-width:2;stroke-linecap:round;stroke-linejoin:miter;stroke-miterlimit:4;stroke-opacity:1;stroke-dasharray:none;stroke-dashoffset:0;marker:none;visibility:visible;display:inline;overflow:visible" />
  <path
     d="m 54.43107,24.256738 c 0,0 -48.1792,36.811017 -24.9016,73.080696 23.2776,36.269686 37.3524,56.299216 127.7559,104.478346 90.4035,48.17913 90.4035,48.17913 90.4035,48.17913 0,0 21.1123,7.57874 21.6536,25.98425 0.5413,18.40551 -1.0827,24.36024 0,33.02166 1.0827,8.66141 -1.624,20.02952 -15.6988,32.48031 -14.0748,12.45079 -104.4784,56.84055 -104.4784,56.84055 0,0 -108.809,43.30709 -126.1319,79.03543 0,0 -1.4831,2.34824 -1.4966,6.09986 -0.015,4.09999 1.7257,9.87609 9.0754,16.09502 14.0748,11.90945 146.1614,89.86221 146.1614,89.86221 l 63.878,36.26968 c 0,0 28.1496,10.82677 29.2322,31.93898 0,0 -0.1559,3.44359 -1.3043,7.27143 -1.1483,3.82784 -1.1483,17.22529 0,21.05313 1.1484,3.82784 2.6795,13.78023 -3.0622,19.90478 -5.7418,6.12455 -24.4982,23.73262 -41.7235,32.15387 -17.2253,8.42125 -154.2142,73.78165 -154.2142,73.78165 0,0 -41.6278,33.25438 -46.6997,43.25461 0,0 4.9284,17.32098 16.4119,26.12502 11.4835,8.80404 67.7528,35.98171 67.7528,35.98171 0,0 8.4212,4.21063 3.4451,8.80404 l -29.8572,20.67034 c 0,0 -5.7418,5.35898 -14.9286,0.38279 -9.1868,-4.9762 -63.5422,-41.62778 -63.5422,-66.89154 0,-16.41186 3.7322,-20.86174 3.7322,-20.86174 0,0 -4.1149,-14.4501 -4.1149,-24.40248 0,-9.95239 11.1007,-28.70882 22.2014,-38.66121 5.9817,-5.36285 23.7552,-17.14824 42.703,-28.56724 16.2156,-9.7724 33.2912,-19.27645 44.5718,-24.25697 24.458,-10.79844 113.3736,-57.09994 129.4466,-64.74554 0,0 -10.4007,-17.93584 -50.9758,-38.60619 -40.5751,-20.67035 -71.5807,-38.27842 -71.5807,-38.27842 0,0 -114.7997,-54.35579 -115.218,-86.50922 -0.3828,-29.33084 0.7656,-31.00552 0.7656,-31.00552 0,0 -2.6795,-19.13921 -2.6795,-24.49819 0,-5.35897 8.4212,-30.23995 39.044,-53.207 30.6227,-22.96705 128.2327,-66.60444 128.2327,-66.60444 0,0 68.5183,-34.45058 77.7052,-43.6374 0,0 -8.4213,-16.45972 -101.8206,-60.09711 -93.3994,-43.6374 -122.1082,-85.74366 -129.3811,-107.56236 -7.2729,-21.8187 -6.5073,-46.699675 -6.5073,-46.699675 0,0 -2.6795,-54.355335 14.5458,-77.322386 0,0 5.6461,-7.272899 10.7179,-1.148352 3.2847,3.966354 14.163,20.670345 20.8811,20.813491 z"
     id="path1933-9-0-0-0"
     style="color:#000000;fill:#6f918a;fill-opacity:1;fill-rule:nonzero;stroke:#000000;stroke-width:2;stroke-linecap:round;stroke-linejoin:round;stroke-miterlimit:4;stroke-opacity:1;stroke-dasharray:none;stroke-dashoffset:0;marker:none;visibility:visible;display:inline;overflow:visible" />
  <path
     d="m 131.01337,360.36506 27.9062,-14.5625 -27.0625,4.0625 c -0.448,1.04573 -1.4196,1.92113 -1.9062,3.40625 -0.2433,0.74256 -0.3874,1.63099 -0.25,2.78125 0.1374,1.15026 0.5342,2.55597 1.3125,4.3125 z"
     id="path4106-3-1-9"
     style="color:#000000;fill:#00aa00;fill-opacity:1;fill-rule:nonzero;stroke:#000000;stroke-width:2;stroke-linecap:round;stroke-linejoin:miter;stroke-miterlimit:4;stroke-opacity:1;stroke-dasharray:none;stroke-dashoffset:0;marker:none;visibility:visible;display:inline;overflow:visible" />
  <path
     d="m 133.75047,140.71852 -3.3915,-15.47018 -78.6269,15.39797 c 0,0 -6.919,3.72453 -4.5937,8.375 2.436,4.87205 7.2928,6.78125 9.1875,6.78125 1.586,0 57.2974,-11.06702 77.4246,-15.08404 z"
     id="path4124-1-7-9"
     style="color:#000000;fill:#0066ff;fill-opacity:1;fill-rule:nonzero;stroke:#000000;stroke-width:2;stroke-linecap:round;stroke-linejoin:miter;stroke-miterlimit:4;stroke-opacity:1;stroke-dasharray:none;stroke-dashoffset:0;marker:none;visibility:visible;display:inline;overflow:visible" />
  <path
     d="m 40.05737,406.51497 c 30.6227,-22.96705 128.2327,-66.60444 128.2327,-66.60444 l 15.278,41.7816 m 0.7756,-1.04758 c -19.3998,9.92955 -35.1784,17.67713 -35.1784,17.67713 0,0 -22.9086,9.11785 -49.3762,22.43772 l -58.8677,-13.89433"
     id="path4689-7-8-5-6"
     style="color:#000000;fill:#6f918a;fill-opacity:1;fill-rule:nonzero;stroke:none;stroke-width:2;marker:none;visibility:visible;display:inline;overflow:visible" />
  <path
     d="m 100.94047,796.81887 c 20.0822,-9.58806 46.6824,-22.29302 70.1491,-33.51753 m -70.3824,33.74423 -34.0237,-29.42355 c 16.2155,-9.7724 33.2911,-19.27645 44.5717,-24.25697 3.5836,-1.58218 8.551,-3.92655 15.0091,-6.68721 l 45.2417,27.32826"
     id="path12680-9-6-9-8"
     style="color:#000000;fill:#6f918a;fill-opacity:1;fill-rule:nonzero;stroke:none;stroke-width:2;marker:none;visibility:visible;display:inline;overflow:visible" />
  <path
     d="m 5.89387,859.25296 c 0,0 10.4309,-20.95744 29.5701,-35.12045"
     id="path1971-3-8-8-3"
     style="color:#000000;fill:none;stroke:#000000;stroke-width:2;stroke-linecap:round;stroke-linejoin:miter;stroke-miterlimit:4;stroke-opacity:1;stroke-dasharray:none;stroke-dashoffset:0;marker:none;visibility:visible;display:inline;overflow:visible" />
  <path
     d="m 22.87987,854.99448 c 0,0 -32.8716,36.50804 25.5987,75.93481"
     id="path1973-4-6-2-4"
     style="color:#000000;fill:none;stroke:#000000;stroke-width:2;stroke-linecap:round;stroke-linejoin:miter;stroke-miterlimit:4;stroke-opacity:1;stroke-dasharray:none;stroke-dashoffset:0;marker:none;visibility:visible;display:inline;overflow:visible" />
  <path
     d="m 38.90897,445.17618 c 0,0 -32.8764,26.89059 -35.2209,39.04398"
     id="path1963-1-5-6-8"
     style="color:#000000;fill:none;stroke:#000000;stroke-width:2;stroke-linecap:round;stroke-linejoin:miter;stroke-miterlimit:4;stroke-opacity:1;stroke-dasharray:none;stroke-dashoffset:0;marker:none;visibility:visible;display:inline;overflow:visible" />
  <path
     d="m 22.06647,480.00954 c 0,0 -34.4506,39.42677 26.4121,76.17405"
     id="path1965-1-0-6-4"
     style="color:#000000;fill:none;stroke:#000000;stroke-width:2;stroke-linecap:round;stroke-linejoin:miter;stroke-miterlimit:4;stroke-opacity:1;stroke-dasharray:none;stroke-dashoffset:0;marker:none;visibility:visible;display:inline;overflow:visible" />
  <path
     d="m 242.16737,308.13944 c 0,0 28.7977,-11.10074 26.8838,-35.21614"
     id="path1981-4-0-8-9"
     style="color:#000000;fill:none;stroke:#000000;stroke-width:2;stroke-linecap:round;stroke-linejoin:miter;stroke-miterlimit:4;stroke-opacity:1;stroke-dasharray:none;stroke-dashoffset:0;marker:none;visibility:visible;display:inline;overflow:visible" />
  <path
     d="m 245.61247,296.65592 c 0,0 24.2275,-33.8648 -3.333,-49.55895"
     id="path1983-2-6-0-9"
     style="color:#000000;fill:none;stroke:#000000;stroke-width:2;stroke-linecap:round;stroke-linejoin:miter;stroke-miterlimit:4;stroke-opacity:1;stroke-dasharray:none;stroke-dashoffset:0;marker:none;visibility:visible;display:inline;overflow:visible" />
  <path
     d="m 8.47767,91.674974 c 0,0 0.9569,-39.618146 30.8141,-64.499117"
     id="path1955-7-1-1-2"
     style="color:#000000;fill:none;stroke:#000000;stroke-width:2;stroke-linecap:round;stroke-linejoin:miter;stroke-miterlimit:4;stroke-opacity:1;stroke-dasharray:none;stroke-dashoffset:0;marker:none;visibility:visible;display:inline;overflow:visible" />
  <path
     d="m 40.05737,406.51497 c 30.6227,-22.96705 128.2327,-66.60444 128.2327,-66.60444 m 16.0536,40.73402 c -19.3998,9.92955 -35.1784,17.67713 -35.1784,17.67713 0,0 -22.9086,9.11785 -49.3762,22.43772"
     id="path4687-5-4-4-5"
     style="color:#000000;fill:#6f918a;fill-opacity:1;fill-rule:nonzero;stroke:#000000;stroke-width:2;stroke-linecap:round;stroke-linejoin:miter;stroke-miterlimit:4;stroke-opacity:1;stroke-dasharray:none;stroke-dashoffset:0;marker:none;visibility:visible;display:inline;overflow:visible" />
  <path
     d="m 131.73207,920.11506 -0.094,-17.125 -87.5,-0.6875 c 0,0 -4.5938,2.42987 -4.5938,7.03125 0,4.60138 3.25,8.6875 3.25,8.6875 l 88.9375,2.09375 z"
     id="path2909-6-9-8-5"
     style="color:#000000;fill:#0066ff;fill-opacity:1;fill-rule:nonzero;stroke:#000000;stroke-width:2;stroke-linecap:round;stroke-linejoin:miter;stroke-miterlimit:4;stroke-opacity:1;stroke-dasharray:none;stroke-dashoffset:0;marker:none;visibility:visible;display:inline;overflow:visible" />
  <path
     d="m 131.60707,543.02131 0.1245,-15.15625 -88.6562,-0.96875 c 0,0 -4.625,4.58563 -4.625,8.375 0,3.78937 4.3437,8.40625 4.3437,8.40625 l 88.8125,-0.65625 5e-4,0 z"
     id="path4088-3-3-3"
     style="color:#000000;fill:#00aa00;fill-opacity:1;fill-rule:nonzero;stroke:#000000;stroke-width:2;stroke-linecap:round;stroke-linejoin:miter;stroke-miterlimit:4;stroke-opacity:1;stroke-dasharray:none;stroke-dashoffset:0;marker:none;visibility:visible;display:inline;overflow:visible" />
  <path
     d="m 240.47557,678.42285 c 0,0 38.3946,-30.04533 -11.7501,-59.51972"
     id="path1977-1-5-5-3"
     style="color:#000000;fill:none;stroke:#000000;stroke-width:2;stroke-linecap:round;stroke-linejoin:miter;stroke-miterlimit:4;stroke-opacity:1;stroke-dasharray:none;stroke-dashoffset:0;marker:none;visibility:visible;display:inline;overflow:visible" />
  <path
     d="m 239.81997,679.01284 c 0,0 3.5376,-2.34362 7.0094,-7.12236 l 0,0 -14.2265,0.47039"
     id="path6470-9-9-1-3"
     style="color:#000000;fill:#ffcc00;fill-opacity:1;fill-rule:nonzero;stroke:#000000;stroke-width:2;stroke-linecap:round;stroke-linejoin:miter;stroke-miterlimit:4;stroke-opacity:1;stroke-dasharray:none;stroke-dashoffset:0;marker:none;visibility:visible;display:inline;overflow:visible" />
  <path
     d="m 136.01337,96.896314 -10.4063,-8.8125 10.375,-9.624999 -113.0937,-1.8125 c 0,0 -4.1858,7.297729 -1.3438,17.312499 l 114.4688,2.9375 z"
     id="path4128-4-2-7"
     style="color:#000000;fill:#ff6600;fill-opacity:1;fill-rule:nonzero;stroke:#000000;stroke-width:2;stroke-linecap:round;stroke-linejoin:miter;stroke-miterlimit:4;stroke-opacity:1;stroke-dasharray:none;stroke-dashoffset:0;marker:none;visibility:visible;display:inline;overflow:visible" />
  <path
     d="m 20.95087,481.33381 c -5.4367,7.57258 -7.125,15.03125 -7.125,15.03125 l 47.8125,1.34375 30.1875,0.84375 0,0.0625 39.7812,1.15625 0,-0.0312 -10.75,-8.40625 11.2188,-7.625 -7.4375,-0.15625 -32.8438,-0.6875 -19,-0.40625 -51.8437,-1.125 z"
     id="path4092-5-1-4"
     style="color:#000000;fill:#ff6600;fill-opacity:1;fill-rule:nonzero;stroke:#000000;stroke-width:2;stroke-linecap:round;stroke-linejoin:miter;stroke-miterlimit:4;stroke-opacity:1;stroke-dasharray:none;stroke-dashoffset:0;marker:none;visibility:visible;display:inline;overflow:visible" />
  <path
     d="m 132.10707,212.74006 11.2813,12.46875 -10.6875,6.3125 58.1562,19.8125 c 0,0 9.4803,0.2783 11.375,-4.59375 1.8947,-4.87205 -3.8125,-10 -3.8125,-10 l -66.3125,-24 z"
     id="path4118-4-8-3"
     style="color:#000000;fill:#ff6600;fill-opacity:1;fill-rule:nonzero;stroke:#000000;stroke-width:2;stroke-linecap:round;stroke-linejoin:miter;stroke-miterlimit:4;stroke-opacity:1;stroke-dasharray:none;stroke-dashoffset:0;marker:none;visibility:visible;display:inline;overflow:visible" />
  <path
     d="m 131.54457,643.58381 93.9375,5.09375 c 0,0 4.3438,-3.51304 4.3438,-7.84375 0,-4.33071 -5.6875,-8.65625 -5.6875,-8.65625 l -92.3438,-5.6875 8.4063,8.8125 -8.6563,8.28125 z"
     id="path4082-0-8-8"
     style="color:#000000;fill:#ff6600;fill-opacity:1;fill-rule:nonzero;stroke:#000000;stroke-width:2;stroke-linecap:round;stroke-linejoin:miter;stroke-miterlimit:4;stroke-opacity:1;stroke-dasharray:none;stroke-dashoffset:0;marker:none;visibility:visible;display:inline;overflow:visible" />
  <path
     d="m 126.26427,736.35007 c -6.4581,2.76066 -11.4255,5.4328 -15.0091,7.01498 -11.2806,4.98052 -28.3562,14.48457 -44.5717,24.25697 m 34.257,29.19685 c 20.0822,-9.58806 46.6824,-22.29302 70.1491,-33.51753"
     id="path11793-8-9-4-0"
     style="color:#000000;fill:none;stroke:#000000;stroke-width:2;stroke-linecap:round;stroke-linejoin:round;stroke-miterlimit:4;stroke-opacity:1;stroke-dasharray:none;stroke-dashoffset:0;marker:none;visibility:visible;display:inline;overflow:visible" />
  <path
     d="m 131.79457,276.61506 110.75,8.03125 c 0,0 3.5313,-4.05487 3.5313,-8.65625 0,-4.60137 -3,-7.875 -3,-7.875 l -110.0938,-8.34375 -12.125,8.34375 10.9375,8.5 z"
     id="path4114-3-1-8"
     style="color:#000000;fill:#ffcc00;fill-opacity:1;fill-rule:nonzero;stroke:#000000;stroke-width:2;stroke-linecap:round;stroke-linejoin:miter;stroke-miterlimit:4;stroke-opacity:1;stroke-dasharray:none;stroke-dashoffset:0;marker:none;visibility:visible;display:inline;overflow:visible" />
  <path
     d="m 131.76337,788.58381 6.9062,-9.75 -17.25,8.25 10.3438,1.5 z"
     id="path4068-0-9-0"
     style="color:#000000;fill:#ffcc00;fill-opacity:1;fill-rule:nonzero;stroke:#000000;stroke-width:2;stroke-linecap:round;stroke-linejoin:miter;stroke-miterlimit:4;stroke-opacity:1;stroke-dasharray:none;stroke-dashoffset:0;marker:none;visibility:visible;display:inline;overflow:visible" />
  <path
     d="m 131.73207,875.11506 8.2813,-8.28125 -8.2813,-8.71875 -108.8437,-3.125 c 0,0 -5.9302,6.55958 -8.2813,17.125 l 117.125,3 z"
     id="path4060-5-0-6"
     style="color:#000000;fill:#ffcc00;fill-opacity:1;fill-rule:nonzero;stroke:#000000;stroke-width:2;stroke-linecap:round;stroke-linejoin:miter;stroke-miterlimit:4;stroke-opacity:1;stroke-dasharray:none;stroke-dashoffset:0;marker:none;visibility:visible;display:inline;overflow:visible" />
  <path
     d="m 137.54485,911.59028 a 4.053113,8.670179 0 1 1 -8.1062,0 4.053113,8.670179 0 1 1 8.1062,0 z"
     id="path5109-8"
     style="color:#000000;fill:#0066ff;fill-opacity:1;stroke:#000000;stroke-width:2;stroke-linecap:square;stroke-linejoin:miter;stroke-miterlimit:4;stroke-opacity:1;stroke-dasharray:none;stroke-dashoffset:0;marker:none;visibility:visible;display:inline;overflow:visible;enable-background:accumulate" />
  <path
     d="m 135.61901,822.93946 a 4.0611788,9.2315013 9.6162188 1 1 -7.96819,-1.58904 4.0611788,9.2315013 9.6162188 1 1 7.96819,1.58904 z"
     id="path5109-7-1"
     style="color:#000000;fill:#0066ff;fill-opacity:1;stroke:#000000;stroke-width:2;stroke-linecap:square;stroke-linejoin:miter;stroke-miterlimit:4;stroke-opacity:1;stroke-dasharray:none;stroke-dashoffset:0;marker:none;visibility:visible;display:inline;overflow:visible;enable-background:accumulate" />
  <path
     d="m 129.71197,584.22271 -5.0274,15.34262 34.641,6.08098 c 0,0 5.1671,-3.96484 5.6456,-7.72387 0.4786,-3.75904 -3.2473,-8.8875 -3.2473,-8.8875 l -32.0114,-4.81216 -5e-4,-7e-5 z"
     id="path4088-3-3-8-9"
     style="color:#000000;fill:#0066ff;fill-opacity:1;fill-rule:nonzero;stroke:#000000;stroke-width:2;stroke-linecap:round;stroke-linejoin:miter;stroke-miterlimit:4;stroke-opacity:1;stroke-dasharray:none;stroke-dashoffset:0;marker:none;visibility:visible;display:inline;overflow:visible" />
  <path
     d="m 132.21621,589.90446 a 5.9073528,8.0422698 15.100808 1 1 -12.12257,3.54752 5.9073528,8.0422698 15.100808 1 1 12.12257,-3.54752 z"
     id="path5109-7-3-8"
     style="color:#000000;fill:#0066ff;fill-opacity:1;stroke:#000000;stroke-width:1.99999988;stroke-linecap:square;stroke-linejoin:miter;stroke-miterlimit:4;stroke-opacity:1;stroke-dasharray:none;stroke-dashoffset:0;marker:none;visibility:visible;display:inline;overflow:visible;enable-background:accumulate" />
  <path
     d="m 136.79767,535.60844 a 4.0605728,7.6125881 1.8573901 1 1 -8.1138,-0.35301 4.0605728,7.6125881 1.8573901 1 1 8.1138,0.35301 z"
     id="path5109-7-37-9"
     style="color:#000000;fill:#00aa00;fill-opacity:1;stroke:#000000;stroke-width:2.00000024;stroke-linecap:square;stroke-linejoin:miter;stroke-miterlimit:4;stroke-opacity:1;stroke-dasharray:none;stroke-dashoffset:0;marker:none;visibility:visible;display:inline;overflow:visible;enable-background:accumulate" />
  <path
     d="m 146.17087,192.2873 -5.4895,-15.18341 -31.0355,16.54614 c 0,0 -1.6285,6.30609 0.3099,9.56214 1.9382,3.25616 8.0323,5.00141 8.0323,5.00141 l 28.1825,-15.92604 3e-4,-2.4e-4 z"
     id="path4088-3-3-8-0-2"
     style="color:#000000;fill:#0066ff;fill-opacity:1;fill-rule:nonzero;stroke:#000000;stroke-width:2;stroke-linecap:round;stroke-linejoin:miter;stroke-miterlimit:4;stroke-opacity:1;stroke-dasharray:none;stroke-dashoffset:0;marker:none;visibility:visible;display:inline;overflow:visible" />
  <path
     d="m 140.69858,189.35374 a 8.0422699,5.9073528 67.080732 1 1 7.36505,-10.26146 8.0422699,5.9073528 67.080732 1 1 -7.36505,10.26146 z"
     id="path5109-7-3-7-2"
     style="color:#000000;fill:#0066ff;fill-opacity:1;stroke:#000000;stroke-width:2;stroke-linecap:square;stroke-linejoin:miter;stroke-miterlimit:4;stroke-opacity:1;stroke-dasharray:none;stroke-dashoffset:0;marker:none;visibility:visible;display:inline;overflow:visible;enable-background:accumulate" />
  <path
     d="m 130.14312,138.05773 a 7.9456144,4.2309597 80.237183 1 1 5.1407,-10.40297 7.9456144,4.2309597 80.237183 1 1 -5.1407,10.40297 z"
     id="path5109-7-3-7-3-8"
     style="color:#000000;fill:#0066ff;fill-opacity:1;stroke:#000000;stroke-width:1.99999976;stroke-linecap:square;stroke-linejoin:miter;stroke-miterlimit:4;stroke-opacity:1;stroke-dasharray:none;stroke-dashoffset:0;marker:none;visibility:visible;display:inline;overflow:visible;enable-background:accumulate" />
  <path
     d="m 135.35125,309.81698 a 8.3509435,5.9075868 88.250575 1 1 -10.54696,7.21709 8.3509435,5.9075868 88.250575 1 1 10.54696,-7.21709 z"
     id="path5109-7-3-1-2"
     style="color:#000000;fill:#0066ff;fill-opacity:1;stroke:#000000;stroke-width:1.99999988;stroke-linecap:square;stroke-linejoin:miter;stroke-miterlimit:4;stroke-opacity:1;stroke-dasharray:none;stroke-dashoffset:0;marker:none;visibility:visible;display:inline;overflow:visible;enable-background:accumulate" />
</svg>
