<?xml version="1.0" encoding="UTF-8" standalone="no"?>
<!-- Generator: Adobe Illustrator 16.0.0, SVG Export Plug-In . SVG Version: 6.00 Build 0)  -->

<svg
   xmlns:dc="http://purl.org/dc/elements/1.1/"
   xmlns:cc="http://creativecommons.org/ns#"
   xmlns:rdf="http://www.w3.org/1999/02/22-rdf-syntax-ns#"
   xmlns:svg="http://www.w3.org/2000/svg"
   xmlns="http://www.w3.org/2000/svg"
   xmlns:sodipodi="http://sodipodi.sourceforge.net/DTD/sodipodi-0.dtd"
   xmlns:inkscape="http://www.inkscape.org/namespaces/inkscape"
   version="1.1"
   id="Layer_1"
   x="0px"
   y="0px"
   width="972.094px"
   height="1066.094px"
   viewBox="0 0 972.094 1066.094"
   enable-background="new 0 0 972.094 1066.094"
   xml:space="preserve"
   inkscape:version="0.48.3.1 r9886"
   sodipodi:docname="rrose.svg"><metadata
   id="metadata59"><rdf:RDF><cc:Work
       rdf:about=""><dc:format>image/svg+xml</dc:format><dc:type
         rdf:resource="http://purl.org/dc/dcmitype/StillImage" /></cc:Work></rdf:RDF></metadata><defs
   id="defs57">
	

		
		
		
		
		
		
		
		
		
		
		
		
		
		
		
		
		
		
		
		
		
		
		
		
	</defs><sodipodi:namedview
   pagecolor="#ffffff"
   bordercolor="#666666"
   borderopacity="1"
   objecttolerance="10"
   gridtolerance="10"
   guidetolerance="10"
   inkscape:pageopacity="0"
   inkscape:pageshadow="2"
   inkscape:window-width="640"
   inkscape:window-height="480"
   id="namedview55"
   showgrid="false"
   inkscape:zoom="0.22136885"
   inkscape:cx="486.047"
   inkscape:cy="533.047"
   inkscape:window-x="65"
   inkscape:window-y="24"
   inkscape:window-maximized="0"
   inkscape:current-layer="Layer_1" />
<path
   clip-rule="evenodd"
   d="m 30,1 c 2.791,1.657 4.826,3.916 5.703,7.112 2.299,8.381 6.403,15.98 10.004,23.827 7.412,16.148 18.066,30.009 28.784,44 12.399,16.188 26.777,30.396 41.471,44.328 11.083,10.508 22.758,20.661 36.11,27.976 13.739,7.526 26.35,16.703 39.822,24.552 12.487,7.275 23.738,16.218 35.233,24.938 16.733,12.695 30.5,28.119 43.998,43.852 9.292,10.831 16.953,22.915 23.354,35.726 0.79,1.581 1.48,3.521 3.252,1.189 2.961,-3.898 7.488,-5.403 11.329,-7.922 10.416,-6.831 20.646,-13.991 31.843,-19.542 17.675,-8.762 35.188,-17.889 53.157,-26.004 16.357,-7.388 32.649,-14.754 47.716,-24.604 4.677,-3.058 11.007,-1.854 14.943,2.075 6.803,6.789 15.158,11.51 23.779,15.271 28.434,12.404 57.42,23.261 87.429,31.495 12.367,3.393 24.014,9.479 35.562,15.387 13.299,6.805 27.195,12.603 39.186,21.619 9.111,6.851 19.015,12.913 26.143,22.105 1.767,2.277 3.618,1.713 5.735,1.351 14.362,-2.457 28.837,-3.935 43.188,-0.681 23.034,5.222 42.061,16.754 55.311,36.881 2.516,3.82 5.394,6.3 11.055,6.379 26.465,0.367 51.341,7.793 75.668,17.908 15.758,6.553 30.363,14.73 44.043,24.842 4.393,3.246 9.06,6.079 13.18,9.75 4.094,3.648 6.747,8.18 9.092,12.947 2.366,4.812 1.736,9.429 -1.861,13.424 -9.628,10.693 -15.842,22.534 -13.36,37.546 1.605,9.714 4.798,18.896 8.117,28.148 5.644,15.729 14.229,29.929 21.658,44.733 9.808,19.543 20.063,38.898 26.771,59.817 1.927,6.007 3.543,12.137 3.766,18.519 0.682,7.55 0.122,15.115 0.307,22.663 0.176,10.556 -3.519,19.784 -9.34,28.444 -13.488,20.066 -33.333,31.638 -54.622,41.314 -3.788,1.722 -7.669,3.248 -11.48,4.93 -2.239,0.988 -2.956,1.128 -0.968,3.808 8.594,11.583 18.612,22.223 24.033,35.99 3.479,8.833 5.02,17.93 5.177,27.32 0.255,15.156 -0.165,30.314 -2.012,45.353 -2.202,17.936 -8.954,34.314 -17.815,50.02 -11.235,19.911 -26.897,35.481 -45.601,48.15 -30.539,20.688 -64.525,32.746 -100.537,39.722 -13.639,2.643 -24.611,9.962 -32.852,21.092 -9.02,12.181 -16.349,25.521 -25.577,37.581 -4.592,6.001 -9.725,11.318 -15.87,15.746 -8.684,6.256 -17.672,11.768 -27.795,15.569 -11.45,4.3 -22.738,4.489 -34.248,0.856 -8.271,-2.611 -16.261,-5.966 -24.308,-9.178 -20.27,-8.09 -32.741,-4.741 -46.128,10.406 -0.883,1 -1.741,2.021 -2.542,3.087 -1.402,1.866 -3.187,2.888 -5.58,2.665 -2.957,0 -5.911,0 -8.863,0 -4.117,0.067 -7.581,-1.509 -9.972,-4.776 -4.073,-5.566 -7.395,-11.621 -7.752,-18.663 -0.32,-6.299 -0.723,-12.658 0.682,-18.923 0.138,-0.616 0.6,-1.498 0.107,-1.833 -0.636,-0.435 -1.016,0.514 -1.438,0.912 -5.698,5.377 -11.536,10.775 -17.92,15.135 -16.085,10.985 -32.505,21.876 -52.471,24.463 -15.413,1.996 -30.68,0.311 -45.236,-5.245 -18.844,-7.192 -36.992,-15.915 -54.294,-26.344 -21.05,-12.689 -43.687,-21.174 -67.849,-25.709 -16.542,-3.105 -32.994,-6.747 -49.063,-11.733 -11.8,-3.662 -22.992,-8.843 -32.265,-17.442 -5.605,-5.197 -11.98,-9.576 -16.458,-15.95 -10.371,-14.764 -17.511,-31.008 -21.664,-48.497 -4.358,-18.352 -5.681,-37.13 -7.5,-55.863 -1.523,-15.684 -1.519,-31.575 -6.015,-46.95 -7.666,-26.219 -22.244,-47.407 -44.568,-63.198 -9.663,-6.835 -19.865,-12.83 -29.986,-18.939 -8.584,-5.183 -9.348,-12.122 -2.567,-19.719 12.114,-13.571 27.83,-21.34 44.134,-28.274 0.894,-0.38 2.272,-0.365 2.502,-1.349 0.274,-1.175 -1.14,-1.483 -1.93,-1.951 C 94.21,663.506 85.131,645.452 78.064,625.861 73.76,613.931 73.268,601.388 71.796,589.037 69.75,571.861 69.21,554.563 68.46,537.273 67.711,520.019 66.891,502.7 63.772,485.619 c -2.415,-13.226 -6.384,-25.812 -13.705,-37.25 -5.566,-8.696 -3.556,-15.383 5.534,-20.153 10.8,-5.668 22.392,-9.457 33.561,-14.248 11.639,-4.992 22.942,-10.7 34.533,-15.786 0.863,-0.379 2.246,-0.561 2.229,-1.647 -0.017,-1.059 -1.358,-1.378 -2.25,-1.719 C 108.221,388.91 93.942,380.566 79.299,373.037 68.656,367.565 58.985,360.289 50.231,352.014 46.006,348.021 41.566,344.266 37.807,339.743 22.774,321.652 14.437,300.356 7.953,278.164 4.063,264.85 1.779,251.253 1.513,237.353 1.5,236.827 1.328,236.391 1,236 c 0,-2.333 0,-4.667 0,-7 0.846,-5.667 0.846,-11.333 0,-17 0,-9.333 0,-18.667 0,-28 0.831,-4.333 0.831,-8.667 0,-13 0,-2 0,-4 0,-6 1.129,-3.392 0.223,-6.885 0.516,-10.32 C 1.663,130.208 4.978,106.01 7.862,81.781 10.65,58.36 13.337,34.932 14.51,11.364 14.769,6.169 16.674,2.412 22,1 c 2.667,0 5.333,0 8,0 z"
   id="path9"
   inkscape:connector-curvature="0"
   style="fill:#020101;fill-rule:evenodd" /><path
   clip-rule="evenodd"
   d="m 1,212 c 1.295,5.667 2.101,11.333 0,17 0,-5.667 0,-11.333 0,-17 z"
   id="path19"
   inkscape:connector-curvature="0"
   style="fill:#363636;fill-rule:evenodd" /><path
   clip-rule="evenodd"
   d="m 1,171 c 1.891,4.333 1.359,8.667 0,13 0,-4.333 0,-8.667 0,-13 z"
   id="path21"
   inkscape:connector-curvature="0"
   style="fill:#363636;fill-rule:evenodd" /><path
   clip-rule="evenodd"
   d="m 1,155 c 0.259,-0.174 0.53,-0.192 0.811,-0.058 C 1.82,158.317 2.677,161.761 1,165 c 0,-3.333 0,-6.667 0,-10 z"
   id="path23"
   inkscape:connector-curvature="0"
   style="fill:#c2c2c2;fill-rule:evenodd" /><path
   clip-rule="evenodd"
   d="m 544.057,1065.188 c 0.014,0.272 -0.006,0.544 -0.057,0.813 -3.333,0 -6.667,0 -10,0 0.01,-0.283 -0.006,-0.564 -0.048,-0.844 3.368,0.01 6.736,0.02 10.105,0.031 z"
   id="path25"
   inkscape:connector-curvature="0"
   style="fill:#c2c2c2;fill-rule:evenodd" /><path
   clip-rule="evenodd"
   d="m 252.748,729.408 c 0.038,-23.408 2.489,-46.56 8.904,-69.095 6.929,-24.342 20.149,-45.358 35.512,-65.254 5.367,-6.95 9.956,-14.602 15.971,-20.992 6.422,-6.821 11.407,-14.667 17.292,-21.848 0.905,-1.104 1.701,-3.184 3.119,-2.774 1.709,0.493 0.678,2.574 0.724,3.944 0.463,13.687 -1.877,27.238 -2.046,40.891 -0.271,22.042 3.209,43.79 5.355,65.645 1.643,16.731 1.794,33.562 2.794,50.322 0.786,13.166 1.693,26.494 5.175,39.422 2.47,9.171 9.668,10.595 17.457,12.119 11.938,2.335 23.861,5.638 33.888,12.559 6.777,4.678 13.573,9.553 19.967,14.873 2.635,2.193 5.896,3.616 8.673,5.66 8.89,6.545 17.471,13.6 26.364,20.014 13.468,9.713 25.213,21.079 36.329,33.06 9.215,9.934 19.573,16.646 32.92,18.597 9.345,1.365 18.545,0.404 27.674,-1.962 14.82,-3.843 28.121,-11.034 41.396,-18.34 12.999,-7.153 25.267,-15.341 37.046,-24.395 5.485,-4.215 12.118,-7.075 16.862,-12.246 10.722,-11.688 22.457,-22.324 30.852,-36.274 6.757,-11.229 14.282,-22.095 20.121,-33.812 10.176,-20.415 17.78,-41.863 22.725,-64.198 1.472,-6.65 3.518,-13.174 5.373,-19.707 3.052,-10.748 9.285,-19.8 17.945,-27.063 2.998,-2.514 4.452,-1.741 6.277,1.634 6.955,12.862 6.813,26.897 7.357,40.843 0.888,22.711 -1.64,45.137 -5.395,67.495 -1.281,7.63 -1.239,15.476 -2.379,23.138 -1.756,11.812 -3.831,23.568 -6.333,35.27 -2.418,11.305 -4.154,22.732 -7.742,33.784 -2.679,8.25 -7.183,15.646 -10.401,23.628 -0.711,1.765 -2.498,2.069 -3.959,2.793 -12.384,6.136 -24.682,12.425 -36.367,19.848 -23.857,15.155 -46.999,31.352 -69.846,47.975 -6.752,4.911 -14.945,6.313 -22.358,9.606 -16.482,7.321 -33.596,9.8 -51.603,7.543 -9.71,-1.218 -19.611,-0.587 -29.429,-0.976 -31.198,-1.235 -60.428,-9.638 -89.229,-21.216 -16.761,-6.738 -30.931,-17.357 -46.436,-25.905 -14.933,-8.233 -27.96,-19.112 -42.506,-27.831 -7.442,-4.461 -13.251,-11.571 -20.119,-17.083 -12.101,-9.71 -22.226,-21.434 -32.912,-32.512 -11.546,-11.971 -17.46,-27.239 -20.82,-43.527 -2.973,-14.426 -4.324,-28.952 -4.192,-43.653 z"
   id="path27"
   inkscape:connector-curvature="0"
   style="fill:#b50000;fill-rule:evenodd" /><path
   clip-rule="evenodd"
   d="m 167.205,592.995 c 0.433,-5.681 2.22,-15.31 5.159,-24.99 4.655,-15.327 14.748,-26.497 24.904,-37.971 4.342,-4.906 9.279,-8.89 14.384,-12.892 12.013,-9.414 23.786,-19.12 33.113,-31.438 3.832,-5.062 5.794,-10.956 7.306,-16.738 5.153,-19.71 13.708,-38.156 20.253,-57.33 2.79,-8.173 5.521,-16.287 9.31,-24.076 9.673,-19.886 25.392,-30.899 47.305,-33.604 18.356,-2.266 36.778,-3.296 55.238,-4.032 22.45,-0.896 44.946,-1.299 67.323,-3.137 19.544,-1.605 38.949,-4.791 56.462,-14.836 4.719,-2.706 10.47,-1.492 15.589,-2.838 10.399,-2.734 18.179,2.236 25.912,8.11 5.151,3.913 10.81,7.154 16.181,10.784 7.476,5.052 13.854,11.363 20.188,17.73 8.118,8.163 14.412,17.785 21.599,26.693 4.382,5.43 9.061,10.62 13.538,15.973 1.476,1.764 4.127,4.422 3.214,5.704 -1.216,1.706 -4.157,-0.34 -6.293,-0.891 -23.041,-5.951 -46.396,-10.352 -70.102,-12.138 -28.827,-2.173 -56.473,2.854 -83.196,14.381 -19.452,8.39 -38.139,17.997 -56.399,28.661 -12.656,7.391 -24.319,16.061 -36.198,24.558 -10.633,7.606 -19.77,16.701 -29.66,25.029 -14.748,12.416 -26.479,27.479 -38.871,41.938 -9.924,11.58 -19.314,23.746 -27.702,36.47 -5.917,8.976 -11.784,18.123 -16.893,27.621 -18.639,34.648 -30.178,71.396 -31.816,110.951 -0.033,0.795 0.084,1.945 -0.363,2.294 -0.706,0.55 -1.015,-0.52 -1.266,-1.033 -4.918,-10.046 -13.061,-17.078 -21.942,-23.383 -2.781,-1.975 -4.833,-4.438 -6.643,-7.308 -7.642,-12.118 -15.327,-24.374 -19.977,-37.866 -5.12,-14.851 -10.131,-29.986 -9.657,-50.396 z"
   id="path29"
   inkscape:connector-curvature="0"
   style="fill:#b50000;fill-rule:evenodd" /><path
   clip-rule="evenodd"
   d="m 153.198,692.779 c 13.664,-0.271 27.901,2.37 39.866,12.16 8.446,6.911 15.128,15.434 19.968,25.207 5.528,11.164 10.066,22.644 13.588,34.732 4.545,15.601 11.166,30.632 20.339,44.281 13.746,20.451 31.376,37.414 49.303,54.025 9.739,9.023 19.546,18.27 30.556,25.551 15.026,9.938 28.995,21.411 45.301,29.626 13.631,6.866 26.461,15.534 40.742,21.023 25.599,9.839 51.678,18.099 79.221,20.902 15.236,1.552 30.453,2.972 45.775,3.086 0.99,0.007 1.99,0.133 2.965,0.317 0.787,0.148 1.988,0.266 2.21,0.757 0.375,0.829 -0.825,1.24 -1.297,1.876 -5.54,7.472 -11.831,14.277 -18.602,20.618 -5.937,5.56 -12.281,10.689 -18.144,16.323 -12.279,11.8 -25.841,21.904 -40.737,30.019 -20.919,11.396 -42.364,9.42 -63.551,0.615 -16.277,-6.765 -31.658,-15.439 -47.1,-23.868 -9.923,-5.416 -19.764,-11.043 -30.133,-15.438 -11.167,-4.733 -23.233,-6.86 -35.054,-9.508 -17.837,-3.995 -35.96,-6.839 -53.217,-13.119 -12.407,-4.516 -24.488,-9.807 -33.17,-20.339 -12.747,-15.464 -20.452,-33.244 -24.145,-52.934 -3.236,-17.253 -3.052,-34.785 -4.856,-52.152 -2.573,-24.765 -6.181,-49.178 -18.058,-71.572 -6.659,-12.556 -14.959,-23.594 -25.402,-33.492 -10.375,-9.834 -21.467,-18.306 -33.804,-25.271 -3.519,-1.986 -3.25,-3.051 -0.259,-5.35 16.645,-12.792 35.564,-18.292 57.695,-18.075 z"
   id="path31"
   inkscape:connector-curvature="0"
   style="fill:#b50000;fill-rule:evenodd" /><path
   clip-rule="evenodd"
   d="m 590.509,337.783 c 22.45,4.425 44.555,-0.441 66.927,-4.218 12.692,-2.143 25.039,-6.149 38.115,-6.543 27.511,-0.829 47.671,11.562 63.497,33.071 9.214,12.522 14.579,26.809 19.938,41.076 7.903,21.044 13.807,42.766 17.494,64.894 2.842,17.049 6.049,34.013 9.521,50.922 2.278,11.09 7.119,21.236 12.405,31.371 6.921,13.27 17.024,24.178 24.65,36.855 5.382,8.948 7.176,17.983 5.767,28.441 -2.306,17.103 -3.511,34.36 -4.951,51.571 -0.859,10.266 -1.316,20.566 -1.876,30.855 -0.135,2.466 -1.422,4.42 -2.479,6.463 -7.056,13.618 -13.584,27.496 -16.671,42.596 -3.01,14.72 -7.252,29.056 -13.002,42.852 -4.399,10.556 -9.443,21.191 -17.82,29.171 -7.039,6.706 -15.548,11.849 -23.213,17.927 -3.844,3.048 -7.946,5.462 -12.598,6.826 -1.466,0.43 -3.375,1.892 -4.597,0.429 -0.557,-0.667 0.427,-2.733 0.881,-4.109 4.768,-14.477 9.483,-28.962 13.926,-43.551 4.738,-15.558 7.045,-31.459 8.387,-47.449 1.867,-22.249 5.7,-44.133 9.687,-66.038 3.21,-17.636 4.74,-35.409 -0.512,-52.897 -3.592,-11.959 -9.533,-22.916 -16.414,-33.367 -7.956,-12.083 -14.604,-24.868 -20.455,-38.122 -5.504,-12.467 -12.495,-24.211 -19.372,-35.957 -2.788,-4.763 -4.586,-9.971 -7.441,-14.611 -11.498,-18.691 -22.728,-37.576 -34.975,-55.771 -10.365,-15.397 -21.451,-30.323 -33.117,-44.834 -16.416,-20.419 -34.552,-39.122 -53.696,-56.91 -3.038,-2.822 -6.493,-5.193 -9.719,-7.817 -0.86,-0.7 -2.541,-1.317 -2.151,-2.412 0.563,-1.588 2.31,-0.252 3.864,-0.714 z"
   id="path33"
   inkscape:connector-curvature="0"
   style="fill:#b50000;fill-rule:evenodd" /><path
   clip-rule="evenodd"
   d="m 614.139,655.163 c 0.126,-12.01 0.146,-24.111 -4.704,-35.343 -9.604,-22.246 -18.09,-26.268 -40.297,-25.719 -14.133,0.35 -28.146,2.693 -41.307,8.374 -10.091,4.355 -19.146,10.524 -25.52,19.438 -5.918,8.276 -7.279,18.497 -8.172,28.43 -1.278,14.229 0.418,28.371 4.69,41.915 3.588,11.375 9.611,21.572 20.416,27.985 0.819,0.486 2.22,1.062 1.86,2.043 -0.384,1.05 -1.679,0.24 -2.567,0.108 -13.156,-1.946 -26.437,-4 -38.069,-10.729 -9.249,-5.349 -15.854,-13.604 -18.878,-24.126 -6.552,-22.791 -10.662,-45.947 -10.59,-69.784 0.039,-12.752 3.568,-24.198 10.924,-34.527 3.573,-5.017 9.389,-7.066 14.526,-9.223 12.273,-5.151 23.892,-11.604 36.022,-16.997 5.926,-2.635 11.817,-5.351 17.658,-8.168 4.11,-1.982 8.434,-3.228 12.929,-3.429 25.818,-1.155 51.584,-1.193 76.401,7.485 10.19,3.564 20.245,7.573 28.238,15.396 9.648,9.443 13.497,21.571 15.999,34.23 2.232,11.294 2.935,22.838 2.084,34.282 -0.786,10.563 -2.795,21.037 -4.319,31.542 -2.34,16.124 -4.246,32.269 -2.771,48.609 0.5,5.538 4.385,9.341 10.332,9.263 3.465,-0.045 3.259,0.994 2.343,3.601 -2.974,8.453 -7.792,15.564 -13.852,22.189 -9.687,10.593 -20.926,19.35 -31.619,28.784 -13.75,12.131 -28.729,22.573 -43.653,33.069 -11.01,7.742 -22.836,14.287 -35.014,20.116 -7.894,3.779 -15.53,0.882 -22.73,-1.622 -17.179,-5.974 -33.311,-14.34 -48.13,-24.883 -16.508,-11.744 -32.425,-24.316 -48.908,-36.096 -10.941,-7.818 -22.196,-15.264 -33.733,-22.168 -10.922,-6.536 -16.699,-16.257 -18.471,-28.187 -1.981,-13.337 -5.032,-26.449 -7.174,-39.735 -0.309,-1.916 -1.427,-4.712 0.004,-5.7 1.688,-1.167 3.558,1.229 5.015,2.395 11.772,9.423 25.229,16.085 38.266,23.407 9.564,5.373 18.772,11.557 29.024,15.514 20.725,8.001 40.027,19.877 62.038,24.262 21.238,4.231 42.808,6.773 64.33,1.949 12.885,-2.888 23.486,-10.051 31.267,-20.804 10.266,-14.188 14.464,-30.38 15.337,-47.714 0.327,-6.476 0.774,-12.943 0.775,-19.432 z"
   id="path35"
   inkscape:connector-curvature="0"
   style="fill:#b50000;fill-rule:evenodd" /><path
   clip-rule="evenodd"
   d="m 722.834,573.604 c 1.211,23.636 -2.736,44.967 -13.681,64.43 -6.974,12.401 -14.087,24.952 -25.096,34.53 -0.833,0.725 -1.422,2.474 -2.564,1.932 -1.381,-0.654 -0.571,-2.395 -0.387,-3.569 2.072,-13.133 4.478,-26.217 6.323,-39.38 2.504,-17.857 4.453,-35.929 -1.501,-53.392 -4.751,-13.934 -11.993,-26.268 -25.126,-34.778 -21.643,-14.025 -45.307,-21 -70.688,-23.498 -11.941,-1.175 -23.86,-2.496 -35.856,-1.855 -17.579,0.938 -35.212,2.136 -51.732,8.903 -10.548,4.32 -20.441,9.875 -29.824,16.594 -7.375,5.281 -14.142,10.95 -19.71,17.976 -15.418,19.454 -24.467,41.541 -27.004,66.303 -1.142,11.146 -1.312,22.273 -0.221,33.406 0.267,2.721 -0.824,3.121 -3.069,2.951 -16.532,-1.248 -32.359,-5.046 -45.81,-15.136 -15.213,-11.413 -21.014,-27.775 -21.917,-46.136 -1.207,-24.519 5.108,-47.749 12.387,-70.825 2.549,-8.08 5.796,-15.908 7.898,-24.166 1.727,-6.78 6.486,-11.804 11.98,-16.155 17.372,-13.756 37.213,-22.06 58.444,-27.844 13.894,-3.786 27.451,-8.456 40.359,-15.433 9.574,-5.174 17.677,-12.869 28.585,-15.877 17.399,-4.799 35.012,-5.705 52.868,-4.797 10.956,0.558 21.934,0.711 32.816,2.328 9.547,1.419 18.494,5.36 28.117,6.51 3.669,0.438 7.22,0.458 10.896,0.069 5.501,-0.581 10.879,0.975 14.434,5.101 7.476,8.677 13.82,18.196 19.863,27.988 5.406,8.761 10.648,17.711 16.802,25.97 4.64,6.228 6.948,13.633 11.255,19.909 6.963,10.151 10.972,21.971 18.405,31.836 2.656,3.525 2.442,7.9 2.68,11.996 0.302,5.146 0.074,10.323 0.074,14.109 z"
   id="path37"
   inkscape:connector-curvature="0"
   style="fill:#b50000;fill-rule:evenodd" /><path
   clip-rule="evenodd"
   d="m 902.703,790.086 c -0.68,18.354 -1.524,35.08 -5.279,51.538 -3.138,13.752 -10.072,25.525 -17.928,36.984 -10.509,15.329 -24.588,27.008 -39.983,36.57 -12.026,7.47 -25.167,13.386 -38.503,18.694 -16.051,6.39 -33.151,8.295 -49.508,13.154 -10.993,3.266 -21.023,8.34 -30.253,15.738 -12.496,10.017 -20.184,23.217 -28.157,36.422 -10.582,17.523 -24.645,30.859 -43.934,38.619 -8.974,3.609 -17.241,2.13 -25.673,-0.938 -11.369,-4.136 -22.26,-9.715 -34.267,-11.925 -15.9,-2.927 -30.423,-0.052 -42.754,11.068 -0.863,0.778 -1.812,1.467 -2.747,2.162 -1.665,1.239 -3.381,3.878 -5.346,2.563 -1.502,-1.006 -1.06,-3.948 -0.974,-6.141 0.441,-11.326 4.368,-21.776 7.997,-32.302 1.352,-3.92 2.785,-7.813 4.257,-11.69 5.252,-13.835 16.808,-19.853 30.015,-22.886 10.925,-2.509 19.831,-8.367 28.489,-14.743 14.331,-10.553 28.699,-21.094 43.231,-31.322 21.293,-14.988 43.281,-29.013 66.128,-41.684 15.422,-8.553 32.508,-12.666 48.301,-20.045 19.585,-9.151 37.623,-20.188 50.072,-38.838 15.797,-23.668 30.484,-47.832 40.348,-74.696 2.285,-6.224 4.797,-12.369 6.944,-18.655 1.186,-3.471 4.706,-4.422 6.794,-1.602 6.253,8.447 14.463,15.164 20.609,23.659 9.035,12.489 11.85,26.828 12.121,40.296 z"
   id="path39"
   inkscape:connector-curvature="0"
   style="fill:#b50000;fill-rule:evenodd" /><path
   clip-rule="evenodd"
   d="m 20.868,198.247 c -0.239,-23.117 1.962,-45.116 3.73,-67.164 1.249,-15.569 2.331,-31.142 4.327,-46.637 0.109,-0.848 -0.521,-2.322 0.677,-2.398 0.955,-0.061 1.169,1.438 1.337,2.389 1.329,7.546 3.589,14.841 5.928,22.113 6.921,21.519 13.918,43.06 24.26,63.208 8.416,16.396 16.321,33.154 26.997,48.274 10.42,14.757 20.419,29.753 32.862,43.12 8.308,8.925 17.794,16.359 26.314,24.905 12.342,12.379 26.444,22.697 40.1,33.409 12.042,9.446 22.838,20.236 34.837,29.696 6.838,5.392 12.069,12.792 18.206,19.111 5.35,5.509 9.785,11.649 13.763,18.176 0.886,1.453 1.89,2.604 0.786,4.469 -5.079,8.57 -7.239,18.558 -13.35,26.69 -5.526,7.355 -7.321,7.613 -15.088,2.508 -14.149,-9.301 -28.673,-17.747 -44.764,-23.695 -16.498,-6.098 -32.019,-14.823 -48.488,-21.014 -19.767,-7.43 -38.186,-17.409 -55.748,-28.686 -13.946,-8.955 -25.758,-20.813 -33.806,-35.917 -7.639,-14.335 -13.944,-29.167 -17.006,-45.103 -2.219,-11.549 -3.364,-23.315 -4.727,-35.016 -1.291,-11.087 -1.27,-22.25 -1.147,-32.438 z"
   id="path41"
   inkscape:connector-curvature="0"
   style="fill:#007722;fill-rule:evenodd" /><path
   clip-rule="evenodd"
   d="m 862.221,692.808 c 0.726,-20.021 2.89,-40.519 5.292,-61.005 1.72,-14.671 4.753,-29.271 3.097,-44.189 -2.054,-18.495 -10.173,-34.181 -20.633,-49.403 -9.039,-13.156 -19.5,-25.667 -24.663,-41.279 -3.453,-10.441 -4.743,-21.334 -7.263,-31.968 -6.076,-25.647 -10.538,-51.686 -19.165,-76.699 -1.351,-3.913 -1.995,-8.103 -3.628,-11.878 -1.72,-3.976 0.336,-3.677 2.954,-3.375 11.243,1.3 22.132,4.156 32.879,7.585 13.278,4.237 25.534,10.757 38.097,16.672 12.444,5.86 23.118,13.83 33.278,22.786 1.235,1.089 2.69,1.65 0.964,3.818 -13.232,16.605 -14.715,35.479 -10.932,55.581 4.284,22.76 15.504,42.553 25.581,62.921 8.241,16.66 17.758,32.709 24.518,50.088 5.584,14.357 9.435,29.151 8.184,44.677 -0.88,10.913 -3.894,21.514 -12.053,29.341 -10.213,9.8 -21.493,18.261 -34.619,24.068 -11.243,4.975 -23.064,8.25 -34.589,12.392 -6.523,2.344 -6.988,1.866 -7.29,-5.031 -0.065,-1.498 -0.009,-3 -0.009,-5.102 z"
   id="path43"
   inkscape:connector-curvature="0"
   style="fill:#b50000;fill-rule:evenodd" /><path
   clip-rule="evenodd"
   d="m 161.026,412.15 c 5.613,-0.058 10.759,1.169 15.704,4.083 3.974,2.342 8.518,3.702 12.764,5.601 12.016,5.373 22.931,12.621 33.592,20.224 2.971,2.117 2.446,6.083 2.381,9.276 -0.137,6.817 -2.354,13.179 -6.61,18.48 -6.616,8.243 -13.137,16.664 -20.627,24.07 -5.651,5.588 -11.729,10.81 -17.278,16.542 -10.915,11.273 -20.66,23.648 -27.578,37.62 -5.941,11.999 -9.585,25.119 -10.368,38.771 -1.079,18.797 2.177,37.151 5.761,55.439 1.445,7.374 1.488,14.881 2.918,22.228 0.582,2.99 -1.492,1.779 -2.721,1.597 -12.174,-1.805 -22.563,-6.959 -31.935,-15.127 -13.384,-11.666 -17.478,-27.435 -21.043,-43.576 -4.253,-19.256 -5.083,-38.896 -6,-58.505 -1.096,-23.429 -1.697,-46.891 -6.034,-70.044 -2.03,-10.835 -5.79,-21.163 -9.554,-31.433 -1.133,-3.092 -0.245,-3.738 1.766,-4.686 3.76,-1.772 7.558,-3.467 11.373,-5.117 14.338,-6.202 28.664,-12.436 43.046,-18.534 9.719,-4.12 19.862,-6.54 30.443,-6.909 z"
   id="path45"
   inkscape:connector-curvature="0"
   style="fill:#b50000;fill-rule:evenodd" /><path
   clip-rule="evenodd"
   d="m 281.884,315.066 c 0.331,5.124 -0.909,10.503 -2.49,15.733 -3.606,11.929 -7.487,23.771 -12.589,35.179 -1.224,2.736 -2.162,3.486 -4.28,0.732 -10.039,-13.053 -21.713,-24.513 -33.627,-35.869 -10.955,-10.442 -22.725,-19.959 -34.55,-29.132 C 180.307,290.815 167.125,278.96 153.407,267.737 143.96,260.009 134.839,251.355 127.57,241.624 117.776,228.514 107.078,216.061 99.162,201.392 92.397,188.857 84.004,177.037 78.181,164.031 68.074,141.455 57.977,118.786 51.69,94.726 50.225,89.121 49.382,83.353 48.291,77.654 c -0.132,-0.689 -0.784,-1.699 0.427,-1.964 0.363,-0.079 1.077,0.674 1.374,1.192 4.419,7.708 10.406,14.21 16.124,20.906 14.912,17.464 31.178,33.643 48.795,48.307 8.862,7.377 18.237,14.264 28.305,20.195 17.016,10.023 33.684,20.629 50.189,31.513 29.408,19.393 53.639,43.82 73.651,72.633 8.776,12.637 14.774,30.602 14.728,44.63 z"
   id="path47"
   inkscape:connector-curvature="0"
   style="fill:#007722;fill-rule:evenodd" /><path
   clip-rule="evenodd"
   d="m 642.011,310.962 c -13.192,0.234 -26.113,-2.596 -39.226,-3.466 -19.327,-1.284 -38.644,-1.249 -57.923,-0.258 -20.256,1.042 -40.519,3.104 -60.272,7.848 -31.203,7.493 -62.941,10.544 -94.816,12.561 -19.313,1.223 -38.626,0.084 -57.856,-2.006 -8.726,-0.948 -17.396,-2.413 -26.126,-3.308 -3.144,-0.322 -4.445,-1.212 -4.132,-4.526 0.408,-4.313 0.223,-8.658 -0.601,-12.941 -0.419,-2.178 0.151,-3.987 2.006,-5.239 10.317,-6.957 19.411,-15.686 30.463,-21.548 17.904,-9.494 35.6,-19.496 54.042,-27.827 17.122,-7.735 33.915,-16.071 50.678,-24.495 5.809,-2.919 10.428,-3.746 16.677,0.326 20.047,13.063 42.389,21.358 64.963,29.005 18.726,6.343 37.723,11.889 56.16,19.08 16.313,6.362 31.441,15.063 46.671,23.574 6.844,3.824 13.38,8.053 19.258,13.258 l 0.034,-0.038 z"
   id="path49"
   inkscape:connector-curvature="0"
   style="fill:#b50000;fill-rule:evenodd" /><path
   clip-rule="evenodd"
   d="m 568.848,620.149 c 3.514,-0.844 6.543,0.467 8.383,4.748 10.398,24.201 11.65,48.546 1.189,73.031 -1.422,3.33 -3.658,6.338 -5.709,9.366 -2.173,3.208 -5.254,4.538 -9.1,3.429 -9.56,-2.759 -19.222,-5.206 -28.479,-8.922 -6.949,-2.789 -12.205,-7.204 -14.433,-14.733 -3.51,-11.862 -6.175,-23.826 -4.793,-36.301 1.353,-12.197 7.665,-20.534 19.382,-24.76 10.608,-3.823 21.562,-5.429 33.56,-5.858 z"
   id="path51"
   inkscape:connector-curvature="0"
   style="fill:#b50000;fill-rule:evenodd" /><polygon
   clip-rule="evenodd"
   points="642.115,311.129 642.012,310.962 641.976,310.999 "
   id="polygon53"
   style="fill:#b50000;fill-rule:evenodd" />
</svg>