<?xml version="1.0" encoding="UTF-8" standalone="no"?>
<!-- Created with Inkscape (http://www.inkscape.org/) -->

<svg
   xmlns:dc="http://purl.org/dc/elements/1.1/"
   xmlns:cc="http://creativecommons.org/ns#"
   xmlns:rdf="http://www.w3.org/1999/02/22-rdf-syntax-ns#"
   xmlns:svg="http://www.w3.org/2000/svg"
   xmlns="http://www.w3.org/2000/svg"
   version="1.1"
   width="453"
   height="453"
   id="svg2"
   xml:space="preserve"><metadata
     id="metadata8"><rdf:RDF><cc:Work
         rdf:about=""><dc:format>image/svg+xml</dc:format><dc:type
           rdf:resource="http://purl.org/dc/dcmitype/StillImage" /><dc:title></dc:title></cc:Work></rdf:RDF></metadata><defs
     id="defs6"><clipPath
       id="clipPath18"><path
         d="m 0,0 3630,0 0,3630 L 0,3630 0,0 z"
         id="path20" /></clipPath><clipPath
       id="clipPath48"><path
         d="m 896.02,3015.99 c 0,-66.25 -53.75,-120 -120,-120 -66.29,0 -120,53.75 -120,120 0,66.29 53.71,120 120,120 66.25,0 120,-53.71 120,-120 z"
         id="path50" /></clipPath><radialGradient
       cx="122.556"
       cy="91.780602"
       r="7.75"
       fx="122.556"
       fy="91.780602"
       id="radialGradient52"
       gradientUnits="userSpaceOnUse"
       gradientTransform="matrix(-1.12781,-1.88954,-1.37388,0.820027,346.994,460.157)"
       spreadMethod="pad"><stop
         id="stop54"
         style="stop-color:#c60000;stop-opacity:1"
         offset="0" /><stop
         id="stop56"
         style="stop-color:#ff3131;stop-opacity:1"
         offset="1" /></radialGradient><clipPath
       id="clipPath64"><path
         d="m 0,0 3630,0 0,3630 L 0,3630 0,0 z"
         id="path66" /></clipPath><clipPath
       id="clipPath74"><path
         d="m 2008.01,1812.01 c 0,-108.24 -87.78,-196.02 -196.02,-196.02 -108.24,0 -195.97,87.78 -195.97,196.02 0,108.24 87.73,195.97 195.97,195.97 108.24,0 196.02,-87.73 196.02,-195.97 z"
         id="path76" /></clipPath><radialGradient
       cx="122.556"
       cy="91.780602"
       r="7.75"
       fx="122.556"
       fy="91.780602"
       id="radialGradient78"
       gradientUnits="userSpaceOnUse"
       gradientTransform="matrix(-1.84209,-3.08625,-2.24401,1.33938,621.211,440.177)"
       spreadMethod="pad"><stop
         id="stop80"
         style="stop-color:#000000;stop-opacity:1"
         offset="0" /><stop
         id="stop82"
         style="stop-color:#212121;stop-opacity:1"
         offset="1" /></radialGradient><clipPath
       id="clipPath90"><path
         d="m 0,0 3630,0 0,3630 L 0,3630 0,0 z"
         id="path92" /></clipPath><clipPath
       id="clipPath100"><path
         d="m 2016.02,2815.99 c 0,-66.25 -53.75,-120 -120,-120 -66.29,0 -120,53.75 -120,120 0,66.29 53.71,120 120,120 66.25,0 120,-53.71 120,-120 z"
         id="path102" /></clipPath><radialGradient
       cx="122.556"
       cy="91.780602"
       r="7.75"
       fx="122.556"
       fy="91.780602"
       id="radialGradient104"
       gradientUnits="userSpaceOnUse"
       gradientTransform="matrix(-1.12781,-1.88954,-1.37388,0.820027,458.994,440.157)"
       spreadMethod="pad"><stop
         id="stop106"
         style="stop-color:#c60000;stop-opacity:1"
         offset="0" /><stop
         id="stop108"
         style="stop-color:#ff3131;stop-opacity:1"
         offset="1" /></radialGradient><clipPath
       id="clipPath116"><path
         d="m 0,0 3630,0 0,3630 L 0,3630 0,0 z"
         id="path118" /></clipPath><clipPath
       id="clipPath126"><path
         d="m 656.02,1455.99 c 0,-66.25 -53.75,-120 -120,-120 -66.29,0 -120,53.75 -120,120 0,66.29 53.71,120 120,120 66.25,0 120,-53.71 120,-120 z"
         id="path128" /></clipPath><radialGradient
       cx="122.556"
       cy="91.780602"
       r="7.75"
       fx="122.556"
       fy="91.780602"
       id="radialGradient130"
       gradientUnits="userSpaceOnUse"
       gradientTransform="matrix(-1.12781,-1.88954,-1.37388,0.820027,322.994,304.157)"
       spreadMethod="pad"><stop
         id="stop132"
         style="stop-color:#c60000;stop-opacity:1"
         offset="0" /><stop
         id="stop134"
         style="stop-color:#ff3131;stop-opacity:1"
         offset="1" /></radialGradient><clipPath
       id="clipPath142"><path
         d="m 0,0 3630,0 0,3630 L 0,3630 0,0 z"
         id="path144" /></clipPath><clipPath
       id="clipPath152"><path
         d="m 1251.99,1812.01 c 0,-66.29 -53.71,-120 -120,-120 -66.25,0 -120,53.71 -120,120 0,66.25 53.75,120 120,120 66.29,0 120,-53.75 120,-120 z"
         id="path154" /></clipPath><radialGradient
       cx="122.556"
       cy="91.780602"
       r="7.75"
       fx="122.556"
       fy="91.780602"
       id="radialGradient156"
       gradientUnits="userSpaceOnUse"
       gradientTransform="matrix(-1.12781,-1.88954,-1.37388,0.820027,382.594,339.757)"
       spreadMethod="pad"><stop
         id="stop158"
         style="stop-color:#c60000;stop-opacity:1"
         offset="0" /><stop
         id="stop160"
         style="stop-color:#ff3131;stop-opacity:1"
         offset="1" /></radialGradient><clipPath
       id="clipPath168"><path
         d="m 0,0 3630,0 0,3630 L 0,3630 0,0 z"
         id="path170" /></clipPath><clipPath
       id="clipPath178"><path
         d="m 2296.02,575.988 c 0,-66.25 -53.75,-120 -120,-120 -66.29,0 -120,53.75 -120,120 0,66.293 53.71,120 120,120 66.25,0 120,-53.707 120,-120 z"
         id="path180" /></clipPath><radialGradient
       cx="122.556"
       cy="91.780602"
       r="7.75"
       fx="122.556"
       fy="91.780602"
       id="radialGradient182"
       gradientUnits="userSpaceOnUse"
       gradientTransform="matrix(-1.12781,-1.88954,-1.37388,0.820027,486.994,216.157)"
       spreadMethod="pad"><stop
         id="stop184"
         style="stop-color:#c60000;stop-opacity:1"
         offset="0" /><stop
         id="stop186"
         style="stop-color:#ff3131;stop-opacity:1"
         offset="1" /></radialGradient><clipPath
       id="clipPath194"><path
         d="m 0,0 3630,0 0,3630 L 0,3630 0,0 z"
         id="path196" /></clipPath><clipPath
       id="clipPath204"><path
         d="m 3456.02,855.988 c 0,-66.25 -53.75,-120 -120,-120 -66.29,0 -120,53.75 -120,120 0,66.293 53.71,120 120,120 66.25,0 120,-53.707 120,-120 z"
         id="path206" /></clipPath><radialGradient
       cx="122.556"
       cy="91.780602"
       r="7.75"
       fx="122.556"
       fy="91.780602"
       id="radialGradient208"
       gradientUnits="userSpaceOnUse"
       gradientTransform="matrix(-1.12781,-1.88954,-1.37388,0.820027,602.994,244.157)"
       spreadMethod="pad"><stop
         id="stop210"
         style="stop-color:#c60000;stop-opacity:1"
         offset="0" /><stop
         id="stop212"
         style="stop-color:#ff3131;stop-opacity:1"
         offset="1" /></radialGradient><clipPath
       id="clipPath220"><path
         d="m 0,0 3630,0 0,3630 L 0,3630 0,0 z"
         id="path222" /></clipPath></defs><g
     transform="matrix(1.25,0,0,-1.25,0,453)"
     id="g10"><g
       transform="scale(0.1,0.1)"
       id="g12"><g
         id="g14"><g
           clip-path="url(#clipPath18)"
           id="g16"><g
             transform="scale(0.944034,-1.05597)"
             id="g22"><path
               d="m 3813.43,-1715.98 c 0,261.5 -847.98,473.5 -1894.01,473.5 -1046.011,0 -1894.0137,-212 -1894.0137,-473.5 0,-261.49 848.0027,-473.49 1894.0137,-473.49 1046.03,0 1894.01,212 1894.01,473.49 z"
               id="path24"
               style="fill:none;stroke:#004fba;stroke-width:24.03770065;stroke-linecap:round;stroke-linejoin:round;stroke-miterlimit:4;stroke-opacity:1;stroke-dasharray:none" /></g><g
             transform="matrix(0,-0.944034,-1.05597,0,0,0)"
             id="g26"><path
               d="m -25.4187,-1715.95 c 0,261.49 -847.9733,473.5 -1894.0113,473.5 -1046.01,0 -1894.01,-212.01 -1894.01,-473.5 0,-261.5 848,-473.5 1894.01,-473.5 1046.038,0 1894.0113,212 1894.0113,473.5 z"
               id="path28"
               style="fill:none;stroke:#004fba;stroke-width:24.03770065;stroke-linecap:round;stroke-linejoin:round;stroke-miterlimit:4;stroke-opacity:1;stroke-dasharray:none" /></g><g
             transform="matrix(0.188243,-0.45446,-0.959754,-0.397543,0,0)"
             id="g30"><path
               d="m 1641.3,-2279.01 c -0.05,501.87 -1627.3902,908.75 -3634.91,908.73 -2007.45,0.01 -3634.84,-406.85 -3634.79,-908.72 -0.05,-501.85 1627.37,-908.71 3634.81,-908.71 2007.4504,0 3634.85,406.86 3634.89,908.7 z"
               id="path32"
               style="fill:none;stroke:#004fba;stroke-width:33.57369995;stroke-linecap:round;stroke-linejoin:round;stroke-miterlimit:4;stroke-opacity:1;stroke-dasharray:none" /></g><path
             d="m 3611.99,1812.01 c 0,-994.1 -805.9,-1799.9983 -1800,-1799.9983 C 817.891,12.0117 11.9883,817.91 11.9883,1812.01 c 0,994.1 805.9027,1800 1800.0017,1800 994.1,0 1800,-805.9 1800,-1800 z"
             id="path34"
             style="fill:none;stroke:#004fba;stroke-width:24;stroke-linecap:round;stroke-linejoin:round;stroke-miterlimit:4;stroke-opacity:1;stroke-dasharray:none" /><g
             transform="matrix(-0.45446,-0.188243,-0.397543,0.959754,0,0)"
             id="g36"><path
               d="m -1178.08,943.98 c 0.02,501.88 -1627.4,908.74 -3634.84,908.74 -2007.45,0 -3634.85,-406.86 -3634.87,-908.74 0.02,-501.838 1627.37,-908.7124 3634.89,-908.6914 2007.45,-0.0116 3634.84,406.8534 3634.82,908.6914 z"
               id="path38"
               style="fill:none;stroke:#004fba;stroke-width:33.57369995;stroke-linecap:round;stroke-linejoin:round;stroke-miterlimit:4;stroke-opacity:1;stroke-dasharray:none" /></g><g
             transform="matrix(-0.472017,-0.472017,-0.527983,0.527983,0,0)"
             id="g40"><path
               d="M -1160.35,0.0184937 C -1160.31,369.826 -2359.54,669.603 -3838.85,669.64 -5318.15,669.603 -6517.38,369.826 -6517.34,0.0185547 -6517.34,-369.844 -5318.15,-669.662 -3838.85,-669.625 c 1479.31,-0.037 2678.5,299.781 2678.5,669.6434937 z"
               id="path42"
               style="fill:none;stroke:#004fba;stroke-width:33.99440002;stroke-linecap:round;stroke-linejoin:round;stroke-miterlimit:4;stroke-opacity:1;stroke-dasharray:none" /></g></g></g><g
         id="g44"><g
           clip-path="url(#clipPath48)"
           id="g46"><path
             d="m 896.02,3015.99 c 0,-66.25 -53.75,-120 -120,-120 -66.29,0 -120,53.75 -120,120 0,66.29 53.71,120 120,120 66.25,0 120,-53.71 120,-120"
             id="path58"
             style="fill:url(#radialGradient52);fill-opacity:1;fill-rule:nonzero;stroke:none" /></g></g><g
         id="g60"><g
           clip-path="url(#clipPath64)"
           id="g62"><path
             d="m 896.02,3015.99 c 0,-66.25 -53.75,-120 -120,-120 -66.29,0 -120,53.75 -120,120 0,66.29 53.71,120 120,120 66.25,0 120,-53.71 120,-120 z"
             id="path68"
             style="fill:none;stroke:#000000;stroke-width:8;stroke-linecap:round;stroke-linejoin:round;stroke-miterlimit:4;stroke-opacity:1;stroke-dasharray:none" /></g></g><g
         id="g70"><g
           clip-path="url(#clipPath74)"
           id="g72"><path
             d="m 2008.01,1812.01 c 0,-108.24 -87.78,-196.02 -196.02,-196.02 -108.24,0 -195.97,87.78 -195.97,196.02 0,108.24 87.73,195.97 195.97,195.97 108.24,0 196.02,-87.73 196.02,-195.97"
             id="path84"
             style="fill:url(#radialGradient78);fill-opacity:1;fill-rule:nonzero;stroke:none" /></g></g><g
         id="g86"><g
           clip-path="url(#clipPath90)"
           id="g88"><path
             d="m 2008.01,1812.01 c 0,-108.24 -87.78,-196.02 -196.02,-196.02 -108.24,0 -195.97,87.78 -195.97,196.02 0,108.24 87.73,195.97 195.97,195.97 108.24,0 196.02,-87.73 196.02,-195.97 z"
             id="path94"
             style="fill:none;stroke:#000000;stroke-width:8;stroke-linecap:round;stroke-linejoin:round;stroke-miterlimit:4;stroke-opacity:1;stroke-dasharray:none" /></g></g><g
         id="g96"><g
           clip-path="url(#clipPath100)"
           id="g98"><path
             d="m 2016.02,2815.99 c 0,-66.25 -53.75,-120 -120,-120 -66.29,0 -120,53.75 -120,120 0,66.29 53.71,120 120,120 66.25,0 120,-53.71 120,-120"
             id="path110"
             style="fill:url(#radialGradient104);fill-opacity:1;fill-rule:nonzero;stroke:none" /></g></g><g
         id="g112"><g
           clip-path="url(#clipPath116)"
           id="g114"><path
             d="m 2016.02,2815.99 c 0,-66.25 -53.75,-120 -120,-120 -66.29,0 -120,53.75 -120,120 0,66.29 53.71,120 120,120 66.25,0 120,-53.71 120,-120 z"
             id="path120"
             style="fill:none;stroke:#000000;stroke-width:8;stroke-linecap:round;stroke-linejoin:round;stroke-miterlimit:4;stroke-opacity:1;stroke-dasharray:none" /></g></g><g
         id="g122"><g
           clip-path="url(#clipPath126)"
           id="g124"><path
             d="m 656.02,1455.99 c 0,-66.25 -53.75,-120 -120,-120 -66.29,0 -120,53.75 -120,120 0,66.29 53.71,120 120,120 66.25,0 120,-53.71 120,-120"
             id="path136"
             style="fill:url(#radialGradient130);fill-opacity:1;fill-rule:nonzero;stroke:none" /></g></g><g
         id="g138"><g
           clip-path="url(#clipPath142)"
           id="g140"><path
             d="m 656.02,1455.99 c 0,-66.25 -53.75,-120 -120,-120 -66.29,0 -120,53.75 -120,120 0,66.29 53.71,120 120,120 66.25,0 120,-53.71 120,-120 z"
             id="path146"
             style="fill:none;stroke:#000000;stroke-width:8;stroke-linecap:round;stroke-linejoin:round;stroke-miterlimit:4;stroke-opacity:1;stroke-dasharray:none" /></g></g><g
         id="g148"><g
           clip-path="url(#clipPath152)"
           id="g150"><path
             d="m 1251.99,1812.01 c 0,-66.29 -53.71,-120 -120,-120 -66.25,0 -120,53.71 -120,120 0,66.25 53.75,120 120,120 66.29,0 120,-53.75 120,-120"
             id="path162"
             style="fill:url(#radialGradient156);fill-opacity:1;fill-rule:nonzero;stroke:none" /></g></g><g
         id="g164"><g
           clip-path="url(#clipPath168)"
           id="g166"><path
             d="m 1251.99,1812.01 c 0,-66.29 -53.71,-120 -120,-120 -66.25,0 -120,53.71 -120,120 0,66.25 53.75,120 120,120 66.29,0 120,-53.75 120,-120 z"
             id="path172"
             style="fill:none;stroke:#000000;stroke-width:8;stroke-linecap:round;stroke-linejoin:round;stroke-miterlimit:4;stroke-opacity:1;stroke-dasharray:none" /></g></g><g
         id="g174"><g
           clip-path="url(#clipPath178)"
           id="g176"><path
             d="m 2296.02,575.988 c 0,-66.25 -53.75,-120 -120,-120 -66.29,0 -120,53.75 -120,120 0,66.293 53.71,120 120,120 66.25,0 120,-53.707 120,-120"
             id="path188"
             style="fill:url(#radialGradient182);fill-opacity:1;fill-rule:nonzero;stroke:none" /></g></g><g
         id="g190"><g
           clip-path="url(#clipPath194)"
           id="g192"><path
             d="m 2296.02,575.988 c 0,-66.25 -53.75,-120 -120,-120 -66.29,0 -120,53.75 -120,120 0,66.293 53.71,120 120,120 66.25,0 120,-53.707 120,-120 z"
             id="path198"
             style="fill:none;stroke:#000000;stroke-width:8;stroke-linecap:round;stroke-linejoin:round;stroke-miterlimit:4;stroke-opacity:1;stroke-dasharray:none" /></g></g><g
         id="g200"><g
           clip-path="url(#clipPath204)"
           id="g202"><path
             d="m 3456.02,855.988 c 0,-66.25 -53.75,-120 -120,-120 -66.29,0 -120,53.75 -120,120 0,66.293 53.71,120 120,120 66.25,0 120,-53.707 120,-120"
             id="path214"
             style="fill:url(#radialGradient208);fill-opacity:1;fill-rule:nonzero;stroke:none" /></g></g><g
         id="g216"><g
           clip-path="url(#clipPath220)"
           id="g218"><path
             d="m 3456.02,855.988 c 0,-66.25 -53.75,-120 -120,-120 -66.29,0 -120,53.75 -120,120 0,66.293 53.71,120 120,120 66.25,0 120,-53.707 120,-120 z"
             id="path224"
             style="fill:none;stroke:#000000;stroke-width:8;stroke-linecap:round;stroke-linejoin:round;stroke-miterlimit:4;stroke-opacity:1;stroke-dasharray:none" /></g></g></g></g></svg>