<?xml version="1.0" encoding="UTF-8" standalone="no"?>
<!-- Created with Inkscape (http://www.inkscape.org/) -->

<svg
   xmlns:dc="http://purl.org/dc/elements/1.1/"
   xmlns:cc="http://creativecommons.org/ns#"
   xmlns:rdf="http://www.w3.org/1999/02/22-rdf-syntax-ns#"
   xmlns:svg="http://www.w3.org/2000/svg"
   xmlns="http://www.w3.org/2000/svg"
   version="1.0"
   width="683"
   height="600"
   id="svg2676">
  <defs
     id="defs2678" />
  <metadata
     id="metadata2681">
    <rdf:RDF>
      <cc:Work
         rdf:about="">
        <dc:format>image/svg+xml</dc:format>
        <dc:type
           rdf:resource="http://purl.org/dc/dcmitype/StillImage" />
        <dc:title></dc:title>
      </cc:Work>
    </rdf:RDF>
  </metadata>
  <path
     d="m 177.32418,598.56051 c -11.57213,-3.61839 -19.69087,-13.20726 -23.79495,-28.10368 -2.25578,-8.18775 -3.05744,-29.66789 -1.6255,-43.55464 3.46642,-33.61677 17.29128,-82.93134 36.78074,-131.20041 1.95384,-4.83901 3.33805,-9.01259 3.07603,-9.27461 -0.26201,-0.26202 -7.85282,-1.61793 -16.86845,-3.01315 C 48.431373,363.84363 -16.406951,326.80084 3.833539,285.68657 c 7.704791,-15.65066 30.70536,-31.53002 62.017307,-42.81614 9.310523,-3.3559 9.360543,-3.39214 11.599743,-8.4051 5.42104,-12.13624 18.03991,-15.58497 28.384391,-7.75744 3.04557,2.30454 3.73981,2.43665 8,1.52244 21.23492,-4.55689 47.40351,-9.55251 61.05707,-11.65587 9.01563,-1.38888 16.59702,-2.73019 16.84753,-2.9807 0.2505,-0.25051 -2.3084,-7.50436 -5.68646,-16.11966 -18.1622,-46.32037 -30.90782,-92.73382 -34.15502,-124.376288 -1.37733,-13.42139 -0.64421,-35.34982 1.42952,-42.75913 6.83136,-24.40791 23.10602,-34.41743 46.38751,-28.53004 22.30012,5.63923 47.53305,23.36247 81.35686,57.1439 19.59564,19.57108 30.40661,31.65868 49.23363,55.047458 5.5341,6.875 10.58308,12.5 11.21996,12.5 0.63689,0 4.9033,-4.725 9.48091,-10.5 32.95541,-41.575668 71.09007,-79.508348 98.58154,-98.059408 35.38295,-23.87616 63.35337,-23.45959 75.92716,1.13081 5.03983,9.85632 5.98683,15.88126 5.88304,37.4286 -0.0821,17.04987 -0.49235,22.19933 -2.78103,34.91006 l -2.68469,14.910058 2.41156,2.58994 c 3.67707,3.94906 4.65593,6.48746 4.65593,12.07386 0,7.92514 -3.7131,13.27748 -12.14637,17.50866 L 516.85259,140.5 510.03133,161 c -3.75169,11.275 -9.38142,27.025 -12.51051,35 -7.60793,19.39005 -7.31227,17.77359 -3.3707,18.42846 1.84243,0.30611 10.77488,1.72427 19.84988,3.15147 81.81056,12.86611 141.18369,35.21926 160.36897,60.37665 19.8294,26.00204 4.64408,52.0762 -42.66776,73.26325 -28.65566,12.83249 -72.82137,24.337 -123.59326,32.19419 -9.01563,1.39522 -16.59702,2.74171 -16.84753,2.99222 -0.2505,0.25051 2.3084,7.50436 5.68646,16.11966 18.1622,46.32037 30.90782,92.73382 34.15502,124.37629 1.37733,13.42139 0.64421,35.34982 -1.42952,42.75913 -6.84937,24.47227 -23.09574,34.42003 -46.53389,28.49302 -15.09732,-3.81779 -34.04627,-14.95945 -54.59886,-32.1032 l -10.96037,-9.14248 -5.20683,0.65055 c -6.86116,0.85724 -11.40142,-0.74201 -15.73992,-5.54421 -4.14707,-4.59032 -5.77353,-9.70699 -4.96371,-15.6153 l 0.58975,-4.30272 -10.91893,-12.29849 C 368.94522,505.83812 358.25248,493.16271 349.03173,481.5 c -3.47872,-4.4 -6.86277,-8 -7.52011,-8 -0.65735,0 -4.9405,4.725 -9.51811,10.5 -32.83181,41.41974 -71.10101,79.51573 -98.34466,97.89956 -21.68164,14.63062 -42.82036,20.88349 -56.32467,16.66095 z M 197.5399,585.47188 C 226.2729,578.105 272.28252,537.91968 319.44336,479 c 5.0627,-6.325 10.23358,-12.91504 11.49086,-14.64454 l 2.28595,-3.14453 -11.24309,-15.78763 c -9.6344,-13.52871 -31.02608,-45.16966 -33.63515,-49.75058 -0.65572,-1.15128 -4.93368,-1.7288 -19.34193,-2.61112 -16.20082,-0.9921 -36.49401,-2.67525 -56.6031,-4.69477 l -6.1031,-0.61292 -5.13197,12.15157 c -18.0211,42.67073 -32.2614,92.61393 -36.21443,127.01034 -1.48119,12.88819 -0.73891,34.7251 1.41353,41.58418 4.99244,15.90919 14.70445,21.1958 31.17897,16.97188 z m 309.23803,-1.70623 c 5.07686,-3.3597 9.66752,-12.3703 11.3303,-22.23922 2.69171,-15.9759 -0.38552,-46.33308 -7.75729,-76.52643 -7.22153,-29.57796 -30.29303,-95.27307 -33.95211,-96.6772 -0.70209,-0.26941 -8.16654,0.20715 -16.58767,1.05902 -14.60609,1.47754 -30.81504,2.74434 -53.81116,4.20556 l -10.5,0.6672 -10.4921,16.07978 c -5.77066,8.84387 -16.04275,23.87239 -22.82687,33.3967 l -12.33477,17.31693 5.32687,7.2182 c 6.98812,9.46929 22.60452,28.30738 35.67564,43.03561 l 10.47395,11.80179 5.15108,-0.64358 c 12.00287,-1.49966 21.28999,7.31612 20.2988,19.26861 l -0.44612,5.37958 5.08676,4.59155 c 8.86572,8.00263 22.61233,18.22362 32.22377,23.95927 18.96478,11.31729 34.01559,14.14549 43.14092,8.10663 z M 351.729,436.25 C 364.75481,417.90309 379,396.78712 379,395.82558 379,395.37151 362.07686,395 341.39301,395 c -32.98264,0 -37.53636,0.18406 -37.03258,1.49687 1.80464,4.70282 35.59974,52.50313 37.12002,52.50313 0.65802,0 5.26987,-5.7375 10.24855,-12.75 z m 34.62541,-55.11831 c 2.43348,-0.53854 4.53902,-3.43362 14.27782,-19.63169 C 413.96041,339.33188 435,301.70858 435,300.04305 435,297.86053 411.33785,255.76996 396.18592,231 c -5.70278,-9.32274 -7.56959,-11.6196 -9.86027,-12.13169 -3.68638,-0.8241 -85.95616,-0.8241 -89.68006,0 -2.43348,0.53854 -4.53902,3.43362 -14.27782,19.63169 C 269.03959,260.66812 248,298.29142 248,299.95695 c 0,2.1983 24.8029,46.30793 39.20985,69.73103 5.63062,9.15438 7.373,11.26291 9.58579,11.60017 4.42,0.67368 86.45522,0.53036 89.55877,-0.15646 z m -74.14952,-45.26216 c -1.81231,-0.52255 -5.47987,-3.06946 -8.15014,-5.65981 -7.20244,-6.98686 -8.94068,-15.4529 -4.97072,-24.20972 3.55612,-7.84397 9.34631,-12.24565 17.90989,-13.61502 2.2976,-0.3674 4.43308,-1.33414 4.7455,-2.14831 0.31243,-0.81418 -0.17835,-3.563 -1.09063,-6.10849 -3.1657,-8.83317 -1.46339,-16.26457 5.33233,-23.2781 5.24493,-5.41303 10.83886,-7.38213 18.42674,-6.48632 12.7878,1.50968 22.28428,15.31938 18.64228,27.10944 -0.68415,2.21474 -1.3128,5.33773 -1.39702,6.93997 -0.14242,2.70952 0.19643,2.9941 4.84688,4.07069 9.35423,2.16554 13.85291,5.65686 17.41597,13.51614 3.62867,8.004 2.37872,15.95917 -3.60618,22.95119 -8.94461,10.44976 -22.36149,10.84194 -32.81115,0.95908 C 344.6431,327.20962 341.86424,325 341.32338,325 c -0.54085,0 -3.20706,2.20046 -5.92491,4.88991 -6.6946,6.62467 -14.22402,8.56585 -23.19358,5.97962 z M 278,379.54523 c 0,-0.25012 -3.0815,-5.53762 -6.84779,-11.75 -7.07973,-11.67781 -20.27991,-34.60726 -26.21979,-45.54523 -1.86674,-3.4375 -3.98126,-6.25 -4.69894,-6.25 -1.32639,0 -12.9864,23.3879 -22.88709,45.90745 -3.64243,8.28487 -5.08709,12.63477 -4.34789,13.09162 0.98039,0.60592 7.40189,1.27472 38.5015,4.00992 9.51432,0.83678 26.5,1.1805 26.5,0.53624 z m 158.5,-1.03658 c 9.35,-0.80573 20.44777,-1.76117 24.6617,-2.12321 4.21394,-0.36205 8.23364,-1.01174 8.93266,-1.44376 0.95927,-0.59286 -0.0419,-3.68621 -4.08224,-12.61359 -11.68542,-25.81937 -21.95848,-46.32762 -23.20216,-46.31878 -0.72048,0.005 -3.55996,4.1465 -6.30996,9.20305 -2.75,5.05656 -9.90055,17.53987 -15.89011,27.74069 -5.98955,10.20082 -11.99053,20.45945 -13.33549,22.79695 l -2.44539,4.25 7.3355,-0.0132 c 4.03452,-0.007 14.98549,-0.67243 24.33549,-1.47815 z M 201.80596,364.5 c 1.86898,-4.4 9.42723,-20.32673 16.7961,-35.39272 C 225.97093,314.04128 232,300.87349 232,299.84552 c 0,-1.02798 -3.67448,-9.17625 -8.16552,-18.10728 C 219.34344,272.80721 211.72896,256.95 206.9134,246.5 c -6.75698,-14.66298 -9.21758,-19.0713 -10.7796,-19.31236 -3.34531,-0.51626 -30.21243,3.66485 -53.6338,8.34659 -29.25877,5.8486 -29.35733,5.88008 -31.04286,9.91411 -5.54336,13.26714 -18.044691,16.26317 -30.634891,7.34187 -1.35719,-0.96169 -3.36339,-0.55472 -10.5,2.12999 C 34.445058,268.41679 13.019538,285.27216 13.019538,300 c 0,20.29785 38.223408,42.52266 99.524462,57.86802 27.55836,6.89863 73.35797,15.17626 81.9099,14.80406 3.95382,-0.17208 3.95397,-0.17224 7.35206,-8.17208 z m 301.88919,6.49381 C 549.365,364.35685 597.05854,352.23812 624.7557,340.23285 652.7461,328.10046 669.98046,312.76844 669.98046,300 c 0,-12.76844 -17.23436,-28.10046 -45.22476,-40.23285 -21.94303,-9.51116 -57.433,-19.41495 -93.7557,-26.16334 -24.78924,-4.6056 -44.78527,-7.24242 -45.86547,-6.04814 -0.46976,0.51938 -3.90952,7.69433 -7.64389,15.94433 -3.73437,8.25 -11.22246,23.88322 -16.6402,34.74048 -5.41774,10.85726 -9.85044,20.64926 -9.85044,21.76 0,1.11073 4.2194,10.45252 9.37645,20.75952 8.45991,16.90817 15.16263,31.09605 22.08017,46.73782 2.87683,6.50502 1.77782,6.32412 21.23853,3.49599 z M 248.99467,270.36279 c 4.12207,-7.48662 12.34035,-21.76845 18.26284,-31.73741 L 278.02568,220.5 l -3.76284,-0.34808 c -7.13069,-0.65962 -60.47234,3.72425 -61.82954,5.08145 -1.37405,1.37405 25.75643,58.77361 27.77069,58.75404 0.71281,-0.007 4.66861,-6.13801 8.79068,-13.62462 z M 452.59366,266.25 c 14.2466,-29.61493 18.80477,-40.38572 17.44643,-41.22523 -1.23378,-0.76251 -3.68551,-1.01765 -34.04009,-3.54236 -17.39131,-1.4465 -31,-1.89763 -31,-1.02764 0,0.25012 3.0815,5.53762 6.84779,11.75 7.07973,11.67781 20.27991,34.60726 26.21979,45.54523 1.86674,3.4375 3.97753,6.25 4.69066,6.25 0.71312,0 5.13906,-7.9875 9.83542,-17.75 z M 234.5,209.54577 c 8.8,-0.81096 24.325,-1.98428 34.5,-2.60737 14.17475,-0.86802 18.69205,-1.46993 19.32142,-2.57448 2.76369,-4.85023 22.78335,-34.44937 32.89179,-48.63061 l 11.95136,-16.76669 -5.33229,-7.22551 C 313.09749,111.77475 286.84365,81.924832 267.37256,63.000002 226.06958,22.855772 192.40331,5.526112 176.3529,16.147762 157.17463,28.839342 160.44766,83.519982 184.72407,156 c 5.3215,15.88795 14.78677,41.2201 19.20013,51.38577 l 2.12112,4.88578 6.22734,-0.62565 C 215.6977,211.30179 225.7,210.35673 234.5,209.54577 z M 480.16626,204.5 C 488.02611,186.14427 504,140.69711 504,136.69086 c 0,-1.04618 -1.10709,-3.21785 -2.46021,-4.82594 -6.99031,-8.30751 -3.3094,-22.42521 7.04063,-27.00352 4.96392,-2.19578 4.73497,-1.66436 7.47963,-17.361398 2.62222,-14.99686 3.64498,-39.54696 2.04355,-49.05302 -1.64637,-9.7728 -6.25749,-18.85867 -11.24637,-22.16016 C 483.53766,0.854662 426.1707,42.774082 363.55664,121 c -5.0627,6.325 -10.22679,12.90586 -11.47577,14.62412 l -2.27086,3.12413 13.345,18.88537 c 7.33974,10.38696 17.61999,25.46623 22.84499,33.5095 l 9.5,14.62412 11,0.67483 c 17.0798,1.04781 48.24707,3.54619 56,4.48898 3.85,0.46817 8.7255,0.78771 10.83445,0.71009 3.76052,-0.13842 3.89222,-0.27608 6.83181,-7.14114 z M 378.63957,203.50313 C 376.83493,198.80031 343.03983,151 341.51955,151 339.88795,151 304,201.86205 304,204.17442 304,204.62849 320.92314,205 341.60699,205 c 32.98264,0 37.53636,-0.18406 37.03258,-1.49687 z"
     id="path2866"
     style="fill:#1399dd" />
  <path
     d="m 177.32418,598.56051 c -11.57213,-3.61839 -19.69087,-13.20726 -23.79495,-28.10368 -2.25578,-8.18775 -3.05744,-29.66789 -1.6255,-43.55464 3.76667,-36.5285 17.7866,-84.71759 42.30272,-145.40219 1.11098,-2.75 3.28316,-7.7 4.82707,-11 1.54391,-3.3 5.3771,-11.625 8.5182,-18.5 3.1411,-6.875 9.92696,-20.933 15.07969,-31.24 C 227.78413,310.453 232,301.11121 232,300.00048 c 0,-1.11074 -4.4327,-10.90274 -9.85044,-21.76 C 216.73182,267.38322 209.24373,251.75 205.50936,243.5 201.77499,235.25 198.33268,228.0725 197.8598,227.55 197.38691,227.0275 197,225.98713 197,225.23807 c 0,-0.74905 -1.07602,-3.69655 -2.39115,-6.55 -3.77702,-8.19501 -14.22456,-35.49759 -19.71954,-51.53311 -11.92963,-34.81327 -20.51649,-69.942138 -22.99121,-94.057148 -1.37733,-13.42139 -0.64421,-35.34982 1.42952,-42.75913 6.83136,-24.40791 23.10602,-34.41743 46.38751,-28.53004 22.30012,5.63923 47.53305,23.36247 81.35686,57.1439 19.59564,19.57108 30.40661,31.65868 49.23363,55.047458 5.5341,6.875 10.58308,12.5 11.21996,12.5 0.63689,0 4.9033,-4.725 9.48091,-10.5 32.95541,-41.575668 71.09007,-79.508348 98.58154,-98.059408 35.38295,-23.87616 63.35337,-23.45959 75.92716,1.13081 5.03983,9.85632 5.98683,15.88126 5.88304,37.4286 -0.0821,17.04987 -0.49235,22.19933 -2.78103,34.91006 l -2.68469,14.910058 2.41156,2.58994 c 3.67707,3.94906 4.65593,6.48746 4.65593,12.07386 0,7.93473 -3.7231,13.29305 -12.16549,17.50866 l -4.02017,2.00742 -6.28332,19 c -6.1632,18.6368 -8.60362,25.42745 -15.99237,44.5 -5.26443,13.58908 -7.33945,18.57477 -11.04607,26.54076 -1.80186,3.87241 -5.63041,12.19741 -8.50789,18.5 C 472.10721,255.34334 465.5335,268.933 460.37645,279.24 455.2194,289.547 451,298.889 451,300 c 0,1.111 4.28375,10.57848 9.51945,21.03886 5.2357,10.46037 12.70802,26.09338 16.60517,34.74 3.89714,8.64663 7.48839,16.14864 7.98055,16.67114 0.49216,0.5225 0.89483,1.56287 0.89483,2.31193 0,0.74905 1.07602,3.69655 2.39115,6.55 3.77702,8.19501 14.22456,35.49759 19.71954,51.53311 11.92963,34.81327 20.51649,69.94214 22.99121,94.05715 1.37733,13.42139 0.64421,35.34982 -1.42952,42.75913 -6.84937,24.47227 -23.09574,34.42003 -46.53389,28.49302 -15.09732,-3.81779 -34.04627,-14.95945 -54.59886,-32.1032 l -10.96037,-9.14248 -5.20683,0.65055 c -6.86116,0.85724 -11.40142,-0.74201 -15.73992,-5.54421 -4.14707,-4.59032 -5.77353,-9.70699 -4.96371,-15.6153 l 0.58975,-4.30272 -10.91893,-12.29849 C 368.94522,505.83812 358.25248,493.16271 349.03173,481.5 c -3.47872,-4.4 -6.86277,-8 -7.52011,-8 -0.65735,0 -4.9405,4.725 -9.51811,10.5 -32.83181,41.41974 -71.10101,79.51573 -98.34466,97.89956 -21.68164,14.63062 -42.82036,20.88349 -56.32467,16.66095 z M 197.5399,585.47188 C 226.2729,578.105 272.28252,537.91968 319.44336,479 c 5.0627,-6.325 10.23233,-12.91334 11.48807,-14.64076 l 2.28316,-3.14077 -11.97426,-16.85923 C 308.56605,426.51441 288,395.76336 288,394.65719 c 0,-0.80714 10.7395,-0.84926 13.5,-0.053 1.1,0.31732 4.46995,4.46111 7.48877,9.20843 9.60853,15.11011 31.22806,45.18733 32.48069,45.18733 1.26476,0 13.00777,-16.12953 28.39374,-39 4.99512,-7.425 9.5621,-14.0625 10.14885,-14.75 C 381.11613,393.95627 395,393.40713 395,394.65714 c 0,1.13772 -20.74579,32.12805 -33.20999,49.6095 l -11.95458,16.76669 5.33229,7.22551 c 6.99314,9.47605 22.60654,28.31086 35.68105,43.04291 l 10.47395,11.80179 5.15108,-0.64358 c 12.00287,-1.49966 21.28999,7.31612 20.2988,19.26861 l -0.44612,5.37958 5.08676,4.58052 c 9.32248,8.3947 21.75865,17.63113 32.10852,23.84721 18.88985,11.34516 34.12176,14.2746 43.15148,8.29901 19.15047,-12.67319 15.86405,-67.39985 -8.39731,-139.83494 -5.9713,-17.828 -15.74614,-43.82161 -19.65136,-52.25759 -1.33476,-2.88333 -2.74797,-6.36741 -3.14046,-7.74241 -0.39249,-1.375 -1.51017,-4.075 -2.48374,-6 -0.97356,-1.925 -4.14867,-8.9 -7.05578,-15.5 -10.08591,-22.89796 -21.83152,-46.49993 -23.13463,-46.48741 -0.72048,0.007 -4.68496,6.14455 -8.80996,13.63917 -4.125,7.49462 -12.47837,22.00145 -18.56304,32.23741 l -11.06303,18.61083 -6.23045,0.77535 c -3.42675,0.42645 -6.84377,0.42645 -7.59339,0 -1.0371,-0.58998 1.3707,-5.31778 10.0713,-19.77535 C 413.91118,339.41663 435,301.71719 435,300.043 c 0,-2.15344 -23.57597,-44.12591 -38.50069,-68.54305 -3.698,-6.05 -6.92472,-11.3375 -7.17049,-11.75 -0.24577,-0.4125 2.91102,-0.75 7.01509,-0.75 l 7.46194,0 5.9737,9.75 c 7.09929,11.58715 22.24617,37.79955 27.75404,48.02971 2.4482,4.5472 4.4627,7.17471 5.36685,7 1.56719,-0.30284 20.2701,-38.70815 27.16404,-55.77971 2.33209,-5.775 5.50646,-13.29066 7.05414,-16.70146 4.02581,-8.87211 5.52475,-12.4809 10.09255,-24.29854 C 492.84192,172.43233 504,138.99619 504,136.69081 c 0,-1.04618 -1.10709,-3.21785 -2.46021,-4.82594 -6.99031,-8.30751 -3.3094,-22.42521 7.04063,-27.00352 4.96392,-2.19578 4.73497,-1.66436 7.47963,-17.361398 2.62222,-14.99686 3.64498,-39.54696 2.04355,-49.05302 -1.64637,-9.7728 -6.25749,-18.85867 -11.24637,-22.16016 -23.31957,-15.43216 -80.68653,26.48726 -143.30059,104.713178 -5.0627,6.325 -10.23233,12.91334 -11.48807,14.64076 l -2.28316,3.14077 11.97426,16.85923 C 374.43395,173.48554 395,204.23659 395,205.34276 c 0,0.80714 -10.7395,0.84926 -13.5,0.053 -1.1,-0.31732 -4.46995,-4.46111 -7.48877,-9.20843 C 364.4027,181.07722 342.78317,151 341.53054,151 c -1.26476,0 -13.00777,16.12953 -28.39374,39 -4.99512,7.425 -9.5621,14.0625 -10.14885,14.75 C 301.88387,206.04368 288,206.59282 288,205.34281 c 0,-1.13772 20.74579,-32.12805 33.20999,-49.6095 l 11.95458,-16.76669 -5.33229,-7.22551 C 313.09749,111.77475 286.84365,81.924832 267.37256,63.000002 226.06958,22.855772 192.40331,5.526112 176.3529,16.147762 157.17463,28.839342 160.44766,83.519982 184.72407,156 c 5.9713,17.828 15.74614,43.82161 19.65136,52.25759 1.33476,2.88333 2.74797,6.36741 3.14046,7.74241 0.39249,1.375 1.52822,4.075 2.52385,6 0.99562,1.925 4.06213,8.675 6.81445,15 9.25028,21.25766 22.04267,47.00011 23.3498,46.98741 0.71281,-0.007 4.67101,-6.14455 8.79601,-13.63917 4.125,-7.49462 12.47837,-22.00145 18.56304,-32.23741 L 278.62607,219.5 l 6.23045,-0.77535 c 3.42675,-0.42645 6.84377,-0.42645 7.59339,0 1.0371,0.58998 -1.3707,5.31778 -10.0713,19.77535 C 269.10742,260.55241 248,298.28192 248,299.95177 c 0,2.10025 32.87761,60.55465 39.961,71.04823 0.92815,1.375 2.70333,4.1875 3.94483,6.25 l 2.25729,3.75 -7.48449,0 -7.48448,0 -5.9737,-9.75 c -7.09113,-11.57384 -22.24445,-37.79632 -27.738,-48 -2.14683,-3.9875 -4.49596,-7.25 -5.2203,-7.25 -1.41973,0 -14.95879,27.38608 -23.9773,48.5 -3.05402,7.15 -8.81816,20.65 -12.8092,30 -20.01389,46.88749 -34.36877,96.22307 -38.52825,132.41582 -1.48119,12.88819 -0.73891,34.7251 1.41353,41.58418 4.99244,15.90919 14.70445,21.1958 31.17897,16.97188 z M 311.5,334.61115 c -7.90531,-3.45347 -13.43586,-11.33685 -13.47804,-19.21193 -0.0604,-11.27173 7.12206,-19.79824 18.70446,-22.20471 5.11039,-1.06178 6.5894,-4.04792 4.68222,-9.45347 -5.32865,-15.10298 6.05171,-29.86273 22.00529,-28.53973 13.79198,1.14373 22.78737,14.95514 18.3061,28.10694 -2.00928,5.89693 -0.67188,8.80058 4.55355,9.88626 11.47821,2.38482 18.72642,10.895 18.72642,21.98683 0,4.79382 -1.81555,9.27331 -5.55709,13.71096 -7.98895,9.47527 -23.76163,9.34235 -32.20261,-0.27139 -3.89996,-4.44182 -7.91614,-4.34948 -11.80364,0.27139 -5.33601,6.34263 -16.43741,8.99493 -23.93666,5.71885 z"
     id="path2868"
     style="fill:#8bc432" />
  <path
     d="M 177.00539,598.33201 C 144.01396,586.78937 142.42499,531.30337 172.48551,440.5 c 4.00572,-12.1 10.26018,-29.51614 13.8988,-38.70252 3.63863,-9.18639 6.61569,-16.9697 6.61569,-17.29624 0,-0.32655 1.50339,-3.83541 3.34087,-7.79748 1.83747,-3.96207 5.75818,-12.60376 8.71269,-19.20376 8.63782,-19.2958 29.81026,-61.48285 40.90245,-81.5 16.04294,-28.95134 32.31871,-55.95829 34.00618,-56.42762 0.84579,-0.23524 3.89833,-0.72722 6.78342,-1.09328 4.01645,-0.50961 5.37039,-0.34038 5.77815,0.72221 0.29289,0.76328 -4.5874,9.91774 -10.84511,20.34324 -24.48503,40.79271 -51.85551,92.91142 -64.57085,122.95545 -3.4916,8.25 -7.379,17.25 -8.63869,20 -20.28464,44.28318 -37.98928,101.67964 -43.03048,139.5 -1.79938,13.49934 -1.7986,33.63787 0.002,42.13107 1.53142,7.22502 5.24579,15.37707 8.23826,18.08079 10.88802,9.83741 32.81449,4.00213 59.90861,-15.94345 25.97416,-19.1211 58.10675,-52.05974 89.93297,-92.18892 l 9.85064,-12.42051 3.81193,4.42051 c 2.09656,2.43128 3.81315,4.87478 3.81464,5.43001 0.008,3.15059 -35.57726,44.96668 -56.26147,66.11181 -26.41569,27.00433 -46.80095,43.18599 -67.23583,53.37129 -17.43819,8.69166 -30.08043,10.98299 -40.49461,7.33941 z M 346.68318,457.41412 c -5.72954,-6.17904 -5.7583,-6.02705 3.60695,-19.06062 4.68452,-6.51943 13.39968,-19.0535 19.36703,-27.8535 l 10.84973,-16 6.74655,-0.29569 c 5.48111,-0.24023 6.74656,-0.0124 6.74656,1.21454 0,2.54769 -39.33863,60.12752 -43.35854,63.46374 -1.19545,0.99215 -1.92902,0.72 -3.95828,-1.46847 z m 43.7615,-76.69769 c -0.31703,-0.82615 2.29179,-6.09034 5.95612,-12.01854 26.37333,-42.66711 61.68578,-110.27388 74.7953,-143.19789 2.18996,-5.5 4.32908,-10.45 4.75359,-11 C 479.27975,210.18558 504,141.89939 504,137.01499 c 0,-1.22445 -1.10709,-3.54198 -2.46021,-5.15007 -4.64791,-5.52373 -4.66563,-15.38902 -0.0385,-21.45546 1.47485,-1.93362 4.77539,-4.50977 7.33454,-5.72477 4.5606,-2.16523 4.67718,-2.33794 5.87085,-8.696898 4.34863,-23.16612 5.50791,-47.59384 2.8531,-60.11886 -1.53142,-7.22502 -5.24579,-15.37707 -8.23826,-18.08079 -10.88802,-9.83741 -32.81449,-4.00213 -59.90861,15.94345 -25.97416,19.1211 -58.10675,52.05974 -89.93297,92.188918 l -9.85064,12.42051 -3.81193,-4.42051 c -2.09656,-2.43128 -3.81315,-4.87478 -3.81464,-5.43001 -0.008,-3.15059 35.57726,-44.966688 56.26147,-66.111818 26.23142,-26.81594 46.64949,-43.05764 67.03383,-53.32253 23.9458,-12.05833 40.90862,-11.89232 53.33026,0.52193 14.13021,14.1218 17.07719,46.01181 8.33743,90.22127 -1.21677,6.154928 -1.1876,6.361258 1.27231,8.999998 3.78623,4.06148 4.762,6.55819 4.762,12.18457 0,7.93575 -3.72416,13.29469 -12.16752,17.50866 l -4.0222,2.00742 -6.79684,20.5 c -3.73826,11.275 -9.77057,28.01614 -13.40514,37.20252 -3.63456,9.18639 -6.6083,16.96766 -6.6083,17.2917 0,0.32405 -1.29714,3.38292 -2.88254,6.79748 -1.58539,3.41457 -6.36513,13.8583 -10.62164,23.2083 -10.58431,23.24989 -27.61438,57.11344 -39.67273,78.88751 -15.7929,28.51763 -32.10358,55.57239 -33.78528,56.04011 -0.84579,0.23524 -3.89833,0.72722 -6.78342,1.09328 -4.13385,0.52451 -5.36516,0.35401 -5.80971,-0.80447 z M 311.5,334.61115 c -13.48929,-5.89285 -17.57601,-21.56229 -8.72893,-33.46876 2.71044,-3.64772 11.14955,-8.11698 15.35649,-8.13262 4.49975,-0.0167 5.46148,-2.29982 3.5385,-8.40021 -3.02347,-9.59154 -1.84616,-15.91804 4.25544,-22.86738 8.91397,-10.15244 25.90685,-8.51419 33.69074,3.24806 3.50622,5.29826 4.12818,11.61016 1.87675,19.04613 -2.03932,6.7354 -1.2019,8.95635 3.38345,8.9734 4.20694,0.0156 12.64605,4.4849 15.35649,8.13262 4.73077,6.36671 6.09146,14.77097 3.42261,21.13973 -6.49168,15.49132 -25.31103,18.38513 -37.05039,5.69715 C 344.57618,325.79067 342.11284,324 341.12706,324 c -0.98578,0 -3.27838,1.8492 -5.09467,4.10932 -1.81629,2.26013 -5.15411,4.95025 -7.41737,5.97804 -4.77773,2.16966 -12.78641,2.41476 -17.11502,0.52379 z m -22.5,-130.03 c 0,-2.54769 39.33863,-60.12752 43.35854,-63.46374 1.19545,-0.99215 1.92902,-0.72 3.95828,1.46847 5.72954,6.17904 5.7583,6.02705 -3.60695,19.06062 -4.68452,6.51943 -13.39968,19.0535 -19.36703,27.8535 l -10.84973,16 -6.74655,0.29569 C 290.26545,206.03592 289,205.80809 289,204.58115 z"
     id="path2870"
     style="fill:#da3129" />
  <path
     d="m 383.26375,394.28242 c 1.52006,-0.22986 3.77006,-0.22371 5,0.0136 1.22994,0.23736 -0.0138,0.42542 -2.76375,0.41792 -2.75,-0.008 -3.75631,-0.20172 -2.23625,-0.43157 z M 193.03063,384.5 c 0,-0.55 0.43621,-1.675 0.96937,-2.5 0.53316,-0.825 0.96937,-1.05 0.96937,-0.5 0,0.55 -0.43621,1.675 -0.96937,2.5 -0.53316,0.825 -0.96937,1.05 -0.96937,0.5 z m 14.04024,0 c 0,-0.55 0.64311,-2.125 1.42913,-3.5 0.78602,-1.375 1.42913,-2.05 1.42913,-1.5 0,0.55 -0.64311,2.125 -1.42913,3.5 -0.78602,1.375 -1.42913,2.05 -1.42913,1.5 z m 185.19816,-3.19299 c 0.97297,-0.25354 2.32297,-0.23687 3,0.0371 0.67703,0.27393 -0.11903,0.48137 -1.76903,0.46099 -1.65,-0.0204 -2.20394,-0.2445 -1.23097,-0.49804 z M 195.03063,379.5 c 0,-0.55 0.43621,-1.675 0.96937,-2.5 0.53316,-0.825 0.96937,-1.05 0.96937,-0.5 0,0.55 -0.43621,1.675 -0.96937,2.5 -0.53316,0.825 -0.96937,1.05 -0.96937,0.5 z M 311.5,334.61115 c -13.48929,-5.89285 -17.57601,-21.56229 -8.72893,-33.46876 2.71044,-3.64772 11.14955,-8.11698 15.35649,-8.13262 4.49975,-0.0167 5.46148,-2.29982 3.5385,-8.40021 -3.02347,-9.59154 -1.84616,-15.91804 4.25544,-22.86738 8.91397,-10.15244 25.90685,-8.51419 33.69074,3.24806 3.50622,5.29826 4.12818,11.61016 1.87675,19.04613 -2.03932,6.7354 -1.2019,8.95635 3.38345,8.9734 4.20694,0.0156 12.64605,4.4849 15.35649,8.13262 4.73077,6.36671 6.09146,14.77097 3.42261,21.13973 -6.49168,15.49132 -25.31103,18.38513 -37.05039,5.69715 C 344.57618,325.79067 342.11284,324 341.12706,324 c -0.98578,0 -3.27838,1.8492 -5.09467,4.10932 -1.81629,2.26013 -5.15411,4.95025 -7.41737,5.97804 -4.77773,2.16966 -12.78641,2.41476 -17.11502,0.52379 z M 486.03063,223.5 c 0,-0.55 0.43621,-1.675 0.96937,-2.5 0.53316,-0.825 0.96937,-1.05 0.96937,-0.5 0,0.55 -0.43621,1.675 -0.96937,2.5 -0.53316,0.825 -0.96937,1.05 -0.96937,0.5 z m -13.46634,-1.79313 c 0.37553,-0.98622 0.93469,-1.54122 1.24258,-1.23333 0.30789,0.30789 6.4e-4,1.11479 -0.68278,1.79313 -0.98762,0.98026 -1.10248,0.8654 -0.5598,-0.5598 z m -184.29526,-3.39986 c 0.97297,-0.25354 2.32297,-0.23687 3,0.0371 0.67703,0.27393 -0.11903,0.48137 -1.76903,0.46099 -1.65,-0.0204 -2.20394,-0.2445 -1.23097,-0.49804 z M 474.03063,218.5 c 0,-0.55 0.43621,-1.675 0.96937,-2.5 0.53316,-0.825 0.96937,-1.05 0.96937,-0.5 0,0.55 -0.43621,1.675 -0.96937,2.5 -0.53316,0.825 -0.96937,1.05 -0.96937,0.5 z m 14,0 c 0,-0.55 0.43621,-1.675 0.96937,-2.5 0.53316,-0.825 0.96937,-1.05 0.96937,-0.5 0,0.55 -0.43621,1.675 -0.96937,2.5 -0.53316,0.825 -0.96937,1.05 -0.96937,0.5 z M 295.75,205.29427 c 1.2375,-0.23836 3.2625,-0.23836 4.5,0 1.2375,0.23835 0.225,0.43337 -2.25,0.43337 -2.475,0 -3.4875,-0.19502 -2.25,-0.43337 z"
     id="path2872"
     style="fill:#26184f" />
  <path
     d="m 360.41498,302.17045 a 19.133858,19.133858 0 1 1 -38.26771,0 19.133858,19.133858 0 1 1 38.26771,0 z"
     id="path2874"
     style="fill:#ffffff;fill-opacity:1;stroke:#ffffff;stroke-width:5;stroke-miterlimit:4;stroke-opacity:1;stroke-dasharray:none" />
</svg>
