<?xml version="1.0" encoding="UTF-8" standalone="no"?>
<!-- Created with Inkscape (http://www.inkscape.org/) -->
<svg
   xmlns:svg="http://www.w3.org/2000/svg"
   xmlns="http://www.w3.org/2000/svg"
   version="1.0"
   width="193"
   height="193"
   id="svg2">
  <defs
     id="defs5" />
  <path
     d="M 123.1502,142.73465 C 119.21578,145.30963 115.03976,148.02514 109.82382,148.46035 C 103.81901,148.96138 99.287812,142.58857 98.941717,136.33765 C 81.070804,134.05987 61.707258,138.9028 45.526325,125.87334 C 64.287605,81.234582 93.629991,81.309091 113.61022,93.724571 C 133.59046,106.14005 143.73433,132.3191 123.1502,142.73465 z "
     style="fill:#d9a448"
     id="path2169" />
  <path
     d="M 16.12285,118.78747 L 9.4840295,119.97297 L 2.1339066,113.33415 L 8.0614251,98.871007 L 17.308354,96.5 L 24.184275,96.737101 L 29.163391,98.871007 C 32.680677,101.94128 33.587876,106.05777 34.882574,110.35499 L 24.895577,114.75676 L 21.813268,110.01474 L 17.545455,108.35504 L 13.751843,110.96314 L 16.12285,118.78747 z "
     style="fill:#ffffff;fill-rule:evenodd;stroke:#000000;stroke-width:0;stroke-linecap:butt;stroke-linejoin:miter;stroke-miterlimit:4;stroke-dasharray:none;stroke-opacity:1"
     id="path3176" />
  <path
     d="M 45.945535,125.36839 C 44.912653,125.00692 46.115788,122.66891 42.546794,124.21857 L 35.918013,127.0968 L 27.9758,123.02684 C 27.112592,119.17686 26.222238,119.37308 24.598396,113.67033 C 26.553076,111.19254 29.675816,108.44277 32.863022,108.43004 L 31.422604,100.25811 L 31.304054,77.850737 L 25.467881,79.866093 C 13.535305,79.866093 9.6583159,73.423611 14.989243,63.483524 C 17.831654,58.183542 22.981687,55.719965 30.448403,56.239621 C 33.748403,56.469288 38.789977,59.820954 39.913163,60.210288 C 45.410504,69.073347 45.286222,77.038361 45.199144,86.823189 C 45.110888,96.740402 50.33634,109.04326 54.061658,115.48148 C 51.086713,117.9684 48.053762,120.28131 45.945535,125.36839 z M 110.36471,102.59809 C 113.33707,100.51617 117.58859,87.997093 114.60504,87.341807 C 113.36754,87.070011 100.84949,82.030505 95.480847,81.9387 C 87.691882,81.805507 71.853511,85.389118 71.402,86.565735 C 70.480105,88.96816 71.098585,101.23441 74.366449,99.722581 C 91.205343,91.932334 116.53202,97.308045 110.36471,102.59809 z "
     style="fill:#a3221c"
     id="path2167" />
  <path
     d="M 58.326781,145.34275 L 60.460688,148.89926 L 83.45946,150.08477 L 87.015971,147.71376 L 86.067568,142.02334 L 60.460688,140.60074 L 58.326781,145.34275 z "
     style="fill:#ffffff;fill-rule:evenodd;stroke:#000000;stroke-width:0;stroke-linecap:butt;stroke-linejoin:miter;stroke-miterlimit:4;stroke-dasharray:none;stroke-opacity:1"
     id="path4147" />
  <path
     d="M 59.275184,141.78624 L 63.542998,135.14742 L 83.459459,136.57002 L 87.253071,144.15725 C 84.309283,143.93014 82.858389,144.44947 77.650491,143.0903 C 71.531728,143.839 70.426745,142.91645 67.810811,142.49754 C 63.347319,143.47415 61.26072,142.66809 59.275184,141.78624 z "
     style="fill:#a3221c;fill-opacity:1;fill-rule:evenodd;stroke:#000000;stroke-width:0;stroke-linecap:butt;stroke-linejoin:miter;stroke-miterlimit:4;stroke-dasharray:none;stroke-opacity:1"
     id="path2202" />
  <path
     d="M 129.457,154.58968 L 179.72236,129.6941 L 185.4703,139.95888 L 183.75307,146.33184 L 180.05767,149.88835 L 171.31371,149.68001 L 170.47543,156.48649 L 164.50723,162.94573 L 156.24939,163.59951 L 150.79607,160.5172 L 148.18796,167.86732 L 140.36364,170.47543 L 133.25061,167.15602 L 129.457,154.58968 z "
     style="fill:#ffffff;fill-rule:evenodd;stroke:#000000;stroke-width:0;stroke-linecap:butt;stroke-linejoin:miter;stroke-miterlimit:4;stroke-dasharray:none;stroke-opacity:1"
     id="path5118" />
  <path
     d="M 42.678133,68.996314 L 120.68428,70.418919 L 152.69287,106.45823 L 168.57862,97.922604 L 170.94963,89.149877 L 166.91892,81.088452 L 160.2801,76.918849 L 150.55897,75.160934 L 150.69786,66.752283 L 143.44595,58.563882 L 133.96192,57.100597 L 126.37469,59.038083 L 121.15848,49.316953 L 111.67445,47.657248 L 102.95925,50.404247 L 97.922604,54.296069 L 90.572482,47.894349 L 78.243243,47.657248 L 68.759214,53.347666 L 59.749386,48.13145 L 49.108618,49.276273 L 42.678133,55.955774 L 42.678133,68.996314 z "
     style="fill:#ffffff;fill-rule:evenodd;stroke:#000000;stroke-width:0;stroke-linecap:butt;stroke-linejoin:miter;stroke-miterlimit:4;stroke-dasharray:none;stroke-opacity:1"
     id="path6089" />
  <path
     d="M 129.95819,153.20705 C 128.92892,148.49704 127.08204,142.98308 126.72337,142.40274 C 126.60657,117.57655 100.2341,121.46091 87.529297,120.70788 C 80.404766,120.28559 64.497925,121.17637 56.104211,116.03091 C 45.248657,109.37631 43.395075,88.512524 43.239864,66.238953 L 93.312999,66.808483 C 108.85447,66.985251 121.02331,64.484769 129.33096,70.859052 C 137.67888,77.264234 145.40578,89.72456 151.66457,95.504437 C 159.43741,102.68251 170.30127,121.02361 179.41559,129.88052 C 169.40677,135.54282 139.22325,158.258 129.95819,153.20705 z M 114.16766,94.644158 C 114.68994,86.81634 111.25618,83.325872 90.499594,84.346075 C 82.61202,82.386554 66.996502,85.295493 72.914204,97.101602 C 77.612197,108.05868 83.614485,107.91264 92.695225,108.86097 C 102.38204,109.87259 114.00728,103.87261 113.11054,99.078381 C 113.87638,98.442793 114.16766,96.262971 114.16766,94.644158 z "
     style="fill:#274735"
     id="path2165" />
  <path
     d="M 12.89314,114.17459 C 11.199442,107.59929 20.263843,104.68742 23.986861,109.49188 C 23.890089,110.12257 25.677301,112.52202 26.53723,115.48007 C 28.479023,122.1596 32.476779,126.58077 35.580516,126.2371 C 40.892248,125.64895 42.180293,123.07887 37.685306,119.98027 C 35.402894,116.2512 32.97535,111.31208 31.676448,105.7093 C 31.247731,103.17174 28.886038,100.67617 27.184254,99.337542 C 21.638215,96.508035 14.742314,96.909228 9.0425026,99.364172 C 3.5234941,101.75091 2.0775986,106.21928 2.8667691,111.89717 C 3.2639738,113.89712 4.7758306,115.97164 6.2982465,117.36067 C 7.6282173,118.57411 9.5893969,119.58095 11.423929,119.70459 C 16.951206,120.07709 14.786673,116.57915 12.89314,114.17459 z M 14.440553,113.72966 C 15.211831,114.81891 16.232828,115.78101 16.754383,116.99741 C 18.134526,120.21627 16.000372,121.12779 14.579522,121.4693 C 12.740076,121.91142 10.175951,121.81326 8.4881867,120.863 C 5.7141431,119.30113 2.5472037,116.72441 1.1940975,113.9329 C 0.03248493,111.53645 0.21346449,107.93963 0.94403025,105.2991 C 2.5809493,100.36231 6.526385,97.216936 11.354234,95.748385 C 16.286356,94.401111 20.984141,94.312151 25.743225,96.160971 L 31.211302,98.974201 L 31.685504,90 L 30.61855,79.603194 C 29.170757,80.766243 27.329825,81.64533 24.61855,81.229027 C 17.419163,80.316447 16.665386,79.426547 13.75,75.903305 C 9.0501356,70.223522 14.192732,59.463501 21.100377,57.184981 C 24.218694,56.156389 24.299095,55.414047 31.170622,55.628306 C 33.920622,55.8758 36.672597,57.200397 38.105772,57.547293 C 40.370586,58.095485 40.967842,57.684135 42.670315,54.403549 C 46.553422,46.920981 57.078088,44.480784 65.08163,49.207373 L 69.35096,51.728678 L 74.596259,48.747578 C 81.492254,44.51432 90.448389,44.689636 94.133099,49.309852 C 96.432495,52.193038 98.700747,52.552199 100.92126,50.641604 C 103.05763,48.803404 109.4274,45.617591 112.61052,45.677847 C 117.91126,45.408907 122.14195,48.087906 125.22068,52.241015 L 127.02509,57 L 136.10378,55.997805 C 142.01307,56.00066 143.25643,57.468696 145.70145,58.959516 C 149.27963,61.141258 152,65.636969 152,69.368553 C 152,73.747337 153.02701,74.881504 157.61507,75.569527 C 166.64872,76.924207 172.49817,83.673811 171.67282,91.79058 C 171.17566,96.679731 168.98591,99.561221 164.2703,101.53153 C 162.47164,102.28306 161,103.40233 161,104.0188 C 161,106.16973 166.68584,114.42737 178.06197,125.86965 C 183.84987,131.6912 186.34358,137.5726 186.2624,142.34455 C 186.18122,147.11649 183.02219,149.77304 180.52241,151.15675 C 179.17213,151.90417 173.22526,152.85175 172.43305,151.44429 C 171.88956,155.95448 171.8102,158.08863 168.75064,161.34079 C 165.69108,164.59295 159.91821,165.86203 156.43797,165.23199 C 154.69785,164.91697 153.65412,162.30456 152.74014,162.61999 C 151.82615,162.93542 152.2155,165.50806 150.99435,166.84505 C 146.70912,171.06873 140.923,172.85888 135.32874,170.54224 C 131.26639,168.77514 130.5108,167.26136 128.03968,155.93911 C 126.91883,150.80358 125.58959,146.18959 125.0858,145.6858 C 124.53116,145.13116 121.95759,145.85216 118.56194,147.5135 C 114.23521,149.63037 112.03679,150.13414 108.93893,149.71863 C 102.01009,148.78928 99.098909,145.97468 97.53613,138.69412 C 96.977652,136.09232 96.745682,136.26613 92.835473,136.54977 L 85.29914,137.09275 L 88.092404,146.94204 C 87.870506,150.85765 84.148597,151.2757 80.899415,151.26489 C 79.848048,151.3184 75.322242,151.17083 72.213911,150.5827 C 69.599918,150.08811 65.712636,150.11814 63.321146,149.99377 C 60.137965,149.82823 58.961478,150.75321 57.486529,144.75717 C 58.965945,140.35992 60.321858,136.75552 61.236394,134.90023 L 55.301244,132.95795 C 53.21056,132.2809 47.357556,129.17475 45.180467,127.15911 C 41.48167,123.7346 41.6762,126.9353 38.528138,127.99071 C 32.072003,130.15518 26.664203,124.55935 24.087052,115.56634 C 23.874939,109.04001 14.755628,106.55741 14.440553,113.72966 z M 17.485202,63.021354 C 13.20687,69.194989 15.129187,75.197622 22.25183,77.905646 C 27.626413,79.949059 30.915942,77.270228 30.935049,72.253706 C 30.952615,67.641909 25.720916,66.223677 25.600291,67.540141 C 25.322122,70.575993 22.266333,63.243504 29.558297,65.748542 C 32.312676,66.694765 34.000057,74.224058 34.005792,87.297053 C 34.013192,104.16513 35.139329,110.98517 38.839673,116.57167 C 42.729275,122.44389 50.740206,129.52888 55.580505,131.37751 C 62.515267,134.02606 79.328917,135.27094 92.059814,134.07844 C 98.351916,133.48906 104.625,133.01219 106,133.01873 C 109.48504,133.03531 111.41689,134.47121 110.64843,136.47379 C 110.06442,137.99571 109.76603,137.96112 107.39584,136.09673 C 102.99125,132.63208 98.785975,136.67667 100.9299,142.31562 C 102.47712,146.38512 106.30154,148.33883 111.56017,147.74611 C 116.82997,147.15212 119.48607,145.08726 121.04105,140.37562 C 123.01279,133.82543 119.7813,125.33862 114.23206,123.5 L 91.366031,122.86345 C 69.036816,122.24185 62.188308,121.31188 56.152853,118.0818 C 53.023853,116.40721 47.960495,110.97728 46.86428,108.12076 C 45.691322,105.06426 43.006686,82.188501 42.978038,75.006128 C 42.954974,69.223801 40.546388,62.517454 37.624166,60.099079 C 36.693132,59.328572 33.584316,58.094806 30.715688,57.357376 C 24.850515,57.100167 21.189273,58.221194 17.485202,63.021354 z M 172.99477,148.65876 C 176.207,151.86682 185.09924,146.19392 184.46152,140.68415 C 184.2873,139.17891 181.92632,131.67783 179.17327,132.01067 C 175.16011,132.49586 168.13793,138.26739 167.51495,142.73128 C 170.95904,147.43145 171.50044,147.16637 172.99477,148.65876 z M 84.68145,147.6145 C 86.22179,146.66718 85.934085,143.97342 83.981136,137.53624 C 82.811747,136.44552 82.233566,137.56747 73.478091,136.65066 L 63.78078,135.56422 L 61.809661,139.15066 C 59.958345,143.30903 58.761417,145.78355 61.25,147.39276 C 63.487207,148.83942 66.374815,147.13718 66.819551,144.14787 C 67.324578,140.75332 68.810801,141.64944 68.647448,145.25 C 68.507908,148.3257 68.687703,148.5 72,148.5 C 75.074807,148.5 75.53844,148.16592 75.816422,145.75 C 76.208533,142.3422 78,142.09633 78,145.45031 C 77.406515,149.13015 81.03556,150.80105 84.68145,147.6145 z M 157.29475,161.58054 C 159.75471,162.80623 160.89605,163.87929 166.51853,160.2317 C 171.38923,156.20822 170.58012,152.27675 168.82645,150.01976 C 167.32949,147.39868 165.45268,145.00395 164.65577,144.69815 C 163.85887,144.39235 160.46031,145.44105 157.10343,147.02861 C 152.13504,149.37829 151,150.36039 151,152.30965 C 151,155.31087 154.33243,160.10454 157.29475,161.58054 z M 110.80139,48.834711 C 108.63675,49.342089 105.18201,50.117121 103.44868,51.471347 C 100.24602,53.973546 97.556592,62.26764 96,64.845582 C 90.201844,69.647597 89.992885,67.554661 88.07653,67.53046 C 86.154967,67.506193 81.401324,65.764771 81.897008,60.932504 C 82.297618,57.027091 86.544278,52.938327 84.910296,56.855077 C 83.522577,60.181519 86.829998,69.501141 93.587287,63.375438 C 95.736062,61.427505 95.828831,61.215996 95.977764,58.22432 C 96.28669,52.01879 91.302201,47.962521 84.315741,48.045104 C 77.600815,48.124478 73.65783,49.283998 70.488217,58.025627 C 69.185005,61.619818 66.220115,65.279911 64.540795,65.838556 C 59.544498,67.500631 54.275711,62.576038 55.325103,58.471424 C 56.04777,55.644767 59.110127,53.58923 58.067152,55.191293 C 56.258198,57.969938 56.137206,63 61.551016,63 C 70.855099,63 69.604245,51.759356 59.979264,48.875641 C 49.708263,45.798375 39.93147,56.242904 43.828839,65.290393 C 45.696359,69.625722 45.997785,78.072451 46.893526,87.262899 C 47.835793,96.930715 49.448432,106.0267 51.398888,108.48915 C 54.244838,113.82091 57.14782,115.18246 63,117.5 C 67.814799,119.25084 71.178513,119.51396 90,119.61209 C 120.1032,119.76903 117.40982,119.38957 122.00111,124.12058 C 128.72266,134.53523 128.45545,146.6416 132.82427,151.82916 C 135.64223,152.22856 141.90677,149.40652 142.68101,147.3889 C 143.25715,145.8875 139.8234,137.06614 135.46569,128.85262 C 132.56038,123.37663 132.3359,120.46881 134.74707,119.54356 C 140.95608,122.43775 143.87704,137.30997 148.15602,141.38605 C 149.4935,144.7087 150.25266,145.9164 152.10277,145.22693 C 154.90802,143.91767 158.10518,143.4157 160.40824,141.27761 C 161.33338,140.16288 156.83998,133.00477 153.78072,128.69237 C 150.29891,121.52478 147.91866,121.60066 145.88152,113.25 C 148.06381,110.23517 149.79449,111.73644 151.54213,113.06817 L 159.92241,126.40763 C 162.07974,129.20843 164.15353,132.7375 164.53082,134.25 C 165.44246,137.90457 167.02619,137.717 170.86357,133.5 C 172.61528,131.575 174.48759,130 175.02425,130 C 177.27374,130 175.61994,127.81734 163.27985,114.5 C 160.31106,111.42402 158.19749,107.68298 155.36244,104.5 C 149.44491,98.199326 148.25091,92.117967 152.54705,90.160515 C 155.6184,88.761117 158.67191,88.660124 159.45794,89.931942 C 159.77472,90.444509 158.78878,91.007009 157.26695,91.181942 C 151.12787,91.887622 154.51221,100.33333 160.93407,100.33333 C 167.33127,100.33333 170.96295,94.946513 169.57034,87.523273 C 168.04437,79.389127 160.37286,75.69834 149.60589,77.918315 C 146.24765,78.610729 142.99454,79.595132 142.37675,80.105878 C 140.72173,81.474135 137.92024,80.128545 134.23041,76.193085 C 132.43214,74.275102 131.08214,72.635832 131.23041,72.550262 C 131.37869,72.464692 132.11116,69.224146 133.20889,67.847196 C 137.02383,63.061854 143.6163,68.458069 140.36474,67.648945 C 135.3057,66.390042 134.11323,71.938616 137.74155,75.185367 C 140.43639,77.59681 142.69472,78.002382 145.89929,76.885265 C 149.84029,75.511422 151.36392,71.259939 149.71149,66.247801 C 146.94159,57.846141 134.96158,55.075161 127.3875,61.084255 C 125.24938,62.780596 123.14014,64.805596 122.70031,65.584255 C 121.71143,67.334928 115.70281,67.720324 113.5782,65.917656 C 108.13467,61.298962 110.42651,56.447398 112.57814,56.209979 C 113.32202,56.127898 112.08543,57.63386 111.76042,58.480845 C 110.97072,60.538771 114.69486,64 117.8803,64 C 121.5857,64 123.8524,62.114819 124.57513,58.432016 C 125.04802,56.022289 124.60272,54.68131 122.4997,52.182016 C 119.40062,48.925005 115.09422,48.289497 110.80139,48.834711 z M 146.77749,167.4433 C 150.49652,164.83839 149.40751,153.86291 145.30728,152.62589 C 143.38509,152.04597 133.54079,155.05921 131.85716,156.74284 C 130.33011,158.26989 132.66783,165.65393 135.25119,167.46339 C 138.07902,169.44408 143.93555,169.43387 146.77749,167.4433 z M 81.419568,109.73526 C 77.597248,108.76022 74.627611,106.07878 71.36501,104.00374 C 68.57419,103.99455 64.761354,91.883559 67.095182,90.441174 C 68.910687,85.844406 71.144007,82.311148 76.517708,81 C 82.843175,78.470132 89.786358,79.887642 96.427403,80.248239 C 108.92115,80.856165 110.64548,81.585004 115.87363,85.805683 C 120.30446,88.504813 120.14962,90.413322 119.71522,95.204006 C 119.70581,103.73501 114.32741,106.30183 107.84571,109.62182 C 104.38775,111.41728 84.396976,111.5031 81.419568,109.73526 z M 102.92256,106.54005 C 105.75916,105.07318 107.29468,101.93151 106.36243,99.50209 C 105.60219,97.520942 102.50693,97.028585 90.718615,97.013655 C 81.702673,97.002236 79.835623,97.264784 79.316725,98.617012 C 78.154161,101.6466 80.362841,105.43821 84.021457,106.69356 C 88.942287,108.38199 99.526865,108.29603 102.92256,106.54005 z M 114,94.811814 C 114,87.15809 107.96821,84.533632 90.331938,84.513731 C 79.526376,84.501537 77.846774,84.735018 75.331938,86.598871 C 72.188044,88.928947 71.02101,94.115463 73.08186,96.598635 C 74.137879,97.87106 74.599487,97.78544 76.546913,95.955928 C 78.653165,93.977206 79.680606,93.865703 92.979127,94.172617 C 98.815808,94.863316 105.49697,92.20828 109.18987,97.28317 C 110.79431,99.488031 111.50447,99.826217 112.60757,98.910725 C 113.37341,98.275137 114,96.430627 114,94.811814 z "
     style="fill:#000000;fill-opacity:1"
     id="path2163" />
</svg>
