<?xml version="1.0" encoding="UTF-8" standalone="no"?>
<!-- Created with Inkscape (http://www.inkscape.org/) -->
<svg
   xmlns:svg="http://www.w3.org/2000/svg"
   xmlns="http://www.w3.org/2000/svg"
   version="1.0"
   width="167.61491"
   height="104.50371"
   id="svg2">
  <defs
     id="defs5" />
  <path
     d="M 69.582357,0.0037122338 C 68.305741,-0.073662766 66.728695,1.0587592 64.707357,3.3787122 C 62.782357,5.5880942 59.943164,7.8595102 58.394857,8.4412122 C 56.846553,9.0229122 48.730778,10.016843 40.394857,9.5037122 C 31.355516,9.1591622 20.838502,6.5502752 14.426107,14.316212 C 12.566587,17.054591 11.797112,21.229874 11.301107,25.472462 C 10.908554,28.830181 9.2175707,31.404257 7.9886067,32.753712 C 4.7289807,36.332916 3.5144767,39.39758 4.1761067,42.409962 C 4.5592247,44.154287 4.1521057,46.604176 3.0823567,48.847462 C 1.6021407,51.951507 1.5272057,52.961881 2.6136067,56.253712 C 3.7474477,59.689282 3.6661977,60.529382 1.6761067,64.347462 C 0.45771368,66.685002 -0.25115032,68.857712 0.082356681,69.191212 C 5.7508567,69.029021 11.630041,66.404476 16.769857,64.034962 C 28.814393,58.262773 30.76815,59.611503 25.926107,70.316212 C 24.258928,74.001982 22.564152,78.065413 22.176107,79.378712 C 21.549945,81.497902 21.736854,81.712491 23.832357,81.253712 C 25.130978,80.969392 30.379611,79.230383 35.488607,77.378712 C 46.939628,73.228482 47.002202,73.279821 46.113607,86.628712 C 45.392453,97.462222 46.118535,98.931584 50.488607,95.534962 C 54.897915,91.898946 59.832376,88.906355 64.019857,85.003712 C 65.365238,84.528215 66.699155,84.75866 67.863607,85.534962 C 69.205955,92.759028 70.265686,99.51754 76.238607,104.50371 C 76.910253,104.50371 79.653193,101.1216 82.332357,97.003712 C 88.791407,87.076082 90.494627,86.986302 94.957357,96.253712 C 96.745107,99.966212 98.918267,103.12849 99.769857,103.28496 C 100.70988,103.45767 101.96534,102.18078 102.98861,100.03496 C 104.98566,95.847102 105.60688,95.755691 110.48861,98.909962 C 116.06126,102.30834 122.68222,103.04303 129.08236,103.03496 C 147.81847,103.09545 155.80345,90.882925 157.51986,73.441212 C 158.57432,64.062529 154.8759,55.966501 153.64486,53.941212 C 153.33659,54.05588 151.48646,54.951796 157.58236,51.191212 C 158.11604,50.86198 163.69948,47.85062 166.05111,42.941212 C 168.89134,37.011752 168.03634,34.064728 162.05111,34.159962 L 122.08236,32.659962 C 108.02967,31.790517 103.91689,30.352551 95.238607,30.753712 C 88.659877,31.149022 82.1518,31.676228 76.207357,34.753712 C 68.808242,32.014419 61.47475,29.088822 54.019857,26.503712 C 53.84339,26.503712 53.707357,25.83504 53.707357,25.034962 C 53.707357,24.139332 55.148535,23.352211 57.457357,22.941212 C 68.18104,21.032267 75.339765,12.013113 72.644857,3.8474622 C 71.822318,1.3551452 70.858973,0.081087234 69.582357,0.0037122338 z"
     id="path2418"
     style="fill:#2a120d" />
  <path
     d="M 102.41252,48.344006 C 102.41337,48.683399 102.23279,48.997374 101.939,49.167315 C 101.64522,49.337256 101.28302,49.337256 100.98924,49.167315 C 100.69545,48.997374 100.51487,48.683399 100.51572,48.344006 C 100.51487,48.004613 100.69545,47.690639 100.98924,47.520698 C 101.28302,47.350757 101.64522,47.350757 101.939,47.520698 C 102.23279,47.690639 102.41337,48.004613 102.41252,48.344006 z"
     id="path2199"
     style="opacity:1;fill:#ffffff;fill-opacity:1;stroke:#483630;stroke-width:0;stroke-linecap:butt;stroke-linejoin:round;stroke-miterlimit:4;stroke-dasharray:none;stroke-opacity:1" />
  <path
     d="M 69.301107,4.6912122 C 68.078279,4.7008822 66.113934,5.6923922 63.551107,7.7537122 C 57.169909,13.411541 48.603235,11.055958 40.801107,11.503712 C 23.641986,9.1785182 21.648441,12.223949 19.363607,13.816212 C 13.591719,17.838545 10.981974,25.500079 14.824386,30.16768 C 18.571625,34.71967 23.967954,33.818104 27.082357,31.784962 C 29.09911,29.449442 25.650665,28.790842 22.176107,28.597462 C 21.379014,28.553092 22.09236,25.206122 25.707357,25.816212 C 27.473652,26.114302 28.935724,27.597462 29.082357,27.597462 C 32.697907,32.032586 31.356926,35.83789 26.582357,35.816212 C 25.89614,35.938232 19.094825,35.117552 15.019857,34.347462 C 14.425301,34.467082 13.715735,34.503712 12.957357,34.503712 C 9.5244387,34.503712 6.5361097,38.111579 6.8948567,40.628839 C 14.964501,40.41233 31.11157,44.259334 34.707357,45.003712 C 37.720878,44.047252 40.649525,37.100812 40.676107,30.847462 C 40.695139,26.369902 40.340609,25.403302 37.957357,23.597462 L 35.207357,21.503712 L 41.707357,22.097462 C 54.704267,23.307372 64.968857,19.585572 68.769857,12.284962 C 71.331689,7.3644322 71.339154,4.6750922 69.301107,4.6912122 z"
     id="path2181"
     style="fill:#a41109;fill-opacity:1;fill-rule:evenodd;stroke:none;stroke-width:1px;stroke-linecap:butt;stroke-linejoin:miter;stroke-opacity:1" />
  <path
     d="M 4.3011067,53.847462 C 5.0672787,55.844072 5.7098067,55.894622 9.1136067,54.128712 C 18.250426,50.915859 25.962558,55.882597 32.707357,61.409962 C 41.180258,68.592402 48.857442,74.424762 54.488607,78.066212 C 65.456051,85.120383 77.987117,87.165679 90.769857,87.128712 C 100.67138,86.871132 104.74364,85.468582 116.80111,78.284962 C 119.30317,76.794282 120.96552,76.413472 122.30111,77.003712 C 124.04365,77.773792 123.98326,77.902722 121.70736,78.284962 C 118.2535,78.865042 116.70736,80.334742 116.70736,83.066212 C 116.70736,88.753732 125.94335,90.392732 130.76986,85.566212 C 135.8765,80.459582 133.98927,71.129262 127.26986,68.316212 C 121.66476,65.969672 116.67425,66.701602 106.83236,71.378712 C 95.434157,76.795412 87.797137,77.709402 76.551107,74.972462 C 58.293656,70.871312 44.696019,57.102309 29.394857,47.191212 C 22.506442,43.207042 8.6788527,40.750893 4.3011067,53.847462 z"
     id="path2197"
     style="fill:#dba832;fill-opacity:1;fill-rule:evenodd;stroke:none;stroke-width:1px;stroke-linecap:butt;stroke-linejoin:miter;stroke-opacity:1" />
  <path
     d="M 81.332357,36.847462 C 75.294418,40.803676 74.178999,49.776035 79.144857,54.441212 C 82.727676,57.807102 85.28477,56.873182 84.894857,52.347462 C 84.649289,49.497158 84.871635,48.019556 86.832357,47.128712 C 95.247967,43.305128 108.6601,44.905345 117.42611,47.691212 C 118.29102,47.966083 118.70736,50.025285 118.70736,51.597462 C 118.70736,55.434892 121.49832,55.983572 131.98861,54.534962 C 150.38983,51.993922 160.67249,49.32284 164.26986,43.034962 C 165.78113,40.393402 165.8001,38.437544 164.51986,36.628712 C 163.63185,35.508564 162.3385,35.401773 160.93357,35.57393 C 137.27568,39.268794 94.764157,27.105119 81.332357,36.847462 z"
     id="path2183"
     style="fill:#a41109;fill-opacity:1;fill-rule:evenodd;stroke:none;stroke-width:1px;stroke-linecap:butt;stroke-linejoin:miter;stroke-opacity:1" />
  <path
     d="M 45.957357,27.253712 C 45.196951,27.536352 44.707357,29.601464 44.707357,32.503712 C 44.707357,37.446872 42.626377,43.75668 40.019857,46.691212 C 38.136302,52.194975 49.497193,60.283217 61.247453,66.206075 C 77.453689,74.957756 90.349717,75.790483 103.70736,69.316212 C 107.01593,67.267302 110.83397,66.257782 120.30111,64.878712 C 133.98109,62.885952 144.46077,80.230732 134.26986,88.003712 C 127.88842,92.871082 125.42004,93.08937 118.11361,89.534962 C 111.8939,86.509221 111.39674,87.25524 108.83236,88.222462 C 105.53186,92.960915 111.93919,95.769826 115.45736,97.753712 C 119.4693,100.24112 135.68737,100.16432 141.26986,97.628712 C 150.05595,93.638012 155.2247,79.177662 152.76986,65.441212 C 151.01016,55.594502 150.89961,55.531582 134.20736,56.597462 C 120.78714,57.398926 107.64483,60.149646 94.207357,60.691212 C 84.537167,60.917752 82.723971,60.697302 79.113607,58.784962 C 73.655536,55.893912 72.235593,52.372076 73.051107,43.597462 L 73.707357,36.816212 C 64.733001,32.809225 55.4939,29.458807 45.957357,27.253712 z"
     id="path2179"
     style="fill:#5d0f08;fill-opacity:1;fill-rule:evenodd;stroke:none;stroke-width:1px;stroke-linecap:butt;stroke-linejoin:miter;stroke-opacity:1" />
  <path
     d="M 9.8948567,56.566212 C 8.3339727,57.610602 6.8972197,59.073912 5.8011067,60.847462 C 0.17604768,72.338984 12.471084,64.242406 16.894857,62.409962 C 14.439084,60.930802 12.109313,59.010642 9.8948567,56.566212 z M 29.676107,69.097462 C 27.812317,72.052022 25.760629,76.075302 25.738607,77.253712 C 25.70006,79.316582 28.896761,78.661432 34.457357,75.472462 C 35.179232,75.058472 35.861068,74.627592 36.488607,74.222462 C 34.097334,73.005782 31.807367,71.354192 29.676107,69.097462 z M 48.832357,84.378712 C 48.753136,85.180272 48.707357,86.096122 48.707357,87.128712 C 48.707357,91.792802 48.954347,92.503712 50.644857,92.503712 C 51.716868,92.503712 53.790259,90.965092 55.238607,89.066212 C 55.486608,88.741062 55.688919,88.433302 55.894857,88.128712 C 53.363061,87.229172 50.877338,86.251882 48.832357,84.378712 z M 74.207357,94.066212 C 74.320205,94.555192 74.475647,95.063942 74.644857,95.628712 C 76.176368,100.74045 78.704948,100.51014 80.488607,95.066212 C 80.588363,94.761742 80.655794,94.501612 80.738607,94.222462 C 78.557537,94.610132 76.388427,94.671812 74.207357,94.066212 z M 103.45736,94.066212 C 101.48487,94.841072 99.156837,94.901582 96.769857,94.847462 C 97.772147,97.219702 99.231617,99.503712 100.05111,99.503712 C 100.78044,99.503712 101.91283,98.342092 102.55111,96.941212 C 102.97361,96.013922 103.27423,95.038602 103.45736,94.066212 z"
     id="path2425"
     style="fill:#ffffff;fill-opacity:1" />
  <path
     d="M 9.8948567,56.566212 C 12.109313,59.010642 14.439084,60.930802 16.894857,62.409962 C 25.449934,57.906211 16.59686,52.841534 9.8948567,56.566212 z M 32.332357,65.784962 C 31.850069,65.939182 30.794381,67.324722 29.676107,69.097462 C 31.807367,71.354192 34.097334,73.005782 36.488607,74.222462 C 38.371224,73.007072 39.707357,71.933702 39.707357,71.566212 C 37.509534,68.309641 34.203419,66.532453 32.332357,65.784962 z M 48.832357,84.378712 C 50.877338,86.251882 53.363061,87.229172 55.894857,88.128712 C 60.44042,81.81736 50.14361,75.957818 48.832357,84.378712 z M 100.83236,87.941212 C 98.616627,88.010102 95.707357,89.473222 95.707357,90.847462 C 95.707357,91.857562 96.147927,93.375482 96.769857,94.847462 C 99.156837,94.901582 101.48487,94.841072 103.45736,94.066212 C 103.98196,91.280622 103.54281,88.641172 102.20736,88.128712 C 101.81216,87.977062 101.34368,87.925312 100.83236,87.941212 z M 74.207357,94.066212 C 76.388427,94.671812 78.557537,94.610132 80.738607,94.222462 C 84.909383,86.965904 70.958633,85.966081 74.207357,94.066212 z"
     id="path2185"
     style="fill:#a41109;fill-opacity:1;fill-rule:evenodd;stroke:none;stroke-width:1px;stroke-linecap:butt;stroke-linejoin:miter;stroke-opacity:1" />
  <path
     d="M 88.069077,48.676157 C 86.120601,51.023925 87.181237,55.535207 90.006577,56.957407 C 91.472027,57.695077 96.370267,58.230017 101.81908,58.238657 C 110.36511,58.252207 111.31243,58.057827 113.56908,55.801157 C 117.82084,51.54941 116.16217,48.238657 109.78783,48.238657 C 106.68205,48.238657 105.74483,48.706843 104.81908,50.738657 C 103.13064,54.444377 98.558277,54.208299 96.537827,50.301157 C 96.035297,49.329377 95.597477,48.354769 95.319077,47.644907 C 93.762487,46.360106 89.147027,47.171544 88.069077,48.676157 z"
     id="path3360"
     style="fill:#ffffff;fill-opacity:1" />
</svg>
