<?xml version="1.0" encoding="UTF-8" standalone="no"?>
<!-- Created with Inkscape (http://www.inkscape.org/) -->
<svg
   xmlns:svg="http://www.w3.org/2000/svg"
   xmlns="http://www.w3.org/2000/svg"
   version="1.0"
   width="193"
   height="193"
   id="svg2">
  <defs
     id="defs5" />
  <path
     d="M 37.396883,170.33802 C 31.346883,169.94043 25.657063,169.27939 24.752833,168.86905 C 23.498903,168.30001 23.020513,166.37498 22.736803,160.75661 C 22.532213,156.7051 25.964713,151.25008 25.541363,150.82673 C 25.118003,150.40337 18.889163,152.56836 16.522723,153.44542 C 9.4643727,156.06143 1.8968827,153.89289 1.8968827,149.25425 C 1.8968827,146.68006 2.0583827,146.60487 6.7168127,147.01019 C 10.840583,147.36899 12.002163,147.03793 14.759133,144.7181 C 17.648143,142.28715 17.828213,141.83724 16.499693,140.36924 C 14.170723,137.79576 16.083833,125.24826 18.319833,121.83568 C 19.271103,120.38387 20.408153,114.4383 20.408153,112.56958 C 20.408153,110.31747 21.037943,108.28674 22.981333,105.84129 C 24.593903,103.81214 26.205813,100.82001 26.563353,99.192111 C 27.368593,95.525911 30.849513,93.151841 35.675193,92.368741 C 37.658203,92.046941 42.764143,90.781221 48.775633,91.748401 C 59.644443,93.497061 59.365383,94.571471 62.654373,92.493521 C 69.735243,88.019911 78.627473,84.911871 83.786813,83.695141 C 89.056013,82.452501 109.48491,81.283161 112.89687,82.638691 C 113.72187,82.966461 114.71312,84.241391 115.53812,83.717981 C 116.7559,82.945381 118.53556,79.835651 118.80491,65.641821 C 139.86377,67.883461 148.00691,68.545681 152.36866,69.627871 C 160.89225,71.742651 152.46904,76.144821 144.74436,93.692451 C 144.74436,95.031151 152.33693,91.344151 155.19333,89.558541 C 153.38114,88.013001 161.68682,79.555011 176.74319,107.58587 C 178.58366,111.32942 178.95329,115.36216 179.75698,115.67057 C 193.26534,112.56753 186.0838,113.60273 175.34887,117.67087 C 170.2575,119.53429 165.8931,121.20494 163.01934,122.26039 C 160.14558,123.31583 159.50743,124.76125 158.10799,124.89689 C 152.86848,125.40471 151.50225,127.84225 155.2447,130.42485 C 156.49936,131.29067 158.39807,136.80564 160.41909,141.75564 C 168.35261,153.88941 146.52651,146.15075 142.6605,151.22132 C 139.08077,155.91641 137.33893,148.83119 125.53731,151.25531 C 115.86532,153.242 125.69103,170.19953 113.47565,168.74956 C 101.67259,167.34853 83.546433,170.36637 75.896883,170.49957 C 60.771883,170.80832 43.446883,170.73562 37.396883,170.33802 z M 80.532573,155.75869 C 83.309633,153.93909 83.918243,149.46532 82.344473,142.43974 C 81.793053,139.9781 76.730683,137.25996 72.679003,137.25006 C 66.638073,137.2353 62.461053,134.92637 53.995093,126.92217 C 44.752803,117.55543 34.572303,108.89872 23.263293,119.39851 C 19.818303,123.20518 15.928343,125.17461 24.087623,124.558 C 35.725953,123.67848 43.141993,126.74591 47.873753,134.39646 C 51.085503,139.58937 56.006483,143.75294 60.156333,144.78856 C 62.450933,145.36119 64.807303,147.05174 63.705903,147.33516 C 63.535943,147.37889 59.796883,147.77647 55.396883,148.21866 C 50.996883,148.66085 46.384383,149.35256 45.146883,149.75578 C 43.305013,150.35592 42.896883,150.11567 42.896883,148.43129 C 42.896883,147.2996 42.406473,146.07058 41.807073,145.70014 C 41.163763,145.30255 40.966833,143.69632 41.326413,141.77961 C 42.010193,138.13474 40.968763,136.81375 36.533953,135.70069 C 30.740433,134.24661 27.331205,141.5806 32.737485,146.98689 L 38.959383,150.51814 L 36.032673,149.9328 C 28.404683,148.4072 22.533743,151.84006 24.973713,156.3992 C 26.114813,158.53135 26.259463,158.53948 52.144593,157.92531 C 73.199873,157.42573 78.619653,157.01209 80.532573,155.75869 z M 21.924493,138.20406 C 23.559373,135.14925 22.768113,131.75564 20.420963,131.75564 C 17.782723,131.75564 16.023833,136.49875 17.847303,138.69589 C 19.580993,140.78486 20.609693,140.66077 21.924493,138.20406 z M 29.049783,137.81941 C 30.338933,134.99003 29.590093,132.25564 27.526093,132.25564 C 25.966453,132.25564 23.938433,136.98762 24.633203,139.00564 C 25.349613,141.08654 27.869563,140.40972 29.049783,137.81941 z M 102.11091,124.71842 C 104.34187,123.78626 105.0509,121.49013 105.46913,119.82377 C 106.55487,115.49781 104.91746,110.95784 99.896168,110.95784 C 90.831453,110.18884 92.855333,109.59399 83.579933,110.66464 C 79.237933,110.29994 73.385384,115.3359 74.316334,119.04511 C 75.356804,123.19068 84.631368,125.38957 93.972768,125.52844 C 97.152936,125.57571 100.22316,125.50717 102.11091,124.71842 z "
     style="fill:#b71310;fill-opacity:1"
     id="path2167" />
  <path
     d="M 119.25265,65.029212 C 118.76755,61.175698 118.81643,55.453265 119.6829,46.86928 C 124.1504,41.931119 126.72722,48.121534 132.40939,51.476086 C 134.89859,53.265429 139.6157,48.592829 143.91797,46.136212 C 145.96696,47.631949 147.51312,55.046563 150.02944,56.381066 C 155.29326,58.590045 158.50471,55.207544 162.48397,56.907681 C 166.66697,59.698551 157.55646,65.478349 151.8611,74.896678 C 135.03746,68.828914 126.00093,66.395139 119.25265,65.029212 z "
     style="fill:#fabf59;fill-opacity:1;fill-rule:evenodd;stroke:#000000;stroke-width:1px;stroke-linecap:butt;stroke-linejoin:miter;stroke-opacity:1"
     id="path2192" />
  <path
     d="M 109.85984,168.76061 C 115.35896,169.20706 118.41832,161.32814 122.76306,152.0064 C 144.92805,150.43339 152.13905,150.12601 161.40058,149.86944 C 164.26456,153.28852 165.1737,157.84495 170.5872,167.00044 C 144.30501,169.66488 132.52986,169.47042 109.85984,168.76061 z "
     style="fill:#fabf59;fill-opacity:1;fill-rule:evenodd;stroke:#000000;stroke-width:1px;stroke-linecap:butt;stroke-linejoin:miter;stroke-opacity:1"
     id="path2196" />
  <path
     d="M 25.265725,160.28084 C 26.117296,158.55151 22.268005,157.46119 24.203446,150.89276 C 41.309975,149.28658 42.226254,150.20025 63.501314,147.2406 C 58.277964,145.41555 50.438238,142.014 47.45213,134.4202 C 42.226833,127.48717 37.635746,127.03372 34.355626,126.58461 C 29.507796,125.01556 20.556005,123.65417 19.701977,126.37322 C 18.839228,128.03283 13.447859,129.02925 15.04918,123.06302 C 15.910365,118.82802 19.682319,117.74442 21.449752,116.22816 C 27.435051,114.13914 31.546042,114.54919 35.539775,115.11559 C 39.867176,115.63457 44.123226,116.43896 47.784154,119.62384 L 58.886152,130.57626 L 69.361654,136.23787 L 77.252191,137.40672 C 77.262111,137.4163 80.797301,136.51864 83.803831,141.81991 C 85.022087,143.968 84.780315,152.90392 83.084745,154.57288 C 81.657685,156.92531 77.879415,157.63438 75.11242,157.9769 L 62.018729,158.9341 L 46.8397,159.4287 C 33.168845,158.32229 36.554424,159.94726 32.209967,159.77349 L 25.265725,160.28084 z "
     style="fill:#fabf59;fill-opacity:1;fill-rule:evenodd;stroke:#000000;stroke-width:1px;stroke-linecap:butt;stroke-linejoin:miter;stroke-opacity:1"
     id="path2198" />
  <path
     d="M 161.12607,85.492818 C 164.57618,83.514217 165.04154,80.075309 172.49466,72.75102 C 178.37093,74.606229 177.11397,80.385693 177.72481,84.237182 C 181.22249,85.592292 181.59931,86.212032 188.52705,88.424656 C 190.66262,90.939101 190.63564,94.350484 185.70742,101.11607 C 191.24501,105.23377 191.21425,108.88912 190.27043,112.0809 C 187.73884,115.02347 182.97535,114.70786 178.55452,114.81656 C 171.45563,100.20671 166.3754,93.166826 161.12607,85.492818 z "
     style="fill:#fabf59;fill-opacity:1;fill-rule:evenodd;stroke:#000000;stroke-width:1px;stroke-linecap:butt;stroke-linejoin:miter;stroke-opacity:1"
     id="path2194" />
  <path
     d="M 74.975774,121.15103 C 74.173485,120.37077 68.695929,115.8489 68.42589,111.5113 C 68.155851,107.1737 74.092245,101.05945 76.461778,100.99492 C 87.211691,99.128856 95.90923,98.978612 106.12393,102.0659 C 111.36953,103.57663 114.36008,105.85764 114.95909,111.19826 C 114.76429,119.80039 109.36517,122.41931 104.96062,124.0052 L 106.72361,117.16868 C 107.69675,114.07583 101.42124,111.12025 89.908833,112.72033 C 84.471303,113.38339 82.584748,111.92837 76.554106,112.57172 C 75.853931,112.36544 74.259847,116.75933 74.975774,121.15103 z "
     style="fill:#305950;fill-opacity:1;fill-rule:evenodd;stroke:#000000;stroke-width:1px;stroke-linecap:butt;stroke-linejoin:miter;stroke-opacity:1"
     id="path2210" />
  <path
     d="M 20.504293,114.69346 L 41.813139,115.46723 L 45.333837,109.6507 C 45.632809,106.88079 45.993042,104.20277 45.364614,100.04177 C 44.889997,98.090901 43.66101,96.140036 41.275009,94.189172 C 39.218736,93.714709 38.858948,92.67475 34.233614,93.056641 C 31.486693,92.686621 28.739773,93.156556 25.992853,97.053916 C 25.132166,97.246445 24.622576,99.545559 24.717002,105.46877 C 22.099302,107.93694 17.738441,109.53352 20.504293,114.69346 z "
     style="fill:#30584f;fill-opacity:0.99673252;fill-rule:evenodd;stroke:#000000;stroke-width:1px;stroke-linecap:butt;stroke-linejoin:miter;stroke-opacity:1"
     id="path2212" />
  <path
     d="M 41.157412,99.337787 C 41.456492,99.821707 41.632317,102.98383 40.563075,105.53563 C 38.590139,110.24413 35.622315,111.05166 30.066802,109.71812 C 25.646511,108.65708 22.12056,109.66082 22.725312,111.5727 C 22.831095,111.90712 25.684072,112.2275 29.309882,112.24841 C 32.935692,112.26933 36.160692,112.54487 36.476552,112.86073 C 37.789812,114.17399 40.766142,113.2832 42.075482,111.18502 C 45.171842,106.22321 44.222348,102.134 43.921267,98.85947 C 43.665101,96.073431 40.151224,95.005489 39.111392,94.755918 C 38.228022,94.41694 34.810516,94.203334 32.393886,95.377424 C 28.646576,97.198004 28.717502,98.852397 28.717502,101.42202 C 28.717502,103.76835 29.160032,104.43502 30.717502,104.43502 C 32.267782,104.43502 32.717502,103.76835 32.717502,101.4702 C 32.717502,98.167207 35.627772,95.916777 38.819742,96.751497 M 41.375583,170.23394 C 38.480403,169.58102 34.605432,169.41387 40.809402,169.26667 C 67.394252,168.63591 78.80551,168.9701 110.45179,167.94224 C 114.64307,167.80611 114.86031,166.81176 116.24782,168.19928 C 119.08642,171.03788 164.92524,168.62729 167.8924,165.66013 C 168.54002,165.01251 167.54366,162.31815 164.98752,157.80472 C 160.51786,149.91256 163.82062,150.6721 138.80283,151.78302 C 127.41345,152.28877 124.00295,152.7717 122.55282,154.08405 C 117.23193,162.12732 119.02924,161.38211 122.57341,150.41807 C 123.51825,147.16633 124.54117,145.2237 123.53299,139.44556 C 122.52482,133.66742 114.2889,126.10122 114.70472,127.03311 C 114.9705,127.62875 114.48012,120.1197 117.2559,125.32066 C 119.07497,128.72904 123.4637,130.71969 124.82147,135.97753 C 126.94202,143.13816 124.35509,148.59612 124.55247,150.87425 C 131.79163,150.69145 157.43209,148.12044 158.06439,147.48814 C 158.89973,146.6528 158.59518,144.7557 156.88607,140.14833 C 155.61841,136.73101 154.32165,132.85564 154.00438,131.5364 C 153.08068,127.69551 155.40533,129.94068 156.76119,134.19895 C 157.41547,136.25379 161.09992,144.37089 164.94887,152.23696 C 168.79782,160.10303 171.70598,166.77988 171.41146,167.07441 C 169.64227,168.84359 159.85343,169.57579 133.21751,169.93131 C 116.7175,170.15154 91.517503,170.5444 77.217502,170.80434 C 62.917502,171.06427 43.300583,170.66807 41.375583,170.23394 z M 25.967502,168.94415 L 22.717502,167.53157 L 22.819862,159.23329 C 22.897542,152.93657 23.110782,151.73116 23.703942,154.23577 C 24.133892,156.05118 24.787522,157.83837 25.156462,158.20731 C 25.525402,158.57625 34.465072,158.73815 45.022382,158.56708 C 55.579702,158.39601 63.843882,158.63381 63.387222,159.09553 C 62.930572,159.55725 54.428492,160.16002 44.493722,160.43502 C 28.711992,160.87187 26.291382,161.15606 25.329112,162.68502 C 23.297932,165.9124 25.746742,167.87926 32.488062,168.43502 C 35.823812,168.71002 38.890052,169.27252 39.301942,169.68502 C 40.641652,171.02671 29.310472,170.39715 25.967502,168.94415 z M 67.717502,158.43502 C 68.542502,157.90186 71.375462,157.45875 74.012962,157.45033 C 80.485812,157.42966 83.720132,154.35493 83.711342,148.23047 C 83.707952,145.86797 83.059642,142.69752 82.270652,141.18502 C 81.477552,139.66466 81.279552,138.43502 81.827832,138.43502 C 83.537082,138.43502 85.717502,145.15205 85.717502,150.4176 C 85.717502,155.0383 85.443102,155.63172 82.467502,157.44598 C 80.099932,158.88952 77.452642,159.4244 72.717502,159.41597 C 68.152802,159.40784 66.664112,159.11577 67.717502,158.43502 z M 30.141243,150.4095 C 26.052733,149.91219 25.551413,150.37261 27.391243,149.71673 C 30.173513,148.72489 31.360832,144.99903 28.727732,143.15474 C 26.766522,141.78105 26.780882,141.67713 29.727732,135.91502 C 31.372112,132.6997 32.717502,129.50667 32.717502,128.81939 C 32.717502,127.04803 29.865972,126.45375 25.249402,127.263 C 20.625312,128.07357 16.274722,133.3384 17.017622,137.22462 C 17.285112,138.62394 17.020222,139.36966 16.336412,139.14235 C 15.660502,138.91768 15.148222,135.69953 15.042502,131.01415 C 14.892912,124.38408 15.058502,123.5191 16.182952,125.05688 C 17.309172,126.59708 17.880582,126.68175 20.155012,125.64545 C 23.819362,123.97586 31.923772,124.12379 34.276372,125.90322 C 35.344002,126.71072 37.169322,127.38572 38.332642,127.40322 C 41.336372,127.44838 44.977812,130.60721 48.683822,136.38254 C 51.157082,140.23677 53.169052,141.97667 57.550282,144.04998 C 62.355242,146.32383 62.913212,146.85075 61.217502,147.51316 C 60.117502,147.94287 56.600422,148.32608 53.401762,148.36473 C 50.203102,148.40339 46.738432,148.88864 45.702492,149.44305 C 44.102862,150.29915 43.558492,149.90218 42.090862,146.80938 C 40.412582,143.27268 40.426692,143.04716 42.580252,138.98768 C 43.862412,136.57078 44.518802,134.08079 44.136442,133.08436 C 43.147122,130.50623 38.524782,128.40374 36.427032,129.5777 C 34.092822,130.88399 31.717502,136.84544 31.717502,141.39743 C 31.717502,144.55087 32.285262,145.51956 35.455622,147.77531 C 37.511592,149.23815 38.524092,150.36432 37.705622,150.27792 C 36.887162,150.19151 32.891243,150.74401 30.141243,150.4095 z M 50.491322,144.25646 C 49.785102,142.1378 46.888212,140.86432 45.632162,142.12036 C 45.004942,142.74758 44.794122,143.74996 45.163652,144.34789 C 46.085482,145.83943 50.990922,145.75526 50.491322,144.25646 z M 22.019082,140.78993 C 21.105752,140.41863 21.091462,139.66428 21.959012,137.61888 C 23.887302,133.07262 24.598372,132.98357 24.538862,137.29578 C 24.481852,141.4269 24.278742,141.70855 22.019082,140.78993 z M 64.717502,135.32204 C 62.022082,134.25875 51.717502,124.57992 51.717502,123.11147 C 51.717502,122.62094 54.433482,124.7341 57.753002,127.8074 C 61.731522,131.4908 65.395262,133.88947 68.503002,134.84546 C 72.513702,136.07921 72.769652,136.29665 70.217502,136.30198 C 68.567502,136.30543 66.092502,135.86446 64.717502,135.32204 z M 114.30038,125.72746 C 112.27804,124.66577 109.90086,124.37159 106.55038,124.76841 C 103.8923,125.08322 101.7175,125.13699 101.7175,124.88791 C 101.7175,124.63882 102.64476,123.50776 103.77808,122.37444 C 105.08107,121.07145 105.72447,119.32508 105.52808,117.62444 C 105.24546,115.17712 104.78956,114.90757 100.46364,114.63007 C 96.156613,114.35379 95.618483,114.56527 94.738403,116.88007 C 93.323043,120.60275 88.327093,120.48425 86.514972,116.68502 C 85.501132,114.55944 84.390772,113.86677 81.624812,113.63446 C 77.316732,113.27261 75.359612,115.16086 76.272562,118.79835 C 77.211482,122.53932 79.187422,123.73895 86.585443,125.05946 C 92.316553,126.08244 92.664353,126.25628 89.145643,126.33914 C 82.172742,126.50333 76.303202,123.84337 72.299922,118.70499 C 68.406002,113.70698 68.112892,112.18509 69.897162,106.22971 C 71.640762,100.41009 76.131092,98.423697 87.427673,98.474707 C 98.126563,98.523017 109.50265,100.409 113.02788,102.71882 C 116.69577,105.12211 118.27198,111.38296 116.65927,117.14299 C 115.71325,120.52183 115.7028,122.10734 116.61335,124.10578 C 118.11864,127.40954 117.85565,127.59393 114.30038,125.72746 z M 92.717503,115.876 C 92.717503,115.08346 91.817503,114.43502 90.717503,114.43502 C 88.534783,114.43502 87.950163,116.9931 89.967503,117.71674 C 91.659243,118.32358 92.717503,117.61523 92.717503,115.876 z M 112.51148,113.35685 C 112.67873,110.84115 112.24309,108.16649 111.50088,107.15218 C 109.74334,104.75031 97.366973,101.91564 90.442753,102.32906 C 80.018892,102.07091 89.548203,102.58866 81.454682,102.43502 C 77.476242,102.43502 74.187652,105.43149 73.223502,109.93502 C 72.675752,112.49361 72.775192,112.70877 73.899372,111.39733 C 74.872802,110.26177 76.786582,109.93459 81.217502,110.14623 C 84.517502,110.30384 91.132803,110.592 95.918153,110.78657 C 105.43246,111.17341 109.7175,112.96043 109.7175,116.54141 C 109.7175,120.58484 112.22062,117.7318 112.51148,113.35685 z M 157.71751,124.66204 C 157.71751,124.21595 161.83416,122.31362 166.86561,120.43465 C 172.94993,118.16249 176.17063,116.4183 176.48224,115.22668 C 177.04377,113.07942 176.84466,113.10079 180.17768,114.82998 C 183.34013,116.47068 183.67108,116.22676 172.21751,120.69662 C 162.05647,124.66206 157.71751,125.84867 157.71751,124.66204 z M 17.717502,114.0982 C 17.717502,110.75065 18.412792,108.83513 20.649442,106.02067 C 22.262002,103.99152 23.873912,100.99939 24.231462,99.371487 C 24.612492,97.636637 26.371622,95.278377 28.481962,93.673346 C 31.779452,91.165406 32.761152,90.949811 40.149942,91.110889 C 44.587102,91.207621 49.567502,91.709089 51.217502,92.225262 L 54.217502,93.16376 L 50.717502,94.130369 C 47.007782,95.154897 47.045172,95.020177 48.322532,102.75983 C 48.757852,105.39745 48.411312,107.78763 47.206082,110.46036 C 46.244842,112.59201 45.699552,115.25834 45.994322,116.38555 C 46.637562,118.84534 46.226562,118.88275 40.593232,116.87718 C 34.410762,114.67611 24.996012,114.61985 20.967502,116.7599 L 17.717502,118.48638 L 17.717502,114.0982 z M 139.99085,104.34883 C 138.10836,102.11204 136.78797,100.52426 137.91356,100.16702 C 139.12349,99.783005 142.70189,94.424332 143.76635,92.093958 C 144.81119,89.806538 146.80263,85.916973 148.19178,83.45048 C 149.58093,80.983987 150.71751,78.466232 150.71751,77.855468 C 150.71751,75.84502 147.32532,73.868392 139.71751,71.445764 C 135.59251,70.132201 132.96362,68.892391 133.87553,68.69063 C 134.78744,68.488869 139.00125,69.487858 143.23954,70.910606 C 147.47783,72.333353 151.68172,73.236239 152.58152,72.917019 C 154.60359,72.199648 162.71751,60.971108 162.71751,58.890204 C 162.71751,56.613231 160.03357,56.023744 155.64838,57.337579 C 150.83034,58.781098 148.00366,57.55856 147.13637,53.656148 C 145.93915,48.269153 145.56384,47.435013 144.33721,47.435013 C 143.65218,47.435013 141.79831,48.785013 140.21751,50.435013 C 136.20712,54.620961 132.59625,54.453656 129.13958,49.921734 C 126.14393,45.994226 122.01331,44.35827 120.62548,46.549666 C 119.26885,48.691796 119.53264,61.826908 120.9675,63.579914 C 121.655,64.419853 124.2425,65.742469 126.71751,66.519062 L 131.21751,67.93105 L 125.91537,68.237099 C 122.44409,68.437468 120.4224,69.040453 120.06058,69.983337 C 118.62668,73.720023 117.7175,69.263561 117.7175,58.498441 C 117.7175,45.879052 117.97574,45.161256 122.96637,43.908686 C 125.24781,43.336082 126.30515,43.82265 129.31079,46.828292 C 131.29449,48.811988 133.6006,50.435013 134.43549,50.435013 C 135.27039,50.435013 137.49105,49.085013 139.37029,47.435013 C 141.24954,45.785013 143.22144,44.435013 143.75231,44.435013 C 145.57041,44.435013 148.71751,48.43377 148.71751,50.743883 C 148.71751,52.013762 149.32961,53.889855 150.07774,54.912978 C 151.32167,56.614149 151.83823,56.661136 156.11927,55.462517 C 161.08911,54.07105 165.71751,55.107507 165.71751,57.611891 C 165.71751,58.747765 161.73869,65.160967 152.79862,78.435013 C 148.71146,84.503543 146.12712,90.177953 147.03634,91.087174 C 148.24681,92.297647 152.96865,90.252566 156.13047,87.148407 C 157.93067,85.38104 161.51438,81.983505 164.09428,79.598328 C 166.67418,77.213151 169.49657,74.175651 170.36627,72.848328 C 172.43744,69.687314 175.0659,69.79116 177.69853,73.138014 C 179.37286,75.266581 179.68964,76.640474 179.18915,79.60287 C 178.60192,83.07867 178.80695,83.519194 181.88555,85.39613 L 185.21751,87.427537 L 182.53894,87.431275 C 178.45411,87.436975 176.60448,84.994052 177.31751,80.535013 C 177.94307,76.622952 176.1049,73.435013 173.22363,73.435013 C 171.50388,73.435013 162.71751,83.414874 162.71751,85.36822 C 162.71751,86.175377 165.46238,90.998486 168.81723,96.086237 C 172.17207,101.174 174.73007,105.89735 174.50166,106.58257 C 174.27325,107.2678 173.05028,105.68815 171.78394,103.07224 C 170.5176,100.45633 167.72414,96.092807 165.57625,93.375524 C 160.90139,87.461379 158.72658,87.146776 152.3354,91.46013 C 145.86676,95.825767 141.64125,96.706839 141.64125,100.78297 C 146.8013,106.63601 144.85958,104.87963 146.87576,107.80267 C 148.89193,110.7257 153.43115,106.4898 152.89739,106.66482 C 152.36697,106.83873 155.41873,112.83719 147.1383,113.34322 C 143.69415,113.5537 143.8417,109.12097 139.99085,104.34883 z M 60.532842,93.445589 C 62.356272,93.014003 64.831272,91.760849 66.032842,90.660802 C 74.286212,83.104751 94.010233,79.358899 109.64909,82.377496 C 115.44441,83.496103 116.51865,82.970132 117.38778,78.588462 L 118.82998,70.988729 L 118.92876,82.490421 C 119.15324,83.976215 126.00459,90.019549 131.19295,93.273693 C 138.05093,97.575021 144.91883,107.28033 144.70189,107.42186 C 144.53427,107.53121 129.65981,94.639413 124.58196,91.282365 C 119.50411,87.925318 115.99766,85.883868 114.96665,85.547729 C 112.90462,84.875451 106.67613,84.064072 101.12556,83.744663 C 87.743003,82.974561 78.212072,85.023106 69.759252,90.48643 C 65.639572,93.149105 62.602602,94.401678 60.433762,94.332652 L 57.217502,94.23029 L 60.532842,93.445589 z "
     style="fill:#291714"
     id="path2163" />
</svg>
