<?xml version="1.0" encoding="UTF-8" standalone="no"?>
<!-- Created with Inkscape (http://www.inkscape.org/) -->
<svg
   xmlns:svg="http://www.w3.org/2000/svg"
   xmlns="http://www.w3.org/2000/svg"
   version="1.0"
   width="193"
   height="193"
   id="svg2">
  <defs
     id="defs5" />
  <path
     d="M 44.261062,100.78945 C 39.078196,99.708978 31.977653,99.195059 29.842686,93.580265 C 27.292644,87.704711 32.821924,83.326474 37.890152,81.676722 C 45.879131,80.772605 54.100037,81.444711 62.200205,81.509066 C 67.271785,81.55098 68.529201,81.299497 71.253604,81.676722 C 74.756944,81.585496 73.375898,86.263503 72.259537,88.382944 C 68.892611,94.563525 62.433156,97.071746 56.164606,99.280554 C 52.212695,101.18206 48.453284,101.77942 44.261062,100.78945 z "
     style="fill:#a00204;fill-opacity:1;fill-rule:evenodd;stroke:#000000;stroke-width:3;stroke-linecap:butt;stroke-linejoin:miter;stroke-miterlimit:4;stroke-dasharray:none;stroke-opacity:1"
     id="path3136" />
  <path
     d="M 39.399052,91.90371 C 43.967665,91.107346 51.637906,91.275002 56.332261,91.90371 C 60.301114,91.850549 58.527719,95.98474 56.667572,97.939309 C 52.145055,102.51328 43.535413,102.43708 38.393118,99.112898 C 37.441365,96.291143 36.300118,92.672886 39.399052,91.90371 z "
     style="fill:#fbfdeb;fill-opacity:1;fill-rule:evenodd;stroke:#000000;stroke-width:3;stroke-linecap:butt;stroke-linejoin:miter;stroke-miterlimit:4;stroke-dasharray:none;stroke-opacity:1"
     id="path3134" />
  <path
     d="M 49.793696,92.90964 C 49.793696,94.48292 49.279999,95.759784 47.614174,95.759784 C 45.948349,95.759784 45.434652,94.650575 45.434652,93.077295 C 46.345272,92.007779 48.763724,91.260204 49.793696,92.90964 z "
     style="fill:#ffffff;fill-opacity:1;stroke:#000000;stroke-width:2;stroke-linecap:round;stroke-linejoin:round;stroke-miterlimit:4;stroke-opacity:1"
     id="path2161" />
  <path
     d="M 43.758096,143.03865 C 45.350824,139.93702 46.189101,134.7397 44.093407,131.97338 C 38.876492,131.83862 33.766475,131.5947 28.333786,129.45855 C 23.800597,127.22135 19.064258,126.59377 14.083065,127.27903 C 11.009116,127.76915 7.6293984,129.24079 6.0355994,131.97338 C 5.3218247,134.28088 6.2533069,136.78792 8.382777,137.84133 C 9.0533992,138.21855 9.0533992,136.96113 9.2210547,137.67367 C 9.3887102,138.3862 8.6342603,139.47597 9.0533991,140.69147 C 9.8014769,142.78438 11.970341,143.01828 13.91541,142.70334 C 15.047085,142.45186 15.466224,140.94296 15.42431,141.52975 C 13.949257,143.76718 12.752863,145.94841 15.591965,147.39769 C 18.468158,148.42897 19.999065,146.01922 22.130531,144.7152 C 25.504037,142.51362 28.924453,142.44526 32.69283,143.2063 C 36.222222,143.99292 41.218506,146.49823 43.758096,143.03865 z "
     style="fill:#fefee9;fill-opacity:1;fill-rule:evenodd;stroke:#000000;stroke-width:3;stroke-linecap:butt;stroke-linejoin:miter;stroke-miterlimit:4;stroke-dasharray:none;stroke-opacity:1"
     id="path3139" />
  <path
     d="M 125.574,115.7108 L 125.50106,126.41198 C 129.54521,127.25469 128.92305,133.15969 128.92711,136.54076 C 129.32129,141.72579 136.11558,149.11135 141.83659,147.23004 C 146.61715,144.09141 149.22798,138.76394 150.88999,133.48228 C 152.11315,130.35518 146.83552,129.97746 144.51907,128.78793 C 139.22965,126.36443 140.42211,121.62978 139.65706,116.54907 C 139.29489,114.56748 138.907,111.77458 136.47161,112.35769 L 125.574,115.7108 z "
     style="fill:#fffde7;fill-opacity:1;fill-rule:evenodd;stroke:#000000;stroke-width:3;stroke-linecap:butt;stroke-linejoin:miter;stroke-miterlimit:4;stroke-dasharray:none;stroke-opacity:1"
     id="path3141" />
  <path
     d="M 44.261062,142.53568 C 43.436691,139.97893 43.113718,134.32056 44.428718,131.47042 C 48.611362,130.60692 55.010122,129.68223 60.188339,128.62027 C 64.673149,127.69203 68.897192,128.17388 70.247671,123.25529 C 70.675039,114.84979 72.668566,107.64343 75.277337,99.615865 C 77.230048,93.136089 78.819208,85.985661 84.666047,82.012033 C 90.836603,76.952602 99.303942,77.940625 106.79658,77.820645 C 116.80848,77.531851 127.24345,76.048467 136.80692,79.664856 C 144.23718,81.84048 148.68855,89.047348 152.06357,95.592132 C 154.89759,105.53811 158.52223,114.52354 164.63774,122.91998 C 170.11237,130.69865 178.35251,136.96658 186.60062,141.69741 C 188.80063,142.59062 190.37226,143.13044 190.95966,145.55348 C 191.6506,148.07401 188.2561,147.66871 186.60062,147.56535 C 180.53622,147.6252 174.82269,144.56775 169.83506,141.36209 C 161.86157,136.20114 155.45429,129.09142 150.21936,121.24343 C 146.26328,117.59859 144.38245,110.31129 143.34549,107.16036 C 141.58511,106.65739 141.71085,109.33988 138.81879,111.01644 C 135.92673,112.693 135.88481,112.52535 131.77725,113.86659 C 127.66969,115.20784 126.87333,115.54314 122.38854,116.38142 C 117.90376,117.2197 119.78988,116.42334 113.83811,117.2197 C 107.88634,118.01606 98.28806,119.56687 98.581457,119.56687 C 98.874854,119.56687 108.26356,117.47787 115.0117,117.2197 C 121.75984,116.96153 126.29849,116.31735 126.24462,116.04611 C 127.20937,119.9338 126.22176,123.16576 125.40634,126.60841 C 114.24861,127.10187 102.88276,132.37359 91.70758,130.63214 C 87.450512,130.48842 85.388953,128.45182 85.504325,124.26123 C 85.588153,121.20152 86.300689,120.11176 87.18088,116.71673 C 88.061071,113.3217 87.683847,112.81874 89.025091,110.68113 C 90.366336,108.54352 88.773608,109.71711 92.545858,108.1663 C 96.318108,106.61549 98.371887,106.15444 104.11409,104.47788 C 108.89666,103.61954 130.24682,96.906776 127.41821,97.603998 L 88.354469,108.33396 C 89.153418,112.36792 86.384567,119.86972 85.506417,125.52194 C 84.463844,132.23247 83.759381,133.8594 81.312936,135.99711 C 76.353188,140.44055 67.128015,140.7024 63.541449,141.02678 C 57.804084,141.60378 49.389185,144.22357 44.261062,142.53568 z "
     style="fill:#064150;fill-opacity:1;fill-rule:evenodd;stroke:#000000;stroke-width:3;stroke-linecap:butt;stroke-linejoin:miter;stroke-miterlimit:4;stroke-dasharray:none;stroke-opacity:1"
     id="path3143" />
  <path
     d="M 67.900493,94.083232 C 71.466399,95.798647 72.903177,102.76321 73.097815,103.80725 C 80.710891,82.847393 81.761995,86.222456 83.157147,82.850311 C 80.408578,82.859345 75.906743,82.144066 73.936093,82.850311 C 73.759641,88.251256 71.308954,90.535067 67.900493,94.083232 z "
     style="fill:#064150;fill-opacity:1;fill-rule:evenodd;stroke:#000000;stroke-width:3;stroke-linecap:butt;stroke-linejoin:miter;stroke-miterlimit:4;stroke-dasharray:none;stroke-opacity:1"
     id="path3145" />
  <path
     d="M 28.836753,87.209355 C 28.999679,92.440333 29.176628,96.855066 34.20173,99.615865 C 38.786373,101.3707 44.234031,102.62314 49.123073,101.62773 C 55.906198,102.02247 62.312739,94.02921 68.906427,95.759787 C 73.300704,99.713959 74.009492,105.39631 71.085949,111.01644 C 68.162406,116.63657 64.267869,117.59446 58.847094,117.72266 C 49.457419,119.23131 39.987512,120.13841 30.513308,120.90812 C 27.110189,120.5731 20.288042,123.57051 17.771487,120.40515 C 16.090947,118.54166 14.467758,115.5776 17.100865,114.2019 C 20.453976,112.94448 24.351967,113.48936 29.842686,112.86065 C 35.333405,112.23194 35.752544,111.89663 39.063741,111.68706 C 42.374938,111.47749 40.907952,112.56725 43.087474,112.02237 C 45.266996,111.47749 47.907571,109.50754 47.781829,109.50754 C 47.656087,109.50754 44.764029,111.39366 42.584507,112.02237 C 40.404985,112.65108 45.518479,111.39366 39.063741,112.02237 C 32.609003,112.65108 22.843068,114.11807 16.765554,114.53721 C 12.878787,116.03794 12.353452,109.38113 14.586032,105.98678 C 15.675793,105.65147 16.220673,106.53166 18.106798,106.48974 C 21.251895,106.80517 23.079951,105.79507 23.471775,102.63366 C 24.197536,100.12441 21.516853,99.729128 19.615698,99.280554 C 18.77742,98.987157 18.945076,99.02907 19.615698,99.280554 C 21.630776,99.628806 23.091421,100.32195 23.136464,102.46601 C 23.437061,105.76921 20.951653,106.6467 18.106798,106.6574 C 16.094932,106.6574 15.717707,106.78314 14.083065,105.65146 C 10.887055,103.73267 10.947666,100.14058 12.40651,97.101032 C 14.276671,93.391331 18.465843,91.704134 22.130531,90.227154 C 24.790406,90.070568 27.143001,87.905978 28.836753,87.209355 z "
     style="fill:#064150;fill-opacity:1;fill-rule:evenodd;stroke:#000000;stroke-width:3;stroke-linecap:butt;stroke-linejoin:miter;stroke-miterlimit:4;stroke-dasharray:none;stroke-opacity:1"
     id="path3147" />
  <path
     d="M 135.26597,145.57985 C 136.54039,144.42398 137.57771,144.66109 140.36364,140.95639 C 143.14957,137.25169 144.89819,133.30989 146.40971,130.76106 C 147.92123,128.21223 146.40971,130.76106 146.40971,130.76106"
     style="fill:none;fill-rule:evenodd;stroke:#000000;stroke-width:3;stroke-linecap:butt;stroke-linejoin:miter;stroke-miterlimit:4;stroke-dasharray:none;stroke-opacity:1"
     id="path11870" />
  <path
     d="M 134.67322,135.14742 C 135.38452,136.24401 135.11778,137.3406 137.51843,139.53378 C 139.91907,141.72696 142.52564,142.83436 144.2758,143.92015"
     style="fill:none;fill-rule:evenodd;stroke:#000000;stroke-width:3;stroke-linecap:round;stroke-linejoin:miter;stroke-miterlimit:4;stroke-dasharray:none;stroke-opacity:1"
     id="path11875" />
  <path
     d="M 139.23793,131.30276 C 140.05525,132.28774 141.12405,133.94334 142.50721,135.24267 C 144.10645,136.60844 146.31523,137.13526 148.29132,137.84133"
     style="fill:none;fill-rule:evenodd;stroke:#000000;stroke-width:3;stroke-linecap:round;stroke-linejoin:miter;stroke-miterlimit:4;stroke-dasharray:none;stroke-opacity:1"
     id="path11877" />
  <path
     d="M 10.310816,129.03941 C 11.610146,131.11415 10.31451,129.76797 15.508137,137.33836 C 20.701764,144.90875 19.992923,142.97578 21.459909,144.88286"
     style="fill:none;fill-rule:evenodd;stroke:#000000;stroke-width:3;stroke-linecap:butt;stroke-linejoin:miter;stroke-miterlimit:4;stroke-dasharray:none;stroke-opacity:1"
     id="path11880" />
  <path
     d="M 13.412443,143.62544 C 14.355505,142.66142 14.439334,141.27827 17.184693,139.76937 C 19.930052,138.26047 22.591584,138.13472 24.393881,137.58984"
     style="fill:none;fill-rule:evenodd;stroke:#000000;stroke-width:3;stroke-linecap:round;stroke-linejoin:miter;stroke-miterlimit:4;stroke-dasharray:none;stroke-opacity:1"
     id="path11882" />
  <path
     d="M 9.2761173,137.19947 C 10.491619,135.85216 10.003246,135.5717 13.189725,134.08346 C 16.376203,132.59521 20.824418,132.92722 23.387948,132.72783"
     style="fill:none;fill-rule:evenodd;stroke:#000000;stroke-width:3;stroke-linecap:round;stroke-linejoin:miter;stroke-miterlimit:4;stroke-dasharray:none;stroke-opacity:1"
     id="path11884" />
</svg>
