<?xml version="1.0" encoding="UTF-8" standalone="no"?>
<!-- Generator: Adobe Illustrator 16.0.0, SVG Export Plug-In . SVG Version: 6.00 Build 0)  -->

<svg
   xmlns:dc="http://purl.org/dc/elements/1.1/"
   xmlns:cc="http://creativecommons.org/ns#"
   xmlns:rdf="http://www.w3.org/1999/02/22-rdf-syntax-ns#"
   xmlns:svg="http://www.w3.org/2000/svg"
   xmlns="http://www.w3.org/2000/svg"
   xmlns:sodipodi="http://sodipodi.sourceforge.net/DTD/sodipodi-0.dtd"
   xmlns:inkscape="http://www.inkscape.org/namespaces/inkscape"
   version="1.1"
   id="Layer_1"
   x="0px"
   y="0px"
   width="102.035px"
   height="108.047px"
   viewBox="0 0 102.035 108.047"
   enable-background="new 0 0 102.035 108.047"
   xml:space="preserve"
   inkscape:version="0.48.3.1 r9886"
   sodipodi:docname="Tecualoyan2.svg"><metadata
   id="metadata59"><rdf:RDF><cc:Work
       rdf:about=""><dc:format>image/svg+xml</dc:format><dc:type
         rdf:resource="http://purl.org/dc/dcmitype/StillImage" /></cc:Work></rdf:RDF></metadata><defs
   id="defs57">
	

		
		
		
		
		
		
		
		
		
		
		
		
		
		
		
		
		
		
		
		
		
		
		
		
	</defs><sodipodi:namedview
   pagecolor="#ffffff"
   bordercolor="#666666"
   borderopacity="1"
   objecttolerance="10"
   gridtolerance="10"
   guidetolerance="10"
   inkscape:pageopacity="0"
   inkscape:pageshadow="2"
   inkscape:window-width="753"
   inkscape:window-height="480"
   id="namedview55"
   showgrid="false"
   inkscape:zoom="3.0889743"
   inkscape:cx="33.973961"
   inkscape:cy="54.023499"
   inkscape:window-x="65"
   inkscape:window-y="24"
   inkscape:window-maximized="0"
   inkscape:current-layer="Layer_1" />
<path
   clip-rule="evenodd"
   d="m 73.90261,81.933869 c 2.618004,1.842 2.807004,2.574 1.01,4.938 -1.694,2.227 -3.248,4.649997 -5.313,6.479997 -2.371,2.102 -5.212,3.686 -7.915,5.389 -0.378,0.238 -1.356,0.084 -1.672,-0.251 -0.759,-0.807 -1.428,-1.771 -1.855,-2.788 -0.218,-0.519 -0.044,-1.443 0.311,-1.915 0.859,-1.144 2.354,-1.972 2.817,-3.214 0.749,-2.015997 1.785,-1.757997 3.32,-0.932 1.449,-3.536997 1.859,-6.847997 -0.984,-9.790997 -3.837,-3.971 -7.687,-7.936 -11.652,-11.779 -1.492,-1.445 -2.254,-3.01 -2.238,-5.045 0.01,-1.3 0.38,-3.415 -0.208,-3.746 -1.661,-0.934 -3.713,-1.258 -5.65,-1.602 -4.463,-0.793 -8.95,-1.459 -13.428,-2.17 -0.492,-0.078 -1.074,-0.297 -1.475,-0.126 -7.111,3.042 -12.363,0.152 -14.188,-7.574 -2.173,-9.195 2.961,-19.909 10.987,-22.793 1.41,-0.507 2.563,-2.693 3.148,-4.347 1.678,-4.746 3.142,-7.34 5.998,-9.152 0.512,0.677 1.083,1.345 1.553,2.077 0.485,0.756 0.873,1.576 1.375,2.501 1.52,-1.432 2.887,-2.828 4.371,-4.086 1.472,-1.249 2.657,-0.989 2.95,1.049 0.446,3.106 0.758,6.231 1.148,9.529 4.364,0.335 7.66,2.698 10.138,6.44 0.465,0.702 1.412,1.114 2.185,1.579 3.99,2.399 3.995,2.39 3.096,7.16 1.888,0.127 3.739,0.279 5.594,0.369 2.229,0.107 4.463,0.12 6.69,0.243 6.695004,0.372 11.488004,8.794 8.359004,14.765 -2.471,4.715 -6.558004,7.436 -11.524004,9.016 -0.663,0.211 -1.249,0.668 -1.858,1.314 4.999,-0.031 9.396004,3.163 14.553004,2.191 1.852,-0.349 3.213,0.877 3.35,2.854 0.137,1.98 0.029,3.978 0.029,6.218 2.483,0.585 2.618,2.477 1.902,4.808 -0.364,1.186 -0.449,2.455 -0.811,3.641 -0.168,0.553 -0.695,1.406 -1.053,1.402 -0.619,-0.007 -1.526,-0.42 -1.796,-0.934 -1.3,-2.48 -2.328,-5.106 -3.656,-7.57 -0.704,-1.306 -1.671,-3.21 -2.784,-3.416 -3.487004,-0.648 -7.102004,-0.619 -10.666004,-0.852 -0.054,0.273 -0.107,0.547 -0.16,0.82 2.033,3.131 4.065,6.262 6.098,9.393 -1.842,-2.16 -4.172,-4.079 -5.401,-6.546 -1.48,-2.97 -3.407,-3.405 -6.192,-2.794 -0.928,0.203 -1.904,0.187 -2.537,0.242 2.099,2.959 4.576,5.686 6.146,8.861 1.856,3.758 0.509,8.544997 -2.023,9.657997 -0.371,-0.576 -0.743,-1.152 -1.116,-1.729 -0.164,0.059 -0.328,0.118 -0.492,0.178 0.243,0.965 0.487,1.93 0.835,3.305 -0.777,-0.645 -1.186,-0.982 -1.042,-0.864 -1.231,1.017 -2.244,1.854 -3.56,2.94 1.304,0 2.329,0 3.567,0 -0.553,0.949 -0.913,1.569 -1.61,2.77 4.41,-2.9 9.034,-4.427 10.882,-9.226997 0.109,-0.285 0.406,-0.554 0.684,-0.71 2.629,-1.484 3.13,-3.558 1.763,-6.177 z m -41.124,-57.858 c 0.415,0.356 0.675,0.618 0.972,0.828 1.564,1.109 3.05,0.535 3.835,-0.809 0.755,-1.291 0.047,-2.385 -1.364,-3.315 -2.417,-1.594 -6.094,0.187 -7.249,2.238 -0.646,1.148 -1.641,2.462 -2.787,2.909 -6.948,2.708 -9.497,8.505 -10.582,15.116 -0.382,2.331 0.516,4.872 0.916,7.983 0.689,-1.005 0.854,-1.295 1.064,-1.545 1.357,-1.611 3.024,-1.657 4.717,-0.141 2.256,2.021 2.325,2.75 0.661,4.663 -0.693,0.797 -1.193,1.762 -2.083,3.106 2.071,0 3.533,0.266 4.834,-0.077 1.22,-0.321 2.27,-1.287 3.395,-1.97 -1.17,-1.619 0.98,-4.092 -1.551,-5.505 -0.837,-0.467 -1.739,-2.101 -1.511,-2.88 0.308,-1.052 2.241,-2.684 2.498,-2.521 1.427,0.904 2.673,2.188 3.701,3.554 0.229,0.304 -0.475,1.698 -1.078,2.17 -1.856,1.457 -1.14,3.373 -0.901,5.033 0.123,0.858 1.365,1.558 2.102,2.328 0.102,-0.151 0.204,-0.303 0.306,-0.454 -0.31,-1.086 -0.619,-2.172 -0.948,-3.326 4.853,-0.571 5.064,-0.448 6.154,3.314 -0.772,0.201 -1.54,0.402 -2.377,0.621 5.379,0.726 10.652,1.52 15.95,2.08 1.058,0.113 2.209,-0.662 2.998,-0.922 -0.25,-1.47 -0.804,-2.627 -0.465,-3.385 0.28,-0.625 1.614,-0.78 2.748,-1.256 -1.966,-0.521 -3.769,-0.847 -5.443,-1.501 -0.963,-0.377 -1.719,-1.285 -2.569,-1.954 0.683,-0.846 1.217,-2.174 2.079,-2.441 2.077,-0.643 4.314,-1.089 6.477,-1.051 2.117,0.038 2.924,-0.878 3.072,-2.674 0.085,-1.024 -0.156,-2.076 -0.251,-3.113 -3.085,0.315 -3.945,-0.591 -3.311,-2.742 0.802,0.499 1.669,1.039 2.538,1.579 0.673,-1.1 1.573,-2.134 1.918,-3.329 0.158,-0.544 -0.635,-1.584 -1.251,-2.086 -1.476,-1.201 -3.679,-1.874 -4.567,-3.368 -3.624,-6.096 -9.448,-5.765 -15.329,-5.975 0.055,2.766 0.175,5.643 -2.81,6.662 -1.093,0.374 -2.948,-0.354 -3.967,-1.181 -1.304,-1.057 -1.585,-2.778 -0.541,-4.663 z m 38.719,36.342 c 9.388004,-3.863 12.065004,-9.599 10.476004,-14.241 -1.872,-5.465 -6.271004,-7.901 -12.008004,-6.369 0,3.291 0,6.638 0,10.017 0.783,-0.076 1.771,-0.171 2.76,-0.267 -1.604,1.342 -3.368,1.987 -4.961,2.924 -5.514,3.239 -9.836,7.55 -11.572,13.92 -0.951,3.491 0.507,5.248 4.117,5.039 3.512,-0.203 7.011,-0.631 10.523,-0.835 2.29,-0.133 4.637,-0.323 6.881004,0.021 2.73,0.419 4.406,2.241 5.283,4.989 0.893,2.799 2.2,5.466 3.326,8.189 0.281,-0.129 0.562,-0.259 0.842,-0.389 -0.405,-0.86 -0.812,-1.721 -1.324,-2.81 0.827,0.278 1.327,0.446 1.827,0.614 -2.096,-1.859 -0.675,-3.282 0.905,-5.027 -3.994,-0.421 -3.242,-2.778 -2.567,-5.127 0.159,-0.554 0.327,-1.144 0.298,-1.707 -0.111,-2.205 -1.222,-2.855 -3.455,-2.627 -1.587,0.164 -3.229,-0.162 -4.844,-0.309 -3.250004,-0.298 -6.493004,-0.766 -9.749004,-0.868 -1.364,-0.042 -2.752,0.668 -4.84,1.226 1.092,-1.347 1.663,-2.24 2.413,-2.941 1.867,-1.742 4.509,-2.764 5.149,-5.635 0.005,-0.022 0.274,0.014 0.52,0.027 0,0.649 0,1.3 0,2.186 z m -6.917,-9.211 c 0.57,-1.659 1.257,-3.097 1.532,-4.61 0.294,-1.616 0.168,-3.305 0.284,-4.958 0.138,-1.94 -0.535,-3.034 -2.666,-2.8 -0.701,0.077 -1.411,0.08 -2.295,0.126 0,1.634 0.172,3.143 -0.034,4.599 -0.493,3.48 -2.422,5.065 -5.684,5.016 -1.288,-0.02 -2.579,0.113 -3.869,0.176 4.141,2.102 5.005,2.138 6.426,0.632 -0.091,2.069 -0.181,4.137 -0.266,6.066 1.907,1.216 3.62,0.604 4.408,-0.851 0.654,-1.207 0.317,-2.951 0.421,-4.463 0.3,0.181 0.9,0.55 1.743,1.067 z m -5.194,6.178 c -3.074,-1.678 -4.976,1.936 -7.623,1.389 -1.184,5.684 -0.306,8.473 2.711,9.066 0.696,-4.47 0.696,-4.47 4.912,-10.455 z m 7.239,-5.678 c 2.03,-0.987 3.56,-7.163 2.557,-11.208 -0.162,-0.653 -1.067,-1.122 -1.758,-1.802 -0.286,4.668 -0.538,8.768 -0.799,13.01 z m -22.255,-29.406 c -0.049,-3.141 -2.184,-4.664 -5.555,-3.964 1.359,4.208 1.433,4.261 5.555,3.964 z"
   id="path9"
   inkscape:connector-curvature="0"
   style="fill-rule:evenodd" /><path
   clip-rule="evenodd"
   d="m 32.77861,24.075869 c -1.044,1.885 -0.764,3.606 0.54,4.663 1.02,0.827 2.875,1.554 3.967,1.181 2.985,-1.02 2.865,-3.896 2.81,-6.662 5.881,0.21 11.705,-0.121 15.329,5.975 0.889,1.494 3.092,2.167 4.567,3.368 0.616,0.502 1.409,1.542 1.251,2.086 -0.345,1.195 -1.245,2.229 -1.918,3.329 -0.869,-0.54 -1.736,-1.08 -2.538,-1.579 -0.635,2.15 0.226,3.057 3.311,2.742 0.095,1.037 0.336,2.089 0.251,3.113 -0.148,1.796 -0.955,2.712 -3.072,2.674 -2.162,-0.038 -4.399,0.408 -6.477,1.051 -0.862,0.267 -1.396,1.596 -2.079,2.441 0.85,0.669 1.605,1.577 2.569,1.954 1.674,0.654 3.477,0.98 5.443,1.501 -1.134,0.476 -2.468,0.631 -2.748,1.256 -0.339,0.758 0.215,1.915 0.465,3.385 -0.789,0.26 -1.94,1.035 -2.998,0.922 -5.298,-0.561 -10.57,-1.354 -15.95,-2.08 0.837,-0.219 1.605,-0.42 2.377,-0.621 -1.09,-3.763 -1.302,-3.885 -6.154,-3.314 0.329,1.154 0.639,2.24 0.948,3.326 -0.102,0.151 -0.204,0.303 -0.306,0.454 -0.737,-0.771 -1.979,-1.47 -2.102,-2.328 -0.238,-1.66 -0.955,-3.577 0.901,-5.033 0.603,-0.473 1.307,-1.866 1.078,-2.17 -1.028,-1.365 -2.274,-2.65 -3.701,-3.554 -0.257,-0.163 -2.19,1.469 -2.498,2.521 -0.228,0.779 0.674,2.413 1.511,2.88 2.531,1.413 0.381,3.886 1.551,5.505 -1.125,0.683 -2.175,1.648 -3.395,1.97 -1.302,0.343 -2.764,0.077 -4.834,0.077 0.89,-1.345 1.39,-2.31 2.083,-3.106 1.664,-1.912 1.595,-2.642 -0.661,-4.663 -1.692,-1.516 -3.359,-1.47 -4.717,0.141 -0.211,0.25 -0.375,0.541 -1.064,1.545 -0.399,-3.111 -1.298,-5.652 -0.916,-7.983 1.084,-6.61 3.633,-12.408 10.582,-15.116 1.146,-0.447 2.141,-1.76 2.787,-2.909 1.155,-2.051 4.832,-3.833 7.249,-2.238 1.411,0.931 2.119,2.024 1.364,3.315 -0.786,1.343 -2.271,1.917 -3.835,0.809 -0.296,-0.21 -0.556,-0.472 -0.971,-0.828 z m 7.364,14.992 c -1.081,1.125 -2.057,2.383 -3.268,3.347 -1.925,1.533 -0.959,3.294 -0.155,4.568 1.153,1.828 2.383,0.056 3.481,-0.555 0.566,-0.315 1.084,-0.776 1.514,-1.268 1.2,-1.37 1.157,-2.544 -0.406,-3.754 -0.647,-0.501 -0.842,-1.588 -1.249,-2.412 2.262,2.468 5.026,1.538 7.625,0.945 0.706,-0.161 1.181,-1.327 1.694,-1.949 -2.819,-0.43 -5.205,-0.816 -7.597,-1.147 -0.808,-0.112 -1.635,-0.085 -2.453,-0.123 0.272,0.783 0.543,1.566 0.814,2.348 z m 9.651,-3.723 c -1.526,-4.753 -7.338,-4.348 -9.916,-1.026 3.071,2.723 6.458,1.992 9.916,1.026 z m -10.033,14.266 c -0.254,0.169 -0.507,0.338 -0.761,0.507 0.667,1.496 0.98,3.41 2.107,4.362 0.988,0.834 2.908,0.849 4.379,0.736 1.145,-0.086 1.407,-2.435 0.283,-3.031 -1.918,-1.017 -3.997,-1.732 -6.008,-2.574 z m -3.958,-12.821 c -0.795,-3.33 -3.068,-3.322 -6.206,-2.607 0.112,1.325 -0.265,3.129 0.468,4.075 1.087,1.404 4.161,0.436 5.738,-1.468 z m -12.301,4.138 c 0.515,-1.625 2.009,-3.226 0.337,-4.933 -0.558,-0.569 -1.999,-0.862 -2.708,-0.546 -0.875,0.39 -2.051,1.624 -1.965,2.361 0.254,2.177 1.949,3.07 4.336,3.118 z m 24.756,-11.339 c 0.135,-0.258 0.271,-0.516 0.405,-0.773 -0.555,-0.809 -1.284,-2.381 -1.637,-2.301 -1.936,0.44 -3.78,1.286 -5.656,1.992 0.075,0.361 0.15,0.722 0.225,1.083 2.22,-0.001 4.442,-0.001 6.663,-0.001 z m -2.392,12.529 c 1.432,1.87 2.435,3.508 4.642,2.046 1.305,-0.865 1.384,-2.151 0.428,-3.151 -2.123,-2.218 -3.136,0.636 -5.07,1.105 z m 2.442,6.614 c -1.261,-2.264 -2.29,-3.837 -4.865,-3.032 0,1.279 0,2.462 0,3.986 1.691,-0.332 3.134,-0.615 4.865,-0.954 z m 10.734,-5.984 c 0.053,-0.447 0.105,-0.894 0.158,-1.341 -1.212,-0.435 -2.425,-0.87 -3.637,-1.306 -0.075,0.987 -0.15,1.975 -0.226,2.961 1.235,-0.104 2.471,-0.209 3.705,-0.314 z m -9.955,7.469 c -0.544,2.189 -0.777,3.483 1.252,3.236 0.868,-0.106 1.701,-0.508 2.55,-0.775 -1.154,-0.747 -2.308,-1.494 -3.802,-2.461 z m -19.254,-23.992 c -0.735,1.212 -1.504,1.916 -1.395,2.433 0.162,0.763 0.949,1.393 1.469,2.079 0.517,-0.425 1.522,-0.949 1.46,-1.256 -0.186,-0.93 -0.789,-1.774 -1.534,-3.256 z m 23.514,30.281 c -2.774,-2.951 -4.647,-3.088 -5.94,-0.607 1.878,0.191 3.586,0.366 5.94,0.607 z m 1.859,-24.774 c -1.218,-0.824 -1.849,-1.514 -2.586,-1.656 -0.477,-0.092 -1.108,0.618 -1.67,0.968 0.589,0.66 1.073,1.547 1.81,1.89 0.396,0.183 1.226,-0.568 2.446,-1.202 z m -0.891,6.388 c 0.67,-1.131 1.45,-1.914 1.287,-2.29 -0.29,-0.671 -1.093,-1.224 -1.808,-1.537 -0.18,-0.079 -1.262,1.016 -1.184,1.429 0.133,0.698 0.862,1.283 1.705,2.398 z"
   id="path11"
   inkscape:connector-curvature="0"
   style="fill:#ffffff;fill-rule:evenodd" /><path
   clip-rule="evenodd"
   d="m 71.49761,60.417869 c 0,-0.886 0,-1.537 0,-2.184 -0.245,-0.014 -0.515,-0.05 -0.52,-0.027 -0.641,2.871 -3.282,3.893 -5.149,5.635 -0.75,0.701 -1.321,1.595 -2.413,2.941 2.088,-0.558 3.476,-1.268 4.84,-1.226 3.256,0.103 6.499,0.57 9.749004,0.868 1.614,0.146 3.257,0.473 4.844,0.309 2.233,-0.229 3.344,0.422 3.455,2.627 0.029,0.563 -0.139,1.153 -0.298,1.707 -0.675,2.349 -1.427,4.706 2.567,5.127 -1.58,1.745 -3.001,3.168 -0.905,5.027 -0.5,-0.168 -1,-0.336 -1.827,-0.614 0.513,1.089 0.919,1.949 1.324,2.81 -0.28,0.13 -0.561,0.26 -0.842,0.389 -1.126,-2.724 -2.434,-5.391 -3.326,-8.189 -0.877,-2.748 -2.553,-4.57 -5.283,-4.989 -2.244004,-0.345 -4.591004,-0.154 -6.881004,-0.021 -3.513,0.204 -7.012,0.632 -10.523,0.835 -3.61,0.209 -5.068,-1.548 -4.117,-5.039 1.736,-6.37 6.059,-10.681 11.572,-13.92 1.593,-0.937 3.356,-1.582 4.961,-2.924 -0.988,0.095 -1.977,0.191 -2.76,0.267 0,-3.379 0,-6.727 0,-10.017 5.736,-1.532 10.136004,0.904 12.008004,6.369 1.589,4.64 -1.088,10.376 -10.476004,14.239 z"
   id="path13"
   inkscape:connector-curvature="0"
   style="fill:#ffffff;fill-rule:evenodd" /><path
   clip-rule="evenodd"
   d="m 73.90261,81.933869 c 1.367,2.619 0.866,4.693 -1.768,6.177 -0.277,0.156 -0.574,0.425 -0.684,0.71 -1.848,4.799997 -6.472,6.325997 -10.882,9.226997 0.697,-1.2 1.058,-1.82 1.61,-2.77 -1.238,0 -2.264,0 -3.567,0 1.315,-1.086 2.328,-1.924 3.56,-2.94 -0.144,-0.118 0.265,0.22 1.042,0.864 -0.348,-1.375 -0.592,-2.34 -0.835,-3.305 0.164,-0.06 0.328,-0.119 0.492,-0.178 0.373,0.576 0.745,1.152 1.116,1.729 2.532,-1.113 3.88,-5.899997 2.023,-9.657997 -1.569,-3.176 -4.047,-5.902 -6.146,-8.861 0.633,-0.056 1.609,-0.039 2.537,-0.242 2.785,-0.611 4.712,-0.176 6.192,2.794 1.229,2.467 3.56,4.386 5.401,6.546 0.004,-0.002 -0.091,-0.093 -0.091,-0.093 z"
   id="path15"
   inkscape:connector-curvature="0"
   style="fill:#ffffff;fill-rule:evenodd" /><path
   clip-rule="evenodd"
   d="m 64.58061,51.206869 c -0.843,-0.517 -1.443,-0.886 -1.742,-1.069 -0.104,1.513 0.233,3.256 -0.421,4.463 -0.788,1.454 -2.501,2.066 -4.408,0.851 0.085,-1.929 0.175,-3.997 0.267,-6.067 -1.422,1.506 -2.286,1.471 -6.427,-0.631 1.29,-0.063 2.581,-0.195 3.869,-0.176 3.262,0.05 5.19,-1.536 5.684,-5.016 0.206,-1.456 0.034,-2.965 0.034,-4.599 0.884,-0.046 1.594,-0.049 2.295,-0.126 2.131,-0.233 2.804,0.86 2.666,2.8 -0.116,1.653 0.01,3.342 -0.284,4.958 -0.276,1.515 -0.963,2.953 -1.533,4.612 z"
   id="path17"
   inkscape:connector-curvature="0"
   style="fill:#ffffff;fill-rule:evenodd" /><path
   clip-rule="evenodd"
   d="m 59.38661,57.384869 c -4.216,5.985 -4.216,5.985 -4.912,10.455 -3.017,-0.594 -3.895,-3.383 -2.711,-9.066 2.647,0.546 4.548,-3.067 7.623,-1.389 z"
   id="path19"
   inkscape:connector-curvature="0"
   style="fill:#ffffff;fill-rule:evenodd" /><path
   clip-rule="evenodd"
   d="m 66.62561,51.706869 c 0.261,-4.242 0.513,-8.342 0.799,-13.01 0.69,0.681 1.596,1.149 1.758,1.802 1.002,4.045 -0.527,10.22 -2.557,11.208 z"
   id="path21"
   inkscape:connector-curvature="0"
   style="fill:#ffffff;fill-rule:evenodd" /><path
   clip-rule="evenodd"
   d="m 44.37061,22.300869 c -4.122,0.297 -4.196,0.244 -5.555,-3.964 3.371,-0.7 5.505,0.823 5.555,3.964 z"
   id="path23"
   inkscape:connector-curvature="0"
   style="fill:#ffffff;fill-rule:evenodd" /><path
   clip-rule="evenodd"
   d="m 40.06861,38.996869 c 0.4,0.821 0.594,1.908 1.242,2.409 1.563,1.21 1.605,2.384 0.406,3.754 -0.43,0.491 -0.948,0.953 -1.514,1.268 -1.099,0.61 -2.328,2.383 -3.481,0.555 -0.804,-1.274 -1.77,-3.035 0.155,-4.568 1.21,-0.963 2.187,-2.221 3.268,-3.347 l -0.076,-0.071 z"
   id="path25"
   inkscape:connector-curvature="0"
   style="fill-rule:evenodd" /><path
   clip-rule="evenodd"
   d="m 39.76061,49.610869 c 2.011,0.842 4.091,1.556 6.009,2.574 1.124,0.597 0.862,2.945 -0.283,3.031 -1.471,0.112 -3.391,0.098 -4.379,-0.736 -1.127,-0.952 -1.44,-2.866 -2.107,-4.362 0.252,-0.169 0.506,-0.338 0.76,-0.507 z"
   id="path29"
   inkscape:connector-curvature="0"
   style="fill-rule:evenodd" /><path
   clip-rule="evenodd"
   d="m 40.14261,39.067869 c -0.271,-0.783 -0.542,-1.565 -0.813,-2.348 0.818,0.037 1.646,0.011 2.453,0.123 2.392,0.331 4.777,0.717 7.597,1.147 -0.513,0.622 -0.988,1.788 -1.694,1.949 -2.598,0.593 -5.363,1.523 -7.621,-0.943 0.004,10e-4 0.078,0.072 0.078,0.072 z"
   id="path31"
   inkscape:connector-curvature="0"
   style="fill-rule:evenodd" /><path
   clip-rule="evenodd"
   d="m 35.80261,36.789869 c -1.577,1.904 -4.651,2.872 -5.738,1.468 -0.732,-0.945 -0.356,-2.75 -0.468,-4.075 3.138,-0.715 5.411,-0.722 6.206,2.607 z"
   id="path33"
   inkscape:connector-curvature="0"
   style="fill-rule:evenodd" /><path
   clip-rule="evenodd"
   d="m 23.50161,40.927869 c -2.387,-0.047 -4.082,-0.94 -4.336,-3.118 -0.086,-0.737 1.09,-1.971 1.965,-2.361 0.709,-0.316 2.15,-0.023 2.708,0.546 1.672,1.707 0.178,3.307 -0.337,4.933 z"
   id="path35"
   inkscape:connector-curvature="0"
   style="fill-rule:evenodd" /><path
   clip-rule="evenodd"
   d="m 48.25761,29.588869 c -2.221,0 -4.442,0 -6.663,0 -0.075,-0.361 -0.149,-0.722 -0.225,-1.083 1.876,-0.706 3.72,-1.551 5.656,-1.992 0.353,-0.08 1.082,1.492 1.637,2.301 -0.135,0.259 -0.271,0.517 -0.405,0.774 z"
   id="path37"
   inkscape:connector-curvature="0"
   style="fill-rule:evenodd" /><path
   clip-rule="evenodd"
   d="m 45.86561,42.117869 c 1.934,-0.469 2.947,-3.322 5.069,-1.105 0.957,1 0.877,2.286 -0.428,3.151 -2.206,1.462 -3.209,-0.176 -4.641,-2.046 z"
   id="path39"
   inkscape:connector-curvature="0"
   style="fill-rule:evenodd" /><path
   clip-rule="evenodd"
   d="m 48.30761,48.731869 c -1.731,0.339 -3.173,0.623 -4.865,0.954 0,-1.523 0,-2.707 0,-3.986 2.575,-0.805 3.603,0.767 4.865,3.032 z"
   id="path41"
   inkscape:connector-curvature="0"
   style="fill-rule:evenodd" /><path
   clip-rule="evenodd"
   d="m 59.04161,42.747869 c -1.234,0.105 -2.47,0.209 -3.704,0.314 0.075,-0.987 0.15,-1.974 0.226,-2.961 1.212,0.436 2.425,0.871 3.637,1.306 -0.054,0.447 -0.106,0.894 -0.159,1.341 z"
   id="path43"
   inkscape:connector-curvature="0"
   style="fill-rule:evenodd" /><path
   clip-rule="evenodd"
   d="m 49.08661,50.216869 c 1.494,0.967 2.648,1.714 3.802,2.461 -0.849,0.268 -1.682,0.669 -2.55,0.775 -2.029,0.247 -1.797,-1.047 -1.252,-3.236 z"
   id="path45"
   inkscape:connector-curvature="0"
   style="fill-rule:evenodd" /><path
   clip-rule="evenodd"
   d="m 29.83261,26.224869 c 0.745,1.482 1.348,2.327 1.535,3.255 0.062,0.308 -0.943,0.832 -1.46,1.256 -0.521,-0.687 -1.308,-1.316 -1.469,-2.079 -0.11,-0.517 0.659,-1.22 1.394,-2.432 z"
   id="path47"
   inkscape:connector-curvature="0"
   style="fill-rule:evenodd" /><path
   clip-rule="evenodd"
   d="m 53.34661,56.505869 c -2.354,-0.241 -4.062,-0.416 -5.94,-0.607 1.293,-2.481 3.166,-2.344 5.94,0.607 z"
   id="path49"
   inkscape:connector-curvature="0"
   style="fill-rule:evenodd" /><path
   clip-rule="evenodd"
   d="m 55.20561,31.731869 c -1.22,0.634 -2.05,1.385 -2.446,1.202 -0.736,-0.343 -1.221,-1.229 -1.81,-1.89 0.562,-0.351 1.193,-1.06 1.67,-0.968 0.737,0.142 1.368,0.832 2.586,1.656 z"
   id="path51"
   inkscape:connector-curvature="0"
   style="fill-rule:evenodd" /><path
   clip-rule="evenodd"
   d="m 54.31461,38.119869 c -0.843,-1.115 -1.572,-1.699 -1.705,-2.397 -0.079,-0.413 1.004,-1.508 1.184,-1.429 0.715,0.313 1.518,0.865 1.808,1.537 0.163,0.375 -0.617,1.157 -1.287,2.289 z"
   id="path53"
   inkscape:connector-curvature="0"
   style="fill-rule:evenodd" />
<path
   clip-rule="evenodd"
   d="m 46.280711,35.294287 c -1.292,1.07 -2.813,1.041 -4.357,0.899 -0.362,-0.188 -0.724,-0.376 -1.083,-0.564 -0.097,-0.5 -1.721,-0.602 -0.384,-1.477 1.956,0.304 4.012,0.099 5.824,1.142 z"
   id="path359"
   inkscape:connector-curvature="0"
   style="fill:#d7cabe;fill-rule:evenodd" /><path
   clip-rule="evenodd"
   d="m 50.723711,35.205287 c -0.936999,0.53 -1.809,0.573 -2.553,-0.341 0.244,-0.86 1.053,-0.42 1.558001,-0.676 0.713999,-0.479 0.845999,0.752 1.478999,0.504 -0.161,0.171 -0.322,0.342 -0.484,0.513 z"
   id="path363"
   inkscape:connector-curvature="0"
   style="fill:#fcd7ac;fill-rule:evenodd" /><path
   clip-rule="evenodd"
   d="m 41.791711,31.601286 c 0.158,0.043 0.315,0.087 0.474,0.13 0.869,0.37 0.999,1.417001 1.749,1.892001 0.395,0.358 0.87,0.476 1.393,0.457 0.553,-0.178 1.784,0.191 0.875,-1.124 -0.284,-0.376 -0.448,-0.787001 -0.377,-1.268001 0.063,-0.229 0.188,-0.418 0.373,-0.567 1.982,0.085 2.381,1.954001 3.451001,3.065001 -0.158001,1.055 -1.196001,0.08 -1.556001,0.675 -0.633,0.145 -1.263,0.289 -1.893,0.433 -2.018,0.003 -4.088,0.273 -5.826,-1.143 -0.184,-0.175 -0.37,-0.35 -0.555,-0.525 0.576,-0.725 0.67,-1.901001 1.892,-2.025001 z"
   id="path369"
   inkscape:connector-curvature="0"
   style="fill:#35251c;fill-rule:evenodd" /><path
   clip-rule="evenodd"
   d="m 46.277711,31.122286 c -0.026,0.225 -0.052,0.450001 -0.077,0.675 -0.612,0.372 -1.174,0.711001 -1.146,1.616001 0.023,0.746 -0.412,1.191 -1.253,0.823 -0.802,-0.657 -1.417,-1.428 -1.537,-2.504001 1.082,-0.589 2.207,-1.055 3.453,-1.154 0.186,0.182 0.373,0.363 0.56,0.544 z"
   id="path371"
   inkscape:connector-curvature="0"
   style="fill:#281514;fill-rule:evenodd" /><path
   clip-rule="evenodd"
   d="m 43.801711,34.236287 c 0.469,-0.156 1.114,-0.412 0.813,-0.945 -1.595,-2.818001 0.83,-1.252001 1.585,-1.495001 0.205,0.307 0.41,0.613 0.615,0.919001 0.158,1.083 -0.839,1.29 -1.393,1.833 -0.586,0.146 -1.166,0.24 -1.62,-0.312 z"
   id="path373"
   inkscape:connector-curvature="0"
   style="fill:#514533;fill-rule:evenodd" /><path
   clip-rule="evenodd"
   d="m 45.422711,34.548287 c -0.029,-0.986 1.192,-1.021 1.393,-1.833 0.546,0.135 1.19,0.267 0.871,1.035 -0.434,1.045 -1.434,0.735 -2.264,0.798 z"
   id="path375"
   inkscape:connector-curvature="0"
   style="fill:#ffffff;fill-rule:evenodd;fill-opacity:1" /></svg>