<?xml version="1.0" encoding="UTF-8" standalone="no"?>
<!-- Generator: Adobe Illustrator 16.0.0, SVG Export Plug-In . SVG Version: 6.00 Build 0)  -->

<svg
   xmlns:dc="http://purl.org/dc/elements/1.1/"
   xmlns:cc="http://creativecommons.org/ns#"
   xmlns:rdf="http://www.w3.org/1999/02/22-rdf-syntax-ns#"
   xmlns:svg="http://www.w3.org/2000/svg"
   xmlns="http://www.w3.org/2000/svg"
   xmlns:sodipodi="http://sodipodi.sourceforge.net/DTD/sodipodi-0.dtd"
   xmlns:inkscape="http://www.inkscape.org/namespaces/inkscape"
   version="1.1"
   id="Layer_1"
   x="0px"
   y="0px"
   width="102.035px"
   height="108.047px"
   viewBox="0 0 102.035 108.047"
   enable-background="new 0 0 102.035 108.047"
   xml:space="preserve"
   inkscape:version="0.48.3.1 r9886"
   sodipodi:docname="Tecualoyan1.svg"><metadata
   id="metadata381"><rdf:RDF><cc:Work
       rdf:about=""><dc:format>image/svg+xml</dc:format><dc:type
         rdf:resource="http://purl.org/dc/dcmitype/StillImage" /></cc:Work></rdf:RDF></metadata><defs
   id="defs379">
	

		
		
		
		
		
		
		
		
		
		
		
		
		
		
		
		
		
		
		
		
		
		
		
		
		
		
		
		
		
		
		
		
		
		
		
		
		
		
		
		
		
		
		
		
		
		
		
		
		
		
		
		
		
		
		
		
		
		
		
		
		
		
		
		
		
		
		
		
		
		
		
		
		
		
		
		
		
		
		
		
		
		
		
		
		
		
		
		
		
		
		
		
		
		
		
		
		
		
		
		
		
		
		
		
		
		
		
		
		
		
		
		
		
		
		
		
		
		
		
		
		
		
		
		
		
		
		
		
		
		
		
		
		
		
		
		
		
		
		
		
		
		
		
		
		
		
		
		
		
		
		
		
		
		
		
		
		
		
		
		
		
		
		
		
		
		
		
		
		
		
		
		
		
		
		
		
		
		
		
		
		
		
		
		
		
	</defs><sodipodi:namedview
   pagecolor="#ffffff"
   bordercolor="#666666"
   borderopacity="1"
   objecttolerance="10"
   gridtolerance="10"
   guidetolerance="10"
   inkscape:pageopacity="0"
   inkscape:pageshadow="2"
   inkscape:window-width="640"
   inkscape:window-height="480"
   id="namedview377"
   showgrid="false"
   inkscape:zoom="4.3684694"
   inkscape:cx="58.949811"
   inkscape:cy="49.07371"
   inkscape:window-x="162"
   inkscape:window-y="507"
   inkscape:window-maximized="0"
   inkscape:current-layer="Layer_1" />
<path
   clip-rule="evenodd"
   d="m 55.718,76.79 -0.21,0.003 -0.208,-0.031 c -1.912,-1.311 -3.576,-2.887 -5.009,-4.707 -0.198,-0.258 -0.341,-0.619 -0.602,-0.757 -3.229,-1.713 -4.007,-4.489 -3.51,-7.862 0.082,-0.559 0.009,-1.141 0.008,-1.711 -1.462,-1.136 -3.599,-0.453 -4.967,-1.844 -0.146,-0.416 0.05,-0.693 0.375,-0.92 0.656,-0.318 1.346,-0.473 2.079,-0.385 0.694,0.345 1.396,0.675 2.167,0.825 1.6,0.087 3.58,1.048 3.891,-1.739 -0.133,-1.405 0.025,-2.686 1.542,-3.384 -0.853,-0.558 -1.97,-0.562 -2.584,-1.449 -0.093,-0.429 0.128,-0.687 0.476,-0.877 0.742,-0.279 1.456,-0.094 2.168,0.131 0.785,0.261 1.574,0.512 2.389,0.684 0.234,0.063 0.455,0.159 0.667,0.278 0.3,0.213 0.526,0.484 0.655,0.831 0.163,0.571 -0.053,1.122 -0.092,1.682 -0.052,0.758 -0.509,1.627 0.506,2.153 0.853,0.442 1.551,0.172 2.229,-0.387 0.375,-0.309 0.788,-0.571 1.17,-0.872 0.961,-0.699 1.194,-1.838 1.697,-2.814 0.21,-0.29 0.476,-0.506 0.819,-0.617 1.45,0.035 1.073,1.823 2.14,2.23 -0.199,1.446 -1.462,1.82 -2.465,2.457 -1.201,0.442 -2.178,1.195 -2.913,2.234 -1.237,1.75 -2.548,3.441 -3.844,5.146 -0.655,1.227 -1.084,2.53 -1.473,3.864 -0.47,1.609 -0.195,2.879 1.283,3.783 0.198,0.123 0.387,0.258 0.573,0.395 1.2,1.069 3.121,-0.162 4.191,1.311 -0.217,1.473 -2.675,0.589 -2.55,2.425 -0.218,0.124 -0.417,0.091 -0.598,-0.076 z"
   id="path9"
   inkscape:connector-curvature="0"
   style="fill:#1c100b;fill-rule:evenodd" /><path
   clip-rule="evenodd"
   d="m 23.652,27.539 c 0.195,-0.336 0.391,-0.672 0.585,-1.008 0.631,-0.787 0.565,-2.088 1.796,-2.431 0.875,0.529 1.863,0.406 2.82,0.476 0.662,0.381 1.117,0.894 1.109,1.708 -0.504,1.047 -0.491,2.242 -0.92,3.312 -0.828,0.829 -1.857,-0.413 -2.699,0.269 -1.365,0.65 -0.605,1.995 -0.975,2.965 -0.23,0.249 -0.523,0.468 -0.847,0.47 -0.932,0.007 -0.679,0.409 -0.329,0.876 0.287,0.934 0.272,1.874 0.093,2.818 -0.39,1.235 -1.268,1.371 -2.437,1.018 0.563,0.314 1.086,0.304 1.592,0.155 0.641,-0.189 1.299,-0.512 1.83,0.139 0.518,0.634 -0.157,1.038 -0.389,1.528 -0.351,0.746 -0.807,1.256 -1.735,0.957 -0.871,-0.28 -1.747,-0.544 -2.494,-1.103 -1.062,-1.287 -2.499,-1.647 -4.083,-1.649 -0.813,-0.212 0.089,-1.814 -1.282,-1.576 -1.158,-1.236 0.771,-2.236 0.257,-3.427 1.816,-2.686 4.152,-4.6 7.486,-5.025 0.561,0.11 0.303,0.848 0.787,1.035 0.434,-0.564 -0.281,-0.991 -0.165,-1.507 z"
   id="path11"
   inkscape:connector-curvature="0"
   style="fill:#f9c69f;fill-rule:evenodd" /><path
   clip-rule="evenodd"
   d="m 28.776,29.736 c 0.249,-1.092 -1.139,-2.634 0.891,-3.236 0.41,0.058 0.771,0.256 1.152,0.397 0.935,0.346 1.821,0.248 2.413,-0.588 0.628,-0.888 0.26,-1.702 -0.467,-2.382 -0.357,-0.335 -0.736,-0.647 -0.904,-1.132 -0.192,-0.551 -0.216,-1.14 -0.42,-1.694 -0.801,-2.185 -0.293,-2.919 2.251,-3.311 0.147,0.079 0.192,0.196 0.135,0.353 0.056,0.823 0.207,1.591 1.114,1.925 0.656,0.538 0.896,1.308 1.162,2.061 0.125,1.083 0.877,1.601 1.793,1.97 0.332,0.331 0.585,0.686 0.367,1.184 -1.141,0.685 -1.534,1.726 -1.419,3.009 -0.027,0.364 -0.099,0.717 -0.204,1.066 -0.451,1.39 -1.12,2.614 -2.506,3.292 -1.807,0.528 -3.438,0.265 -4.834,-1.07 -0.474,-0.528 -0.632,-1.148 -0.524,-1.844 z"
   id="path13"
   inkscape:connector-curvature="0"
   style="fill:#251207;fill-rule:evenodd" /><path
   clip-rule="evenodd"
   d="m 34.799,20.29 c -1.789,-0.051 -2.217,-0.72 -0.972,-2.146 1.507,0.375 1.529,-1.184 2.276,-1.789 1.364,-1.106 2.548,-3.256 4.35,-2.624 1.65,0.579 1.432,2.903 1.648,4.596 0.271,2.136 0.314,4.275 0.209,6.421 -0.14,1.104 -0.719,0.768 -1.311,0.403 -0.436,-0.47 -0.654,-1.055 -0.852,-1.647 C 39.584,21.955 38.249,21.397 36.834,20.997 36.139,20.8 35.404,20.74 34.799,20.29 z"
   id="path15"
   inkscape:connector-curvature="0"
   style="fill:#291708;fill-rule:evenodd" /><path
   clip-rule="evenodd"
   d="m 79.145,48.327 c 1.625,5.116 -1.344,10.888 -6.867,13.839 -2.295,1.227 -4.591,2.43 -7.057,3.455 3.928,0.789 7.818,1.354 11.515,2.734 -0.04,1.052 -0.962,1.008 -1.613,1.305 -0.515,0.102 -1.015,0.061 -1.497,-0.152 -1.735,-1.18 -3.73,-1.06 -5.688,-1.122 -1.625,-0.339 -3.248,-0.661 -4.798,0.289 -0.318,0.183 -0.646,0.345 -0.992,0.466 -0.62,0.172 -1.226,0.193 -1.792,-0.174 -0.533,-1.465 0.628,-2.143 1.396,-3.004 0.751,-0.496 1.401,-1.117 2.062,-1.727 0.173,-0.146 0.36,-0.271 0.557,-0.385 0.601,-0.316 1.238,-0.543 1.876,-0.771 2.067,-1.116 4.137,-2.227 6.307,-3.137 1.908,-1.172 3.477,-2.643 4.255,-4.811 0.352,-0.93 1.282,-1.574 1.303,-2.666 0.063,-0.816 0.022,-1.633 0.043,-2.45 0.002,-0.247 0.03,-0.489 0.074,-0.731 0.152,-0.463 0.238,-0.996 0.916,-0.958 z"
   id="path17"
   inkscape:connector-curvature="0"
   style="fill:#241610;fill-rule:evenodd" /><path
   clip-rule="evenodd"
   d="m 27.202,57.842 c -1.588,-1.135 -2.544,0.488 -3.784,0.868 -1.877,0.27 -3.779,1.054 -5.581,-0.267 -0.292,-0.402 -0.1,-0.688 0.222,-0.944 1.851,-0.874 4.023,-0.15 5.842,-1.179 1.527,-2.146 1.152,-4.338 -1.058,-6.123 -0.515,-0.407 -0.9,-0.901 -1.06,-1.551 -0.198,-1.256 0.105,-2.4 0.775,-3.462 1.364,-1.152 2.796,-1.812 4.453,-0.542 1.695,1.299 2.314,3.21 1.696,5.171 -2.257,1.845 -2.493,3.752 -0.743,6.176 0.246,0.341 0.486,0.674 0.557,1.103 -0.082,0.881 -0.563,1.058 -1.319,0.75 z"
   id="path19"
   inkscape:connector-curvature="0"
   style="fill:#250f07;fill-rule:evenodd" /><path
   clip-rule="evenodd"
   d="m 18.459,57.664 c -0.23,0.17 -0.461,0.338 -0.691,0.508 -2.419,-0.01 -4.016,-1.24 -5.004,-3.373 -0.204,-0.666 -0.408,-1.331 -0.612,-1.996 -0.349,-1.142 1.301,-1.302 1.15,-2.352 0.031,-0.37 0.146,-0.707 0.346,-1.019 1.515,-1.726 3.229,-1.5 4.877,-0.336 1.527,1.078 2.923,2.34 1.833,4.534 -0.795,1.266 -2.459,2.126 -1.899,4.034 z"
   id="path21"
   inkscape:connector-curvature="0"
   style="fill:#270e05;fill-rule:evenodd" /><path
   clip-rule="evenodd"
   d="m 58.767,74.736 c -0.732,-0.761 -1.675,-0.351 -2.526,-0.449 -0.748,-0.086 -1.695,0.302 -1.975,-0.857 0.462,-0.691 1.168,-0.527 1.8,-0.454 2.418,0.282 4.782,0.021 7.12,-0.6 4.121,0.167 8.263,-0.407 12.372,0.303 1.481,0.462 2.307,1.646 3.125,2.837 1.356,1.838 1.31,4.246 2.505,6.152 0.567,1.74 2.146,3.129 1.818,5.182 -2.714,-0.766 -2.857,-3.563 -4.207,-5.4 -0.465,-0.633 -0.678,-1.543 -0.756,-2.351 -0.246,-2.551 -1.784,-3.952 -4.002,-4.829 -2.918,-0.559 -5.858,-0.092 -8.785,-0.203 -1.214,-0.047 -1.309,0.662 -1.29,1.553 -1.168,0.9 -2.275,0.024 -3.409,-0.11 -0.666,-0.098 -1.338,-0.182 -1.79,-0.774 z"
   id="path23"
   inkscape:connector-curvature="0"
   style="fill:#261712;fill-rule:evenodd" /><path
   clip-rule="evenodd"
   d="m 13.699,50.682 c 0.74,1.624 -1.441,1.116 -1.547,2.121 -4.245,-9.25 0.387,-21.511 9.502,-25.143 0.579,-0.23 1.156,-0.798 1.78,-0.074 0.132,0.272 0.067,0.484 -0.193,0.637 -3.134,0.75 -5.601,2.494 -7.524,5.046 -0.766,1.832 -1.518,3.669 -2.087,5.575 -0.407,0.868 -0.702,1.77 -0.795,2.731 -0.807,3.141 -0.097,6.135 0.864,9.107 z"
   id="path25"
   inkscape:connector-curvature="0"
   style="fill:#221610;fill-rule:evenodd" /><path
   clip-rule="evenodd"
   d="m 33.692,17.791 c -1.405,0.784 -3.331,1.319 -1.461,3.52 0.245,0.288 0.035,0.961 0.036,1.456 -0.863,0.66 -1.623,0.16 -2.395,-0.208 -0.768,-0.641 -0.267,-1.729 -0.8,-2.422 -0.974,-0.3 -1.753,1.643 -2.751,0.155 0.512,-1.965 1.644,-3.576 2.934,-5.089 1.544,-1.81 2.342,-1.742 3.474,0.33 0.39,0.714 0.646,1.503 0.963,2.258 z"
   id="path27"
   inkscape:connector-curvature="0"
   style="fill:#32220d;fill-rule:evenodd" /><path
   clip-rule="evenodd"
   d="m 78.286,75.702 c -0.835,-0.835 -1.669,-1.67 -2.504,-2.505 -0.294,-0.517 -0.283,-1.055 -0.117,-1.605 0.287,-0.615 0.282,-1.395 0.986,-1.783 2.247,-1.045 4.292,-0.672 6.172,0.871 1.031,0.644 0.57,1.588 0.495,2.455 -0.296,0.345 -0.543,0.734 -0.902,1.024 -1.299,0.722 -2.712,1.137 -4.13,1.543 z"
   id="path29"
   inkscape:connector-curvature="0"
   style="fill:#f48d4d;fill-rule:evenodd" /><path
   clip-rule="evenodd"
   d="m 65.785,95.82 c -1.977,2.828 -5.252,3.914 -8.078,5.301 -2.129,1.045 -1.854,-2.549 -3.396,-3.539 -0.836,-0.537 0.068,-1.666 1.11,-1.836 1.196,-0.195 1.37,-0.982 1.393,-1.944 1.076,-0.107 1.419,0.649 1.721,1.456 -0.008,0.238 -0.078,0.46 -0.205,0.662 -0.534,0.52 -1.214,0.836 -1.847,1.303 0.698,0.029 1.449,-0.449 1.986,0.304 0.824,1.21 1.482,-0.112 2.222,-0.157 1.698,-0.483 2.882,-1.998 4.655,-2.332 0.356,0.144 0.652,0.32 0.439,0.782 z"
   id="path31"
   inkscape:connector-curvature="0"
   style="fill:#2e1911;fill-rule:evenodd" /><path
   clip-rule="evenodd"
   d="m 54.291,32.703 c 1.121,0.162 1.859,1.037 2.81,1.521 1.705,0.869 2.133,2.258 1.351,3.961 -0.732,1.596 -0.121,1.987 1.443,2.087 2.459,0.156 4.959,-0.324 7.38,0.437 -1.899,1.433 -4.1,0.456 -6.135,0.771 -0.936,0.066 -1.874,0.165 -2.81,0.215 -0.653,0.166 -0.676,1.101 -1.408,1.167 -0.814,-0.287 -1.517,-0.889 -2.445,-0.865 -1.014,-0.264 -1.87,-0.715 -2.182,-1.821 -0.135,-0.657 -0.107,-1.291 0.272,-1.873 0.292,-0.279 0.639,-0.351 1.024,-0.261 0.895,0.221 0.587,2.157 1.783,1.57 1.298,-0.637 1.962,-1.936 1.402,-3.516 -0.684,-1.173 -2.532,-1.183 -2.781,-2.786 0.025,-0.238 0.126,-0.439 0.296,-0.607 z"
   id="path33"
   inkscape:connector-curvature="0"
   style="fill:#2a1c13;fill-rule:evenodd" /><path
   clip-rule="evenodd"
   d="m 60.1,40.886 c 2.393,-0.059 4.785,-0.118 7.176,-0.178 3.334,-0.409 6.525,-0.358 8.943,2.531 0.393,0.469 0.686,0.897 0.643,1.512 -0.178,0.175 -0.391,0.275 -0.638,0.304 -0.933,-0.087 -1.43,-0.807 -2.025,-1.383 -1.231,-1.23 -2.789,-1.33 -4.393,-1.268 -0.847,0.03 -1.705,-0.128 -2.524,0.175 -0.301,0.336 -0.153,0.735 -0.151,1.115 -0.397,1.795 0.261,3.648 -0.313,5.433 -0.156,0.346 -0.354,0.65 -0.747,0.76 -0.729,-0.235 -0.804,-0.866 -0.907,-1.481 -0.082,-1.467 0.055,-2.942 -0.072,-4.408 -0.08,-0.925 -0.205,-1.893 -1.572,-1.555 -0.222,0.059 -0.445,0.077 -0.672,0.059 -0.843,-0.324 -1.699,-0.616 -2.517,-1.006 -0.18,-0.166 -0.261,-0.368 -0.231,-0.61 z"
   id="path35"
   inkscape:connector-curvature="0"
   style="fill:#251e18;fill-rule:evenodd" /><path
   clip-rule="evenodd"
   d="m 41.299,59.687 c 1.466,1.072 3.8,0.063 4.889,2.038 -3.646,-0.479 -7.277,-1.006 -10.976,-1.064 -1.036,-0.016 -2.579,0.127 -3.144,-1.396 3.133,-1.073 6.225,-1.259 9.231,0.422 z"
   id="path37"
   inkscape:connector-curvature="0"
   style="fill:#e18c57;fill-rule:evenodd" /><path
   clip-rule="evenodd"
   d="m 63.719,75.857 c -0.259,-1.555 0.108,-2.385 1.968,-2.118 2.765,0.397 5.628,-0.581 8.356,0.531 -2.461,-0.024 -4.922,-0.093 -7.38,-0.042 -0.769,0.016 -1.892,0.111 -2.209,0.594 -0.463,0.703 0.284,1.543 0.886,2.102 1.896,1.758 3.088,4.021 4.525,6.111 0.411,0.598 0.537,1.161 0.515,1.823 -0.732,-0.043 -1.283,-0.491 -1.615,-1.037 -1.507,-2.479 -3.771,-4.381 -5.214,-6.903 -0.112,-0.38 -0.098,-0.74 0.168,-1.061 z"
   id="path39"
   inkscape:connector-curvature="0"
   style="fill:#281d12;fill-rule:evenodd" /><path
   clip-rule="evenodd"
   d="m 26.322,20.291 c 0.298,0.021 0.709,0.178 0.873,0.04 0.65,-0.546 1.685,-1.296 2.124,-0.989 0.873,0.612 0.742,1.828 0.446,2.869 -0.078,0.508 -0.439,0.758 -0.862,0.951 -0.968,0.159 -1.698,0.886 -2.638,1.116 -0.677,0.751 -1.353,1.502 -2.028,2.253 0.338,-2.2 1.363,-4.169 2.085,-6.24 z"
   id="path41"
   inkscape:connector-curvature="0"
   style="fill:#251207;fill-rule:evenodd" /><path
   clip-rule="evenodd"
   d="m 41.299,59.687 c -3.075,-0.14 -6.15,-0.28 -9.229,-0.421 -1.672,-0.311 -3.467,-0.197 -4.869,-1.424 0.567,-0.112 1.012,-0.356 1.084,-1.004 0.08,-0.09 0.16,-0.181 0.24,-0.272 1.014,-0.417 1.878,0.036 2.746,0.47 1.328,1.098 2.891,0.434 4.351,0.568 2.046,-0.062 4.055,0.105 5.972,0.891 0.253,0.184 0.336,0.426 0.249,0.726 -0.181,0.154 -0.363,0.31 -0.544,0.466 z"
   id="path43"
   inkscape:connector-curvature="0"
   style="fill:#3b251c;fill-rule:evenodd" /><path
   clip-rule="evenodd"
   d="m 54.291,32.703 c -0.024,0.241 -0.049,0.482 -0.073,0.724 -1.238,0.137 -1.981,-0.684 -2.769,-1.424 -1.962,-2.846 -4.429,-4.969 -7.969,-5.552 -0.378,0.002 -0.753,-0.008 -1.132,-0.007 -1.27,-0.202 -2.782,0.521 -3.708,-0.975 0.628,-1.052 1.605,-0.929 2.594,-0.771 0.334,0.563 0.693,0.564 1.076,0.049 4.399,0.479 7.855,2.478 10.269,6.251 0.423,0.663 1.134,1.142 1.712,1.705 z"
   id="path45"
   inkscape:connector-curvature="0"
   style="fill:#221d18;fill-rule:evenodd" /><path
   clip-rule="evenodd"
   d="m 60.273,91.756 c 1.894,-1.035 1.386,-2.909 1.544,-4.527 0.079,-0.808 -0.031,-1.634 -0.057,-2.451 0.183,-0.178 0.399,-0.26 0.655,-0.234 0.82,0.302 0.947,1.049 1.137,1.758 0.011,1.293 0.511,2.582 0.06,3.885 -0.291,0.66 -0.739,1.236 -1.005,1.913 -0.709,1.591 -1.551,2.831 -3.424,1.26 -0.103,-0.852 -0.1,-1.633 1.09,-1.604 z"
   id="path47"
   inkscape:connector-curvature="0"
   style="fill:#392615;fill-rule:evenodd" /><path
   clip-rule="evenodd"
   d="m 62.348,84.748 c -0.195,0.01 -0.391,0.02 -0.587,0.029 -1.673,-2.921 -4.031,-5.322 -6.043,-7.987 0.264,-0.036 0.527,-0.072 0.791,-0.108 3.064,0.573 6.501,5.32 5.839,8.066 z"
   id="path49"
   inkscape:connector-curvature="0"
   style="fill:#371b11;fill-rule:evenodd" /><path
   clip-rule="evenodd"
   d="m 63.838,76.786 c 2.183,2.688 4.365,5.376 6.545,8.069 -0.003,0.003 -0.067,-0.001 -0.067,-0.001 0.553,0.286 0.9,0.668 0.625,1.341 -0.155,0.173 -0.35,0.264 -0.582,0.274 -0.334,-0.054 -0.644,-0.182 -0.955,-0.304 -0.58,-0.216 -1.402,-0.213 -1.423,-1.062 -0.033,-1.386 -1.167,-1.812 -2.012,-2.505 -0.444,-1.223 -1.12,-2.314 -1.799,-3.416 -0.44,-0.711 -1.124,-1.476 -0.332,-2.396 z"
   id="path51"
   inkscape:connector-curvature="0"
   style="fill:#ebd1bc;fill-rule:evenodd" /><path
   clip-rule="evenodd"
   d="m 83.006,86.85 c -0.443,-1.826 -2.041,-3.121 -2.314,-5.024 0.088,-0.386 0.314,-0.661 0.662,-0.842 0.487,-0.19 0.972,-0.167 1.454,0.021 0.772,0.424 1.362,1.012 1.661,1.857 0.1,0.538 0.033,1.02 -0.604,1.129 -0.305,0.053 -0.888,-0.416 -0.323,0.436 0.542,0.818 0.913,1.887 -0.558,2.367 l 0.022,0.056 z"
   id="path53"
   inkscape:connector-curvature="0"
   style="fill:#e9b38b;fill-rule:evenodd" /><path
   clip-rule="evenodd"
   d="m 12.764,54.799 c 1.183,1.845 2.826,3.005 5.004,3.373 1.799,1.061 3.783,0.164 5.648,0.539 -3.859,1.984 -9.773,-0.188 -10.652,-3.912 z"
   id="path55"
   inkscape:connector-curvature="0"
   style="fill:#ebb07c;fill-rule:evenodd" /><path
   clip-rule="evenodd"
   d="m 65.785,95.82 c -0.182,-0.186 -0.363,-0.371 -0.545,-0.557 -0.068,-1.621 1.172,-2.682 1.72,-4.041 0.67,-0.99 1.721,-1.538 2.62,-2.266 0.416,-0.239 0.832,-0.494 1.315,-0.158 0.045,0.238 0.037,0.475 -0.023,0.709 -1.695,2.104 -3.392,4.209 -5.087,6.313 z"
   id="path57"
   inkscape:connector-curvature="0"
   style="fill:#3e1e14;fill-rule:evenodd" /><path
   clip-rule="evenodd"
   d="m 82.236,73.803 c 0.229,-0.436 0.545,-0.731 1.082,-0.668 0.006,0.243 0.07,0.504 0.007,0.729 -0.564,1.989 0.161,3.42 1.878,4.436 -0.44,0.465 0.271,1.889 -1.229,1.475 -2.615,-1.794 -2.948,-2.937 -1.738,-5.972 z"
   id="path59"
   inkscape:connector-curvature="0"
   style="fill:#544b47;fill-rule:evenodd" /><path
   clip-rule="evenodd"
   d="m 60.273,91.756 c -0.342,0.443 -0.684,0.887 -1.026,1.329 0.466,1.069 1.121,2.22 -0.947,2.195 -0.495,-0.493 -0.991,-0.985 -1.486,-1.479 0.368,-0.644 0.823,-1.218 1.16,-1.905 0.463,-0.945 1.464,-1.132 2.299,-0.14 z"
   id="path61"
   inkscape:connector-curvature="0"
   style="fill:#513c2c;fill-rule:evenodd" /><path
   clip-rule="evenodd"
   d="m 82.823,70.68 c -2.155,-0.599 -4.31,-1.198 -6.548,-0.391 -0.905,-0.066 -0.822,-0.551 -0.483,-1.143 2.152,-0.06 4.333,-1.83 6.452,0.107 0.69,0.274 0.496,0.907 0.579,1.427 z"
   id="path63"
   inkscape:connector-curvature="0"
   style="fill:#e3e1dd;fill-rule:evenodd" /><path
   clip-rule="evenodd"
   d="m 82.244,69.254 c -2.163,-0.943 -4.304,0.409 -6.461,0.062 -0.223,0.136 -0.399,0.09 -0.529,-0.136 0.494,-0.274 0.987,-0.549 1.481,-0.824 1.129,-0.186 2.259,-0.518 3.387,-0.512 0.878,0.005 2.05,-10e-4 2.122,1.41 z"
   id="path65"
   inkscape:connector-curvature="0"
   style="fill:#382824;fill-rule:evenodd" /><path
   clip-rule="evenodd"
   d="m 50.291,72.055 c 2.055,1.158 3.35,3.127 5.009,4.707 -2.468,-0.72 -4.258,-2.161 -5.009,-4.707 z"
   id="path67"
   inkscape:connector-curvature="0"
   style="fill:#eeaa86;fill-rule:evenodd" /><path
   clip-rule="evenodd"
   d="m 84.227,79.701 c 0.758,-0.166 0.363,-1.135 0.977,-1.402 0.965,1.174 0.005,2.324 -0.04,3.486 -0.429,0.243 -0.588,0.725 -0.924,1.05 -0.8,-0.181 -1.08,-0.892 -1.496,-1.464 0.103,-0.34 0.827,-0.514 0.275,-1.033 0.15,-0.697 0.507,-0.994 1.208,-0.637 z"
   id="path69"
   inkscape:connector-curvature="0"
   style="fill:#33261f;fill-rule:evenodd" /><path
   clip-rule="evenodd"
   d="m 84.239,82.835 c 0.018,-0.605 0.258,-1.016 0.924,-1.05 -0.241,1.299 -0.485,2.598 -0.722,3.898 -0.148,0.82 -0.504,1.354 -1.457,1.109 1.492,-1.477 -0.219,-2.371 -0.665,-3.29 0.39,-1.468 1.813,1.646 1.92,-0.667 z"
   id="path71"
   inkscape:connector-curvature="0"
   style="fill:#432c1c;fill-rule:evenodd" /><path
   clip-rule="evenodd"
   d="m 70.872,89.508 c -0.042,-0.246 -0.084,-0.49 -0.126,-0.736 -0.584,-0.814 -0.266,-1.633 -0.012,-2.451 0.186,-0.581 -0.112,-1.024 -0.419,-1.466 2.683,0.543 2.856,1.987 0.557,4.653 z"
   id="path73"
   inkscape:connector-curvature="0"
   style="fill:#241e18;fill-rule:evenodd" /><path
   clip-rule="evenodd"
   d="m 76.168,44.815 c 0.231,-0.021 0.462,-0.042 0.693,-0.064 1.326,0.83 1.861,2.167 2.283,3.576 -0.145,0.351 -0.288,0.703 -0.432,1.054 -0.402,0.026 -0.648,-0.204 -0.847,-0.514 -0.499,-1.164 -1.107,-2.273 -1.734,-3.374 -0.073,-0.231 -0.057,-0.456 0.037,-0.678 z"
   id="path75"
   inkscape:connector-curvature="0"
   style="fill:#443c30;fill-rule:evenodd" /><path
   clip-rule="evenodd"
   d="m 23.241,28.223 c 0.064,-0.211 0.129,-0.423 0.193,-0.636 0,-0.001 0.217,-0.046 0.218,-0.047 1.578,0.633 1.039,1.556 0.223,2.72 -0.367,-0.727 -1.124,-1.123 -0.634,-2.037 z"
   id="path77"
   inkscape:connector-curvature="0"
   style="fill:#f7a774;fill-rule:evenodd" /><path
   clip-rule="evenodd"
   d="m 72.828,60.321 c -2.183,1.108 -4.366,2.218 -6.55,3.326 -0.53,-0.394 -1.222,-0.481 -1.921,-1.081 0.322,0.746 0.354,1.31 0.01,1.832 h 0.021 c -1.313,0.407 -2.151,-0.301 -2.552,-1.369 -0.573,-1.526 0.981,-2.085 1.595,-3.082 -0.89,-0.524 -1.814,-1.119 -2.879,-1.521 -0.637,-0.241 -0.34,-0.788 0.215,-1.055 0.834,-0.717 1.668,-1.436 2.502,-2.152 0.278,-0.678 0.719,-1.15 1.5,-1.198 1.262,0.265 2.285,-0.799 3.53,-0.641 0.228,0.045 0.438,0.128 0.64,0.243 0.463,0.327 0.833,0.762 1.306,1.12 0.024,-0.578 -0.551,-1.301 0.284,-1.659 1.034,-0.443 1.682,0.109 2.123,1.008 -0.315,2.252 1.661,0.789 2.336,1.434 1.854,1.634 0.238,2.528 -0.828,3.383 -0.531,0.425 -1.431,0.407 -1.332,1.412 z"
   id="path79"
   inkscape:connector-curvature="0"
   style="fill:#f98134;fill-rule:evenodd" /><path
   clip-rule="evenodd"
   d="m 60.768,57.371 c -0.285,0.584 0.021,1.205 0.509,0.854 1.221,-0.881 1.577,2.01 2.758,0.503 0.528,0.88 -0.016,1.456 -0.544,2.077 -1.853,2.179 -1.809,2.325 0.898,3.594 -0.462,0.896 -1.396,1.211 -2.148,1.752 -2.293,-0.161 -2.645,1.196 -2.455,3.061 0.082,0.808 0.176,1.793 -0.767,2.16 -0.862,0.338 -0.963,-0.697 -1.41,-1.107 -0.597,-0.547 -1.588,-0.598 -1.89,-1.508 1.655,-0.861 0.389,-2.898 1.153,-3.566 -0.442,1.045 -0.682,3.351 -3.321,2.33 -0.707,-0.998 0.629,-1.788 0.282,-2.751 2.394,-2.391 3.235,-6.235 6.935,-7.399 z"
   id="path81"
   inkscape:connector-curvature="0"
   style="fill:#f88c3e;fill-rule:evenodd" /><path
   clip-rule="evenodd"
   d="m 54.269,53.252 c -0.167,-0.033 -0.334,-0.066 -0.501,-0.099 -0.695,-0.81 -0.294,-1.534 0.17,-2.254 0.491,-0.51 1.431,-0.509 1.594,-1.4 0.223,-0.547 0.601,-0.9 1.203,-0.977 1.115,0.087 2.189,-0.112 3.244,-0.472 0.888,0.081 1.598,0.454 2.055,1.244 0.354,1.732 -1.152,2.984 -1.199,4.616 -0.105,1.185 -0.303,2.321 -1.554,2.89 -0.771,-0.238 -1.196,0.295 -1.669,0.736 -0.743,0.692 -1.649,0.775 -2.502,0.394 -0.943,-0.424 -0.181,-1.302 -0.32,-1.96 -0.18,-0.85 0.621,-1.738 -0.07,-2.586 0.225,-1.829 1.307,-0.192 1.86,-0.546 -0.809,-0.33 -1.67,-0.714 -2.311,0.414 z"
   id="path83"
   inkscape:connector-curvature="0"
   style="fill:#f88130;fill-rule:evenodd" /><path
   clip-rule="evenodd"
   d="m 56.762,48.852 c -0.338,0.307 -0.676,0.614 -1.013,0.922 -1.398,1.403 -3.195,1.44 -4.995,1.471 -0.881,0.301 -1.893,-0.259 -2.886,0.486 0.804,-0.339 1.367,-0.457 1.392,0.528 -0.162,0.135 -0.323,0.271 -0.485,0.406 -1.723,1.127 -2.771,0.011 -3.809,-1.144 -0.433,-1.202 0.104,-2.106 0.901,-2.931 0.378,-0.367 0.808,-0.663 1.273,-0.907 1.467,-0.624 3.025,-1.214 4.586,-0.982 2.219,0.33 3.828,-0.418 5.183,-2.049 0.834,0.239 0.883,0.948 0.985,1.628 -0.015,1.016 0,2.048 -1.132,2.572 z"
   id="path85"
   inkscape:connector-curvature="0"
   style="fill:#261a11;fill-rule:evenodd" /><path
   clip-rule="evenodd"
   d="m 45.194,51.252 c 0.955,1.075 2.237,1.321 3.58,1.413 1.495,0.521 2.991,1.043 4.486,1.565 -2.106,0.371 -3.591,1.039 -3.009,3.523 -0.146,0.182 -0.333,0.305 -0.555,0.377 -1.833,0.206 -3.516,-1.803 -5.434,-0.366 -0.729,0.366 -1.396,0.442 -1.864,-0.401 -0.29,-0.917 -0.559,-1.839 -0.397,-2.818 0.987,-0.979 2.205,-0.968 3.463,-0.793 0.617,0.717 1.127,1.64 2.593,1.118 -0.849,-0.838 -2.01,-0.73 -2.779,-1.328 -1.014,-0.812 -3.306,0.207 -3.192,-2.226 0.635,-0.67 1.461,-1.091 2.177,-1.659 1.173,0.027 0.484,1.142 0.931,1.595 z"
   id="path87"
   inkscape:connector-curvature="0"
   style="fill:#f09d60;fill-rule:evenodd" /><path
   clip-rule="evenodd"
   d="m 63.331,72.91 c -2.979,0.91 -5.984,1.391 -9.065,0.52 -0.207,-0.106 -0.414,-0.213 -0.621,-0.318 -0.384,-0.697 -1.132,-1.199 -1.211,-2.049 -0.096,-1.021 0.092,-1.822 1.428,-1.226 0.653,0.854 4.736,2.185 5.633,1.807 0.063,-0.026 0.06,-0.3 0.157,-0.45 1.888,-0.396 1.888,-0.396 2.515,-2.624 0.19,-0.158 0.381,-0.316 0.572,-0.475 0.455,0.185 0.967,0.292 1.342,0.595 0.653,0.529 1.145,1.152 2.041,0.223 0.381,-0.396 1.31,-0.622 1.75,0.072 0.639,1.008 -0.511,1.59 -0.771,2.398 -0.674,1.945 -2.639,0.704 -3.77,1.527 z"
   id="path89"
   inkscape:connector-curvature="0"
   style="fill:#f8914a;fill-rule:evenodd" /><path
   clip-rule="evenodd"
   d="m 62.348,84.748 c -0.551,-3.699 -3.185,-5.891 -5.839,-8.066 -0.335,-0.445 -0.671,-0.891 -1.126,-1.494 1.212,-0.162 2.298,-0.307 3.384,-0.451 0.69,0.037 1.381,0.073 2.071,0.11 0.709,0.876 0.189,1.89 0.316,2.831 0.107,-0.316 -0.32,0.006 0.009,0.056 0.05,-0.653 0.013,-1.446 1.04,-1.108 0.688,0.229 0.973,0.836 0.962,1.552 -0.019,1.247 -0.842,2.571 0.366,3.7 0.053,1.432 0.738,2.902 -0.247,4.273 -0.606,-0.272 -0.207,-1.213 -0.936,-1.403 z"
   id="path91"
   inkscape:connector-curvature="0"
   style="fill:#f6b27f;fill-rule:evenodd" /><path
   clip-rule="evenodd"
   d="m 50.629,60.65 c 0.74,-0.521 1.466,-1.063 2.222,-1.559 0.779,-0.509 1.719,-0.553 2.276,0.127 0.576,0.703 0.213,1.564 -0.388,2.246 -1.641,1.865 -3.257,3.748 -3.525,6.373 -1.085,1.301 -1.851,0.213 -2.688,-0.355 -0.271,-0.384 -0.514,-0.777 -0.357,-1.281 0.76,-0.892 -0.47,-2.648 1.334,-3.091 0.769,0.438 0.639,-0.788 1.236,-0.675 0.316,-0.17 0.857,0.188 0.976,-0.311 C 51.78,61.851 51.366,61.673 51.128,61.487 50.857,61.27 50.656,61.01 50.629,60.65 z"
   id="path93"
   inkscape:connector-curvature="0"
   style="fill:#f69950;fill-rule:evenodd" /><path
   clip-rule="evenodd"
   d="m 64.773,54.439 c -0.501,0.26 -1.002,0.52 -1.504,0.779 -1.371,0.078 -0.769,-1.814 -1.936,-1.938 -0.512,-0.567 -0.453,-1.099 0.096,-1.602 0.693,-0.055 1.033,0.49 1.472,0.86 1.784,0.723 1.276,-0.943 1.626,-1.625 0.441,-0.863 -0.284,-2.23 1.152,-2.685 0.146,0.518 -0.003,1.127 0.48,1.538 0.577,0.83 0.981,1.696 2.335,1.683 1.081,-0.01 1.024,0.834 0.372,1.555 -1.378,0.438 -2.651,1.178 -4.093,1.435 z"
   id="path95"
   inkscape:connector-curvature="0"
   style="fill:#34241a;fill-rule:evenodd" /><path
   clip-rule="evenodd"
   d="m 54.77,53.281 c 0.886,0.709 0.286,1.711 0.516,2.534 0.18,0.646 -0.871,1.563 0.278,1.885 0.813,0.227 1.712,-0.167 2.087,-0.962 0.678,-1.435 1.121,-0.734 1.63,0.063 -0.539,0.48 -1.099,0.939 -1.614,1.443 -1.101,1.076 -2.18,0.111 -3.191,-0.113 -1.217,-0.271 -0.243,-1.191 -0.211,-1.799 0.043,-0.802 0.265,-1.594 0.408,-2.39 -0.114,-0.241 -0.089,-0.463 0.097,-0.661 z"
   id="path97"
   inkscape:connector-curvature="0"
   style="fill:#f09f5c;fill-rule:evenodd" /><path
   clip-rule="evenodd"
   d="m 53.793,70.246 c -1.374,-0.714 -0.965,0.438 -0.936,0.974 0.037,0.692 1.009,1.05 0.788,1.892 -1.481,-0.613 -1.87,-1.858 -1.562,-3.233 0.393,-1.753 0.684,-3.573 1.749,-5.108 0.472,0.092 1.116,0.242 0.59,0.822 -0.472,0.521 -0.63,1.045 -0.688,1.673 -0.389,0.638 0.26,0.944 0.453,1.397 0.289,0.504 0.524,1.016 0.203,1.596 -0.202,0.153 -0.401,0.149 -0.597,-0.013 z"
   id="path99"
   inkscape:connector-curvature="0"
   style="fill:#e9b885;fill-rule:evenodd" /><path
   clip-rule="evenodd"
   d="m 61.769,51.815 c -0.48,0.389 -0.505,0.913 -0.435,1.465 -0.167,0.21 -0.334,0.42 -0.5,0.631 -1.064,-1.804 1.016,-3.01 0.883,-4.637 -0.507,-2.074 -0.648,-4.13 0.289,-6.138 0.598,0.073 0.967,0.426 1.196,0.959 0.295,2.718 0.796,5.473 -1.433,7.72 z"
   id="path101"
   inkscape:connector-curvature="0"
   style="fill:#eaac71;fill-rule:evenodd" /><path
   clip-rule="evenodd"
   d="m 48.412,66.205 c 0.132,0.369 0.265,0.737 0.397,1.106 0.429,1.007 1.617,1.089 2.249,1.847 0.451,2.007 -0.839,1.564 -1.537,0.864 -1.256,-1.259 -2.436,-2.707 -2.183,-4.73 0.302,-0.315 0.643,-0.312 1.008,-0.129 0.228,0.335 0.277,0.681 0.066,1.042 z"
   id="path103"
   inkscape:connector-curvature="0"
   style="fill:#e7b289;fill-rule:evenodd" /><path
   clip-rule="evenodd"
   d="m 45.709,59.813 c -0.701,-0.219 -1.759,0.371 -2.005,-0.882 0.053,-0.483 0.313,-0.814 0.744,-1.024 1.519,-0.391 2.959,-0.461 4.017,1.002 -0.345,2.048 -1.758,0.843 -2.756,0.904 z"
   id="path105"
   inkscape:connector-curvature="0"
   style="fill:#dc995e;fill-rule:evenodd" /><path
   clip-rule="evenodd"
   d="m 54.308,50.89 c -0.181,0.755 -0.36,1.509 -0.54,2.264 -0.934,0.214 -1.725,-0.17 -2.507,-0.594 -0.267,-0.481 -1.11,-0.866 -0.257,-1.535 1.107,0.112 2.193,-0.3 3.304,-0.135 z"
   id="path107"
   inkscape:connector-curvature="0"
   style="fill:#f78e48;fill-rule:evenodd" /><path
   clip-rule="evenodd"
   d="m 45.709,59.813 c 0.841,-0.373 2.401,0.766 2.491,-1.186 0.063,-0.967 1.013,-0.37 1.389,-0.787 0.221,-0.029 0.442,-0.058 0.663,-0.086 0.55,0.762 0.708,1.381 -0.389,1.861 -1.382,0.606 -2.732,0.894 -4.154,0.198 z"
   id="path109"
   inkscape:connector-curvature="0"
   style="fill:#e17935;fill-rule:evenodd" /><path
   clip-rule="evenodd"
   d="m 48.188,65.293 c -0.283,0 -0.566,-0.001 -0.85,-0.002 0.206,-1.552 -0.501,-3.404 1.44,-4.388 0.197,0.189 0.34,0.414 0.431,0.673 0.291,1.411 -0.847,2.432 -1.021,3.717 z"
   id="path111"
   inkscape:connector-curvature="0"
   style="fill:#e1a06b;fill-rule:evenodd" /><path
   clip-rule="evenodd"
   d="m 44.311,58.299 c -0.203,0.211 -0.406,0.421 -0.607,0.631 -0.526,0.697 -1.221,0.314 -1.859,0.29 -0.035,-0.097 -0.055,-0.196 -0.062,-0.298 -0.241,-0.572 -1.077,-0.66 -1.131,-1.387 0.511,-0.863 1.18,-0.837 1.932,-0.346 0.486,0.762 1.031,0.436 1.578,0.086 0.366,0.295 0.405,0.639 0.149,1.024 z"
   id="path113"
   inkscape:connector-curvature="0"
   style="fill:#ee8235;fill-rule:evenodd" /><path
   clip-rule="evenodd"
   d="m 54.77,53.281 c -0.032,0.221 -0.064,0.441 -0.097,0.662 -0.135,-0.23 -0.27,-0.46 -0.404,-0.69 0.36,-2.419 2.334,-0.27 3.271,-1.583 0.003,1.824 -0.314,2.549 -1.735,1.398 -0.358,-0.288 -0.764,-0.214 -1.035,0.213 z"
   id="path115"
   inkscape:connector-curvature="0"
   style="fill:#f78e48;fill-rule:evenodd" /><path
   clip-rule="evenodd"
   d="m 50.764,51.282 c 0.166,0.426 0.332,0.852 0.497,1.278 -0.667,-0.101 -1.333,-0.201 -2.001,-0.301 -0.502,-0.238 -1.004,-0.476 -1.555,-0.737 0.734,-1.368 2.094,-0.353 3.038,-0.814 0.136,0.123 0.184,0.249 0.146,0.378 -0.04,0.131 -0.081,0.196 -0.125,0.196 z"
   id="path117"
   inkscape:connector-curvature="0"
   style="fill:#d29d70;fill-rule:evenodd" /><path
   clip-rule="evenodd"
   d="m 48.796,61.184 c 0.017,-0.095 0.011,-0.188 -0.017,-0.28 0.616,-0.085 1.233,-0.169 1.85,-0.253 0.197,0.189 0.393,0.38 0.59,0.57 0.122,0.593 0.02,1.123 -0.438,1.553 -0.464,-0.087 -0.359,0.968 -1.012,0.502 -0.713,-0.516 -0.598,-1.419 -0.973,-2.092 z"
   id="path119"
   inkscape:connector-curvature="0"
   style="fill:#fbc27a;fill-rule:evenodd" /><path
   clip-rule="evenodd"
   d="m 51.059,69.158 c -1.05,-0.25 -2.251,-0.316 -2.25,-1.848 0.785,0.254 1.457,1.021 2.405,0.527 -0.052,0.441 -0.104,0.882 -0.155,1.321 z"
   id="path121"
   inkscape:connector-curvature="0"
   style="fill:#f98234;fill-rule:evenodd" /><path
   clip-rule="evenodd"
   d="m 45.194,51.252 c -0.538,-0.334 -0.284,-1.31 -1.132,-1.393 -0.546,0.243 -0.844,-0.02 -1.035,-0.506 -0.322,-0.963 -0.537,-2.099 -1.979,-1.188 -1.049,0.792 -0.835,2.012 -1.051,3.083 -0.448,0.647 -0.381,1.239 0.193,1.777 0.186,0.3 0.284,0.605 0.021,0.916 -1.122,0.635 -2.599,0.2 -3.606,1.194 -0.761,0.075 -1.394,-0.193 -1.932,-0.715 -0.133,-0.883 -0.685,-1.724 -0.357,-2.831 -0.706,0.523 -1.041,1.575 -2.214,1.362 -0.88,-0.16 -2.106,0.56 -2.07,-1.162 -0.074,0.003 -0.022,0.054 -0.022,0.075 0,0.8 -0.301,1.359 -1.179,1.014 -0.843,-0.332 -0.799,-1.146 -0.734,-1.905 0.035,-0.411 0.172,-0.803 0.21,-1.212 1.015,-2.011 -0.561,-3.199 -1.543,-4.477 -1.252,-1.629 -2.644,-0.24 -3.971,0.068 -0.506,-0.484 -0.331,-1.073 -0.259,-1.646 0.006,-0.568 0.149,-1.211 -0.707,-1.317 -1.058,-0.131 -1.174,-1.01 -1.431,-1.785 -0.045,-0.495 -0.024,-0.965 0.464,-1.262 1.541,0.603 3.195,1.877 4.225,-0.93 -1.701,0.08 -3.797,0.981 -4.549,-1.701 1.25,-0.442 1.896,2.349 3.247,0.587 0.773,-0.623 1.409,-0.185 2.045,0.26 0.624,1.112 0.747,2.641 2.399,2.913 1.919,1.036 4.315,0.333 6.146,1.687 0.119,0.204 0.186,0.426 0.201,0.662 -0.124,1.012 -0.803,1.786 -1.159,2.696 -0.457,1.167 -0.367,2.411 0.631,3.14 0.896,0.654 1.629,-0.336 2.336,-0.855 1.028,-0.754 1.765,-1.706 2.015,-2.987 0.278,-0.676 0.593,-1.332 1.053,-1.908 0.477,-0.506 1.061,-0.624 1.719,-0.481 0.865,0.26 1.439,0.862 1.895,1.605 0.558,1.436 1.729,2.124 3.12,2.542 0.517,0.714 -0.097,1.478 0.096,2.206 -0.671,0.691 -1.165,1.456 -1.086,2.474 z"
   id="path123"
   inkscape:connector-curvature="0"
   style="fill:#f78a42;fill-rule:evenodd" /><path
   clip-rule="evenodd"
   d="m 12.457,41.282 c -0.02,-0.944 0.036,-1.867 0.777,-2.582 0.866,-0.647 0.375,-2.437 2.034,-2.417 2,-0.948 0.842,1.366 1.676,1.623 -1.067,3.017 -1.067,3.017 1.978,5.085 0.075,0.334 0.053,0.673 0.033,1.012 -0.165,1.397 1.365,1.762 1.73,2.835 0.128,0.476 0.132,0.951 -0.017,1.424 -0.14,0.353 -0.373,0.61 -0.743,0.728 -1.124,-0.443 -2.654,-0.295 -2.749,-2.162 -0.035,-0.701 -0.363,0.006 -0.533,0.064 -0.943,0.327 -1.577,-0.056 -2.063,-0.833 -0.213,-0.941 -1.196,-2.073 0.367,-2.654 -1.349,0.203 -2.81,0.122 -2.49,-2.123 z"
   id="path125"
   inkscape:connector-curvature="0"
   style="fill:#f7af7d;fill-rule:evenodd" /><path
   clip-rule="evenodd"
   d="m 18.813,43.226 c -3.822,-1.417 -4.381,-3.008 -1.869,-5.32 1.95,-1.279 3.021,-0.159 3.917,1.437 -0.019,0.45 -0.038,0.898 -0.057,1.346 -0.087,1.297 0.3,2.968 -1.991,2.537 z"
   id="path127"
   inkscape:connector-curvature="0"
   style="fill:#260e05;fill-rule:evenodd" /><path
   clip-rule="evenodd"
   d="m 28.763,22.831 c 0.335,-0.207 0.669,-0.414 1.003,-0.62 0.834,0.185 1.668,0.37 2.502,0.555 1.443,0.557 2.116,1.755 2.051,3.152 -0.039,0.848 -0.951,1.577 -1.801,1.74 -1.089,0.208 -2.41,0.46 -2.851,-1.158 0.036,-0.744 -0.667,-1.098 -0.9,-1.7 -0.248,-0.655 -0.458,-1.312 -0.004,-1.969 z"
   id="path129"
   inkscape:connector-curvature="0"
   style="fill:#f4caa1;fill-rule:evenodd" /><path
   clip-rule="evenodd"
   d="m 25.17,32.781 c -0.66,-1.466 -0.981,-2.833 1.033,-3.512 1.051,0.266 2.08,0.562 2.349,1.832 0.044,0.496 -0.155,0.909 -0.442,1.291 -0.449,0.501 -0.917,0.979 -1.641,1.051 -0.373,-0.525 -0.838,0.1 -1.239,-0.096 -0.103,-0.117 -0.145,-0.24 -0.128,-0.369 0.016,-0.131 0.039,-0.197 0.068,-0.197 z"
   id="path131"
   inkscape:connector-curvature="0"
   style="fill:#2c170d;fill-rule:evenodd" /><path
   clip-rule="evenodd"
   d="m 15.269,36.283 c -1.202,0.365 -0.752,2.12 -2.034,2.417 0.177,-2.109 1.229,-3.816 2.482,-5.432 0.369,0.49 1.467,0.928 0.142,1.551 -0.679,0.321 -0.536,0.92 -0.59,1.464 z"
   id="path133"
   inkscape:connector-curvature="0"
   style="fill:#e8cfb7;fill-rule:evenodd" /><path
   clip-rule="evenodd"
   d="m 28.763,22.831 c 0.069,0.656 0.456,1.312 0.004,1.969 -0.927,0.27 -2.043,1.447 -2.501,-0.522 0.519,-1.021 1.349,-1.508 2.497,-1.447 z"
   id="path135"
   inkscape:connector-curvature="0"
   style="fill:#eed7ba;fill-rule:evenodd" /><path
   clip-rule="evenodd"
   d="m 25.729,37.795 c -0.648,-0.165 -1.297,-0.33 -1.944,-0.495 -0.003,-1.172 -0.007,-2.345 -0.011,-3.518 0.199,-0.15 0.409,-0.161 0.63,-0.052 0.363,1.3 1.916,1.412 2.497,2.495 -0.271,0.611 -0.582,1.195 -1.172,1.57 z"
   id="path137"
   inkscape:connector-curvature="0"
   style="fill:#fab388;fill-rule:evenodd" /><path
   clip-rule="evenodd"
   d="m 21.17,34.879 c -1.364,-1.604 -0.614,-3.048 -0.902,-4.323 1.32,1.107 0.717,2.527 0.902,4.323 z"
   id="path139"
   inkscape:connector-curvature="0"
   style="fill:#f6ad88;fill-rule:evenodd" /><path
   clip-rule="evenodd"
   d="m 28.28,31.278 c -0.692,-0.67 -1.384,-1.339 -2.076,-2.009 1.046,-0.882 1.749,0.12 2.572,0.468 0.402,0.381 0.644,0.82 0.505,1.397 -0.049,0.096 -0.097,0.192 -0.145,0.289 -0.317,0.141 -0.613,0.15 -0.856,-0.145 z"
   id="path141"
   inkscape:connector-curvature="0"
   style="fill:#db8555;fill-rule:evenodd" /><path
   clip-rule="evenodd"
   d="m 24.254,33.795 -0.24,-0.016 c 0,0 -0.24,0.003 -0.24,0.003 -0.467,-0.041 -0.988,0.073 -1.537,-0.641 1.119,-0.137 2.026,-0.249 2.934,-0.361 0.119,0.13 0.174,0.283 0.167,0.459 -0.06,0.328 -0.253,0.555 -0.538,0.713 -0.214,0.061 -0.395,0.002 -0.546,-0.157 z"
   id="path143"
   inkscape:connector-curvature="0"
   style="fill:#fbddbe;fill-rule:evenodd" /><path
   clip-rule="evenodd"
   d="m 42.808,25.906 c 0.299,-0.003 0.598,-0.007 0.896,-0.01 0.827,0.798 2.373,0.482 2.844,1.835 -0.124,1.164 -0.914,1.897 -1.703,2.631 -1.551,-0.676 -3.115,-1.184 -4.775,-0.335 -0.994,-0.023 -2.054,0.131 -2.688,-0.932 -0.229,-0.377 -0.493,-0.712 -0.971,-0.785 -0.053,-1.413 -0.969,-3.337 1.816,-3.071 0.083,0.075 0.166,0.149 0.249,0.224 1.372,0.848 2.816,0.992 4.332,0.443 z"
   id="path145"
   inkscape:connector-curvature="0"
   style="fill:#f6ad75;fill-rule:evenodd" /><path
   clip-rule="evenodd"
   d="m 34.198,32.051 c 0.956,-0.689 1.544,-1.656 2.024,-2.702 0.475,0.19 0.74,0.584 0.983,1 0.419,0.832 0.857,1.844 0.14,2.536 -1.138,1.098 -1.051,2.488 -1.352,3.803 -0.156,0.183 -0.354,0.295 -0.59,0.339 -0.896,-0.551 -1.736,-1.177 -2.542,-1.856 -0.148,-0.479 -0.135,-0.957 0,-1.436 0.139,-0.805 1.128,-0.934 1.337,-1.684 z"
   id="path147"
   inkscape:connector-curvature="0"
   style="fill:#f8b581;fill-rule:evenodd" /><path
   clip-rule="evenodd"
   d="m 41.234,24.698 c -0.686,0.638 -1.532,0.643 -2.389,0.611 -0.134,0.218 -0.288,0.245 -0.468,0.052 l -0.152,-0.123 c -0.166,-0.287 -0.332,-0.573 -0.498,-0.859 -0.421,-0.583 -0.954,-1.112 -0.933,-1.911 0.226,-1.309 0.565,-2.158 1.84,-0.644 0.546,0.647 1.743,0.448 2.104,1.439 0.165,0.478 0.33,0.957 0.496,1.435 z"
   id="path149"
   inkscape:connector-curvature="0"
   style="fill:#faac79;fill-rule:evenodd" /><path
   clip-rule="evenodd"
   d="m 40.738,23.263 c -0.837,-0.888 -2.793,0.143 -3.033,-1.769 -0.155,0.25 -0.311,0.5 -0.465,0.751 -0.504,0.403 -0.979,0.061 -1.463,-0.057 -0.326,-0.633 -0.652,-1.266 -0.979,-1.898 2.557,-0.162 4.836,0.233 5.94,2.973 z"
   id="path151"
   inkscape:connector-curvature="0"
   style="fill:#e6d1b7;fill-rule:evenodd" /><path
   clip-rule="evenodd"
   d="m 34.198,32.051 c 0.228,0.864 -0.551,1.184 -0.931,1.719 -1.316,0.276 -2.623,0.573 -3.574,1.646 -0.398,-0.042 -0.609,-0.287 -0.709,-0.654 0.261,-1.117 -0.332,-2.311 0.299,-3.396 l -0.002,-0.232 c 1.541,0.828 3.059,1.786 4.917,0.917 z"
   id="path153"
   inkscape:connector-curvature="0"
   style="fill:#f4b784;fill-rule:evenodd" /><path
   clip-rule="evenodd"
   d="m 35.777,22.188 c 0.516,-0.68 0.979,-0.075 1.463,0.058 0.162,0.711 0.325,1.422 0.488,2.134 -1.957,0.432 -1.851,-0.971 -1.951,-2.192 z"
   id="path155"
   inkscape:connector-curvature="0"
   style="fill:#fbd0a9;fill-rule:evenodd" /><path
   clip-rule="evenodd"
   d="m 36.844,30.378 c -0.467,-0.187 -0.527,-0.62 -0.621,-1.031 0.063,-0.346 0.125,-0.692 0.188,-1.039 0.893,-1.308 1.034,-0.29 1.276,0.414 -0.243,0.484 0.149,1.076 -0.257,1.533 -0.172,0.152 -0.367,0.192 -0.586,0.123 z"
   id="path157"
   inkscape:connector-curvature="0"
   style="fill:#edd8c0;fill-rule:evenodd" /><path
   clip-rule="evenodd"
   d="m 68.758,52.779 c 0.388,-0.704 0.109,-1.317 -0.604,-0.977 -2.869,1.374 -2.134,-0.581 -1.994,-2.036 0.073,-0.36 0.146,-0.72 0.219,-1.08 0.857,-1.775 0.696,-3.6 0.261,-5.438 -0.31,-0.223 -0.25,-0.514 -0.149,-0.813 1.17,-0.226 2.334,-0.556 3.545,-0.255 1.584,0.058 3.146,0.202 4.53,1.086 0.534,0.516 1.069,1.032 1.603,1.548 0.041,0.097 0.076,0.195 0.107,0.295 0.731,1.213 1.102,2.622 2.023,3.731 0.139,0.18 0.276,0.359 0.414,0.539 0,0.097 -0.024,0.187 -0.075,0.27 -0.363,1.027 -0.339,2.058 -0.031,3.092 0.133,1.214 -0.751,1.827 -1.493,2.524 -0.961,-0.123 -0.845,-1.172 -1.414,-1.633 -0.143,-0.166 -0.267,-0.344 -0.385,-0.527 -0.688,-1.094 -1.472,-1.834 -2.767,-0.781 -0.174,0.143 -0.365,0.252 -0.571,0.338 -1.336,-0.344 -2.031,1.185 -3.27,1.121 -0.152,-0.005 -0.303,-0.015 -0.454,-0.029 -0.281,-0.557 0.234,-0.702 0.505,-0.975 z"
   id="path159"
   inkscape:connector-curvature="0"
   style="fill:#f99350;fill-rule:evenodd" /><path
   clip-rule="evenodd"
   d="m 66.781,71.238 c -0.346,-0.938 0.654,-1.223 1.478,-2.123 -2.307,0.16 -4.399,1.461 -5.521,-1.02 1.577,-0.869 3.196,-0.957 4.856,-0.263 2.117,0.45 4.374,0.266 6.341,1.396 0.439,-0.016 0.88,-0.032 1.319,-0.049 0.176,0.045 0.353,0.09 0.529,0.136 -0.038,0.427 0.067,0.78 0.492,0.974 0.322,0.667 0.758,1.374 -0.515,1.492 -1.125,1.479 -2.696,0.654 -4.058,0.705 -1.163,0.043 -2.265,-0.666 -3.542,-0.043 -0.795,0.389 -1.349,-0.294 -1.379,-1.205 z"
   id="path161"
   inkscape:connector-curvature="0"
   style="fill:#f8853b;fill-rule:evenodd" /><path
   clip-rule="evenodd"
   d="m 53.793,70.246 c 0.139,0.002 0.276,-0.002 0.414,-0.012 0.658,-0.215 0.754,-0.973 1.272,-1.322 0.094,-0.05 0.188,-0.098 0.282,-0.146 0.872,0.923 3.268,-0.243 3.054,2.381 0.823,-2.033 -0.38,-4.33 1.433,-6.08 0.168,1.146 1.243,0.768 1.992,1.084 -0.639,0.833 -1.277,1.666 -1.916,2.5 1.198,1.145 0.688,1.945 -0.524,2.604 -0.126,1.084 -0.215,1.04 -1.124,0.858 -1.175,-0.233 -2.395,-0.244 -3.597,-0.335 -0.965,-0.072 -1.938,-0.112 -1.286,-1.532 z"
   id="path163"
   inkscape:connector-curvature="0"
   style="fill:#f9a05f;fill-rule:evenodd" /><path
   clip-rule="evenodd"
   d="m 75.765,53.271 c 1.429,10e-4 0.681,1.477 1.349,1.994 -0.363,2.588 -2.363,3.788 -4.285,5.057 -0.811,-0.979 -1.612,-1.729 0.672,-1.803 1.435,-0.046 2.545,-1.04 1.259,-2.739 -0.297,-1.091 0.181,-1.869 1.005,-2.509 z"
   id="path165"
   inkscape:connector-curvature="0"
   style="fill:#f1a36a;fill-rule:evenodd" /><path
   clip-rule="evenodd"
   d="m 59.8,71.255 c 0.498,-0.804 1.259,-1.554 0.524,-2.604 0.614,-0.027 1.229,-0.055 1.842,-0.081 0.717,2.684 0.426,3.016 -2.366,2.685 z"
   id="path167"
   inkscape:connector-curvature="0"
   style="fill:#f8853b;fill-rule:evenodd" /><path
   clip-rule="evenodd"
   d="m 73.935,69.229 c -2.155,-0.271 -4.354,-0.353 -6.34,-1.396 2.249,-0.15 4.557,-0.573 6.34,1.396 z"
   id="path169"
   inkscape:connector-curvature="0"
   style="fill:#d6cfc6;fill-rule:evenodd" /><path
   clip-rule="evenodd"
   d="m 64.367,64.398 c -0.024,-0.159 -0.121,-0.357 -0.061,-0.473 0.561,-1.062 -1.945,-1.148 -0.837,-1.811 0.857,-0.511 2.269,0.25 2.809,1.532 -0.636,0.252 -1.274,0.502 -1.911,0.752 z"
   id="path171"
   inkscape:connector-curvature="0"
   style="fill:#fda467;fill-rule:evenodd" /><path
   clip-rule="evenodd"
   d="m 78.606,52.742 c -0.802,-1.039 -1.021,-2.07 0.032,-3.091 0.246,1.032 0.226,2.062 -0.032,3.091 z"
   id="path173"
   inkscape:connector-curvature="0"
   style="fill:#f7c5a4;fill-rule:evenodd" /><path
   clip-rule="evenodd"
   d="m 28.308,49.762 c 0.139,0.196 0.294,0.383 0.412,0.59 0.396,0.692 -0.809,2.003 0.333,2.11 1.373,0.129 0.203,-1.534 1.039,-2.148 0.117,0.717 0.236,1.443 0.391,2.379 1.123,-0.75 2.687,0.034 3.512,-1.391 0.154,0.264 2.346,-0.708 0.476,0.784 0.781,0.643 0.559,1.4 0.249,2.169 -0.334,0.588 -0.86,0.811 -1.513,0.795 -2.85,-1.219 -2.85,-1.219 -4.908,1.732 l -0.013,0.055 c -2.472,-0.738 -1.954,-2.766 -2.018,-4.583 -0.053,-1.483 0.648,-2.243 2.04,-2.492 z"
   id="path175"
   inkscape:connector-curvature="0"
   style="fill:#f4a065;fill-rule:evenodd" /><path
   clip-rule="evenodd"
   d="m 19.753,48.759 c 0.167,-0.169 0.335,-0.338 0.502,-0.507 0.946,-0.661 1.557,-0.19 2.067,0.614 0.303,0.319 0.606,0.637 0.909,0.956 0.269,1.144 0.008,2.383 0.89,3.432 0.393,0.467 0.726,1.388 -0.391,1.745 -0.377,0.25 -1.482,-1.054 -1.199,0.516 0.154,0.85 0.612,1.604 -0.849,1.573 -1.129,-0.022 -1.905,-0.3 -1.958,-1.585 -0.023,-0.578 0.007,-1.137 0.326,-1.644 0.846,-0.904 0.852,-1.857 0.19,-2.867 -0.442,-0.679 -0.923,-1.358 -0.487,-2.233 z"
   id="path177"
   inkscape:connector-curvature="0"
   style="fill:#f88b46;fill-rule:evenodd" /><path
   clip-rule="evenodd"
   d="m 20.327,53.768 c 0.122,1.306 -0.88,3.388 1.962,2.869 -0.219,-0.982 -1.27,-2.032 -0.373,-2.821 0.881,-0.774 1.182,0.677 1.811,1.026 0.115,0.716 0.426,1.377 0.579,2.081 -1.822,1.247 -3.908,0.413 -5.847,0.741 -1.404,-0.399 -0.878,-1.34 -0.441,-2.039 0.46,-0.735 0.904,-1.576 1.828,-1.904 0.177,-0.157 0.337,-0.133 0.481,0.047 z"
   id="path179"
   inkscape:connector-curvature="0"
   style="fill:#ebb07c;fill-rule:evenodd" /><path
   clip-rule="evenodd"
   d="m 24.306,56.923 c -0.486,-0.612 -0.847,-1.26 -0.579,-2.081 0.572,-0.527 0.173,-1.355 -0.065,-1.492 -1.789,-1.031 -0.946,-2.281 -0.43,-3.528 2.567,1.593 3.114,5.208 1.074,7.101 z"
   id="path181"
   inkscape:connector-curvature="0"
   style="fill:#f4a05f;fill-rule:evenodd" /><path
   clip-rule="evenodd"
   d="m 22.322,48.866 c -0.631,-0.402 -1.293,-0.695 -2.067,-0.614 0.003,-0.489 0.005,-0.979 0.009,-1.468 0.573,-1.341 -1.595,-1.808 -1.004,-3.154 1.334,-0.599 2.686,-1.91 3.954,0.096 -0.14,0.542 -0.279,1.085 -0.42,1.628 -0.177,1.167 -0.651,2.296 -0.472,3.512 z"
   id="path183"
   inkscape:connector-curvature="0"
   style="fill:#f8a469;fill-rule:evenodd" /><path
   clip-rule="evenodd"
   d="m 20.327,53.768 c -0.162,-0.002 -0.323,-0.017 -0.481,-0.046 1.408,-2.363 -0.726,-3.252 -1.961,-4.343 -1.413,-1.248 -2.878,-0.799 -4.092,0.542 -1.379,-0.744 -0.582,-1.705 -0.266,-2.619 0.223,-0.63 -0.354,-1.715 0.97,-1.724 0.093,0.061 0.186,0.122 0.278,0.184 0.622,0.254 1.264,2.11 1.865,-0.12 0.166,-0.613 1.107,0.246 1.074,0.394 -0.402,1.761 1.34,1.847 2.038,2.725 0.408,0.985 0.771,1.992 1.239,2.949 0.463,0.946 0.159,1.566 -0.664,2.058 z"
   id="path185"
   inkscape:connector-curvature="0"
   style="fill:#f49962;fill-rule:evenodd" /><path
   clip-rule="evenodd"
   d="m 14.202,47.349 c 0.161,0.904 -1.534,1.513 -0.409,2.571 -0.031,0.254 -0.063,0.508 -0.094,0.762 -0.246,0.005 -0.698,0.054 -0.708,0.009 -0.661,-3.106 -2.055,-6.179 -0.534,-9.408 0.53,0.754 0.536,2.003 2.141,1.614 0.647,-0.157 1.775,0.296 2.024,1.438 -2.015,-0.778 -2.015,-0.778 -1.847,1.427 l -0.002,0.003 c -0.459,-0.357 -0.925,-0.314 -1.184,0.18 -0.341,0.65 0.373,0.946 0.613,1.404 z"
   id="path187"
   inkscape:connector-curvature="0"
   style="fill:#f4d7b7;fill-rule:evenodd" /><path
   clip-rule="evenodd"
   d="m 84.227,79.701 c -0.822,-0.102 -1.057,0.396 -1.104,1.084 -0.6,0.226 -1.574,-0.877 -1.844,0.521 -0.195,0.173 -0.393,0.347 -0.588,0.519 -1.451,-1.785 -1.318,-4.193 -2.404,-6.122 0.871,-1.56 2.688,-1.153 3.949,-1.899 -0.222,2.264 0.168,4.323 1.991,5.897 z"
   id="path189"
   inkscape:connector-curvature="0"
   style="fill:#f1a974;fill-rule:evenodd" /><path
   clip-rule="evenodd"
   d="m 63.277,81.725 c -2.155,-0.178 -0.994,-1.659 -0.896,-2.557 0.146,-1.348 0.269,-1.342 -0.914,-1.269 -0.458,0.028 -0.582,-0.333 -0.602,-0.61 -0.059,-0.811 -0.026,-1.628 -0.029,-2.442 0.943,0.392 2.104,0.159 2.883,1.011 0.039,0.31 0.079,0.619 0.119,0.928 -0.106,1.506 1.076,2.387 1.793,3.445 0.564,0.836 0.797,1.597 0.63,2.538 -1.076,0.603 -1.239,-0.351 -1.427,-0.946 -0.478,-1.516 -1.027,-0.321 -1.557,-0.098 z"
   id="path191"
   inkscape:connector-curvature="0"
   style="fill:#f98845;fill-rule:evenodd" /><path
   clip-rule="evenodd"
   d="m 66.781,71.238 c 0.563,0.168 1.063,2.301 1.731,0 0.208,-0.717 0.751,0.033 1.15,0.168 1.995,0.67 4.015,1.075 6.098,0.375 0.313,0.467 0.352,0.939 0.021,1.416 -4.15,-0.096 -8.302,-0.191 -12.452,-0.287 0.708,-1.473 2.764,-0.162 3.452,-1.672 z"
   id="path193"
   inkscape:connector-curvature="0"
   style="fill:#f3a569;fill-rule:evenodd" /><path
   clip-rule="evenodd"
   d="m 58.3,95.28 c 1.831,-0.077 0.614,-1.47 0.947,-2.194 1.815,1.405 2.404,0.044 2.989,-1.326 2.123,3.025 2.07,3.252 -1.402,6.08 -0.281,0.707 -1.31,0.113 -1.57,0.932 -0.179,0.563 -0.764,0.756 -1.172,0.438 -0.653,-0.508 0.313,-0.948 0.231,-1.479 0.253,-0.688 -0.858,-1.313 -0.097,-2.024 0.005,-0.146 0.03,-0.288 0.074,-0.427 z"
   id="path195"
   inkscape:connector-curvature="0"
   style="fill:#f49f63;fill-rule:evenodd" /><path
   clip-rule="evenodd"
   d="m 60.834,97.84 c 0.009,-0.164 -0.035,-0.443 0.033,-0.475 2.863,-1.287 2.126,-3.443 1.369,-5.605 0.21,-0.569 0.263,-1.235 0.932,-1.525 0.301,-0.24 0.633,-0.298 0.994,-0.164 0.2,0.14 0.313,0.334 0.35,0.572 0.139,0.701 -0.867,1.25 -0.25,2.119 0.492,-0.616 -0.063,-1.322 0.299,-1.859 0.837,-0.942 1.604,0.076 2.408,0.083 0.219,0.069 0.363,0.216 0.434,0.435 -0.475,1.419 -1.265,2.662 -2.162,3.844 -1.364,1.038 -2.796,1.96 -4.407,2.575 z"
   id="path197"
   inkscape:connector-curvature="0"
   style="fill:#f0b58b;fill-rule:evenodd" /><path
   clip-rule="evenodd"
   d="m 58.227,95.707 c -0.176,0.685 0.902,1.311 0.097,2.024 -1.022,-0.355 -2.095,0.414 -3.364,-0.28 1.347,-0.347 1.781,-1.887 3.267,-1.744 z"
   id="path199"
   inkscape:connector-curvature="0"
   style="fill:#e9b186;fill-rule:evenodd" /><path
   clip-rule="evenodd"
   d="m 56.852,44.803 c -0.264,2.123 -1.354,2.933 -3.546,2.586 -2.052,-0.325 -4.077,0.224 -6.049,0.835 -0.67,-0.633 -0.194,-1.45 -0.354,-2.167 0.085,-0.979 -0.169,-1.986 0.231,-2.942 0.525,-0.866 1.421,-1.317 1.313,-2.786 -0.091,-1.247 1.73,-0.542 2.713,-0.69 0.644,0.04 1.243,0.175 1.652,0.734 0.32,0.93 1.299,0.907 1.954,1.352 0.024,0.496 -0.115,0.916 -0.553,1.199 -0.152,0.048 -0.31,0.085 -0.47,0.102 -0.757,0.082 -1.663,0.25 -1.387,1.211 0.382,1.332 1.257,0.365 1.938,0.174 0.796,-0.269 1.575,-0.68 2.444,-0.275 0.122,0.131 0.18,0.274 0.172,0.428 -0.006,0.159 -0.026,0.239 -0.058,0.239 z"
   id="path201"
   inkscape:connector-curvature="0"
   style="fill:#f69a54;fill-rule:evenodd" /><path
   clip-rule="evenodd"
   d="m 53.711,38.377 c -0.293,0.034 -0.585,0.068 -0.877,0.103 -0.547,-0.5 -0.424,-1.743 -1.656,-1.481 -0.23,-0.025 -0.424,-0.121 -0.586,-0.284 -0.165,-0.315 -0.186,-0.645 -0.104,-0.984 1.035,-0.965 0.134,-2.314 0.667,-3.381 0.18,-0.159 0.388,-0.224 0.626,-0.194 1.475,1.663 3.777,2.259 5.176,4.021 0.266,1.122 0.076,2.164 -0.907,2.815 -0.904,0.597 -1.651,-0.049 -2.339,-0.615 z"
   id="path203"
   inkscape:connector-curvature="0"
   style="fill:#f8a76b;fill-rule:evenodd" /><path
   clip-rule="evenodd"
   d="m 53.711,38.377 c 1.943,0.676 3.013,0.065 3.046,-2.071 0.064,-0.334 0.253,-0.538 0.602,-0.576 1.026,1.964 -0.171,3.547 -1.437,4.458 -1.932,1.39 -2.095,-0.41 -2.211,-1.811 z"
   id="path205"
   inkscape:connector-curvature="0"
   style="fill:#edba8a;fill-rule:evenodd" /><path
   clip-rule="evenodd"
   d="m 57.358,35.73 c -0.2,0.192 -0.401,0.384 -0.602,0.576 -1.506,-1.582 -4.128,-1.834 -4.984,-4.189 L 51.75,32.03 c 0.823,0.466 1.646,0.931 2.468,1.397 1.047,0.768 2.094,1.535 3.14,2.303 z"
   id="path207"
   inkscape:connector-curvature="0"
   style="fill:#e8e2d4;fill-rule:evenodd" /><path
   clip-rule="evenodd"
   d="m 51.315,36.764 c 0.231,-0.403 0.34,-0.938 1.028,-0.417 0.807,0.611 0.748,1.325 0.49,2.131 -0.007,0.631 -0.014,1.262 -0.021,1.894 -0.669,-0.05 -1.338,-0.101 -2.007,-0.152 -0.186,-0.147 -0.281,-0.336 -0.273,-0.576 0.54,-0.884 0.83,-1.836 0.783,-2.88 z"
   id="path209"
   inkscape:connector-curvature="0"
   style="fill:#e5c2a5;fill-rule:evenodd" /><path
   clip-rule="evenodd"
   d="m 60.1,40.886 c 0.079,0.087 0.135,0.188 0.166,0.301 0.783,0.664 0.794,1.293 -0.084,1.886 -0.641,0.285 -1.298,0.318 -1.969,0.119 -0.262,-0.098 -0.471,-0.263 -0.628,-0.493 0.017,-0.643 -0.333,-1.339 0.278,-1.896 0.743,0.073 1.471,0.606 2.237,0.083 z"
   id="path211"
   inkscape:connector-curvature="0"
   style="fill:#f6be83;fill-rule:evenodd" /><path
   clip-rule="evenodd"
   d="m 57.863,40.803 c 0.014,0.658 0.027,1.317 0.041,1.976 0.617,1.335 1.037,2.642 -0.526,3.664 -0.155,-0.553 0.005,-1.207 -0.526,-1.64 -0.049,-0.174 -0.098,-0.348 -0.146,-0.522 -0.303,-0.403 -0.391,-0.831 -0.152,-1.298 0.087,-0.077 0.174,-0.153 0.262,-0.23 0.786,-0.415 0.098,-1.623 1.047,-1.95 z"
   id="path213"
   inkscape:connector-curvature="0"
   style="fill:#3d2c14;fill-rule:evenodd" /><path
   clip-rule="evenodd"
   d="m 54.229,42.707 c 0.18,-0.327 0.36,-0.654 0.539,-0.98 1.276,-0.842 1.61,0.195 2.046,1.027 0,0 -0.134,-0.044 -0.134,-0.044 -0.731,0.583 -1.593,0.637 -2.476,0.607 -0.129,-0.21 -0.121,-0.413 0.025,-0.61 z"
   id="path215"
   inkscape:connector-curvature="0"
   style="fill:#f7d1a4;fill-rule:evenodd" /><path
   clip-rule="evenodd"
   d="m 65.68,48.229 c -0.279,1.425 -0.541,2.854 -0.843,4.273 -0.217,1.02 -1.139,1.373 -1.942,1.578 -0.296,0.074 -0.17,-0.84 -0.198,-1.31 -0.472,-1.34 0.111,-2.612 0.341,-3.878 0.4,-2.211 0.05,-4.422 0.217,-6.625 -0.038,-0.978 0.518,-0.966 1.258,-0.824 0.817,0.157 1.049,0.672 1.063,1.396 0.032,1.798 0.069,3.594 0.104,5.39 z"
   id="path217"
   inkscape:connector-curvature="0"
   style="fill:#f4f0e5;fill-rule:evenodd" /><path
   clip-rule="evenodd"
   d="m 63.254,42.268 c 0.787,3.553 0.375,7.042 -0.558,10.503 -0.628,-0.009 -0.896,-0.369 -0.928,-0.956 1.209,-2.592 0.987,-5.358 0.981,-8.098 -0.338,-0.483 -0.443,-0.966 0.006,-1.446 0.167,0 0.333,-10e-4 0.499,-0.003 z"
   id="path219"
   inkscape:connector-curvature="0"
   style="fill:#1c100b;fill-rule:evenodd" /><path
   clip-rule="evenodd"
   d="m 74.565,43.267 c -1.591,-0.433 -3.304,-0.227 -4.841,-0.936 -0.139,-0.104 -0.188,-0.214 -0.15,-0.329 0.039,-0.117 0.08,-0.175 0.123,-0.175 1.891,-0.425 3.532,-0.009 4.868,1.44 z"
   id="path221"
   inkscape:connector-curvature="0"
   style="fill:#ebecd9;fill-rule:evenodd" /><path
   clip-rule="evenodd"
   d="m 66.64,43.249 c 0.996,1.865 1.243,3.694 -0.261,5.438 0.087,-1.812 0.174,-3.625 0.261,-5.438 z"
   id="path223"
   inkscape:connector-curvature="0"
   style="fill:#f7cfa8;fill-rule:evenodd" /><path
   clip-rule="evenodd"
   d="m 62.756,42.271 c -0.002,0.482 -0.004,0.964 -0.006,1.446 -0.313,-0.165 -0.626,-0.329 -0.939,-0.493 -0.586,0.075 -1.144,0.073 -1.479,-0.539 0.425,-0.519 0.19,-1.009 -0.065,-1.498 1.016,-0.068 2.025,-0.118 2.489,1.084 z"
   id="path225"
   inkscape:connector-curvature="0"
   style="fill:#e7e1c8;fill-rule:evenodd" /><path
   clip-rule="evenodd"
   d="m 69.697,41.828 c 0.01,0.167 0.019,0.335 0.027,0.503 -1.085,-0.15 -2.136,0.781 -3.235,0.103 0.771,-1.782 2.147,-0.364 3.208,-0.606 z"
   id="path227"
   inkscape:connector-curvature="0"
   style="fill:#f7cfa8;fill-rule:evenodd" /><path
   clip-rule="evenodd"
   d="m 28.298,56.783 c 0.022,-0.162 -0.008,-0.361 0.076,-0.477 0.566,-0.784 -0.968,-2.294 0.546,-2.489 1.447,-0.187 3.295,-0.922 4.391,0.972 0.897,0.418 1.62,1.053 1.015,2.064 -0.719,1.197 -1.841,1.13 -2.964,0.486 -1.022,-0.185 -2.044,-0.37 -3.064,-0.556 z"
   id="path229"
   inkscape:connector-curvature="0"
   style="fill:#231206;fill-rule:evenodd" /><path
   clip-rule="evenodd"
   d="m 31.361,57.34 c 3.201,-0.184 3.287,-0.295 1.949,-2.551 0.47,-0.178 0.939,-0.355 1.409,-0.533 0.698,0.176 1.397,0.352 2.097,0.527 0.652,0.706 1.152,1.477 1.063,2.498 -0.691,0.748 -1.772,0.43 -2.555,0.931 -1.233,-0.007 -2.468,0.022 -3.698,-0.033 -0.652,-0.03 -0.526,-0.446 -0.265,-0.839 z"
   id="path231"
   inkscape:connector-curvature="0"
   style="fill:#f4924a;fill-rule:evenodd" /><path
   clip-rule="evenodd"
   d="m 35.325,58.212 c 0.658,-0.813 1.585,-0.929 2.538,-0.972 1.1,-0.563 2.079,-0.229 3.021,0.398 0.642,0.188 0.898,0.645 0.897,1.283 -2.151,-0.235 -4.303,-0.472 -6.456,-0.709 z"
   id="path233"
   inkscape:connector-curvature="0"
   style="fill:#eeb079;fill-rule:evenodd" /><path
   clip-rule="evenodd"
   d="m 51.75,32.03 c 0,0 0.022,0.092 0.022,0.089 -0.163,0.043 -0.326,0.089 -0.489,0.135 -0.104,-0.029 -0.208,-0.057 -0.313,-0.084 -0.645,-0.416 -0.961,-1.154 -1.58,-1.595 -1.124,-0.837 -2.671,-1.217 -3.07,-2.834 -0.551,-1.069 -2.267,-0.486 -2.615,-1.844 3.629,0.8 6.536,2.549 8.045,6.133 z"
   id="path235"
   inkscape:connector-curvature="0"
   style="fill:#ded7ca;fill-rule:evenodd" /><path
   clip-rule="evenodd"
   d="m 38.378,25.361 c 0.153,-0.039 0.31,-0.056 0.468,-0.052 1.205,0.966 2.67,0.206 3.962,0.596 -1.227,1.042 -3.12,0.81 -4.43,-0.544 z"
   id="path237"
   inkscape:connector-curvature="0"
   style="fill:#f5cca2;fill-rule:evenodd" /><path
   clip-rule="evenodd"
   d="m 64.274,90.278 c -0.369,-0.015 -0.737,-0.029 -1.106,-0.044 0.565,-1.346 -0.547,-2.74 0.116,-4.084 0.144,-1.475 -0.647,-2.949 -0.007,-4.426 0.61,-0.59 -0.497,-1.873 0.648,-2.073 1.056,-0.185 0.639,1.354 1.428,1.706 0.589,0.262 -0.193,1.447 0.907,1.411 1.548,-0.499 2.588,1.052 2.33,1.63 -0.736,1.646 1.278,0.566 1.092,1.375 -0.091,0.822 -0.914,1.123 -1.255,1.768 -0.472,0.897 -1.179,1.418 -2.202,1.037 -1.081,-0.402 -0.984,-1.357 -0.95,-2.197 -0.299,1.246 0.09,2.772 -1.001,3.897 z"
   id="path239"
   inkscape:connector-curvature="0"
   style="fill:#f8955a;fill-rule:evenodd" /><path
   clip-rule="evenodd"
   d="m 64.274,90.278 c 0.253,-1.95 0.506,-3.899 0.786,-6.056 1.18,0.931 0.593,1.895 0.693,2.723 0.073,0.602 0.085,1.176 0.863,1.262 0.541,0.059 1.01,-0.051 1.143,-0.662 0.229,-1.051 1.146,-1.33 1.923,-1.771 0.198,0.162 0.396,0.324 0.594,0.486 -0.141,1.023 -1.251,1.908 -0.44,3.07 -0.811,0.696 -1.622,1.393 -2.434,2.09 L 67.264,91.267 C 66.708,90.246 66.007,89.68 64.865,90.5 64.623,90.528 64.424,90.445 64.261,90.266 l 0.013,0.012 z"
   id="path241"
   inkscape:connector-curvature="0"
   style="fill:#f7b88b;fill-rule:evenodd" /><path
   clip-rule="evenodd"
   d="m 69.836,89.33 c -1.197,-0.398 -2.534,-0.74 -0.598,-2.066 0.392,-0.268 0.694,-0.666 1.038,-1.004 0.153,0.017 0.306,0.037 0.458,0.061 0.9,0.813 0.003,1.635 0.012,2.451 -0.304,0.185 -0.607,0.372 -0.91,0.558 z"
   id="path243"
   inkscape:connector-curvature="0"
   style="fill:#f69353;fill-rule:evenodd" /><path
   clip-rule="evenodd"
   d="m 81.279,81.306 c 0.189,-0.751 -0.697,-1.008 -0.792,-1.729 1.245,-0.337 1.86,0.62 2.636,1.207 0.397,0.536 -0.325,0.343 -0.38,0.585 -0.487,-0.019 -0.975,-0.042 -1.464,-0.063 z"
   id="path245"
   inkscape:connector-curvature="0"
   style="fill:#ee8448;fill-rule:evenodd" /><path
   clip-rule="evenodd"
   d="m 78.299,48.841 c -1.642,-0.719 -1.559,-2.372 -2.022,-3.73 1.011,1.059 1.778,2.253 2.022,3.73 z"
   id="path247"
   inkscape:connector-curvature="0"
   style="fill:#cdb79c;fill-rule:evenodd" /><path
   clip-rule="evenodd"
   d="m 75.765,53.271 c -0.009,0.967 -0.659,1.676 -1.006,2.508 -1.493,-0.832 -0.8,1.777 -2.212,1.225 -0.084,-0.841 -0.179,-1.791 -0.273,-2.742 0.496,-0.664 -0.871,-1.328 -0.001,-1.992 l -0.007,0.006 c 1.347,-0.307 2.447,0.261 3.499,0.995 l 0,0 z"
   id="path249"
   inkscape:connector-curvature="0"
   style="fill:#fa924f;fill-rule:evenodd" /><path
   clip-rule="evenodd"
   d="m 72.272,52.27 c -0.214,0.664 0.928,1.328 10e-4,1.992 -0.41,-0.657 -0.848,-1.249 -1.718,-0.713 -0.131,0.438 0.113,0.611 0.392,0.813 0.541,0.394 1.2,0.925 0.555,1.574 -0.582,0.585 -0.993,-0.227 -1.377,-0.568 -0.527,-0.471 -1.387,-0.665 -1.418,-1.583 0.94,-1.089 2.079,-1.711 3.565,-1.515 z"
   id="path251"
   inkscape:connector-curvature="0"
   style="fill:#f8ac72;fill-rule:evenodd" /><path
   clip-rule="evenodd"
   d="m 64.999,61.49 c 0.942,-0.88 0.358,-1.995 0.317,-3.246 1.93,2.067 1.93,2.067 -0.317,3.246 z"
   id="path253"
   inkscape:connector-curvature="0"
   style="fill:#fba062;fill-rule:evenodd" /><path
   clip-rule="evenodd"
   d="m 68.758,52.779 c -0.168,0.325 -0.337,0.65 -0.505,0.976 -1.222,-0.087 -2.099,1.576 -3.479,0.685 1.165,-0.941 2.508,-1.461 3.984,-1.661 z"
   id="path255"
   inkscape:connector-curvature="0"
   style="fill:#f8ac72;fill-rule:evenodd" /><path
   clip-rule="evenodd"
   d="m 53.697,68.774 c -0.573,-0.518 -0.561,-1.021 0.037,-1.51 1.092,-0.649 3.219,-0.272 2.52,-2.733 -0.1,-0.348 1.152,-0.256 1.783,-0.182 0.627,0.074 0.845,0.603 0.703,1.102 -0.384,1.344 -1.256,-0.818 -1.788,0.447 -0.131,0.729 1.125,0.962 1.134,1.886 -0.49,0.954 -1.834,0.004 -2.324,0.981 h -10e-4 c -0.685,0.574 -1.373,0.444 -2.064,0.009 z"
   id="path257"
   inkscape:connector-curvature="0"
   style="fill:#fbaa6a;fill-rule:evenodd" /><path
   clip-rule="evenodd"
   d="m 60.331,42.685 c 0.489,0.192 1.118,-0.003 1.479,0.539 0.437,2.024 0.168,4.038 -0.094,6.051 -0.676,-0.327 -1.354,-0.653 -2.029,-0.98 -1.033,0.449 -1.986,0.164 -1.883,-0.958 0.091,-0.986 -0.249,-2.8 2.328,-2.282 -0.153,-0.056 -0.424,-0.553 -0.396,-0.221 -1.365,-0.061 -1.874,-0.732 -1.469,-2.056 0.688,-0.031 1.377,-0.062 2.064,-0.093 z"
   id="path259"
   inkscape:connector-curvature="0"
   style="fill:#f88a3f;fill-rule:evenodd" /><path
   clip-rule="evenodd"
   d="m 58.268,42.777 c -0.008,1.129 0.988,1.579 2.029,2.606 -2.341,-0.655 -1.807,1.042 -2.048,1.812 -0.298,0.953 0.777,0.94 1.439,1.099 -0.714,1.566 -1.914,0.567 -2.927,0.558 0.635,-0.693 0.506,-1.582 0.616,-2.409 0.687,-1.148 0.163,-2.47 0.526,-3.664 0.122,-0.013 0.243,-0.014 0.365,-0.002 z"
   id="path261"
   inkscape:connector-curvature="0"
   style="fill:#f5a965;fill-rule:evenodd" /><path
   clip-rule="evenodd"
   d="m 50.764,51.282 c -0.007,-0.191 -0.014,-0.383 -0.021,-0.574 1.723,-0.022 3.408,-0.242 5.006,-0.934 0.102,1.051 -0.206,1.29 -1.442,1.116 -1.145,0.46 -2.35,0.371 -3.543,0.392 z"
   id="path263"
   inkscape:connector-curvature="0"
   style="fill:#e1ad7c;fill-rule:evenodd" /><path
   clip-rule="evenodd"
   d="m 47.063,46.189 c 0.857,0.603 -0.066,1.375 0.193,2.035 -0.325,0.186 -0.651,0.371 -0.977,0.557 -1.376,-0.644 -0.913,-1.312 -0.026,-1.987 -0.129,-0.736 0.281,-0.751 0.81,-0.605 z"
   id="path265"
   inkscape:connector-curvature="0"
   style="fill:#f5a667;fill-rule:evenodd" /><path
   clip-rule="evenodd"
   d="m 49.284,50.106 c 0.128,-1.434 0.624,-1.909 1.798,-1.591 -0.099,0.917 -0.793,1.155 -1.798,1.591 z"
   id="path267"
   inkscape:connector-curvature="0"
   style="fill:#eabe74;fill-rule:evenodd" /><path
   clip-rule="evenodd"
   d="m 45.94,50.845 c 0.74,-1.329 1.341,-1.655 2.336,-1.769 -0.172,1.299 -0.918,1.52 -2.336,1.769 z"
   id="path269"
   inkscape:connector-curvature="0"
   style="fill:#d09460;fill-rule:evenodd" /><path
   clip-rule="evenodd"
   d="m 40.884,57.639 c -1.029,0.037 -2.054,0.039 -3.021,-0.398 -0.598,-0.713 -1.23,-1.41 -1.047,-2.457 0.821,-1.531 2.186,-1.039 3.449,-0.925 0.692,-0.14 1.364,-0.206 1.833,0.491 0.432,0.899 0.848,1.801 0.485,2.838 -0.566,0.152 -1.133,0.301 -1.699,0.451 z"
   id="path271"
   inkscape:connector-curvature="0"
   style="fill:#2b140b;fill-rule:evenodd" /><path
   clip-rule="evenodd"
   d="m 39.66,51.248 c -0.428,-1.422 -0.414,-2.702 1.132,-3.483 1.617,-0.825 2.138,0.34 2.674,1.475 0.022,0.377 0.255,0.551 0.597,0.619 0.446,1.739 -1.136,1.245 -1.862,1.692 -0.323,0.262 -0.659,0.495 -1.101,0.508 -0.6,-0.056 -1.397,0.231 -1.44,-0.811 z"
   id="path273"
   inkscape:connector-curvature="0"
   style="fill:#27130b;fill-rule:evenodd" /><path
   clip-rule="evenodd"
   d="m 41.443,51.721 c 0.253,-0.057 0.506,-0.114 0.758,-0.17 0.377,1.696 2.629,0.171 3.058,1.781 0.147,0.208 0.096,0.335 -0.156,0.379 -0.939,0.504 -1.938,0.727 -3.004,0.639 -0.645,-0.041 -1.293,-0.064 -1.833,-0.491 -0.178,-0.202 -0.356,-0.403 -0.535,-0.604 0.01,-1.138 1.033,-1.145 1.712,-1.534 z"
   id="path275"
   inkscape:connector-curvature="0"
   style="fill:#f88234;fill-rule:evenodd" /><path
   clip-rule="evenodd"
   d="m 45.103,53.711 c 0.064,-0.122 0.116,-0.249 0.157,-0.38 0.484,0.042 1.068,-0.072 1.437,0.159 0.81,0.508 2.423,-0.13 2.398,1.571 -0.011,0.828 -0.642,0.9 -1.244,0.729 -1.17,-0.335 -3.144,0.339 -2.748,-2.079 z"
   id="path277"
   inkscape:connector-curvature="0"
   style="fill:#2e1509;fill-rule:evenodd" /><path
   clip-rule="evenodd"
   d="m 44.311,58.299 c -0.05,-0.341 -0.1,-0.682 -0.148,-1.023 0.971,-1.237 2.115,-0.654 3.221,-0.286 0.747,0.249 1.472,0.565 2.206,0.851 -0.463,0.262 -0.925,0.524 -1.388,0.787 -1.314,0.08 -2.559,-0.647 -3.891,-0.329 z"
   id="path279"
   inkscape:connector-curvature="0"
   style="fill:#2a1c0e;fill-rule:evenodd" /><path
   clip-rule="evenodd"
   d="m 48.796,61.184 c 0.59,0.574 0.916,1.271 0.974,2.092 -0.876,0.516 -1.274,1.009 -0.506,2.068 0.789,1.088 -0.327,0.795 -0.853,0.861 -0.073,-0.305 -0.147,-0.607 -0.222,-0.912 0.202,-1.369 0.405,-2.739 0.607,-4.109 z"
   id="path281"
   inkscape:connector-curvature="0"
   style="fill:#f68031;fill-rule:evenodd" /><path
   clip-rule="evenodd"
   d="m 50.781,62.773 c 0.029,-0.551 -0.119,-1.15 0.438,-1.553 1.102,-0.154 1.372,0.474 1.134,1.355 -0.326,1.206 -1.075,-0.134 -1.572,0.198 z"
   id="path283"
   inkscape:connector-curvature="0"
   style="fill:#fa7534;fill-rule:evenodd" /><path
   clip-rule="evenodd"
   d="m 53.697,68.774 c 0.688,-0.003 1.376,-0.006 2.063,-0.009 -0.199,0.826 -0.263,1.795 -1.553,1.469 -0.17,-0.486 -0.34,-0.972 -0.51,-1.46 z"
   id="path285"
   inkscape:connector-curvature="0"
   style="fill:#f88c3e;fill-rule:evenodd" /><path
   clip-rule="evenodd"
   d="m 38.689,44.836 c -0.086,1.694 -2.615,4.661 -4.149,4.918 -0.694,0.117 -1.193,-0.198 -1.429,-0.733 -0.519,-1.184 -1.039,-2.441 -0.404,-3.725 0.43,-0.866 1.052,-1.636 1.588,-2.45 0.784,-0.833 1.605,-0.549 2.436,-0.089 0.693,0.654 1.715,1.001 1.958,2.079 z"
   id="path287"
   inkscape:connector-curvature="0"
   style="fill:#261007;fill-rule:evenodd" /><path
   clip-rule="evenodd"
   d="m 41.236,42.718 c -0.577,-0.106 -1.172,-0.279 -1.525,0.421 -0.926,0.458 -1.747,-0.146 -2.619,-0.256 -0.866,-0.687 -1.392,-1.617 -1.857,-2.594 -0.339,-1.688 0.68,-1.994 2.016,-1.981 0.652,0.103 1.256,0.362 1.869,0.59 1.459,0.692 2.99,0.775 4.566,0.584 1.096,-0.133 1.994,0.069 2.042,1.449 -1.074,2.259 -1.819,2.555 -4.492,1.787 z"
   id="path289"
   inkscape:connector-curvature="0"
   style="fill:#261109;fill-rule:evenodd" /><path
   clip-rule="evenodd"
   d="m 25.729,37.795 c 0.053,-0.721 -0.002,-1.513 1.049,-1.565 1.154,-1.029 2.463,-0.458 3.726,-0.364 1.282,0.992 2.625,2.147 1.651,3.882 -0.805,1.433 -2.199,2.304 -3.977,1.2 -2.14,-0.023 -2.61,-1.344 -2.449,-3.153 z"
   id="path291"
   inkscape:connector-curvature="0"
   style="fill:#270f06;fill-rule:evenodd" /><path
   clip-rule="evenodd"
   d="m 41.236,42.718 c 1.593,-0.38 3.625,0.115 4.277,-2.144 0.385,-0.836 1.654,-1.066 1.537,-2.248 0.119,-0.328 0.318,-0.596 0.579,-0.823 0.524,-0.375 1.038,-0.498 1.522,0.063 0.483,0.737 1.055,1.412 1.563,2.133 0.03,0.174 0.061,0.348 0.091,0.522 -0.704,-0.04 -1.407,-0.08 -2.134,-0.121 -0.051,1.159 1.191,0.344 1.393,1.283 -1.139,0.227 -1.555,1.565 -2.76,1.893 -0.426,0.207 -0.613,-0.051 -0.76,-0.387 -0.381,0.077 0.644,-0.869 -0.269,-0.374 -0.269,0.146 -0.476,0.418 -0.727,0.619 -0.84,0.546 -1.501,1.534 -2.732,1.114 -0.526,-0.51 -1.053,-1.02 -1.58,-1.53 z"
   id="path293"
   inkscape:connector-curvature="0"
   style="fill:#f4b883;fill-rule:evenodd" /><path
   clip-rule="evenodd"
   d="m 46.706,42.632 c 0.199,0.214 0.399,0.429 0.599,0.644 0.35,1.006 0.445,1.992 -0.241,2.913 -0.271,0.202 -0.54,0.403 -0.81,0.605 -1.98,0.277 -3.167,-0.516 -3.438,-2.546 0.839,-0.525 1.678,-1.051 2.516,-1.576 0.453,-0.169 0.91,-0.243 1.374,-0.04 z"
   id="path295"
   inkscape:connector-curvature="0"
   style="fill:#200b05;fill-rule:evenodd" /><path
   clip-rule="evenodd"
   d="m 28.178,40.948 c 1.565,0.405 2.78,-0.154 3.551,-1.498 0.785,-1.367 -0.9,-2.023 -1.064,-3.142 0.094,-0.375 0.329,-0.628 0.677,-0.785 0.359,-0.094 0.698,-0.057 1.006,0.163 -0.053,1.685 1.686,2.232 2.249,3.529 0.035,0.229 0.027,0.456 -0.027,0.682 -0.207,0.502 -1.641,0.86 -0.156,1.581 0.236,0.115 0.078,0.585 -0.134,0.852 -1.996,-0.634 -4.251,-0.119 -6.102,-1.382 z"
   id="path297"
   inkscape:connector-curvature="0"
   style="fill:#f4b784;fill-rule:evenodd" /><path
   clip-rule="evenodd"
   d="m 34.278,42.329 c 0.022,-1.501 -1.462,-1.225 -2.237,-1.851 0.546,-1.089 1.792,0.449 2.282,-0.64 0.627,-0.345 0.894,0.365 1.368,0.466 0.809,0.632 1.29,1.489 1.657,2.424 -0.076,0.352 -0.296,0.567 -0.636,0.668 -0.686,-0.713 -1.569,-0.554 -2.418,-0.549 -0.005,-0.173 -0.011,-0.346 -0.016,-0.518 z"
   id="path299"
   inkscape:connector-curvature="0"
   style="fill:#f78945;fill-rule:evenodd" /><path
   clip-rule="evenodd"
   d="m 23.214,43.726 c -1.351,-1.067 -2.653,-0.231 -3.968,0.103 -0.324,0.264 -0.647,0.239 -0.97,-0.005 0.18,-0.199 0.358,-0.398 0.537,-0.597 1.823,0.065 1.329,-1.689 1.991,-2.537 0.671,0.057 0.192,1.75 1.648,1.023 0.474,-0.236 0.804,1.183 0.762,2.013 z"
   id="path301"
   inkscape:connector-curvature="0"
   style="fill:#f8c493;fill-rule:evenodd" /><path
   clip-rule="evenodd"
   d="m 36.713,43.396 c 0.212,-0.223 0.424,-0.445 0.636,-0.668 0.888,-0.437 1.639,-0.091 2.362,0.412 -0.188,0.658 -0.393,1.305 -1.021,1.697 -0.659,-0.481 -1.318,-0.961 -1.977,-1.441 z"
   id="path303"
   inkscape:connector-curvature="0"
   style="fill:#f39956;fill-rule:evenodd" /><path
   clip-rule="evenodd"
   d="m 41.443,51.721 c -0.57,0.511 -1.141,1.022 -1.712,1.533 -1.001,-0.634 -1.735,-1.278 -0.071,-2.005 0.413,0.84 1.252,0.077 1.783,0.472 z"
   id="path305"
   inkscape:connector-curvature="0"
   style="fill:#fab37a;fill-rule:evenodd" /><path
   clip-rule="evenodd"
   d="m 43.466,49.24 c -0.653,-0.922 -1.554,-1.399 -2.675,-1.475 1.518,-1.177 2.193,-0.804 2.675,1.475 z"
   id="path307"
   inkscape:connector-curvature="0"
   style="fill:#f7b272;fill-rule:evenodd" /><path
   clip-rule="evenodd"
   d="m 18.276,43.823 c 0.323,10e-4 0.646,0.002 0.97,0.004 0.404,0.963 2.524,1.335 1.018,2.956 -1.307,-0.554 -2.093,-1.457 -1.988,-2.96 z"
   id="path309"
   inkscape:connector-curvature="0"
   style="fill:#fa8947;fill-rule:evenodd" /><path
   clip-rule="evenodd"
   d="m 31.222,35.846 c -0.186,0.154 -0.371,0.308 -0.558,0.462 -1.296,-0.026 -2.591,-0.052 -3.887,-0.079 -1.363,-0.27 -2.486,-0.79 -2.523,-2.435 0.162,-0.014 0.322,-0.028 0.484,-0.043 0.742,0.394 1.246,0.17 1.54,-0.595 0.477,-0.303 0.954,-0.607 1.431,-0.91 1.283,-0.166 1.561,0.683 1.281,1.584 -0.168,0.541 -0.094,0.736 0.268,1.001 0.178,0.142 0.354,0.283 0.531,0.424 0.647,-0.213 1.119,-0.004 1.433,0.591 z"
   id="path311"
   inkscape:connector-curvature="0"
   style="fill:#f2c7a1;fill-rule:evenodd" /><path
   clip-rule="evenodd"
   d="m 29.258,34.831 c -0.6,-0.279 -1.186,0.664 -1.896,-0.058 0.091,-0.799 2.968,-1.409 0.348,-2.527 0.19,-0.323 0.381,-0.646 0.571,-0.968 0.334,0.029 0.669,0.058 1.003,0.088 0.292,1.157 0.849,2.317 -0.026,3.465 z"
   id="path313"
   inkscape:connector-curvature="0"
   style="fill:#f49a5f;fill-rule:evenodd" /><path
   clip-rule="evenodd"
   d="m 26.278,33.156 c 0.22,0.649 0.454,1.466 -0.285,1.766 -0.906,0.368 -0.866,-0.728 -1.255,-1.17 0.199,-0.17 0.398,-0.341 0.599,-0.511 0.325,0.098 0.589,-0.488 0.941,-0.085 z"
   id="path315"
   inkscape:connector-curvature="0"
   style="fill:#fab388;fill-rule:evenodd" /><path
   clip-rule="evenodd"
   d="m 39.795,29.847 c 2.841,-1.704 3.479,-1.636 4.893,0.521 0.758,0.879 0.305,1.424 -0.511,1.872 -0.714,0.255 -1.449,0.441 -2.188,0.607 -1.232,0.322 -2.428,0.449 -3.361,-0.692 -0.322,-0.374 -0.562,-0.784 -0.531,-1.302 0.322,-0.746 0.923,-1.025 1.698,-1.006 z"
   id="path317"
   inkscape:connector-curvature="0"
   style="fill:#29160b;fill-rule:evenodd" /><path
   clip-rule="evenodd"
   d="m 43.773,31.861 c 0.846,-0.166 0.998,-0.757 0.914,-1.493 0.067,-1.172 1.143,-1.718 1.631,-2.628 1.159,0.844 2.318,1.688 3.477,2.532 -0.773,0.542 -0.742,1.495 -1.136,2.234 -0.302,0.207 -0.638,0.33 -0.99,0.418 -0.801,0.08 -1.449,0.817 -2.287,0.617 -0.857,-0.205 -2.066,-0.176 -1.609,-1.68 z"
   id="path319"
   inkscape:connector-curvature="0"
   style="fill:#fbcfa6;fill-rule:evenodd" /><path
   clip-rule="evenodd"
   d="m 39.795,29.847 c -0.215,0.677 -0.962,0.563 -1.386,0.93 -0.655,0.387 -0.935,-0.031 -1.168,-0.546 0.047,-0.533 -0.028,-1.101 0.445,-1.507 0.19,1.337 1.722,0.155 2.109,1.123 z"
   id="path321"
   inkscape:connector-curvature="0"
   style="fill:#f8bf8f;fill-rule:evenodd" /><path
   clip-rule="evenodd"
   d="m 37.241,30.23 c 0.389,0.182 0.777,0.365 1.167,0.546 0.105,0.312 0.211,0.625 0.316,0.937 -0.065,1.051 0.539,2.156 -0.246,3.153 -0.721,0.67 -1.209,1.584 -2.127,2.053 -0.229,0.039 -0.438,-0.006 -0.624,-0.148 0.053,-1.465 -0.575,-3.04 1.228,-4.107 0.854,-0.506 -0.264,-1.495 -0.111,-2.287 0.13,-0.054 0.262,-0.104 0.397,-0.147 z"
   id="path323"
   inkscape:connector-curvature="0"
   style="fill:#f78e4b;fill-rule:evenodd" /><path
   clip-rule="evenodd"
   d="M 34.346,39.181 C 33.241,38.3 31.492,37.816 32.25,35.785 c 0.01,-0.818 0.388,-0.872 0.984,-0.475 1.344,-0.438 1.545,0.723 2.047,1.463 0.19,0.998 0.682,2.113 -0.935,2.408 z"
   id="path325"
   inkscape:connector-curvature="0"
   style="fill:#f68542;fill-rule:evenodd" /><path
   clip-rule="evenodd"
   d="m 33.234,35.31 c -0.423,-0.039 -0.768,0.085 -0.984,0.475 -0.342,0.02 -0.686,0.04 -1.028,0.061 -0.478,-0.196 -0.956,-0.393 -1.433,-0.59 0.489,-2.065 1.81,-2.183 3.479,-1.486 -0.012,0.513 -0.023,1.027 -0.034,1.54 z"
   id="path327"
   inkscape:connector-curvature="0"
   style="fill:#f9a268;fill-rule:evenodd" /><path
   clip-rule="evenodd"
   d="m 34.346,39.181 c 0.993,-0.538 0.435,-1.679 0.936,-2.408 0.149,-0.003 0.298,-0.003 0.447,-0.001 0.229,-0.013 0.459,-0.026 0.689,-0.039 0.36,0.017 0.516,0.256 0.613,0.56 0.102,0.482 0.457,0.908 0.328,1.443 -1.205,-0.169 -2.025,0.072 -1.668,1.567 -0.693,0.537 -0.935,-0.247 -1.368,-0.466 0.008,-0.218 0.015,-0.437 0.023,-0.656 z"
   id="path329"
   inkscape:connector-curvature="0"
   style="fill:#eb9f68;fill-rule:evenodd" /><path
   clip-rule="evenodd"
   d="m 71.577,46.484 c 0.705,0.42 1.278,0.004 1.865,-0.269 0.547,-0.254 1.049,-0.185 1.128,0.439 0.092,0.719 -0.403,1.022 -1.1,0.924 -0.481,-0.067 -0.961,-0.274 -1.433,-0.249 -0.609,0.033 -0.782,0.54 -0.726,1.081 0.06,0.581 0.43,0.988 0.988,0.731 0.699,-0.322 1.595,-1.279 1.609,0.324 0.014,1.382 -1.494,0.499 -2.258,0.907 -0.729,0.39 -2.211,-2.372 -1.914,-3.316 0.384,-1.214 1.282,-0.241 1.841,-0.572 z"
   id="path331"
   inkscape:connector-curvature="0"
   style="fill:#fbaa6f;fill-rule:evenodd" /><path
   clip-rule="evenodd"
   d="m 75.765,53.271 c -1.321,0.212 -2.399,-0.427 -3.499,-0.995 0.104,-0.793 0.26,-1.331 1.361,-1.162 1.351,0.207 2.03,0.835 2.138,2.157 z"
   id="path333"
   inkscape:connector-curvature="0"
   style="fill:#fcb17e;fill-rule:evenodd" /><path
   clip-rule="evenodd"
   d="m 68.949,45.028 c 1.455,-0.624 1.455,-0.624 3.064,0.691 -1.34,-0.302 -2.202,-0.497 -3.064,-0.691 z"
   id="path335"
   inkscape:connector-curvature="0"
   style="fill:#fbc296;fill-rule:evenodd" /><path
   clip-rule="evenodd"
   d="m 14.202,47.349 c -0.612,-0.198 -1.705,-0.006 -1.287,-1.162 0.316,-0.873 1.024,-1.223 1.858,-0.422 -1.33,0.116 -0.28,1.092 -0.571,1.584 z"
   id="path337"
   inkscape:connector-curvature="0"
   style="fill:#f7af7d;fill-rule:evenodd" /><path
   clip-rule="evenodd"
   d="m 81.502,78.08 c -1.396,0.291 -1.709,-0.511 -1.973,-1.7 1.021,0.281 1.543,0.833 1.973,1.7 z"
   id="path339"
   inkscape:connector-curvature="0"
   style="fill:#f78440;fill-rule:evenodd" /><path
   clip-rule="evenodd"
   d="m 64.262,90.266 c 0.17,0.012 0.339,0.022 0.508,0.033 0.174,0.107 0.232,0.215 0.176,0.324 -0.057,0.108 -0.114,0.163 -0.173,0.163 -0.277,1.023 0.791,1.54 1.227,2.933 -1.144,-0.82 -2.165,0.328 -2.858,-0.816 -0.826,-1.36 1.537,-1.417 1.12,-2.637 z"
   id="path341"
   inkscape:connector-curvature="0"
   style="fill:#f7965c;fill-rule:evenodd" /><path
   clip-rule="evenodd"
   d="m 64.772,90.786 c -0.003,-0.163 -0.004,-0.325 -0.003,-0.487 1.452,-1.278 2.504,-1.523 2.495,0.968 -1.049,0.973 -1.619,-0.535 -2.492,-0.481 z"
   id="path343"
   inkscape:connector-curvature="0"
   style="fill:#fa965b;fill-rule:evenodd" /><path
   clip-rule="evenodd"
   d="m 54.229,42.707 c 0.057,0.18 0.113,0.359 0.17,0.539 0.756,0.543 0.54,1.043 -0.066,1.526 -0.626,0.64 -1.298,1.58 -2.235,0.771 -0.657,-0.567 -0.978,-1.643 -0.475,-2.477 0.627,-1.043 1.648,-0.852 2.606,-0.359 z"
   id="path345"
   inkscape:connector-curvature="0"
   style="fill:#2c1810;fill-rule:evenodd" /><path
   clip-rule="evenodd"
   d="m 54.333,44.772 c 0.022,-0.509 0.044,-1.019 0.066,-1.527 0.54,-1.114 1.445,-0.68 2.281,-0.537 0.009,0.524 0.017,1.048 0.024,1.572 -0.79,0.164 -1.581,0.328 -2.371,0.492 z"
   id="path347"
   inkscape:connector-curvature="0"
   style="fill:#e78d4f;fill-rule:evenodd" /><path
   clip-rule="evenodd"
   d="m 43.773,31.861 c 1.092,2.573 2.764,0.15 4.116,0.479 0.16,1.411 0.874,2.337 2.31,2.634 0.311,0.183 0.52,0.439 0.577,0.803 -0.008,0.273 -0.016,0.546 -0.022,0.819 -0.362,0.85 -1.046,1.216 -1.929,1.283 -0.322,-0.622 -0.725,-0.154 -1.099,-0.081 -0.799,0.726 -1.128,-0.65 -1.823,-0.405 -1.024,-0.975 -1.84,-2.193 -3.233,-2.73 -0.278,-0.216 -0.523,-0.464 -0.744,-0.739 -0.315,-0.508 -0.692,-1.013 -0.135,-1.594 0.661,-0.157 1.321,-0.313 1.982,-0.469 z"
   id="path349"
   inkscape:connector-curvature="0"
   style="fill:#f1a773;fill-rule:evenodd" /><path
   clip-rule="evenodd"
   d="m 48.825,37.879 c 0.5,-0.644 0.835,-1.533 1.929,-1.283 0.187,0.056 0.373,0.112 0.561,0.168 0.986,1.221 1.103,2.263 -0.6,2.935 -1.207,-0.007 -1.522,-0.941 -1.89,-1.82 z"
   id="path351"
   inkscape:connector-curvature="0"
   style="fill:#2a1910;fill-rule:evenodd" /><path
   clip-rule="evenodd"
   d="m 50.776,35.776 c -0.184,-0.189 -0.368,-0.377 -0.552,-0.566 -0.25,-0.897 -0.314,-1.805 -0.144,-2.726 0.328,-0.473 0.718,-0.609 1.202,-0.22 v -0.01 c -0.083,1.186 1.426,2.602 -0.506,3.522 z"
   id="path353"
   inkscape:connector-curvature="0"
   style="fill:#f9c399;fill-rule:evenodd" /><path
   clip-rule="evenodd"
   d="m 51.283,32.264 c -0.422,0.018 -0.811,0.098 -0.998,0.546 -0.69,0.278 -1.183,10e-4 -1.573,-0.561 -1.072,-1.444 -0.655,-2.072 1.083,-1.977 0.726,0.491 1.191,1.179 1.488,1.992 z"
   id="path355"
   inkscape:connector-curvature="0"
   style="fill:#f6a469;fill-rule:evenodd" /><path
   clip-rule="evenodd"
   d="m 47.242,38.312 c 1.254,2.153 -0.848,1.745 -1.729,2.265 -0.444,-1.02 -1.209,-0.457 -1.894,-0.41 -1.79,0.122 -3.609,0.351 -5.18,-0.867 1.095,-1.089 2.764,-0.438 3.93,-1.305 0.681,-0.247 1.371,-0.46 2.104,-0.469 0.902,0.332 1.84,0.54 2.769,0.786 z"
   id="path357"
   inkscape:connector-curvature="0"
   style="fill:#f69a53;fill-rule:evenodd" /><path
   clip-rule="evenodd"
   d="m 42.799,38.401 c -1.292,1.07 -2.813,1.041 -4.357,0.899 -0.362,-0.188 -0.724,-0.376 -1.083,-0.564 -0.097,-0.5 -1.721,-0.602 -0.384,-1.477 1.956,0.304 4.012,0.099 5.824,1.142 z"
   id="path359"
   inkscape:connector-curvature="0"
   style="fill:#d7cabe;fill-rule:evenodd" /><path
   clip-rule="evenodd"
   d="m 46.706,42.632 c -0.459,0.014 -0.917,0.027 -1.374,0.04 0.303,-0.263 0.652,-0.487 0.896,-0.796 0.418,-0.53 1.092,-1.232 1.523,-0.655 0.722,0.967 -0.767,0.856 -1.045,1.411 z"
   id="path361"
   inkscape:connector-curvature="0"
   style="fill:#f08537;fill-rule:evenodd" /><path
   clip-rule="evenodd"
   d="m 47.242,38.312 c -0.937,0.53 -1.809,0.573 -2.553,-0.341 0.244,-0.86 1.053,-0.42 1.558,-0.676 0.714,-0.479 0.846,0.752 1.479,0.504 -0.161,0.171 -0.322,0.342 -0.484,0.513 z"
   id="path363"
   inkscape:connector-curvature="0"
   style="fill:#fcd7ac;fill-rule:evenodd" /><path
   clip-rule="evenodd"
   d="m 41.791,32.33 c 0.148,0.452 0.297,0.904 0.444,1.355 -0.853,1.052 -2.08,1.208 -3.302,1.382 -0.25,-0.044 -0.46,-0.162 -0.624,-0.358 0.742,-0.914 -1.315,-2.217 0.416,-2.994 0.849,1.064 1.932,0.968 3.066,0.615 z"
   id="path365"
   inkscape:connector-curvature="0"
   style="fill:#f9bd90;fill-rule:evenodd" /><path
   clip-rule="evenodd"
   d="m 48.712,32.249 c 0.524,0.187 1.049,0.374 1.573,0.561 0.701,0.819 0.472,1.613 -0.061,2.401 -2.679,-0.007 -3.166,-0.606 -2.336,-2.87 0.275,-0.031 0.55,-0.062 0.824,-0.092 z"
   id="path367"
   inkscape:connector-curvature="0"
   style="fill:#2c1f11;fill-rule:evenodd" /><path
   clip-rule="evenodd"
   d="m 38.31,34.708 c 0.158,0.043 0.315,0.087 0.474,0.13 0.869,0.37 0.999,1.417 1.749,1.892 0.395,0.358 0.87,0.476 1.393,0.457 0.553,-0.178 1.784,0.191 0.875,-1.124 -0.284,-0.376 -0.448,-0.787 -0.377,-1.268 0.063,-0.229 0.188,-0.418 0.373,-0.567 1.982,0.085 2.381,1.954 3.451,3.065 -0.158,1.055 -1.196,0.08 -1.556,0.675 -0.633,0.145 -1.263,0.289 -1.893,0.433 -2.018,0.003 -4.088,0.273 -5.826,-1.143 -0.184,-0.175 -0.37,-0.35 -0.555,-0.525 0.576,-0.725 0.67,-1.901 1.892,-2.025 z"
   id="path369"
   inkscape:connector-curvature="0"
   style="fill:#35251c;fill-rule:evenodd" /><path
   clip-rule="evenodd"
   d="m 42.796,34.229 c -0.026,0.225 -0.052,0.45 -0.077,0.675 -0.612,0.372 -1.174,0.711 -1.146,1.616 0.023,0.746 -0.412,1.191 -1.253,0.823 -0.802,-0.657 -1.417,-1.428 -1.537,-2.504 1.082,-0.589 2.207,-1.055 3.453,-1.154 0.186,0.182 0.373,0.363 0.56,0.544 z"
   id="path371"
   inkscape:connector-curvature="0"
   style="fill:#281514;fill-rule:evenodd" /><path
   clip-rule="evenodd"
   d="m 40.32,37.343 c 0.469,-0.156 1.114,-0.412 0.813,-0.945 -1.595,-2.818 0.83,-1.252 1.585,-1.495 0.205,0.307 0.41,0.613 0.615,0.919 0.158,1.083 -0.839,1.29 -1.393,1.833 -0.586,0.146 -1.166,0.24 -1.62,-0.312 z"
   id="path373"
   inkscape:connector-curvature="0"
   style="fill:#514533;fill-rule:evenodd" /><path
   clip-rule="evenodd"
   d="m 41.941,37.655 c -0.029,-0.986 1.192,-1.021 1.393,-1.833 0.546,0.135 1.19,0.267 0.871,1.035 -0.434,1.045 -1.434,0.735 -2.264,0.798 z"
   id="path375"
   inkscape:connector-curvature="0"
   style="fill:#e6e0d1;fill-rule:evenodd" />
</svg>