<?xml version="1.0" encoding="UTF-8" standalone="no"?>
<!-- Created with Inkscape (http://www.inkscape.org/) -->

<svg
   xmlns:dc="http://purl.org/dc/elements/1.1/"
   xmlns:cc="http://creativecommons.org/ns#"
   xmlns:rdf="http://www.w3.org/1999/02/22-rdf-syntax-ns#"
   xmlns:svg="http://www.w3.org/2000/svg"
   xmlns="http://www.w3.org/2000/svg"
   version="1.1"
   width="103.13715"
   height="87.144531"
   id="svg2"
   xml:space="preserve"><metadata
     id="metadata8"><rdf:RDF><cc:Work
         rdf:about=""><dc:format>image/svg+xml</dc:format><dc:type
           rdf:resource="http://purl.org/dc/dcmitype/StillImage" /><dc:title></dc:title></cc:Work></rdf:RDF></metadata><defs
     id="defs6"><clipPath
       id="clipPath18"><path
         d="M 0,0 830,0 830,700 0,700 0,0 z"
         id="path20" /></clipPath></defs><g
     transform="matrix(1.25,0,0,-1.25,0,87.144531)"
     id="g10"><g
       transform="scale(0.1,0.1)"
       id="g12"><g
         id="g14"><g
           clip-path="url(#clipPath18)"
           id="g16"><path
             d="m 183.949,633.738 c 0,0 -23.008,-52.777 -3.48,-111.527 20.742,-13.242 32.23,-3.242 32.23,-3.242 0,0 21.012,62.73 8.242,117.5 -12.23,3.75 -36.992,-2.731 -36.992,-2.731"
             id="path22"
             style="fill:#cc6b74;fill-opacity:1;fill-rule:nonzero;stroke:none" /><path
             d="m 183.949,633.734 c 0,0 -23.008,-52.769 -3.48,-111.519 20.742,-13.242 32.23,-3.242 32.23,-3.242 0,0 21.012,62.73 8.242,117.5 -12.23,3.75 -36.992,-2.739 -36.992,-2.739 z"
             id="path24"
             style="fill:none;stroke:#000000;stroke-width:8;stroke-linecap:butt;stroke-linejoin:round;stroke-miterlimit:8;stroke-opacity:1;stroke-dasharray:none" /><path
             d="m 180.859,252.879 c 6.481,0.391 37.461,-19.609 2.5,-108.707 -20.898,48.777 -9.488,108.316 -2.5,108.707"
             id="path26"
             style="fill:#cc6b74;fill-opacity:1;fill-rule:nonzero;stroke:none" /><path
             d="m 180.859,252.875 c 6.481,0.391 37.461,-19.609 2.5,-108.711 -20.898,48.789 -9.488,108.32 -2.5,108.711 z"
             id="path28"
             style="fill:none;stroke:#000000;stroke-width:8;stroke-linecap:butt;stroke-linejoin:round;stroke-miterlimit:8;stroke-opacity:1;stroke-dasharray:none" /><path
             d="m 248.629,445.809 c 0,0 0,50.66 20,78.32 1.992,-38.68 4.652,-38.68 17.312,-38.68 12.688,0 27.688,20 27.688,36.02 0,16.019 -25.348,33.32 -36.008,33.32 -10.672,0 -50.43,-16.328 -53.402,-35.59 -3.008,42.539 -20.27,50.789 -24.77,50.789 -4.488,0 -42.379,-30.898 -36.75,-56.758 6.75,29.258 -9.769,58.239 -41.019,56.989 -31.2112,-1.25 -48.4808,-30 -48.4808,-36.481 0,-6.527 7.5,-18.289 22,-18.289 14.4918,0 33.7498,13.52 33.7498,24.262 8.512,-30.742 8,-42.5 2.731,-61.481 -5.231,-19.031 18.281,-33.011 18.281,-33.011"
             id="path30"
             style="fill:#f9e6b4;fill-opacity:1;fill-rule:nonzero;stroke:none" /><path
             d="m 248.629,445.805 c 0,0 0,50.668 20,78.32 2,-38.672 4.652,-38.672 17.312,-38.672 12.688,0 27.688,20 27.688,36.02 0,16.011 -25.348,33.32 -36.008,33.32 -10.672,0 -50.43,-16.328 -53.402,-35.59 -3.008,42.539 -20.27,50.781 -24.77,50.781 -4.488,0 -42.379,-30.902 -36.75,-56.761 6.75,29.261 -9.769,58.25 -41.019,57 -31.2112,-1.25 -48.4808,-30 -48.4808,-36.489 0,-6.519 7.5,-18.281 22,-18.281 14.4918,0 33.7498,13.52 33.7498,24.262 8.512,-30.742 8,-42.5 2.731,-61.492 -5.231,-19.02 18.281,-33 18.281,-33 l 98.668,0.582 z"
             id="path32"
             style="fill:none;stroke:#000000;stroke-width:8;stroke-linecap:round;stroke-linejoin:round;stroke-miterlimit:4;stroke-opacity:1;stroke-dasharray:none" /><path
             d="m 673.199,617.719 c -18.75,-11.25 -33.75,-66.758 -19.758,-99.258 14.02,-32.5 37.028,-4.262 37.028,-4.262 0,0 -13.278,14.262 -9.528,22.781 3.75,8.508 34.258,43.239 10.231,82.5 -10.703,5.469 -17.973,-1.761 -17.973,-1.761"
             id="path34"
             style="fill:#cc6b74;fill-opacity:1;fill-rule:nonzero;stroke:none" /><path
             d="m 673.199,617.723 c -18.75,-11.25 -33.75,-66.758 -19.758,-99.258 14.02,-32.5 37.028,-4.262 37.028,-4.262 0,0 -13.278,14.262 -9.528,22.77 3.75,8.519 34.258,43.25 10.231,82.5 -10.703,5.472 -17.973,-1.75 -17.973,-1.75 z"
             id="path36"
             style="fill:none;stroke:#000000;stroke-width:8;stroke-linecap:butt;stroke-linejoin:round;stroke-miterlimit:8;stroke-opacity:1;stroke-dasharray:none" /><path
             d="m 704.961,426.699 c 0,0 -6.762,47.27 18.238,81.531 9.262,-12.269 5.242,-12.5 22.5,-12.5 17.27,0 22.5,12.731 22.5,22.731 0,10 -18.75,27.269 -32.219,27.269 -13.519,0 -38.281,-7.5 -61.761,-62.269 24.222,34.258 15,60.277 5.511,62.269 -9.5,1.989 -36.761,-18.242 -39.769,-49.261 10,43.242 3.008,71.519 -38.75,71.519 -14.762,0 -40.27,-12.258 -40.27,-35.777 0,-23.473 16.25,-26.992 23.508,-26.992 7.27,0 26.25,7.5 18.25,27.769 13.242,-36.25 -16.25,-69.019 -16.25,-69.019 l 53.512,-33.008"
             id="path38"
             style="fill:#f9e6b4;fill-opacity:1;fill-rule:nonzero;stroke:none" /><path
             d="m 704.961,426.703 c 0,0 -6.762,47.27 18.238,81.52 9.262,-12.258 5.242,-12.5 22.5,-12.5 17.27,0 22.5,12.742 22.5,22.742 0,10 -18.75,27.258 -32.219,27.258 -13.519,0 -38.281,-7.5 -61.761,-62.258 24.222,34.258 15,60.269 5.511,62.258 -9.5,2 -36.761,-18.239 -39.769,-49.25 10,43.242 3.008,71.519 -38.75,71.519 -14.762,0 -40.27,-12.269 -40.27,-35.777 0,-23.481 16.25,-26.992 23.508,-26.992 7.27,0 26.25,7.5 18.25,27.769 13.242,-36.25 -16.25,-69.019 -16.25,-69.019 l 53.512,-33.008 65,-4.262 z"
             id="path40"
             style="fill:none;stroke:#000000;stroke-width:8;stroke-linecap:round;stroke-linejoin:round;stroke-miterlimit:4;stroke-opacity:1;stroke-dasharray:none" /><path
             d="m 224.801,268.969 c -6.641,-2.27 -30.231,-33.239 38.25,-101.84 2.648,53.641 -31.063,104.262 -38.25,101.84"
             id="path42"
             style="fill:#cc6b74;fill-opacity:1;fill-rule:nonzero;stroke:none" /><path
             d="m 224.801,268.973 c -6.641,-2.27 -30.231,-33.25 38.25,-101.84 2.648,53.633 -31.063,104.262 -38.25,101.84 z"
             id="path44"
             style="fill:none;stroke:#000000;stroke-width:8;stroke-linecap:butt;stroke-linejoin:round;stroke-miterlimit:8;stroke-opacity:1;stroke-dasharray:none" /><path
             d="M 125.859,338.109 C 124.801,331.699 97.2305,306.16 12.9688,361 68.0508,369.988 126.949,345.02 125.859,338.109"
             id="path46"
             style="fill:#cc6b74;fill-opacity:1;fill-rule:nonzero;stroke:none" /><path
             d="m 125.859,338.113 c -1.058,-6.41 -28.6285,-31.961 -112.8902,22.891 55.082,8.98 113.9802,-15.981 112.8902,-22.891 z"
             id="path48"
             style="fill:none;stroke:#000000;stroke-width:8;stroke-linecap:butt;stroke-linejoin:round;stroke-miterlimit:8;stroke-opacity:1;stroke-dasharray:none" /><path
             d="M 714.77,295.379 821.172,360.691 700.16,332.25 c 0,0 -6.449,-28.281 14.61,-36.871"
             id="path50"
             style="fill:#cc6b74;fill-opacity:1;fill-rule:nonzero;stroke:none" /><path
             d="m 714.77,295.375 106.402,65.309 -121.012,-28.43 c 0,0 -6.449,-28.281 14.61,-36.879 z"
             id="path52"
             style="fill:none;stroke:#000000;stroke-width:8;stroke-linecap:butt;stroke-linejoin:round;stroke-miterlimit:8;stroke-opacity:1;stroke-dasharray:none" /><path
             d="m 680.941,273.699 c 0,0 81.329,-38.949 118.278,-39.961 -18.481,23 -98.199,74.141 -98.199,74.141 0,0 -26.219,-12.309 -20.079,-34.18"
             id="path54"
             style="fill:#cc6b74;fill-opacity:1;fill-rule:nonzero;stroke:none" /><path
             d="m 680.941,273.695 c 0,0 81.329,-38.941 118.278,-39.961 -18.481,23.008 -98.199,74.141 -98.199,74.141 0,0 -26.219,-12.301 -20.079,-34.18 z"
             id="path56"
             style="fill:none;stroke:#000000;stroke-width:8;stroke-linecap:butt;stroke-linejoin:round;stroke-miterlimit:8;stroke-opacity:1;stroke-dasharray:none" /><path
             d="m 627.461,267.211 c 0,0 43.398,-79.02 72.809,-101.402 -1.559,29.492 -36.559,117.5 -36.559,117.5 0,0 -28.512,5.269 -36.25,-16.098"
             id="path58"
             style="fill:#cc6b74;fill-opacity:1;fill-rule:nonzero;stroke:none" /><path
             d="m 627.461,267.215 c 0,0 43.398,-79.031 72.809,-101.41 -1.559,29.488 -36.559,117.5 -36.559,117.5 0,0 -28.512,5.277 -36.25,-16.09 z"
             id="path60"
             style="fill:none;stroke:#000000;stroke-width:8;stroke-linecap:butt;stroke-linejoin:round;stroke-miterlimit:8;stroke-opacity:1;stroke-dasharray:none" /><path
             d="m 574.02,269.988 c 0,0 8.48,-89.648 23.91,-121.758 7.929,27.731 8.59,122.379 8.59,122.379 0,0 -20,16.02 -32.5,-0.621"
             id="path62"
             style="fill:#cc6b74;fill-opacity:1;fill-rule:nonzero;stroke:none" /><path
             d="m 574.02,269.984 c 0,0 8.48,-89.652 23.91,-121.761 7.929,27.742 8.59,122.39 8.59,122.39 0,0 -20,16.012 -32.5,-0.629 z"
             id="path64"
             style="fill:none;stroke:#000000;stroke-width:8;stroke-linecap:butt;stroke-linejoin:round;stroke-miterlimit:8;stroke-opacity:1;stroke-dasharray:none" /><path
             d="m 247.301,655.301 c 0,-20.903 -20.231,-37.813 -45.192,-37.813 -24.918,0 -45.16,16.91 -45.16,37.813 0,20.898 20.242,37.847 45.16,37.847 24.961,0 45.192,-16.949 45.192,-37.847"
             id="path66"
             style="fill:#fedf84;fill-opacity:1;fill-rule:nonzero;stroke:none" /><path
             d="m 247.301,655.293 c 0,-20.891 -20.231,-37.809 -45.192,-37.809 -24.918,0 -45.16,16.918 -45.16,37.809 0,20.902 20.242,37.859 45.16,37.859 24.961,0 45.192,-16.957 45.192,-37.859 z"
             id="path68"
             style="fill:none;stroke:#000000;stroke-width:8;stroke-linecap:butt;stroke-linejoin:miter;stroke-miterlimit:4;stroke-opacity:1;stroke-dasharray:none" /><path
             d="m 729.609,640.141 c 0,-20.969 -18.359,-38.012 -40.98,-38.012 -22.649,0 -41.008,17.043 -41.008,38.012 0,20.98 18.359,38.007 41.008,38.007 22.621,0 40.98,-17.027 40.98,-38.007"
             id="path70"
             style="fill:#fedf84;fill-opacity:1;fill-rule:nonzero;stroke:none" /><path
             d="m 729.609,640.145 c 0,-20.981 -18.359,-38.012 -40.98,-38.012 -22.649,0 -41.008,17.031 -41.008,38.012 0,20.968 18.359,38.007 41.008,38.007 22.621,0 40.98,-17.039 40.98,-38.007 z"
             id="path72"
             style="fill:none;stroke:#000000;stroke-width:8;stroke-linecap:butt;stroke-linejoin:miter;stroke-miterlimit:4;stroke-opacity:1;stroke-dasharray:none" /><path
             d="m 358.281,347.801 c 0,0 -75,46.328 -49.332,76.679 8.672,4.329 52.692,-41.679 61.321,-62.351"
             id="path74"
             style="fill:#cc6b74;fill-opacity:1;fill-rule:nonzero;stroke:none" /><path
             d="m 358.281,347.793 c 0,0 -75,46.332 -49.332,76.68 8.672,4.339 52.692,-41.68 61.321,-62.34"
             id="path76"
             style="fill:none;stroke:#000000;stroke-width:8;stroke-linecap:butt;stroke-linejoin:round;stroke-miterlimit:8;stroke-opacity:1;stroke-dasharray:none" /><path
             d="m 244.219,434.199 c 0,0 39.222,-9.719 61.722,1.762 22.539,11.527 50.508,34.769 54.758,44.027 6.02,-23.75 -4.488,-78.75 -114.25,-78.75 -4.5,18.242 -2.23,32.961 -2.23,32.961"
             id="path78"
             style="fill:#cc6b74;fill-opacity:1;fill-rule:nonzero;stroke:none" /><path
             d="m 244.219,434.203 c 0,0 39.222,-9.73 61.722,1.762 22.539,11.519 50.508,34.758 54.758,44.019 6.02,-23.75 -4.488,-78.75 -114.25,-78.75 -4.5,18.239 -2.23,32.969 -2.23,32.969 z"
             id="path80"
             style="fill:none;stroke:#000000;stroke-width:8;stroke-linecap:butt;stroke-linejoin:round;stroke-miterlimit:8;stroke-opacity:1;stroke-dasharray:none" /><path
             d="m 438.281,387.801 c 0,0 -14.332,56.09 -5,86.719 9.34,30.582 26.02,73.941 6.328,88.281 -25.98,-41.762 -58.668,-122.422 -37.339,-166.723"
             id="path82"
             style="fill:#cc6b74;fill-opacity:1;fill-rule:nonzero;stroke:none" /><path
             d="m 438.281,387.793 c 0,0 -14.332,56.102 -5,86.723 9.34,30.589 26.02,73.949 6.328,88.277 -25.98,-41.75 -58.668,-122.418 -37.339,-166.711"
             id="path84"
             style="fill:none;stroke:#000000;stroke-width:8;stroke-linecap:butt;stroke-linejoin:round;stroke-miterlimit:8;stroke-opacity:1;stroke-dasharray:none" /><path
             d="m 115.27,301.781 c 0,0 -98.6294,-5.312 -111.32078,-43.98 50.66018,-3.992 66.67188,40.66 126.67178,9.687"
             id="path86"
             style="fill:#cc6b74;fill-opacity:1;fill-rule:nonzero;stroke:none" /><path
             d="m 115.27,301.785 c 0,0 -98.6294,-5.312 -111.32078,-43.992 50.66018,-3.981 66.67968,40.672 126.67978,9.691"
             id="path88"
             style="fill:none;stroke:#000000;stroke-width:8;stroke-linecap:butt;stroke-linejoin:round;stroke-miterlimit:8;stroke-opacity:1;stroke-dasharray:none" /><path
             d="m 154.961,258.809 c 0,0 -74.0196,4.339 -99.0196,-101.36 57.0276,47.031 83.0076,92.031 130.6606,84.68 -5.981,20.16 -31.641,16.68 -31.641,16.68"
             id="path90"
             style="fill:#cc6b74;fill-opacity:1;fill-rule:nonzero;stroke:none" /><path
             d="m 154.961,258.812 c 0,0 -74.0196,4.34 -99.0196,-101.367 57.0276,47.028 83.0076,92.028 130.6606,84.688 -5.973,20.16 -31.641,16.679 -31.641,16.679 z"
             id="path92"
             style="fill:none;stroke:#000000;stroke-width:8;stroke-linecap:butt;stroke-linejoin:round;stroke-miterlimit:8;stroke-opacity:1;stroke-dasharray:none" /><path
             d="m 583.949,396.781 c 0,0 -85,17.348 -78.008,106.68 -5.98,-23.981 -36.332,-82.652 44.368,-150"
             id="path94"
             style="fill:#cc6b74;fill-opacity:1;fill-rule:nonzero;stroke:none" /><path
             d="m 583.949,396.785 c 0,0 -85,17.34 -78.008,106.68 -5.98,-23.992 -36.332,-82.66 44.368,-150"
             id="path96"
             style="fill:none;stroke:#000000;stroke-width:8;stroke-linecap:butt;stroke-linejoin:round;stroke-miterlimit:8;stroke-opacity:1;stroke-dasharray:none" /><path
             d="m 676.289,425.73 c 0,0 53.672,-21.019 108.16,15.508 -8.359,-26.41 -32.687,-53.597 -116.75,-58.008 -3.008,26.25 8.59,42.5 8.59,42.5"
             id="path98"
             style="fill:#cc6b74;fill-opacity:1;fill-rule:nonzero;stroke:none" /><path
             d="m 676.289,425.723 c 0,0 53.672,-21.008 108.16,15.511 -8.359,-26.402 -32.687,-53.589 -116.75,-58.011 -3.008,26.25 8.59,42.5 8.59,42.5 z"
             id="path100"
             style="fill:none;stroke:#000000;stroke-width:8;stroke-linecap:butt;stroke-linejoin:round;stroke-miterlimit:8;stroke-opacity:1;stroke-dasharray:none" /><path
             d="m 684.301,347.129 c 0,0 0.66,68.012 8.629,82.66 8.011,14.691 -41.989,14.691 -41.989,14.691 l -73.32,0 c 0,0 -54.652,-42.66 23.32,-78.011 78.008,-35.348 83.36,-19.34 83.36,-19.34"
             id="path102"
             style="fill:#b9b97d;fill-opacity:1;fill-rule:nonzero;stroke:none" /><path
             d="m 684.301,347.133 c 0,0 0.66,68.012 8.629,82.66 8.011,14.68 -41.989,14.68 -41.989,14.68 l -73.32,0 c 0,0 -54.652,-42.649 23.32,-78 78.008,-35.36 83.36,-19.34 83.36,-19.34 z"
             id="path104"
             style="fill:none;stroke:#000000;stroke-width:8;stroke-linecap:butt;stroke-linejoin:miter;stroke-miterlimit:4;stroke-opacity:1;stroke-dasharray:none" /><path
             d="m 720.941,311.82 c 0,-37.929 -50.429,-68.672 -112.66,-68.672 -62.23,0 -112.66,30.743 -112.66,68.672 0,37.891 50.43,68.629 112.66,68.629 62.231,0 112.66,-30.738 112.66,-68.629"
             id="path106"
             style="fill:#b0d6af;fill-opacity:1;fill-rule:nonzero;stroke:none" /><path
             d="m 720.941,311.824 c 0,-37.929 -50.429,-68.672 -112.66,-68.672 -62.23,0 -112.652,30.743 -112.652,68.672 0,37.891 50.422,68.629 112.652,68.629 62.231,0 112.66,-30.738 112.66,-68.629 z"
             id="path108"
             style="fill:none;stroke:#000000;stroke-width:8;stroke-linecap:butt;stroke-linejoin:miter;stroke-miterlimit:4;stroke-opacity:1;stroke-dasharray:none" /><path
             d="m 551.449,314.199 c -0.199,6.531 20.5,37 108.781,0 -49.289,-19.719 -108.511,-6.988 -108.781,0"
             id="path110"
             style="fill:#cc6b74;fill-opacity:1;fill-rule:nonzero;stroke:none" /><path
             d="m 551.449,314.203 c -0.199,6.52 20.5,36.992 108.781,0 -49.289,-19.73 -108.511,-6.988 -108.781,0 z"
             id="path112"
             style="fill:none;stroke:#000000;stroke-width:8;stroke-linecap:butt;stroke-linejoin:round;stroke-miterlimit:8;stroke-opacity:1;stroke-dasharray:none" /><path
             d="m 150.941,411.469 c 0,0 -97.9722,61.332 -107.9722,56.679 -10,-4.687 -10.3477,-19.019 -9.0196,-27.027 1.3203,-7.973 87.6528,-58.992 111.6718,-65.98"
             id="path114"
             style="fill:#cc6b74;fill-opacity:1;fill-rule:nonzero;stroke:none" /><path
             d="m 150.941,411.473 c 0,0 -97.9722,61.32 -107.9722,56.679 -10,-4.687 -10.3477,-19.027 -9.0196,-27.039 1.3203,-7.961 87.6528,-58.98 111.6798,-65.968"
             id="path116"
             style="fill:none;stroke:#000000;stroke-width:8;stroke-linecap:butt;stroke-linejoin:round;stroke-miterlimit:8;stroke-opacity:1;stroke-dasharray:none" /><path
             d="m 142.301,340.809 c 0,0 -21.36,71.011 -8,106.679 13.32,35.66 72.34,21.641 72.34,21.641 l 46.988,-19.34 c 0,0 24.34,-95 -27.649,-128.32 -52.031,-33.36 -83.679,19.34 -83.679,19.34"
             id="path118"
             style="fill:#b9b97d;fill-opacity:1;fill-rule:nonzero;stroke:none" /><path
             d="m 142.301,340.805 c 0,0 -21.36,71.019 -8,106.679 13.32,35.668 72.34,21.641 72.34,21.641 l 46.988,-19.332 c 0,0 24.34,-95 -27.649,-128.32 -52.031,-33.36 -83.679,19.332 -83.679,19.332 z"
             id="path120"
             style="fill:none;stroke:#000000;stroke-width:8;stroke-linecap:butt;stroke-linejoin:miter;stroke-miterlimit:4;stroke-opacity:1;stroke-dasharray:none" /><path
             d="m 325.941,298.809 c 0,-37.93 -50.429,-68.668 -112.66,-68.668 -62.23,0 -112.66,30.738 -112.66,68.668 0,37.929 50.43,68.679 112.66,68.679 62.231,0 112.66,-30.75 112.66,-68.679"
             id="path122"
             style="fill:#b0d6af;fill-opacity:1;fill-rule:nonzero;stroke:none" /><path
             d="m 325.941,298.812 c 0,-37.929 -50.429,-68.667 -112.66,-68.667 -62.23,0 -112.652,30.738 -112.652,68.667 0,37.93 50.422,68.672 112.652,68.672 62.231,0 112.66,-30.742 112.66,-68.672 z"
             id="path124"
             style="fill:none;stroke:#000000;stroke-width:8;stroke-linecap:butt;stroke-linejoin:miter;stroke-miterlimit:4;stroke-opacity:1;stroke-dasharray:none" /><path
             d="M 258.121,317.289 143.629,297.488 257.621,277.641 c 0,0 15.5,23.668 0.5,39.648"
             id="path126"
             style="fill:#cc6b74;fill-opacity:1;fill-rule:nonzero;stroke:none" /><path
             d="m 258.129,317.293 -114.5,-19.809 113.992,-19.839 c 0,0 15.508,23.667 0.508,39.648 z"
             id="path128"
             style="fill:none;stroke:#000000;stroke-width:8;stroke-linecap:butt;stroke-linejoin:round;stroke-miterlimit:8;stroke-opacity:1;stroke-dasharray:none" /><path
             d="m 607.621,476.469 c -14.691,0 -44.34,-4.34 -49.34,-34.649 -5,-30.351 -1.011,-30.351 10.348,-23.672 11.332,6.641 28.992,15.981 55.672,15.981 26.64,0 40.66,-2.578 51.988,-15.32 11.332,-12.731 32.109,-10.469 36.332,3.011 4.219,13.442 -8.012,32.66 -37,38.321 -29.019,5.668 -68,16.328 -68,16.328"
             id="path130"
             style="fill:#cc6b74;fill-opacity:1;fill-rule:nonzero;stroke:none" /><path
             d="m 607.621,476.473 c -14.691,0 -44.34,-4.34 -49.34,-34.649 -5,-30.351 -1.011,-30.351 10.348,-23.672 11.332,6.641 28.992,15.973 55.672,15.973 26.64,0 40.66,-2.582 51.988,-15.313 11.332,-12.73 32.109,-10.468 36.332,3.012 4.219,13.43 -8.012,32.649 -36.992,38.321 -29.027,5.66 -68.008,16.328 -68.008,16.328 z"
             id="path132"
             style="fill:none;stroke:#000000;stroke-width:8;stroke-linecap:butt;stroke-linejoin:round;stroke-miterlimit:8;stroke-opacity:1;stroke-dasharray:none" /><path
             d="m 182.969,450.219 c 11.992,0 41.992,-5 53.75,-10.231 11.761,-5.277 26.992,-5.789 26.992,9.211 0,15 -37.5,28.012 -46.762,28.012 -9.25,0 -73.121,0.898 -83.98,-10 -10.899,-10.859 -21.25,-20.742 -18.52,-26.481 2.742,-5.781 5.512,-20.781 37,-2.5 20.231,10.661 28.512,11.989 31.52,11.989"
             id="path134"
             style="fill:#cc6b74;fill-opacity:1;fill-rule:nonzero;stroke:none" /><path
             d="m 182.969,450.223 c 11.992,0 41.992,-5 53.75,-10.239 11.761,-5.269 26.992,-5.781 26.992,9.219 0,15 -37.5,28.012 -46.762,28.012 -9.25,0 -73.121,0.898 -83.98,-10 -10.899,-10.86 -21.25,-20.742 -18.52,-26.492 2.742,-5.778 5.512,-20.778 37,-2.5 20.231,10.672 28.512,12 31.52,12 z"
             id="path136"
             style="fill:none;stroke:#000000;stroke-width:8;stroke-linecap:butt;stroke-linejoin:round;stroke-miterlimit:8;stroke-opacity:1;stroke-dasharray:none" /><path
             d="m 357.461,263.738 c 0,0 -70.231,-40.508 -85.231,-43.519 34.489,-6.52 53.75,-5.739 95.739,21.48"
             id="path138"
             style="fill:#cc6b74;fill-opacity:1;fill-rule:nonzero;stroke:none" /><path
             d="m 357.461,263.734 c 0,0 -70.231,-40.511 -85.231,-43.511 34.489,-6.528 53.75,-5.75 95.739,21.48"
             id="path140"
             style="fill:none;stroke:#000000;stroke-width:8;stroke-linecap:butt;stroke-linejoin:round;stroke-miterlimit:8;stroke-opacity:1;stroke-dasharray:none" /><path
             d="m 423.949,189.949 c 0,0 71.672,48.711 71.672,121.832 0,73.168 -59.68,97.188 -77.18,97.188 -17.5,0 -93.48,-29.489 -93.48,-111.02 0,-40 60,-124.719 84.73,-124.719 24.758,0 14.258,16.719 14.258,16.719"
             id="path142"
             style="fill:#b9b97d;fill-opacity:1;fill-rule:nonzero;stroke:none" /><path
             d="m 423.949,189.945 c 0,0 71.68,48.707 71.68,121.84 0,73.16 -59.688,97.188 -77.188,97.188 -17.5,0 -93.48,-29.5 -93.48,-111.02 0,-40 60,-124.73 84.73,-124.73 24.758,0 14.258,16.722 14.258,16.722 z"
             id="path144"
             style="fill:none;stroke:#000000;stroke-width:8;stroke-linecap:butt;stroke-linejoin:miter;stroke-miterlimit:4;stroke-opacity:1;stroke-dasharray:none" /><path
             d="m 448.629,290.691 c 0,0 -13.899,68.481 -31.52,91.797 -6.488,-22.226 -1.64,-95.508 -1.64,-95.508 0,0 21.371,-10.39 33.16,3.711"
             id="path146"
             style="fill:#cc6b74;fill-opacity:1;fill-rule:nonzero;stroke:none" /><path
             d="m 448.629,290.684 c 0,0 -13.899,68.48 -31.52,91.8 -6.48,-22.23 -1.64,-95.511 -1.64,-95.511 0,0 21.371,-10.391 33.16,3.711 z"
             id="path148"
             style="fill:none;stroke:#000000;stroke-width:8;stroke-linecap:butt;stroke-linejoin:round;stroke-miterlimit:8;stroke-opacity:1;stroke-dasharray:none" /><path
             d="m 493.012,78.7695 c 0.617,-2.2187 1.168,-4.4883 1.949,-6.5976 1.25,-3.3633 2.617,-6.793 4.73,-9.7227 3.938,-5.4297 11.168,-8.0898 17.61,-8.8711 9.5,-1.207 17.859,1.7227 22.929,10.043 3.641,5.8984 6.961,12.8906 5.75,19.957 -1.14,6.8008 -6.332,11.211 -12,14.4922 -3,1.7188 -6.128,3.3597 -9.25,4.8087 -6.718,3.16 -14.531,8 -17,15.5 -1.21,3.641 -2.691,7.312 -4.14,10.82 -0.66,1.61 -2.301,1.492 -3.82,1.531 -3.52,0.149 -6.02,-0.781 -8.442,-3.281 -4.098,-4.179 -5.469,-9.847 -4.957,-15.59 0.469,-5.429 0.109,-10.82 -0.59,-16.2106 -0.23,-1.8789 -1.25,-4.1796 -0.312,-5.9765 1.011,-1.9531 3.59,-2.543 4.84,-4.3711 1.293,-2.0313 2.031,-4.2617 2.703,-6.5313"
             id="path150"
             style="fill:#f7be87;fill-opacity:1;fill-rule:nonzero;stroke:none" /><path
             d="m 493.012,78.7734 c 0.617,-2.2304 1.168,-4.4882 1.949,-6.5976 1.25,-3.3633 2.617,-6.8008 4.73,-9.7305 3.938,-5.4297 11.168,-8.082 17.61,-8.8633 9.5,-1.2187 17.859,1.711 22.929,10.0313 3.641,5.9023 6.961,12.8906 5.75,19.9687 -1.14,6.793 -6.332,11.211 -12,14.4922 -3,1.7188 -6.128,3.3598 -9.25,4.8008 -6.718,3.168 -14.531,8.008 -17,15.508 -1.21,3.633 -2.691,7.301 -4.14,10.82 -0.66,1.602 -2.301,1.481 -3.82,1.52 -3.52,0.16 -6.02,-0.778 -8.442,-3.278 -4.098,-4.179 -5.469,-9.84 -4.957,-15.582 0.469,-5.429 0.109,-10.82 -0.59,-16.2107 -0.23,-1.8789 -1.25,-4.1796 -0.312,-5.9765 1.011,-1.9531 3.59,-2.543 4.84,-4.3828 1.293,-2.0274 2.031,-4.25 2.703,-6.5196 z"
             id="path152"
             style="fill:none;stroke:#000000;stroke-width:8;stroke-linecap:butt;stroke-linejoin:miter;stroke-miterlimit:4;stroke-opacity:1;stroke-dasharray:none" /><path
             d="m 385.469,21.9805 c 0,0 -48.52,5 -50.508,35 -13.512,-24.1797 -27.66,-39.8516 -37.66,-38.5196 -10,1.3282 -42.18,39.6485 24.148,81.9881 -31.488,-8.5076 -37,-17.1404 -41.179,-3.9802 -4.141,13.1602 -10.661,44.4922 39.531,30.5112 0,0 -37.18,6.68 -30.5,36.481 6.64,29.848 48.668,29.18 61.64,10 0,0 19.528,31.758 71.52,32.269 51.988,0.469 60.508,-12.269 67.23,-23.519 6.758,-11.25 -21.761,-79.762 -21.761,-79.762"
             id="path154"
             style="fill:#f7be87;fill-opacity:1;fill-rule:nonzero;stroke:none" /><path
             d="m 385.469,21.9727 c 0,0 -48.52,5 -50.508,35 -13.512,-24.1797 -27.66,-39.8399 -37.66,-38.5079 -10,1.3282 -42.18,39.6485 24.148,81.9882 -31.488,-8.5194 -37,-17.1483 -41.179,-3.9803 -4.141,13.1603 -10.661,44.4923 39.531,30.5003 0,0 -37.18,6.679 -30.5,36.492 6.64,29.84 48.668,29.18 61.64,10 0,0 19.528,31.758 71.52,32.258 51.988,0.472 60.508,-12.258 67.23,-23.508 6.758,-11.25 -21.761,-79.77 -21.761,-79.77 L 385.469,21.9727 z"
             id="path156"
             style="fill:none;stroke:#000000;stroke-width:8;stroke-linecap:butt;stroke-linejoin:round;stroke-miterlimit:4;stroke-opacity:1;stroke-dasharray:none" /><path
             d="m 497.461,135.449 c 0,0 35.508,20.281 35,36.531 -0.512,16.25 -21.52,26.989 -30.742,26.989 -9.258,0 -100.27,-41.481 -100.778,-85.981 -0.472,-44.5271 -6.992,-46.0075 -18.48,-59.5271 -11.52,-13.5117 -36.012,-47.49996 7.5,-45.51168 43.519,2 73.519,67.49998 70.508,69.99998 -3.008,2.5 36.992,57.4998 36.992,57.4998"
             id="path158"
             style="fill:#f7be87;fill-opacity:1;fill-rule:nonzero;stroke:none" /><path
             d="m 497.461,135.453 c 0,0 35.508,20.27 35,36.52 -0.512,16.25 -21.52,27 -30.742,27 -9.258,0 -100.27,-41.489 -100.778,-85.981 -0.472,-44.5272 -6.992,-46.0193 -18.48,-59.5272 -11.52,-13.5195 -36.012,-47.49996 7.5,-45.51168 43.519,1.99219 73.519,67.49998 70.508,69.99998 -3.008,2.5 36.992,57.4999 36.992,57.4999 z"
             id="path160"
             style="fill:none;stroke:#000000;stroke-width:8;stroke-linecap:butt;stroke-linejoin:miter;stroke-miterlimit:4;stroke-opacity:1;stroke-dasharray:none" /><path
             d="m 508.281,156.82 c -80.82,-2.34 -77.34,-83.0114 -89.332,-99.9997 -12,-17.0312 -30.32,-47.33983 -10.668,-52.03124 0,0 78.168,-12.80859 80,66.01954 1.02,20.3125 15,21.0117 16.02,33.0004 0.969,12 15,3.992 21.64,3.992 6.68,0 44.02,30 -17.66,49.019"
             id="path162"
             style="fill:#f7be87;fill-opacity:1;fill-rule:nonzero;stroke:none" /><path
             d="m 508.281,156.824 c -80.82,-2.351 -77.34,-83.0115 -89.332,-99.9998 -12,-17.0312 -30.32,-47.35154 -10.668,-52.03123 0,0 78.168,-12.82031 80,66.01173 1.02,20.3086 15,21.0195 16.02,33.0073 0.969,11.993 15,3.981 21.64,3.981 6.68,0 44.02,30 -17.66,49.031 z"
             id="path164"
             style="fill:none;stroke:#000000;stroke-width:8;stroke-linecap:butt;stroke-linejoin:miter;stroke-miterlimit:4;stroke-opacity:1;stroke-dasharray:none" /><path
             d="m 334.961,56.9727 c 0,0 36.328,23.832 38.32,50.8203 1.989,27 11.989,56.332 36.328,75"
             id="path166"
             style="fill:none;stroke:#000000;stroke-width:8;stroke-linecap:round;stroke-linejoin:round;stroke-miterlimit:4;stroke-opacity:1;stroke-dasharray:none" /></g></g></g></g></svg>