<?xml version="1.0" encoding="UTF-8" standalone="no"?>
<!-- Created with Inkscape (http://www.inkscape.org/) -->
<svg
   xmlns:svg="http://www.w3.org/2000/svg"
   xmlns="http://www.w3.org/2000/svg"
   version="1.0"
   width="241"
   height="220"
   id="svg2">
  <defs
     id="defs5" />
  <path
     d="M 121.92917,205.63583 C 118.18453,197.63002 106.45421,200.36799 98.163782,196.37781 L 119.38081,182.61919 C 114.29725,177.47321 97.57238,175.43111 89.342076,174.28342 C 72.878973,171.9877 68.130477,169.08486 54.06594,161.4491 C 44.530019,156.27196 45.107597,155.16689 58.5,152.99489 C 67.821336,151.48313 78.502793,146.00824 79.463152,142.25 C 80.667613,131.37091 69.698717,122.88641 61.647649,117.5 C 50.947789,110.72538 38.551809,107.54564 29.75,98.021714 C 28.2375,95.711054 26.176913,89.715579 26.176913,89.225416 C 26.176913,88.158601 22.392155,87.176258 14.691535,86.519429 C -4.1984346,88.956342 7.8907519,92.991568 8.6899167,79.05881 C 8.1204398,72.191667 11.680722,66.847413 17.730549,60.831491 C 27.767903,49.727383 41.92805,51.469987 54.845701,47.349283 C 71.080394,42.581455 94.444375,41.260616 106.2403,43.738951 C 119.48586,44.009731 138.85548,62.749299 150.26187,61.074074 C 158.51022,50.77395 160.1356,43.027785 169.87302,32.233546 C 175.07928,26.248761 208.07471,3.9010493 212.27008,9.0706812 C 217.03487,17.576803 215.90584,31.648793 213.10788,40.733797 C 218.36293,41.969672 225.59443,39.235039 229.93212,37.584962 C 231.65367,45.380672 226.88801,64.123211 223.96783,70.111529 C 217.58376,85.26112 206.13971,90.193332 198.49359,100.97514 C 201.9878,117.04494 201.17956,142.1783 198.25135,158.08201 C 195.81771,169.85808 197.36942,181.24135 191.76781,192.05237 C 186.03747,201.70916 158.39338,212.63341 146.87302,212.49528 C 136.42454,210.982 129.84828,210.42198 120.05772,213.92581 C 117.38498,211.76904 125.24428,206.53317 121.92917,205.63583 z M 175.4818,76.423638 C 175.81259,76.025059 146.59073,98.772994 150.6267,104.39851 C 153.92453,108.99518 178.82024,96.684308 193.94765,84.514908 C 204.24464,76.231384 224.88264,54.954567 221.15925,50.240432 C 211.98654,49.0231 166.38061,85.365833 175.4818,76.423638 z "
     style="fill:#d7c7a9"
     id="path1879" />
  <path
     d="M 153.09423,103.53315 L 174.08296,99.417715 L 209.88725,70.609661 L 220.99893,50.444023 L 202.47947,62.378788 C 185.74707,75.014292 168.78278,86.722252 153.09423,103.53315 z "
     style="fill:#f9d3c2;fill-opacity:1;fill-rule:evenodd;stroke:black;stroke-width:0;stroke-linecap:butt;stroke-linejoin:miter;stroke-miterlimit:4;stroke-dasharray:none;stroke-opacity:1"
     id="path1874" />
  <path
     d="M 133.5,213.51807 C 126.78875,211.73795 120.02195,213.91984 113.19378,213.65722 C 108.96594,213.34392 107.3293,212.62679 104.021,209.63794 C 98.767929,203.89328 90.799085,207.154 84.2,204.8 C 82.476333,203.07633 82.772904,198.3312 85,192 C 86.06409,188.975 86.949399,185.2625 86.967354,183.75 L 87,181 L 77.75,180.908 C 40.77097,180.54023 35.556448,179.34511 24.725069,168.75521 C 15.780556,163.80104 15.105172,153.78914 14.5,146 C 8.5810391,140.6579 38.29931,142.61101 44.765614,140.54684 C 50.18942,138.535 50.802167,137.40297 47.440481,135.60509 C 46.373216,135.0343 43.144423,133.08965 40.265384,131.28364 C 34.341144,127.5674 32.924894,127.15454 35.370241,129.85662 C 36.846539,131.48791 36.870665,131.86245 35.569033,132.94271 C 34.75425,133.61892 33.556151,133.84372 32.90659,133.44227 C 32.221465,133.01884 31.018623,133.64958 30.041908,134.94444 C 28.45037,137.05439 28.170612,137.09667 24.929122,135.71714 C 20.019803,133.62781 17.464253,130.34989 15.404324,123.5 C 12.683447,114.45226 8,110.69867 8,117.56574 C 8,122.19964 9.3489963,124.78101 13.815027,128.69308 C 17.000038,131.48302 17.231965,131.97376 15.652043,132.58003 C 13.159924,133.53634 8.9404223,130.258 6.6024025,125.54891 C 5.403737,123.13463 4.5674901,118.92267 4.3319956,114.11344 C 4.1269504,109.92605 3.7140031,103.575 3.414335,100 C 2.9456274,94.408384 3.2071739,92.867921 5.2858487,88.977115 C 7.2716703,85.260109 7.6184925,83.444664 7.2323405,78.788178 C 6.3418834,68.050437 13.39232,58.164712 26.447103,51.846322 C 35.359662,45.614715 43.829665,47.720929 53.649442,45.850004 C 73.453897,40.785254 95.114031,38.709824 105.07982,40.92205 C 112.74275,42.623082 131.01496,49.400769 140.77188,54.161261 C 145.32141,56.381021 149.59641,57.976749 150.27188,57.707324 C 150.94734,57.4379 152.625,55.053145 154,52.40787 C 158.25453,44.22285 162.20359,38.792238 169.48768,31.109719 C 181.29063,18.661184 186.86718,15.234875 206.42515,8.4148556 C 210.23399,7.086685 213.66219,6 214.04338,6 C 214.42457,6 215.53605,8.8125 216.51335,12.25 C 218.58129,19.523694 218.88418,31.479386 217.08565,34.839968 C 215.34958,38.083845 216.27079,38.528285 221.75147,37.090988 C 235.23339,33.55538 236.33675,34.185294 235.66927,45.036781 C 235.93699,50.625982 233.67012,55.384377 231.98528,60.5 C 229.47234,68.4761 226.09402,74.045621 218.86708,82.12678 C 210.13211,91.89421 206.08804,95.954161 203.02513,98.030932 C 200.89062,99.478215 200.82711,99.860687 201.86277,105.03093 C 204.93726,125.58977 202.82496,136.25179 201.52734,148 C 200.01628,155.75941 199.1415,163.54539 199,171.45254 C 199.22385,183.00642 194.04205,199.59617 180.5951,203 C 178.41424,203 168.31361,207.78273 162.63085,211.50622 C 154.08582,215.46723 142.79626,215.0185 133.5,213.51807 z M 135.41899,209.74141 C 137.11355,210.30294 142.02928,210.62321 146.34284,210.45312 C 154.62416,210.12657 160.56905,207.92275 169.58802,201.83591 C 171.8761,200.29171 176.39233,198.03517 179.62408,196.82139 C 192.5934,191.95036 193.50399,190.1104 194.52625,166.70958 C 193.73617,151.42488 199.46959,137.29567 198.16625,122.19509 C 197.00903,110.1901 196.12251,103.78918 195.53582,103.20248 C 195.31842,102.98509 193.03029,104.25911 190.45109,106.03365 C 185.3102,109.57068 164.42836,116.31035 160.1836,115.80257 C 155.59795,115.25402 156.82694,113.30726 163.21204,111.00544 C 172.60814,107.61815 184.87257,101.39669 190.40513,97.211002 C 196.42736,92.654856 198.55634,91.15876 203.2974,88.151224 C 208.32679,84.643217 211.32047,78.957031 215.28134,74.246152 C 224.53669,63.378123 230.34844,50.922023 229.26861,44.267802 C 228.96141,42.374797 228.11072,40.595983 227.37818,40.314881 C 226.19315,39.860141 217.19663,43.714386 206.86385,49.103534 C 204.86396,50.14659 202.70824,51 202.07335,51 C 189.33139,58.820314 174.8821,65.886398 167.25,74.098598 C 160.22823,81.654075 151.87576,88.415052 146,97.385262 C 146,98.871458 142.84417,102 141.34501,102 C 136.83651,102 144.70134,85.1674 153.17872,76.673077 C 154.73042,75.118269 156,72.780324 156,71.477643 C 153.41986,64.708068 127.44461,53.160557 121.5,51.445693 C 111.43265,49.449072 101.82969,45.990677 91.5,45.564695 C 51.040693,52.550822 45.074441,49.128683 28.39897,56.439052 C 21.874333,59.421543 19.405335,61.22 15.565141,65.787418 C 11.350678,70.799982 12.386451,71.971742 11.371328,74.971418 C 8.3528688,83.890929 12.956914,83.929782 18.440754,83 C 22.534702,82.305873 26.655185,82.435732 23.186011,73.882843 C 21.702869,70.22631 23.778026,69.467964 26.225729,69.18592 C 28.404067,68.934914 29.357229,69.537386 30.971991,72.18592 C 33.74287,76.730718 33.557606,81.71514 30.447696,86.291784 L 27.895392,90.047836 L 18.590853,89.562016 C 9.5527906,89.090109 9.2553501,89.144152 8.2051799,91.449024 C 6.248836,95.742731 5.6935245,100.92579 7.0187603,102.5226 C 13.059175,107.69708 21.589403,107.74307 27.597143,112.91039 C 29.253917,114.5302 34.396999,119.27941 39.026214,123.4642 C 48.505197,132.03316 54.742915,134.71828 62.651869,133.63424 C 73.652337,134.78319 52.908218,141.24602 48.92203,142.95159 C 47.003834,144.45462 32.26585,147.06393 26.818261,147.65905 C 23.779767,147.99098 20.964165,148.91352 20.25,149.81115 C 17.054845,153.8271 19.96067,161.04021 27.215645,167.10192 C 37.340739,175.56168 42.687402,176.73312 74.5,177.4618 C 88.8,177.78934 101.175,178.09695 102,178.14537 C 107.39223,178.46185 127.27859,176.8424 131.02996,175.78131 C 136.43176,174.2534 145.26432,168.77189 147.27842,165.69747 C 149.5298,162.26087 153.98924,148.16508 154.09968,144.13623 C 154.2473,138.75123 155.37695,135.55109 157.25812,135.18881 C 161.4255,140.31564 157.00714,156.4625 157.51612,160.67632 C 156.3519,168.30008 149.61284,170.80074 145.29969,175.30602 C 143.94116,177.52469 135.88272,181.12811 129.03116,182.58065 C 120.33091,184.42512 110.79521,184.35354 100.95044,182.36986 C 96.348616,181.44262 92.525686,181.11923 92.084302,181.61986 C 91.254233,182.56136 88.111839,192.75497 87.293404,197.16106 C 86.912885,199.2096 87.340131,200.12642 89.149554,201.14414 C 94.594646,205.10028 101.98192,203.41951 107.39192,207.09365 C 111.34014,210.19931 114.27839,210.65637 123.76087,209.63988 C 129.39513,209.0359 133.39509,209.07074 135.41899,209.74141 z M 150.07949,107.11836 C 148.19821,106.77826 146.49381,105.99929 146.29193,105.38732 C 145.49735,102.97862 163.2421,83.611359 175.11767,73.925852 C 179.82868,70.083636 192.60182,61.351197 197.5,58.624021 C 199.15,57.705346 202.75,55.608377 205.5,53.96409 C 212.10147,50.016922 220.6903,46 222.52851,46 C 224.34313,46 224.35053,47.094108 222.58088,53.741514 C 221.81342,56.624347 219.79376,60.875498 218.09275,63.188517 C 216.39174,65.501535 215,67.684824 215,68.04027 C 215,69.690541 197.51924,87.787033 190.23076,93.681964 C 184.46414,98.346014 176.26206,102.51818 170,103.97278 C 166.975,104.67545 162.50734,105.86903 160.07186,106.62518 C 155.385,108.08033 155.39734,108.07972 150.07949,107.11836 z M 165.95629,99.019185 C 173.59978,95.664434 185.0983,88.198291 195.92334,79.56117 C 203.63237,73.410255 218.29676,56.964259 218.81955,53.883251 C 219.28475,51.141609 216.22724,51.481245 211.0168,54.75 C 189.05577,68.527197 171.66897,81.322794 161.75,91.007282 C 148.95345,103.50133 150.22516,105.92362 165.95629,99.019185 z M 30.435128,128.25 C 29.58722,122.39102 28.795362,121.34892 24.717833,120.72588 C 18.209074,119.73136 17.127141,124.06047 22.533333,129.46667 C 24.714161,131.64749 27.034323,133 28.594606,133 C 31.040207,133 31.100156,132.84528 30.435128,128.25 z M 172,61.516478 C 175.58034,58.251505 189.1564,50.101812 198.5,45.608551 C 202.9,43.492628 207.27168,41.084669 208.21485,40.257531 C 212.23118,36.735297 214.09047,20.572878 211.1049,15.134866 C 209.33209,11.905822 205.76633,12.590635 194.08709,18.403167 C 175.86751,27.470707 164.55988,39.329159 153.55583,59.915689 C 156.08498,62.996447 158.52614,66.179734 161.11045,68.981974 C 165.07861,67.103794 168.68029,64.381044 172,61.516478 z "
     style="fill:#2a2621;fill-opacity:1"
     id="path1875" />
  <path
     d="M 94.285715,79.444443 C 94.285715,86.998179 87.77134,93.121692 79.73545,93.121692 C 71.699561,93.121692 65.185186,86.998179 65.185186,79.444443 C 65.185186,71.890707 71.699561,65.767194 79.73545,65.767194 C 87.77134,65.767194 94.285715,71.890707 94.285715,79.444443 z "
     transform="translate(2.328047,1.164024)"
     style="opacity:1;fill:#eacc6a;fill-opacity:1;stroke:black;stroke-width:4;stroke-miterlimit:4;stroke-dasharray:none;stroke-opacity:1"
     id="path1887" />
  <path
     d="M 87.301587,80.899467 C 87.302566,83.471567 84.957105,85.557127 82.063492,85.557127 C 79.169879,85.557127 76.824418,83.471567 76.825397,80.899467 C 76.824418,78.327367 79.169879,76.241807 82.063492,76.241807 C 84.957105,76.241807 87.302566,78.327367 87.301587,80.899467 z "
     style="opacity:1;fill:#cf8864;fill-opacity:1;stroke:black;stroke-width:4;stroke-miterlimit:4;stroke-dasharray:none;stroke-opacity:1"
     id="path1889" />
  <path
     d="M 26.666573,87.072626 C 25.831203,81.422705 24.590415,76.213116 23.721214,70.352671 C 25.420261,69.674588 27.186484,69.33239 29.426839,71.360849 C 31.460924,74.436032 32.769622,79.138554 30.59086,82.39586 C 30.531691,84.267014 28.911127,85.747818 26.666573,87.072626 z "
     style="fill:#86584e;fill-opacity:1;fill-rule:evenodd;stroke:black;stroke-width:1px;stroke-linecap:butt;stroke-linejoin:miter;stroke-opacity:1"
     id="path2795" />
</svg>
